<?xml version="1.0" encoding="utf-8"?>
<!-- Generator: Adobe Illustrator 22.1.0, SVG Export Plug-In . SVG Version: 6.00 Build 0)  -->
<svg version="1.1" id="Capa_1" xmlns="http://www.w3.org/2000/svg" xmlns:xlink="http://www.w3.org/1999/xlink" x="0px" y="0px"
	 viewBox="0 0 340.2 340.2" style="enable-background:new 0 0 340.2 340.2;" xml:space="preserve">
<style type="text/css">
	.st0{fill:#FFFFFF;}
	.st1{fill:#FBC329;}
</style>
<g>
	<path class="st0" d="M267.7,188.8c-0.9,0-1.7,0.8-1.7,1.7c0,0.9,0.8,1.7,1.7,1.7c0.9,0,1.7-0.8,1.7-1.7
		C269.4,189.5,268.7,188.8,267.7,188.8z M267.7,191.9c-0.8,0-1.5-0.7-1.5-1.5c0-0.8,0.7-1.5,1.5-1.5c0.8,0,1.5,0.7,1.5,1.5
		C269.2,191.3,268.5,191.9,267.7,191.9z"/>
	<g>
		<path class="st0" d="M143.7,172.3v-5h6.2v5H143.7z M149.9,191.9h-6.2v-17.4h6.2V191.9z"/>
		<path class="st0" d="M158.9,191.9h-6.2v-17.5h5.7v2.7c0.7-1.1,1.5-2,2.4-2.5c0.8-0.5,1.8-0.7,2.9-0.7c1.9,0,3.4,0.6,4.5,1.8
			c1.1,1.2,1.6,3,1.6,5.3v10.9h-6.3v-9.6c0-1-0.2-1.8-0.6-2.2c-0.4-0.5-0.9-0.7-1.7-0.7c-0.7,0-1.3,0.3-1.7,0.8
			c-0.4,0.5-0.6,1.4-0.6,2.6V191.9z"/>
		<path class="st0" d="M178.8,178.9c0.5-0.5,1.1-0.8,1.9-0.8c0.9,0,1.6,0.3,2.1,0.8c0.5,0.5,0.8,1.3,0.8,2.2h-5.6
			C178,180.2,178.3,179.5,178.8,178.9z M189.4,181.2c-0.4-1.5-1-2.8-1.8-4c-0.8-1.1-1.9-2-3.1-2.5c-1.2-0.5-2.5-0.8-3.9-0.8
			c-2.7,0-4.8,0.9-6.4,2.7c-1.6,1.8-2.4,4.1-2.4,6.8c0,2.6,0.8,4.8,2.4,6.5c1.6,1.7,3.8,2.5,6.7,2.5c1.8,0,3.3-0.3,4.6-1
			c1.3-0.7,2.3-1.5,3-2.6c0.4-0.6,0.7-1.4,0.9-2.2h-5.9c-0.4,0.9-1.2,1.4-2.3,1.4c-1,0-1.7-0.3-2.3-0.9c-0.5-0.6-0.8-1.4-0.9-2.4
			h11.8C189.7,183.4,189.6,182.2,189.4,181.2z"/>
		<path class="st0" d="M202.5,180.1c0.5,0.7,0.7,1.7,0.7,3c0,0.9-0.1,1.6-0.3,2.2c-0.2,0.6-0.5,1.1-0.9,1.4
			c-0.4,0.3-0.9,0.4-1.4,0.4c-0.8,0-1.4-0.3-1.9-1c-0.5-0.7-0.7-1.7-0.7-3.2c0-1.3,0.3-2.2,0.8-2.9c0.5-0.7,1.1-1,1.9-1
			C201.4,179.1,202,179.4,202.5,180.1z M198.1,190.2c0.5,0.6,0.8,1.1,1.2,1.3c0.3,0.3,0.7,0.5,1.2,0.7c0.5,0.2,1.1,0.3,1.8,0.3
			c2,0,3.7-0.8,5.1-2.5c1.4-1.7,2-3.9,2-6.8c0-1.7-0.3-3.3-0.8-4.8c-0.6-1.4-1.4-2.5-2.5-3.3c-1.1-0.8-2.3-1.1-3.6-1.1
			c-1.2,0-2.3,0.3-3.2,0.9c-0.9,0.6-1.5,1.3-1.9,2.2v-2.6h-5.6v24.2h6.2V190.2z"/>
		<path class="st0" d="M218.8,187.3c-0.4-0.3-0.8-0.8-1-1.4c-0.2-0.7-0.4-1.5-0.4-2.6c0-1.7,0.3-2.9,0.8-3.6
			c0.5-0.7,1.1-1.1,1.9-1.1c0.7,0,1.3,0.3,1.8,0.9c0.6,0.8,0.9,2,0.9,3.6c0,1.1-0.1,2-0.3,2.7c-0.2,0.7-0.5,1.2-1,1.5
			c-0.4,0.3-0.8,0.4-1.3,0.4C219.7,187.8,219.3,187.6,218.8,187.3z M213.6,176.5c-1.6,1.7-2.4,4-2.4,6.8c0,2.1,0.4,3.8,1.3,5.2
			c0.8,1.4,2,2.4,3.3,3c1.4,0.6,2.8,0.9,4.3,0.9c1.8,0,3.4-0.4,4.8-1.2c1.4-0.8,2.4-1.9,3.1-3.3c0.7-1.4,1-2.9,1-4.7
			c0-2.8-0.8-5.1-2.3-6.8c-1.6-1.7-3.8-2.5-6.6-2.5C217.3,174,215.2,174.8,213.6,176.5z"/>
		<path class="st0" d="M237.5,191.9h-6.2v-24.1h6.2V191.9z"/>
		<path class="st0" d="M240.2,172.3v-5h6.2v5H240.2z M246.5,191.9h-6.2v-17.4h6.2V191.9z"/>
		<path class="st0" d="M248.2,186.5h5.9c0,0.6,0.2,1.2,0.6,1.6c0.4,0.4,0.9,0.6,1.6,0.6c0.6,0,1.1-0.1,1.4-0.4
			c0.3-0.3,0.5-0.7,0.5-1.1c0-0.3-0.1-0.6-0.3-0.8c-0.2-0.2-0.5-0.4-1-0.5l-3.5-0.9c-1.8-0.5-3-1.2-3.8-2c-0.7-0.9-1.1-1.9-1.1-3.1
			c0-1.1,0.3-2.1,0.8-3c0.6-0.8,1.4-1.5,2.5-2c1.1-0.5,2.5-0.7,4.3-0.7c2.6,0,4.5,0.5,5.7,1.6c1.2,1,1.8,2.3,1.9,3.9h-5.7
			c0-0.5-0.2-0.9-0.6-1.2c-0.3-0.3-0.8-0.5-1.3-0.5c-0.6,0-1,0.1-1.3,0.4c-0.2,0.2-0.4,0.5-0.4,0.8c0,0.3,0.1,0.5,0.3,0.7
			c0.2,0.2,0.7,0.4,1.4,0.6l3,0.7c2,0.5,3.3,1.2,4.1,2.1c0.8,0.9,1.1,2,1.1,3.3c0,1-0.2,1.9-0.6,2.7c-0.4,0.8-1,1.4-1.7,1.9
			c-0.7,0.5-1.6,0.9-2.6,1.1c-1,0.2-2,0.3-3.2,0.3c-1.3,0-2.5-0.1-3.6-0.4c-1-0.3-1.9-0.7-2.6-1.3c-0.7-0.6-1.2-1.3-1.5-2.1
			C248.5,188,248.3,187.3,248.2,186.5z"/>
		<path class="st0" d="M178.5,172.3h3.4l4.3-4.1h-5.2L178.5,172.3z"/>
		<path class="st0" d="M133.1,174.8c-0.2-2.3-1.9-3.6-4.7-3.6c-4,0-4.7,4.7-4.7,8.5c0,3.7,0.8,8,4.7,8c2.9,0,4.6-1.3,4.7-3.7h7.3
			c0.1,6.4-5.9,8.6-12,8.6c-7.8,0-12-4.7-12-13.2c0-8.5,4.2-13.1,12-13.2c6.1,0,12.1,2.1,12,8.5H133.1z"/>
		<path class="st0" d="M267.3,189.7h0.4c0.2,0,0.3,0.1,0.3,0.3c0,0.2-0.1,0.3-0.3,0.3h-0.4V189.7z M267.3,190.7h0.5
			c0.2,0,0.2,0.2,0.2,0.3c0,0.2,0,0.4,0.1,0.6h0.5c-0.1-0.1-0.1-0.4-0.1-0.5c0-0.3,0-0.5-0.4-0.5v0c0.3-0.1,0.4-0.2,0.4-0.5
			c0-0.4-0.4-0.6-0.7-0.6h-0.9v2.1h0.4V190.7z"/>
	</g>
	<path class="st1" d="M86.9,156.1l-10.1,0c2.8,5.3,0.5,11.2-0.1,13c-1.7,5.4-2.5,7.7-2.5,7.7h10l0,0c0,0,0.8-2.3,2.5-7.8
		C87.3,167.2,89,161.6,86.9,156.1z M87.3,161.1l0,0.4c0,0.1-0.1,0.1-0.1,0.1l-0.7,0c-0.1,0-0.1-0.1-0.1-0.1l0-0.4
		c0-0.1,0.1-0.1,0.1-0.1l0.7,0C87.2,161,87.3,161,87.3,161.1z M87.2,159.7l0,0.4c0,0.1,0,0.1-0.1,0.1l-0.7,0c-0.1,0-0.1-0.1-0.2-0.1
		l0-0.4c0-0.1,0-0.1,0.1-0.1H87C87.1,159.5,87.2,159.6,87.2,159.7z M86.9,158.2l0.1,0.4c0,0.1,0,0.1-0.1,0.1l-0.7,0
		c-0.1,0-0.1-0.1-0.2-0.1l-0.1-0.4c0-0.1,0-0.1,0.1-0.1l0.7,0C86.8,158.1,86.9,158.1,86.9,158.2z M85.7,156.6l0.7,0
		c0.1,0,0.2,0.1,0.2,0.1l0.1,0.4c0,0.1,0,0.1-0.1,0.1l-0.7,0c-0.1,0-0.2-0.1-0.2-0.1l-0.1-0.4C85.6,156.7,85.6,156.6,85.7,156.6z
		 M79.5,159.6l0.1,0.4c0,0.1,0,0.1-0.1,0.1l-0.7,0c-0.1,0-0.1-0.1-0.2-0.1l-0.1-0.4c0-0.1,0-0.1,0.1-0.1l0.7,0
		C79.4,159.5,79.5,159.5,79.5,159.6z M79.2,158.2l0.1,0.4c0,0.1,0,0.1-0.1,0.1l-0.7,0c-0.1,0-0.2-0.1-0.2-0.1l-0.1-0.4
		c0-0.1,0-0.1,0.1-0.1l0.7,0C79.1,158,79.2,158.1,79.2,158.2z M78.1,157.3c-0.1,0-0.2-0.1-0.2-0.1l-0.2-0.4c0-0.1,0-0.1,0.1-0.1h0.7
		c0.1,0,0.2,0.1,0.2,0.1l0.2,0.4c0,0.1,0,0.1-0.1,0.1L78.1,157.3z M76,176c0,0.1-0.1,0.1-0.2,0.1l-0.7,0c-0.1,0-0.1-0.1-0.1-0.1
		l0.1-0.4c0-0.1,0.1-0.1,0.2-0.1l0.7,0c0.1,0,0.1,0.1,0.1,0.1L76,176z M76.5,174.6c0,0.1-0.1,0.1-0.2,0.1l-0.7,0
		c-0.1,0-0.1-0.1-0.1-0.1l0.1-0.4c0-0.1,0.1-0.1,0.2-0.1l0.7,0c0.1,0,0.1,0.1,0.1,0.1L76.5,174.6z M77,173.1c0,0.1-0.1,0.1-0.2,0.1
		l-0.7,0c-0.1,0-0.1-0.1-0.1-0.1l0.1-0.4c0-0.1,0.1-0.1,0.2-0.1l0.7,0c0.1,0,0.1,0.1,0.1,0.1L77,173.1z M77.4,171.7
		c0,0.1-0.1,0.1-0.2,0.1l-0.7,0c-0.1,0-0.1-0.1-0.1-0.1l0.1-0.4c0-0.1,0.1-0.1,0.2-0.1l0.7,0c0.1,0,0.1,0.1,0.1,0.1L77.4,171.7z
		 M77.9,170.2c0,0.1-0.1,0.1-0.2,0.1H77c-0.1,0-0.1-0.1-0.1-0.1l0.1-0.4c0-0.1,0.1-0.1,0.2-0.1l0.7,0c0.1,0,0.1,0.1,0.1,0.1
		L77.9,170.2z M78.4,168.8c0,0.1-0.1,0.1-0.2,0.1l-0.7,0c-0.1,0-0.1-0.1-0.1-0.1l0.1-0.4c0-0.1,0.1-0.1,0.2-0.1l0.7,0
		c0.1,0,0.1,0.1,0.1,0.1L78.4,168.8z M78.8,167.3c0,0.1-0.1,0.1-0.2,0.1l-0.7,0c-0.1,0-0.1-0.1-0.1-0.1l0.1-0.4
		c0-0.1,0.1-0.1,0.2-0.1l0.7,0c0.1,0,0.1,0.1,0.1,0.1L78.8,167.3z M79.2,165.9c0,0.1-0.1,0.1-0.2,0.1l-0.7,0c-0.1,0-0.1-0.1-0.1-0.1
		l0.1-0.4c0-0.1,0.1-0.1,0.2-0.1l0.7,0c0.1,0,0.1,0.1,0.1,0.1L79.2,165.9z M79.5,164.4c0,0.1-0.1,0.1-0.2,0.1l-0.7,0
		c-0.1,0-0.1-0.1-0.1-0.1l0.1-0.4c0-0.1,0.1-0.1,0.2-0.1l0.7,0c0.1,0,0.1,0.1,0.1,0.1L79.5,164.4z M79.7,163c0,0.1-0.1,0.1-0.1,0.1
		l-0.7,0c-0.1,0-0.1-0.1-0.1-0.1l0-0.4c0-0.1,0.1-0.1,0.1-0.1l0.7,0c0.1,0,0.1,0.1,0.1,0.1L79.7,163z M79.6,161.6l-0.7,0
		c-0.1,0-0.1-0.1-0.1-0.1l0-0.4c0-0.1,0.1-0.1,0.1-0.1h0.7c0.1,0,0.1,0.1,0.1,0.1l0,0.4C79.7,161.6,79.7,161.6,79.6,161.6z
		 M83.8,176.1c0,0.1-0.1,0.1-0.2,0.1l-0.7,0c-0.1,0-0.1-0.1-0.1-0.1l0.1-0.4c0-0.1,0.1-0.1,0.2-0.1l0.7,0c0.1,0,0.1,0.1,0.1,0.1
		L83.8,176.1z M84.3,174.7c0,0.1-0.1,0.1-0.2,0.1l-0.7,0c-0.1,0-0.1-0.1-0.1-0.1l0.1-0.4c0-0.1,0.1-0.1,0.2-0.1l0.7,0
		c0.1,0,0.1,0.1,0.1,0.1L84.3,174.7z M84.7,173.2c0,0.1-0.1,0.1-0.2,0.1l-0.7,0c-0.1,0-0.1-0.1-0.1-0.1l0.1-0.4
		c0-0.1,0.1-0.1,0.2-0.1l0.7,0c0.1,0,0.1,0.1,0.1,0.1L84.7,173.2z M85.2,171.7c0,0.1-0.1,0.1-0.2,0.1l-0.7,0c-0.1,0-0.1-0.1-0.1-0.1
		l0.1-0.4c0-0.1,0.1-0.1,0.2-0.1l0.7,0c0.1,0,0.1,0.1,0.1,0.1L85.2,171.7z M85.7,170.3c0,0.1-0.1,0.1-0.2,0.1l-0.7,0
		c-0.1,0-0.1-0.1-0.1-0.1l0.1-0.4c0-0.1,0.1-0.1,0.2-0.1l0.7,0c0.1,0,0.1,0.1,0.1,0.1L85.7,170.3z M86.2,168.8
		c0,0.1-0.1,0.1-0.2,0.1l-0.7,0c-0.1,0-0.1-0.1-0.1-0.1l0.1-0.4c0-0.1,0.1-0.1,0.2-0.1l0.7,0c0.1,0,0.1,0.1,0.1,0.1L86.2,168.8z
		 M86.6,167.4c0,0.1-0.1,0.1-0.2,0.1l-0.7,0c-0.1,0-0.1-0.1-0.1-0.1l0.1-0.4c0-0.1,0.1-0.1,0.2-0.1l0.7,0c0.1,0,0.1,0.1,0.1,0.1
		L86.6,167.4z M86.9,165.9c0,0.1-0.1,0.1-0.2,0.1h-0.7c-0.1,0-0.1-0.1-0.1-0.1l0.1-0.4c0-0.1,0.1-0.1,0.2-0.1l0.7,0
		c0.1,0,0.1,0.1,0.1,0.1L86.9,165.9z M87.1,164.5c0,0.1-0.1,0.1-0.2,0.1l-0.7,0c-0.1,0-0.1-0.1-0.1-0.1l0.1-0.4
		c0-0.1,0.1-0.1,0.2-0.1l0.7,0c0.1,0,0.1,0.1,0.1,0.1L87.1,164.5z M87.3,163c0,0.1-0.1,0.1-0.1,0.1l-0.7,0c-0.1,0-0.1-0.1-0.1-0.1
		l0-0.4c0-0.1,0.1-0.1,0.1-0.1l0.7,0c0.1,0,0.1,0.1,0.1,0.1L87.3,163z"/>
	<path class="st1" d="M110.9,172.9l-3.1-9.6c-4.2,4.3-10.5,3.9-12.4,3.9c-5.7,0-8.1,0-8.1,0l3.1,9.5l0,0c0,0,2.5,0,8.2,0
		C100.5,176.8,106.3,176.6,110.9,172.9z M106.3,174.9l-0.4,0.1c-0.1,0-0.2,0-0.2-0.1l-0.2-0.6c0-0.1,0-0.2,0.1-0.2l0.4-0.1
		c0.1,0,0.2,0,0.2,0.1l0.2,0.6C106.4,174.8,106.3,174.9,106.3,174.9z M107.6,174.3l-0.4,0.2c-0.1,0-0.2,0-0.2-0.1l-0.2-0.6
		c0-0.1,0-0.2,0.1-0.2l0.4-0.2c0.1,0,0.1,0,0.2,0.1l0.2,0.6C107.7,174.2,107.7,174.3,107.6,174.3z M108.9,173.7l-0.4,0.2
		c-0.1,0-0.2,0-0.2-0.1l-0.2-0.6c0-0.1,0-0.2,0.1-0.2l0.4-0.2c0.1,0,0.1,0,0.2,0.1l0.2,0.6C109,173.5,109,173.6,108.9,173.7z
		 M110,172l0.2,0.6c0,0.1,0,0.2-0.1,0.2l-0.4,0.3c-0.1,0-0.1,0-0.2,0l-0.2-0.6c0-0.1,0-0.2,0.1-0.2l0.4-0.3
		C109.9,171.9,110,171.9,110,172z M105.3,167l-0.4,0.2c-0.1,0-0.1,0-0.2-0.1l-0.2-0.6c0-0.1,0-0.2,0.1-0.2l0.4-0.2
		c0.1,0,0.1,0,0.2,0.1l0.2,0.6C105.4,166.9,105.4,167,105.3,167z M106.6,166.3l-0.4,0.3c-0.1,0-0.1,0-0.2,0l-0.2-0.6
		c0-0.1,0-0.2,0.1-0.2l0.4-0.3c0.1,0,0.1,0,0.2,0l0.2,0.6C106.7,166.1,106.6,166.2,106.6,166.3z M107,165c0-0.1,0-0.2,0.1-0.2
		l0.4-0.3c0.1-0.1,0.1,0,0.2,0l0.2,0.6c0,0.1,0,0.2-0.1,0.2l-0.4,0.3c-0.1,0.1-0.1,0-0.2,0L107,165z M88.6,168.8
		c-0.1,0-0.2-0.1-0.2-0.1l-0.2-0.6c0-0.1,0-0.1,0.1-0.1h0.5c0.1,0,0.2,0.1,0.2,0.1l0.2,0.6c0,0.1,0,0.1-0.1,0.1L88.6,168.8z
		 M90.1,168.8c-0.1,0-0.2-0.1-0.2-0.1l-0.2-0.6c0-0.1,0-0.1,0.1-0.1l0.5,0c0.1,0,0.2,0.1,0.2,0.1l0.2,0.6c0,0.1,0,0.1-0.1,0.1H90.1z
		 M91.7,168.8c-0.1,0-0.2-0.1-0.2-0.1l-0.2-0.6c0-0.1,0-0.1,0.1-0.1l0.5,0c0.1,0,0.2,0.1,0.2,0.1l0.2,0.6c0,0.1,0,0.1-0.1,0.1H91.7z
		 M93.2,168.8c-0.1,0-0.2-0.1-0.2-0.1l-0.2-0.6c0-0.1,0-0.1,0.1-0.1h0.5c0.1,0,0.2,0.1,0.2,0.1l0.2,0.6c0,0.1,0,0.1-0.1,0.1H93.2z
		 M94.7,168.8c-0.1,0-0.2-0.1-0.2-0.1l-0.2-0.6c0-0.1,0-0.1,0.1-0.1l0.5,0c0.1,0,0.2,0.1,0.2,0.1l0.2,0.6c0,0.1,0,0.1-0.1,0.1H94.7z
		 M96.2,168.8c-0.1,0-0.2-0.1-0.2-0.1l-0.2-0.6c0-0.1,0-0.1,0.1-0.1h0.5c0.1,0,0.2,0.1,0.2,0.1l0.2,0.6c0,0.1,0,0.1-0.1,0.1H96.2z
		 M97.7,168.8c-0.1,0-0.2-0.1-0.2-0.1l-0.2-0.6c0-0.1,0-0.1,0.1-0.1l0.5,0c0.1,0,0.2,0.1,0.2,0.1l0.2,0.6c0,0.1,0,0.1-0.1,0.1
		L97.7,168.8z M99.2,168.7c-0.1,0-0.2,0-0.2-0.1l-0.2-0.6c0-0.1,0-0.1,0.1-0.1l0.4,0c0.1,0,0.2,0,0.2,0.1l0.2,0.6
		c0,0.1,0,0.1-0.1,0.1L99.2,168.7z M100.7,168.5c-0.1,0-0.2,0-0.2-0.1l-0.2-0.6c0-0.1,0-0.1,0.1-0.2l0.4-0.1c0.1,0,0.2,0,0.2,0.1
		l0.2,0.6c0,0.1,0,0.1-0.1,0.2L100.7,168.5z M102.1,168.2c-0.1,0-0.2,0-0.2-0.1l-0.2-0.6c0-0.1,0-0.2,0.1-0.2l0.4-0.1
		c0.1,0,0.2,0,0.2,0.1l0.2,0.6c0,0.1,0,0.1-0.1,0.2L102.1,168.2z M103.4,167.7l-0.2-0.6c0-0.1,0-0.1,0.1-0.2l0.4-0.2
		c0.1,0,0.2,0,0.2,0.1l0.2,0.6c0,0.1,0,0.2-0.1,0.2l-0.4,0.2C103.5,167.8,103.4,167.8,103.4,167.7z M90.9,176.2
		c-0.1,0-0.2-0.1-0.2-0.1l-0.2-0.6c0-0.1,0-0.1,0.1-0.1l0.5,0c0.1,0,0.2,0.1,0.2,0.1l0.2,0.6c0,0.1,0,0.1-0.1,0.1H90.9z M92.4,176.2
		c-0.1,0-0.2-0.1-0.2-0.1l-0.2-0.6c0-0.1,0-0.1,0.1-0.1h0.5c0.1,0,0.2,0.1,0.2,0.1l0.2,0.6c0,0.1,0,0.1-0.1,0.1H92.4z M94,176.2
		c-0.1,0-0.2-0.1-0.2-0.1l-0.2-0.6c0-0.1,0-0.1,0.1-0.1h0.5c0.1,0,0.2,0.1,0.2,0.1l0.2,0.6c0,0.1,0,0.1-0.1,0.1H94z M95.5,176.2
		c-0.1,0-0.2-0.1-0.2-0.1l-0.2-0.6c0-0.1,0-0.1,0.1-0.1l0.5,0c0.1,0,0.2,0.1,0.2,0.1l0.2,0.6c0,0.1,0,0.1-0.1,0.1H95.5z M97,176.2
		c-0.1,0-0.2-0.1-0.2-0.1l-0.2-0.6c0-0.1,0-0.1,0.1-0.1h0.5c0.1,0,0.2,0.1,0.2,0.1l0.2,0.6c0,0.1,0,0.1-0.1,0.1H97z M98.6,176.2
		c-0.1,0-0.2-0.1-0.2-0.1l-0.2-0.6c0-0.1,0-0.1,0.1-0.1l0.5,0c0.1,0,0.2,0.1,0.2,0.1l0.2,0.6c0,0.1,0,0.1-0.1,0.1H98.6z
		 M100.1,176.1c-0.1,0-0.2-0.1-0.2-0.1l-0.2-0.6c0-0.1,0-0.1,0.1-0.1l0.5,0c0.1,0,0.2,0.1,0.2,0.1l0.2,0.6c0,0.1,0,0.1-0.1,0.1
		L100.1,176.1z M101.6,176c-0.1,0-0.2,0-0.2-0.1l-0.2-0.6c0-0.1,0-0.1,0.1-0.1l0.4-0.1c0.1,0,0.2,0,0.2,0.1l0.2,0.6
		c0,0.1,0,0.1-0.1,0.1L101.6,176z M103,175.8c-0.1,0-0.2,0-0.2-0.1l-0.2-0.6c0-0.1,0-0.1,0.1-0.2l0.4-0.1c0.1,0,0.2,0,0.2,0.1
		l0.2,0.6c0,0.1,0,0.1-0.1,0.2L103,175.8z M104.4,175.5c-0.1,0-0.2,0-0.2-0.1l-0.2-0.6c0-0.1,0-0.1,0.1-0.2l0.4-0.1
		c0.1,0,0.2,0,0.2,0.1l0.2,0.6c0,0.1,0,0.1-0.1,0.2L104.4,175.5z"/>
	<path class="st1" d="M102.3,201l8.1-5.9c-5.4-2.6-7-8.8-7.6-10.6c-1.8-5.4-2.5-7.7-2.5-7.7l-8,5.9l0,0c0,0,0.7,2.3,2.5,7.8
		C95.5,192.3,97.4,197.8,102.3,201z M99,197.2l-0.3-0.4c0-0.1,0-0.2,0-0.2l0.5-0.4c0.1,0,0.2,0,0.2,0l0.3,0.4c0,0.1,0,0.2,0,0.2
		l-0.6,0.4C99.2,197.3,99.1,197.3,99,197.2z M100,198.3l-0.3-0.3c-0.1-0.1-0.1-0.1,0-0.2l0.5-0.4c0.1,0,0.2,0,0.2,0l0.3,0.3
		c0.1,0.1,0,0.1,0,0.2l-0.5,0.4C100.1,198.4,100,198.4,100,198.3z M101,199.3l-0.3-0.3c-0.1-0.1-0.1-0.1,0-0.2l0.5-0.4
		c0.1,0,0.2,0,0.2,0l0.3,0.3c0.1,0.1,0.1,0.1,0,0.2l-0.5,0.4C101.2,199.4,101.1,199.4,101,199.3z M103,199.9l-0.5,0.4
		c-0.1,0-0.2,0-0.2,0l-0.4-0.3c-0.1-0.1-0.1-0.1,0-0.2l0.5-0.4c0.1,0,0.2,0,0.2,0l0.4,0.3C103,199.8,103,199.9,103,199.9z
		 M106.2,193.8l-0.3-0.3c-0.1-0.1-0.1-0.1,0-0.2l0.5-0.4c0.1,0,0.2,0,0.2,0l0.3,0.3c0.1,0.1,0.1,0.1,0,0.2l-0.5,0.4
		C106.3,193.9,106.2,193.9,106.2,193.8z M107.3,194.8l-0.4-0.3c-0.1-0.1-0.1-0.1,0-0.2l0.5-0.4c0.1,0,0.2,0,0.2,0l0.4,0.3
		c0.1,0,0.1,0.1,0,0.2l-0.5,0.4C107.5,194.9,107.4,194.9,107.3,194.8z M108.7,194.9c0.1,0,0.2,0,0.2,0l0.4,0.2c0.1,0,0.1,0.1,0,0.2
		l-0.5,0.4c-0.1,0-0.2,0-0.2,0l-0.4-0.2c-0.1,0-0.1-0.1,0-0.2L108.7,194.9z M99.3,178.5c0-0.1,0-0.2,0.1-0.2l0.6-0.4
		c0.1,0,0.1,0,0.2,0.1l0.1,0.4c0,0.1,0,0.2-0.1,0.2l-0.5,0.4c-0.1,0-0.1,0-0.2-0.1L99.3,178.5z M99.8,180c0-0.1,0-0.2,0.1-0.2
		l0.5-0.4c0.1,0,0.1,0,0.2,0.1l0.1,0.4c0,0.1,0,0.2-0.1,0.2l-0.5,0.4c-0.1,0-0.1,0-0.2-0.1L99.8,180z M100.3,181.4
		c0-0.1,0-0.2,0.1-0.2l0.5-0.4c0.1,0,0.1,0,0.2,0.1l0.1,0.4c0,0.1,0,0.2-0.1,0.2l-0.5,0.4c-0.1,0-0.1,0-0.2-0.1L100.3,181.4z
		 M100.8,182.9c0-0.1,0-0.2,0.1-0.2l0.5-0.4c0.1,0,0.1,0,0.2,0.1l0.1,0.4c0,0.1,0,0.2-0.1,0.2l-0.5,0.4c-0.1,0-0.1,0-0.2-0.1
		L100.8,182.9z M101.3,184.3c0-0.1,0-0.2,0.1-0.2l0.6-0.4c0.1,0,0.1,0,0.2,0.1l0.1,0.4c0,0.1,0,0.2-0.1,0.2l-0.5,0.4
		c-0.1,0-0.1,0-0.2-0.1L101.3,184.3z M101.7,185.8c0-0.1,0-0.2,0.1-0.2l0.5-0.4c0.1,0,0.1,0,0.2,0.1l0.1,0.4c0,0.1,0,0.2-0.1,0.2
		l-0.5,0.4c-0.1,0-0.1,0-0.2-0.1L101.7,185.8z M102.2,187.2c0-0.1,0-0.2,0.1-0.2l0.5-0.4c0.1,0,0.1,0,0.2,0.1l0.1,0.4
		c0,0.1,0,0.2-0.1,0.2l-0.5,0.4c-0.1,0-0.1,0-0.2-0.1L102.2,187.2z M102.7,188.6c0-0.1,0-0.2,0.1-0.2l0.5-0.4c0.1,0,0.1,0,0.2,0.1
		l0.2,0.4c0,0.1,0,0.2,0,0.2l-0.6,0.4c-0.1,0-0.1,0-0.2-0.1L102.7,188.6z M103.4,190c0-0.1,0-0.2,0-0.2l0.5-0.4c0.1,0,0.1,0,0.2,0.1
		l0.2,0.4c0,0.1,0,0.2,0,0.2l-0.5,0.4c-0.1,0-0.1,0-0.2-0.1L103.4,190z M104.1,191.2c0-0.1,0-0.2,0-0.2l0.5-0.4c0.1,0,0.2,0,0.2,0
		l0.3,0.4c0,0.1,0,0.2,0,0.2l-0.5,0.4c-0.1,0-0.2,0-0.2,0L104.1,191.2z M104.9,192.2l0.5-0.4c0.1,0,0.2,0,0.2,0l0.3,0.3
		c0.1,0.1,0,0.2,0,0.2l-0.6,0.4c-0.1,0-0.1,0-0.2,0l-0.3-0.3C104.9,192.4,104.9,192.3,104.9,192.2z M93,183c0-0.1,0-0.2,0.1-0.2
		l0.5-0.4c0.1,0,0.1,0,0.2,0.1l0.1,0.4c0,0.1,0,0.2-0.1,0.2l-0.5,0.4c-0.1,0-0.1,0-0.2-0.1L93,183z M93.5,184.5c0-0.1,0-0.2,0.1-0.2
		l0.5-0.4c0.1,0,0.1,0,0.2,0.1l0.1,0.4c0,0.1,0,0.2-0.1,0.2l-0.5,0.4c-0.1,0-0.1,0-0.2-0.1L93.5,184.5z M94,185.9
		c0-0.1,0-0.2,0.1-0.2l0.5-0.4c0.1,0,0.1,0,0.2,0.1l0.1,0.4c0,0.1,0,0.2-0.1,0.2l-0.5,0.4c-0.1,0-0.1,0-0.2-0.1L94,185.9z
		 M94.4,187.4c0-0.1,0-0.2,0.1-0.2l0.5-0.4c0.1,0,0.1,0,0.2,0.1l0.1,0.4c0,0.1,0,0.2-0.1,0.2l-0.5,0.4c-0.1,0-0.1,0-0.2-0.1
		L94.4,187.4z M94.9,188.8c0-0.1,0-0.2,0.1-0.2l0.5-0.4c0.1,0,0.1,0,0.2,0.1l0.1,0.4c0,0.1,0,0.2-0.1,0.2l-0.5,0.4
		c-0.1,0-0.1,0-0.2-0.1L94.9,188.8z M95.4,190.3c0-0.1,0-0.2,0.1-0.2l0.5-0.4c0.1,0,0.1,0,0.2,0.1l0.1,0.4c0,0.1,0,0.2-0.1,0.2
		l-0.5,0.4c-0.1,0-0.1,0-0.2-0.1L95.4,190.3z M95.9,191.7c0-0.1,0-0.2,0.1-0.2l0.5-0.4c0.1,0,0.1,0,0.2,0.1l0.2,0.4
		c0,0.1,0,0.2-0.1,0.2l-0.5,0.4c-0.1,0-0.1,0-0.2-0.1L95.9,191.7z M96.5,193.1c0-0.1,0-0.2,0-0.2l0.5-0.4c0.1,0,0.1,0,0.2,0.1
		l0.2,0.4c0,0.1,0,0.2,0,0.2l-0.5,0.4c-0.1,0-0.1,0-0.2-0.1L96.5,193.1z M97.2,194.4c0-0.1,0-0.2,0-0.2l0.5-0.4c0.1,0,0.1,0,0.2,0.1
		l0.2,0.4c0,0.1,0,0.2,0,0.2l-0.5,0.4c-0.1,0-0.1,0-0.2-0.1L97.2,194.4z M97.9,195.7c0-0.1,0-0.2,0-0.2l0.5-0.4c0.1,0,0.1,0,0.2,0
		l0.2,0.4c0,0.1,0,0.2,0,0.2l-0.5,0.4c-0.1,0-0.1,0-0.2,0L97.9,195.7z"/>
	<path class="st1" d="M72.9,201.5l8.2,5.9c0.8-6,6.2-9.4,7.7-10.5c4.6-3.4,6.5-4.8,6.5-4.8l-8.1-5.8l0,0c0,0-2,1.4-6.6,4.8
		C79.1,192.3,74.4,195.8,72.9,201.5z M75.5,197.2l0.3-0.4c0-0.1,0.1-0.1,0.2,0l0.5,0.4c0.1,0,0.1,0.1,0,0.2l-0.3,0.4
		c0,0.1-0.1,0.1-0.2,0l-0.5-0.4C75.5,197.3,75.5,197.2,75.5,197.2z M74.8,198.4L75,198c0-0.1,0.1-0.1,0.2,0l0.5,0.4
		c0.1,0,0.1,0.1,0,0.2l-0.2,0.4c0,0.1-0.1,0.1-0.2,0l-0.5-0.4C74.7,198.6,74.7,198.5,74.8,198.4z M74.1,199.8l0.2-0.4
		c0-0.1,0.1-0.1,0.2,0l0.5,0.4c0.1,0,0.1,0.1,0,0.2l-0.2,0.4c0,0.1-0.1,0.1-0.2,0.1l-0.5-0.4C74.1,199.9,74.1,199.8,74.1,199.8z
		 M74.2,201.8l-0.5-0.4c-0.1,0-0.1-0.1-0.1-0.2l0.2-0.4c0-0.1,0.1-0.1,0.2-0.1l0.5,0.4c0.1,0,0.1,0.1,0.1,0.2l-0.2,0.4
		C74.3,201.8,74.2,201.8,74.2,201.8z M80.9,203l0.2-0.4c0-0.1,0.1-0.1,0.2,0l0.5,0.4c0.1,0,0.1,0.1,0,0.2l-0.2,0.4
		c0,0.1-0.1,0.1-0.2,0.1l-0.5-0.4C80.9,203.1,80.9,203,80.9,203z M80.3,204.3l0.1-0.4c0-0.1,0.1-0.1,0.2-0.1l0.5,0.4
		c0.1,0,0.1,0.1,0.1,0.2l-0.1,0.4c0,0.1-0.1,0.1-0.2,0.1l-0.5-0.4C80.3,204.5,80.3,204.4,80.3,204.3z M80.7,205.7
		c0.1,0,0.1,0.2,0.1,0.2l-0.1,0.5c0,0.1-0.1,0.1-0.1,0.1l-0.5-0.4c-0.1,0-0.1-0.2-0.1-0.2l0.1-0.5c0-0.1,0.1-0.1,0.1-0.1L80.7,205.7
		z M93.4,191.7c0.1,0,0.2-0.1,0.2,0l0.5,0.4c0.1,0,0.1,0.1,0,0.2l-0.4,0.3c-0.1,0-0.2,0-0.2,0l-0.5-0.4c-0.1,0-0.1-0.1,0-0.2
		L93.4,191.7z M92.1,192.6c0.1,0,0.2,0,0.2,0l0.5,0.4c0.1,0,0.1,0.1,0,0.2l-0.4,0.3c-0.1,0.1-0.2,0.1-0.2,0l-0.5-0.4
		c-0.1,0-0.1-0.1,0-0.2L92.1,192.6z M90.9,193.5c0.1,0,0.2-0.1,0.2,0l0.5,0.4c0.1,0,0.1,0.1,0,0.2l-0.4,0.3c-0.1,0-0.2,0.1-0.2,0
		l-0.5-0.4c-0.1,0-0.1-0.1,0-0.2L90.9,193.5z M89.7,194.4c0.1-0.1,0.2-0.1,0.2,0l0.5,0.4c0.1,0,0.1,0.1,0,0.2l-0.4,0.3
		c-0.1,0-0.2,0.1-0.2,0l-0.5-0.4c-0.1,0-0.1-0.1,0-0.2L89.7,194.4z M88.5,195.3c0.1,0,0.2-0.1,0.2,0l0.5,0.4c0.1,0,0.1,0.1,0,0.2
		l-0.4,0.3c-0.1,0.1-0.2,0.1-0.2,0l-0.5-0.4c-0.1,0-0.1-0.1,0-0.2L88.5,195.3z M87.2,196.2c0.1,0,0.2-0.1,0.2,0l0.5,0.4
		c0.1,0,0.1,0.1,0,0.2l-0.4,0.3c-0.1,0-0.2,0.1-0.2,0l-0.5-0.4c-0.1,0-0.1-0.1,0-0.2L87.2,196.2z M86,197.1c0.1-0.1,0.2-0.1,0.2,0
		l0.5,0.4c0.1,0,0.1,0.1,0,0.2l-0.4,0.3c-0.1,0.1-0.2,0.1-0.2,0l-0.5-0.4c-0.1,0-0.1-0.1,0-0.2L86,197.1z M84.8,198.1
		c0.1-0.1,0.2-0.1,0.2,0l0.5,0.4c0.1,0,0.1,0.1,0,0.2l-0.3,0.3c-0.1,0.1-0.2,0.1-0.2,0l-0.5-0.4c-0.1,0-0.1-0.1,0-0.2L84.8,198.1z
		 M83.8,199.1c0.1-0.1,0.2-0.1,0.2,0l0.5,0.4c0.1,0,0.1,0.1,0,0.2l-0.3,0.3c-0.1,0.1-0.2,0.1-0.2,0l-0.5-0.4c-0.1,0-0.1-0.1,0-0.2
		L83.8,199.1z M82.8,200.2c0.1-0.1,0.1-0.1,0.2,0l0.5,0.4c0.1,0,0.1,0.1,0,0.2l-0.3,0.4c0,0.1-0.1,0.1-0.2,0l-0.5-0.4
		c-0.1,0-0.1-0.1,0-0.2L82.8,200.2z M82.1,201.3l0.5,0.4c0.1,0,0.1,0.1,0,0.2l-0.2,0.4c0,0.1-0.1,0.1-0.2,0l-0.5-0.4
		c-0.1,0-0.1-0.1,0-0.2l0.2-0.4C81.9,201.3,82,201.2,82.1,201.3z M87.2,187.1c0.1,0,0.2-0.1,0.2,0l0.5,0.4c0.1,0,0.1,0.1,0,0.2
		l-0.4,0.3c-0.1,0.1-0.2,0.1-0.2,0l-0.5-0.4c-0.1,0-0.1-0.1,0-0.2L87.2,187.1z M85.9,188c0.1-0.1,0.2-0.1,0.2,0l0.5,0.4
		c0.1,0,0.1,0.1,0,0.2l-0.4,0.3c-0.1,0-0.2,0.1-0.2,0l-0.5-0.4c-0.1,0-0.1-0.1,0-0.2L85.9,188z M84.7,188.9c0.1,0,0.2-0.1,0.2,0
		l0.5,0.4c0.1,0,0.1,0.1,0,0.2l-0.4,0.3c-0.1,0-0.2,0.1-0.2,0l-0.5-0.4c-0.1,0-0.1-0.1,0-0.2L84.7,188.9z M83.5,189.8
		c0.1-0.1,0.2-0.1,0.2,0l0.5,0.4c0.1,0,0.1,0.1,0,0.2l-0.4,0.3c-0.1,0-0.2,0.1-0.2,0l-0.5-0.4c-0.1,0-0.1-0.1,0-0.2L83.5,189.8z
		 M82.2,190.7c0.1-0.1,0.2-0.1,0.2,0l0.5,0.4c0.1,0,0.1,0.1,0,0.2l-0.4,0.3c-0.1,0.1-0.2,0.1-0.2,0l-0.5-0.4c-0.1,0-0.1-0.1,0-0.2
		L82.2,190.7z M81,191.6c0.1,0,0.2-0.1,0.2,0l0.5,0.4c0.1,0,0.1,0.1,0,0.2l-0.4,0.3c-0.1,0.1-0.2,0.1-0.2,0l-0.5-0.4
		c-0.1,0-0.1-0.1,0-0.2L81,191.6z M79.8,192.5c0.1-0.1,0.2-0.1,0.2,0l0.5,0.4c0.1,0,0.1,0.1,0,0.2l-0.4,0.3c-0.1,0.1-0.2,0.1-0.2,0
		l-0.5-0.4c-0.1,0-0.1-0.1,0-0.2L79.8,192.5z M78.7,193.5c0.1-0.1,0.2-0.1,0.2,0l0.5,0.4c0.1,0,0.1,0.1,0,0.2l-0.3,0.3
		c-0.1,0.1-0.2,0.1-0.2,0l-0.5-0.4c-0.1,0-0.1-0.1,0-0.2L78.7,193.5z M77.6,194.6c0.1-0.1,0.1-0.1,0.2,0l0.5,0.4
		c0.1,0,0.1,0.1,0,0.2l-0.3,0.3c-0.1,0.1-0.1,0.1-0.2,0l-0.5-0.4c-0.1,0-0.1-0.1,0-0.2L77.6,194.6z M76.7,195.7
		c0.1-0.1,0.1-0.1,0.2,0l0.5,0.4c0.1,0,0.1,0.1,0,0.2l-0.3,0.3c-0.1,0.1-0.1,0.1-0.2,0l-0.5-0.4c-0.1,0-0.1-0.1,0-0.2L76.7,195.7z"
		/>
	<path class="st1" d="M63.4,173.7l-3.1,9.6c5.9-1,10.8,3,12.4,4.1c4.6,3.3,6.5,4.7,6.5,4.7l3.1-9.5l0,0c0,0-2-1.5-6.6-4.8
		C74.1,176.7,69.3,173.4,63.4,173.7z M68.3,174.9l0.4,0.1c0.1,0,0.1,0.1,0.1,0.2l-0.2,0.6c0,0.1-0.1,0.1-0.2,0.1l-0.4-0.1
		c-0.1,0-0.1-0.1-0.1-0.2l0.2-0.6C68.2,174.9,68.2,174.8,68.3,174.9z M66.9,174.5l0.4,0.1c0.1,0,0.1,0.1,0.1,0.2l-0.2,0.6
		c0,0.1-0.1,0.1-0.2,0.1l-0.4-0.1c-0.1,0-0.1-0.1-0.1-0.2l0.2-0.6C66.7,174.6,66.8,174.5,66.9,174.5z M65.4,174.3l0.4,0.1
		c0.1,0,0.1,0.1,0.1,0.1l-0.2,0.6c0,0.1-0.1,0.1-0.2,0.1l-0.4-0.1c-0.1,0-0.1-0.1-0.1-0.2l0.2-0.6C65.3,174.3,65.3,174.3,65.4,174.3
		z M63.5,175l0.2-0.6c0-0.1,0.1-0.1,0.2-0.1l0.5,0c0.1,0,0.1,0.1,0.1,0.1l-0.2,0.6c0,0.1-0.1,0.1-0.2,0.1l-0.5,0
		C63.5,175.1,63.5,175.1,63.5,175z M64.5,181.8l0.4,0.1c0.1,0,0.1,0.1,0.1,0.1l-0.2,0.6c0,0.1-0.1,0.1-0.2,0.1l-0.4-0.1
		c-0.1,0-0.1-0.1-0.1-0.2l0.2-0.6C64.3,181.8,64.4,181.8,64.5,181.8z M63,181.6l0.5,0c0.1,0,0.1,0.1,0.1,0.1l-0.2,0.6
		c0,0.1-0.1,0.1-0.2,0.1l-0.5,0c-0.1,0-0.1-0.1-0.1-0.1l0.2-0.6C62.8,181.7,62.9,181.6,63,181.6z M61.8,182.4c0,0.1-0.1,0.1-0.2,0.1
		l-0.5,0c-0.1,0-0.1,0-0.1-0.1l0.2-0.6c0-0.1,0.1-0.1,0.2-0.2l0.5,0c0.1,0,0.1,0,0.1,0.1L61.8,182.4z M79,190.2
		c0.1,0,0.1,0.1,0.1,0.2l-0.2,0.6c0,0.1-0.1,0.1-0.2,0l-0.4-0.3c-0.1-0.1-0.1-0.2-0.1-0.2l0.2-0.6c0-0.1,0.1-0.1,0.2,0L79,190.2z
		 M77.7,189.3c0.1,0.1,0.1,0.2,0.1,0.2l-0.2,0.6c0,0.1-0.1,0.1-0.2,0l-0.4-0.3c-0.1-0.1-0.1-0.2-0.1-0.2l0.2-0.6
		c0-0.1,0.1-0.1,0.2,0L77.7,189.3z M76.5,188.4c0.1,0.1,0.1,0.1,0.1,0.2l-0.2,0.6c0,0.1-0.1,0.1-0.2,0l-0.4-0.3
		c-0.1,0-0.1-0.1-0.1-0.2l0.2-0.6c0-0.1,0.1-0.1,0.2,0L76.5,188.4z M75.3,187.5c0.1,0,0.1,0.2,0.1,0.2l-0.2,0.6c0,0.1-0.1,0.1-0.2,0
		l-0.4-0.3c-0.1,0-0.1-0.1-0.1-0.2l0.2-0.6c0-0.1,0.1-0.1,0.2,0L75.3,187.5z M74.1,186.6c0.1,0.1,0.1,0.1,0.1,0.2l-0.2,0.6
		c0,0.1-0.1,0.1-0.2,0l-0.4-0.3c-0.1,0-0.1-0.1-0.1-0.2l0.2-0.6c0-0.1,0.1-0.1,0.2,0L74.1,186.6z M72.8,185.7c0.1,0,0.1,0.2,0.1,0.2
		l-0.2,0.6c0,0.1-0.1,0.1-0.2,0l-0.4-0.3c-0.1-0.1-0.1-0.2-0.1-0.2l0.2-0.6c0-0.1,0.1-0.1,0.2,0L72.8,185.7z M71.6,184.8
		c0.1,0,0.1,0.1,0.1,0.2l-0.2,0.6c0,0.1-0.1,0.1-0.2,0l-0.4-0.3c-0.1,0-0.1-0.1-0.1-0.2l0.2-0.6c0-0.1,0.1-0.1,0.2,0L71.6,184.8z
		 M70.3,184c0.1,0,0.1,0.1,0.1,0.2l-0.2,0.6c0,0.1-0.1,0.1-0.2,0.1l-0.4-0.2c-0.1,0-0.1-0.1-0.1-0.2l0.2-0.6c0-0.1,0.1-0.1,0.2-0.1
		L70.3,184z M69,183.3c0.1,0,0.1,0.1,0.1,0.2l-0.2,0.6c0,0.1-0.1,0.1-0.2,0.1l-0.4-0.2c-0.1,0-0.1-0.1-0.1-0.2l0.2-0.6
		c0-0.1,0.1-0.1,0.2-0.1L69,183.3z M67.7,182.7c0.1,0,0.1,0.1,0.1,0.2l-0.2,0.6c0,0.1-0.1,0.1-0.2,0.1l-0.4-0.1
		c-0.1,0-0.1-0.1-0.1-0.2l0.2-0.6c0-0.1,0.1-0.1,0.2-0.1L67.7,182.7z M66.4,182.4l-0.2,0.6c0,0.1-0.1,0.1-0.2,0.1l-0.4-0.1
		c-0.1,0-0.1-0.1-0.1-0.2l0.2-0.6c0-0.1,0.1-0.1,0.2-0.1l0.4,0.1C66.4,182.2,66.5,182.3,66.4,182.4z M81.5,182.8
		c0.1,0,0.1,0.1,0.1,0.2l-0.2,0.6c0,0.1-0.1,0.1-0.2,0l-0.4-0.3c-0.1,0-0.1-0.1-0.1-0.2l0.2-0.6c0-0.1,0.1-0.1,0.2,0L81.5,182.8z
		 M80.3,181.9c0.1,0.1,0.1,0.2,0.1,0.2l-0.2,0.6c0,0.1-0.1,0.1-0.2,0l-0.4-0.3c-0.1,0-0.1-0.1-0.1-0.2l0.2-0.6c0-0.1,0.1-0.1,0.2,0
		L80.3,181.9z M79,181c0.1,0,0.1,0.1,0.1,0.2l-0.2,0.6c0,0.1-0.1,0.1-0.2,0l-0.4-0.3c-0.1,0-0.1-0.1-0.1-0.2l0.2-0.6
		c0-0.1,0.1-0.1,0.2,0L79,181z M77.8,180.1c0.1,0,0.1,0.1,0.1,0.2l-0.2,0.6c0,0.1-0.1,0.1-0.2,0l-0.4-0.3c-0.1,0-0.1-0.1-0.1-0.2
		l0.2-0.6c0-0.1,0.1-0.1,0.2,0L77.8,180.1z M76.5,179.2c0.1,0.1,0.1,0.1,0.1,0.2l-0.2,0.6c0,0.1-0.1,0.1-0.2,0l-0.4-0.3
		c-0.1,0-0.1-0.1-0.1-0.2L76,179c0-0.1,0.1-0.1,0.2,0L76.5,179.2z M75.3,178.3c0.1,0,0.1,0.2,0.1,0.2l-0.2,0.6c0,0.1-0.1,0.1-0.2,0
		l-0.4-0.3c-0.1,0-0.1-0.1-0.1-0.2l0.2-0.6c0-0.1,0.1-0.1,0.2,0L75.3,178.3z M74,177.5c0.1,0,0.1,0.1,0.1,0.2l-0.2,0.6
		c0,0.1-0.1,0.1-0.2,0l-0.4-0.2c-0.1,0-0.1-0.1-0.1-0.2l0.2-0.6c0-0.1,0.1-0.1,0.2,0L74,177.5z M72.8,176.7c0.1,0,0.1,0.1,0.1,0.2
		l-0.2,0.6c0,0.1-0.1,0.1-0.2,0.1l-0.4-0.2c-0.1,0-0.1-0.1-0.1-0.2l0.2-0.6c0-0.1,0.1-0.1,0.2-0.1L72.8,176.7z M71.4,176
		c0.1,0,0.1,0.1,0.1,0.2l-0.2,0.6c0,0.1-0.1,0.1-0.2,0.1l-0.4-0.2c-0.1,0-0.1-0.1-0.1-0.2l0.2-0.6c0-0.1,0.1-0.1,0.2-0.1L71.4,176z
		 M70.1,175.5c0.1,0,0.1,0.1,0.1,0.2l-0.2,0.6c0,0.1-0.1,0.1-0.2,0.1l-0.4-0.2c-0.1,0-0.1-0.1-0.1-0.2l0.2-0.6
		c0-0.1,0.1-0.1,0.2-0.1L70.1,175.5z"/>
</g>
</svg>
