<?xml version="1.0" encoding="UTF-8" standalone="no"?>
<!DOCTYPE svg PUBLIC "-//W3C//DTD SVG 1.1//EN" "http://www.w3.org/Graphics/SVG/1.1/DTD/svg11.dtd">
<svg width="100%" height="100%" viewBox="0 0 341 341" version="1.1" xmlns="http://www.w3.org/2000/svg" xmlns:xlink="http://www.w3.org/1999/xlink" xml:space="preserve" xmlns:serif="http://www.serif.com/" style="fill-rule:evenodd;clip-rule:evenodd;stroke-linejoin:round;stroke-miterlimit:1.41421;">
    <g transform="matrix(1.5531,0,0,1.5531,-85.9292,-112.177)">
        <path d="M267.7,188.8C266.8,188.8 266,189.6 266,190.5C266,191.4 266.8,192.2 267.7,192.2C268.6,192.2 269.4,191.4 269.4,190.5C269.4,189.5 268.7,188.8 267.7,188.8ZM267.7,191.9C266.9,191.9 266.2,191.2 266.2,190.4C266.2,189.6 266.9,188.9 267.7,188.9C268.5,188.9 269.2,189.6 269.2,190.4C269.2,191.3 268.5,191.9 267.7,191.9Z" style="fill:white;fill-rule:nonzero;"/>
        <g>
            <path d="M143.7,172.3L143.7,167.3L149.9,167.3L149.9,172.3L143.7,172.3ZM149.9,191.9L143.7,191.9L143.7,174.5L149.9,174.5L149.9,191.9Z" style="fill:white;fill-rule:nonzero;"/>
            <path d="M158.9,191.9L152.7,191.9L152.7,174.4L158.4,174.4L158.4,177.1C159.1,176 159.9,175.1 160.8,174.6C161.6,174.1 162.6,173.9 163.7,173.9C165.6,173.9 167.1,174.5 168.2,175.7C169.3,176.9 169.8,178.7 169.8,181L169.8,191.9L163.5,191.9L163.5,182.3C163.5,181.3 163.3,180.5 162.9,180.1C162.5,179.6 162,179.4 161.2,179.4C160.5,179.4 159.9,179.7 159.5,180.2C159.1,180.7 158.9,181.6 158.9,182.8L158.9,191.9Z" style="fill:white;fill-rule:nonzero;"/>
            <path d="M178.8,178.9C179.3,178.4 179.9,178.1 180.7,178.1C181.6,178.1 182.3,178.4 182.8,178.9C183.3,179.4 183.6,180.2 183.6,181.1L178,181.1C178,180.2 178.3,179.5 178.8,178.9ZM189.4,181.2C189,179.7 188.4,178.4 187.6,177.2C186.8,176.1 185.7,175.2 184.5,174.7C183.3,174.2 182,173.9 180.6,173.9C177.9,173.9 175.8,174.8 174.2,176.6C172.6,178.4 171.8,180.7 171.8,183.4C171.8,186 172.6,188.2 174.2,189.9C175.8,191.6 178,192.4 180.9,192.4C182.7,192.4 184.2,192.1 185.5,191.4C186.8,190.7 187.8,189.9 188.5,188.8C188.9,188.2 189.2,187.4 189.4,186.6L183.5,186.6C183.1,187.5 182.3,188 181.2,188C180.2,188 179.5,187.7 178.9,187.1C178.4,186.5 178.1,185.7 178,184.7L189.8,184.7C189.7,183.4 189.6,182.2 189.4,181.2Z" style="fill:white;fill-rule:nonzero;"/>
            <path d="M202.5,180.1C203,180.8 203.2,181.8 203.2,183.1C203.2,184 203.1,184.7 202.9,185.3C202.7,185.9 202.4,186.4 202,186.7C201.6,187 201.1,187.1 200.6,187.1C199.8,187.1 199.2,186.8 198.7,186.1C198.2,185.4 198,184.4 198,182.9C198,181.6 198.3,180.7 198.8,180C199.3,179.3 199.9,179 200.7,179C201.4,179.1 202,179.4 202.5,180.1ZM198.1,190.2C198.6,190.8 198.9,191.3 199.3,191.5C199.6,191.8 200,192 200.5,192.2C201,192.4 201.6,192.5 202.3,192.5C204.3,192.5 206,191.7 207.4,190C208.8,188.3 209.4,186.1 209.4,183.2C209.4,181.5 209.1,179.9 208.6,178.4C208,177 207.2,175.9 206.1,175.1C205,174.3 203.8,174 202.5,174C201.3,174 200.2,174.3 199.3,174.9C198.4,175.5 197.8,176.2 197.4,177.1L197.4,174.5L191.8,174.5L191.8,198.7L198,198.7L198,190.2L198.1,190.2Z" style="fill:white;fill-rule:nonzero;"/>
            <path d="M218.8,187.3C218.4,187 218,186.5 217.8,185.9C217.6,185.2 217.4,184.4 217.4,183.3C217.4,181.6 217.7,180.4 218.2,179.7C218.7,179 219.3,178.6 220.1,178.6C220.8,178.6 221.4,178.9 221.9,179.5C222.5,180.3 222.8,181.5 222.8,183.1C222.8,184.2 222.7,185.1 222.5,185.8C222.3,186.5 222,187 221.5,187.3C221.1,187.6 220.7,187.7 220.2,187.7C219.7,187.8 219.3,187.6 218.8,187.3ZM213.6,176.5C212,178.2 211.2,180.5 211.2,183.3C211.2,185.4 211.6,187.1 212.5,188.5C213.3,189.9 214.5,190.9 215.8,191.5C217.2,192.1 218.6,192.4 220.1,192.4C221.9,192.4 223.5,192 224.9,191.2C226.3,190.4 227.3,189.3 228,187.9C228.7,186.5 229,185 229,183.2C229,180.4 228.2,178.1 226.7,176.4C225.1,174.7 222.9,173.9 220.1,173.9C217.3,174 215.2,174.8 213.6,176.5Z" style="fill:white;fill-rule:nonzero;"/>
            <rect x="231.3" y="167.8" width="6.2" height="24.1" style="fill:white;fill-rule:nonzero;"/>
            <path d="M240.2,172.3L240.2,167.3L246.4,167.3L246.4,172.3L240.2,172.3ZM246.5,191.9L240.3,191.9L240.3,174.5L246.5,174.5L246.5,191.9Z" style="fill:white;fill-rule:nonzero;"/>
            <path d="M248.2,186.5L254.1,186.5C254.1,187.1 254.3,187.7 254.7,188.1C255.1,188.5 255.6,188.7 256.3,188.7C256.9,188.7 257.4,188.6 257.7,188.3C258,188 258.2,187.6 258.2,187.2C258.2,186.9 258.1,186.6 257.9,186.4C257.7,186.2 257.4,186 256.9,185.9L253.4,185C251.6,184.5 250.4,183.8 249.6,183C248.9,182.1 248.5,181.1 248.5,179.9C248.5,178.8 248.8,177.8 249.3,176.9C249.9,176.1 250.7,175.4 251.8,174.9C252.9,174.4 254.3,174.2 256.1,174.2C258.7,174.2 260.6,174.7 261.8,175.8C263,176.8 263.6,178.1 263.7,179.7L258,179.7C258,179.2 257.8,178.8 257.4,178.5C257.1,178.2 256.6,178 256.1,178C255.5,178 255.1,178.1 254.8,178.4C254.6,178.6 254.4,178.9 254.4,179.2C254.4,179.5 254.5,179.7 254.7,179.9C254.9,180.1 255.4,180.3 256.1,180.5L259.1,181.2C261.1,181.7 262.4,182.4 263.2,183.3C264,184.2 264.3,185.3 264.3,186.6C264.3,187.6 264.1,188.5 263.7,189.3C263.3,190.1 262.7,190.7 262,191.2C261.3,191.7 260.4,192.1 259.4,192.3C258.4,192.5 257.4,192.6 256.2,192.6C254.9,192.6 253.7,192.5 252.6,192.2C251.6,191.9 250.7,191.5 250,190.9C249.3,190.3 248.8,189.6 248.5,188.8C248.5,188 248.3,187.3 248.2,186.5Z" style="fill:white;fill-rule:nonzero;"/>
            <path d="M178.5,172.3L181.9,172.3L186.2,168.2L181,168.2L178.5,172.3Z" style="fill:white;fill-rule:nonzero;"/>
            <path d="M133.1,174.8C132.9,172.5 131.2,171.2 128.4,171.2C124.4,171.2 123.7,175.9 123.7,179.7C123.7,183.4 124.5,187.7 128.4,187.7C131.3,187.7 133,186.4 133.1,184L140.4,184C140.5,190.4 134.5,192.6 128.4,192.6C120.6,192.6 116.4,187.9 116.4,179.4C116.4,170.9 120.6,166.3 128.4,166.2C134.5,166.2 140.5,168.3 140.4,174.7L133.1,174.7L133.1,174.8Z" style="fill:white;fill-rule:nonzero;"/>
            <path d="M267.3,189.7L267.7,189.7C267.9,189.7 268,189.8 268,190C268,190.2 267.9,190.3 267.7,190.3L267.3,190.3L267.3,189.7ZM267.3,190.7L267.8,190.7C268,190.7 268,190.9 268,191C268,191.2 268,191.4 268.1,191.6L268.6,191.6C268.5,191.5 268.5,191.2 268.5,191.1C268.5,190.8 268.5,190.6 268.1,190.6C268.4,190.5 268.5,190.4 268.5,190.1C268.5,189.7 268.1,189.5 267.8,189.5L266.9,189.5L266.9,191.6L267.3,191.6L267.3,190.7Z" style="fill:white;fill-rule:nonzero;"/>
        </g>
        <path d="M86.9,156.1L76.8,156.1C79.6,161.4 77.3,167.3 76.7,169.1C75,174.5 74.2,176.8 74.2,176.8L84.2,176.8C84.2,176.8 85,174.5 86.7,169C87.3,167.2 89,161.6 86.9,156.1ZM87.3,161.1L87.3,161.5C87.3,161.6 87.2,161.6 87.2,161.6L86.5,161.6C86.4,161.6 86.4,161.5 86.4,161.5L86.4,161.1C86.4,161 86.5,161 86.5,161L87.2,161C87.2,161 87.3,161 87.3,161.1ZM87.2,159.7L87.2,160.1C87.2,160.2 87.2,160.2 87.1,160.2L86.4,160.2C86.3,160.2 86.3,160.1 86.2,160.1L86.2,159.7C86.2,159.6 86.2,159.6 86.3,159.6L87,159.6C87.1,159.5 87.2,159.6 87.2,159.7ZM86.9,158.2L87,158.6C87,158.7 87,158.7 86.9,158.7L86.2,158.7C86.1,158.7 86.1,158.6 86,158.6L85.9,158.2C85.9,158.1 85.9,158.1 86,158.1L86.7,158.1C86.8,158.1 86.9,158.1 86.9,158.2ZM85.7,156.6L86.4,156.6C86.5,156.6 86.6,156.7 86.6,156.7L86.7,157.1C86.7,157.2 86.7,157.2 86.6,157.2L85.9,157.2C85.8,157.2 85.7,157.1 85.7,157.1L85.6,156.7C85.6,156.7 85.6,156.6 85.7,156.6ZM79.5,159.6L79.6,160C79.6,160.1 79.6,160.1 79.5,160.1L78.8,160.1C78.7,160.1 78.7,160 78.6,160L78.5,159.6C78.5,159.5 78.5,159.5 78.6,159.5L79.3,159.5C79.4,159.5 79.5,159.5 79.5,159.6ZM79.2,158.2L79.3,158.6C79.3,158.7 79.3,158.7 79.2,158.7L78.5,158.7C78.4,158.7 78.3,158.6 78.3,158.6L78.2,158.2C78.2,158.1 78.2,158.1 78.3,158.1L79,158.1C79.1,158 79.2,158.1 79.2,158.2ZM78.1,157.3C78,157.3 77.9,157.2 77.9,157.2L77.7,156.8C77.7,156.7 77.7,156.7 77.8,156.7L78.5,156.7C78.6,156.7 78.7,156.8 78.7,156.8L78.9,157.2C78.9,157.3 78.9,157.3 78.8,157.3L78.1,157.3ZM76,176C76,176.1 75.9,176.1 75.8,176.1L75.1,176.1C75,176.1 75,176 75,176L75.1,175.6C75.1,175.5 75.2,175.5 75.3,175.5L76,175.5C76.1,175.5 76.1,175.6 76.1,175.6L76,176ZM76.5,174.6C76.5,174.7 76.4,174.7 76.3,174.7L75.6,174.7C75.5,174.7 75.5,174.6 75.5,174.6L75.6,174.2C75.6,174.1 75.7,174.1 75.8,174.1L76.5,174.1C76.6,174.1 76.6,174.2 76.6,174.2L76.5,174.6ZM77,173.1C77,173.2 76.9,173.2 76.8,173.2L76.1,173.2C76,173.2 76,173.1 76,173.1L76.1,172.7C76.1,172.6 76.2,172.6 76.3,172.6L77,172.6C77.1,172.6 77.1,172.7 77.1,172.7L77,173.1ZM77.4,171.7C77.4,171.8 77.3,171.8 77.2,171.8L76.5,171.8C76.4,171.8 76.4,171.7 76.4,171.7L76.5,171.3C76.5,171.2 76.6,171.2 76.7,171.2L77.4,171.2C77.5,171.2 77.5,171.3 77.5,171.3L77.4,171.7ZM77.9,170.2C77.9,170.3 77.8,170.3 77.7,170.3L77,170.3C76.9,170.3 76.9,170.2 76.9,170.2L77,169.8C77,169.7 77.1,169.7 77.2,169.7L77.9,169.7C78,169.7 78,169.8 78,169.8L77.9,170.2ZM78.4,168.8C78.4,168.9 78.3,168.9 78.2,168.9L77.5,168.9C77.4,168.9 77.4,168.8 77.4,168.8L77.5,168.4C77.5,168.3 77.6,168.3 77.7,168.3L78.4,168.3C78.5,168.3 78.5,168.4 78.5,168.4L78.4,168.8ZM78.8,167.3C78.8,167.4 78.7,167.4 78.6,167.4L77.9,167.4C77.8,167.4 77.8,167.3 77.8,167.3L77.9,166.9C77.9,166.8 78,166.8 78.1,166.8L78.8,166.8C78.9,166.8 78.9,166.9 78.9,166.9L78.8,167.3ZM79.2,165.9C79.2,166 79.1,166 79,166L78.3,166C78.2,166 78.2,165.9 78.2,165.9L78.3,165.5C78.3,165.4 78.4,165.4 78.5,165.4L79.2,165.4C79.3,165.4 79.3,165.5 79.3,165.5L79.2,165.9ZM79.5,164.4C79.5,164.5 79.4,164.5 79.3,164.5L78.6,164.5C78.5,164.5 78.5,164.4 78.5,164.4L78.6,164C78.6,163.9 78.7,163.9 78.8,163.9L79.5,163.9C79.6,163.9 79.6,164 79.6,164L79.5,164.4ZM79.7,163C79.7,163.1 79.6,163.1 79.6,163.1L78.9,163.1C78.8,163.1 78.8,163 78.8,163L78.8,162.6C78.8,162.5 78.9,162.5 78.9,162.5L79.6,162.5C79.7,162.5 79.7,162.6 79.7,162.6L79.7,163ZM79.6,161.6L78.9,161.6C78.8,161.6 78.8,161.5 78.8,161.5L78.8,161.1C78.8,161 78.9,161 78.9,161L79.6,161C79.7,161 79.7,161.1 79.7,161.1L79.7,161.5C79.7,161.6 79.7,161.6 79.6,161.6ZM83.8,176.1C83.8,176.2 83.7,176.2 83.6,176.2L82.9,176.2C82.8,176.2 82.8,176.1 82.8,176.1L82.9,175.7C82.9,175.6 83,175.6 83.1,175.6L83.8,175.6C83.9,175.6 83.9,175.7 83.9,175.7L83.8,176.1ZM84.3,174.7C84.3,174.8 84.2,174.8 84.1,174.8L83.4,174.8C83.3,174.8 83.3,174.7 83.3,174.7L83.4,174.3C83.4,174.2 83.5,174.2 83.6,174.2L84.3,174.2C84.4,174.2 84.4,174.3 84.4,174.3L84.3,174.7ZM84.7,173.2C84.7,173.3 84.6,173.3 84.5,173.3L83.8,173.3C83.7,173.3 83.7,173.2 83.7,173.2L83.8,172.8C83.8,172.7 83.9,172.7 84,172.7L84.7,172.7C84.8,172.7 84.8,172.8 84.8,172.8L84.7,173.2ZM85.2,171.7C85.2,171.8 85.1,171.8 85,171.8L84.3,171.8C84.2,171.8 84.2,171.7 84.2,171.7L84.3,171.3C84.3,171.2 84.4,171.2 84.5,171.2L85.2,171.2C85.3,171.2 85.3,171.3 85.3,171.3L85.2,171.7ZM85.7,170.3C85.7,170.4 85.6,170.4 85.5,170.4L84.8,170.4C84.7,170.4 84.7,170.3 84.7,170.3L84.8,169.9C84.8,169.8 84.9,169.8 85,169.8L85.7,169.8C85.8,169.8 85.8,169.9 85.8,169.9L85.7,170.3ZM86.2,168.8C86.2,168.9 86.1,168.9 86,168.9L85.3,168.9C85.2,168.9 85.2,168.8 85.2,168.8L85.3,168.4C85.3,168.3 85.4,168.3 85.5,168.3L86.2,168.3C86.3,168.3 86.3,168.4 86.3,168.4L86.2,168.8ZM86.6,167.4C86.6,167.5 86.5,167.5 86.4,167.5L85.7,167.5C85.6,167.5 85.6,167.4 85.6,167.4L85.7,167C85.7,166.9 85.8,166.9 85.9,166.9L86.6,166.9C86.7,166.9 86.7,167 86.7,167L86.6,167.4ZM86.9,165.9C86.9,166 86.8,166 86.7,166L86,166C85.9,166 85.9,165.9 85.9,165.9L86,165.5C86,165.4 86.1,165.4 86.2,165.4L86.9,165.4C87,165.4 87,165.5 87,165.5L86.9,165.9ZM87.1,164.5C87.1,164.6 87,164.6 86.9,164.6L86.2,164.6C86.1,164.6 86.1,164.5 86.1,164.5L86.2,164.1C86.2,164 86.3,164 86.4,164L87.1,164C87.2,164 87.2,164.1 87.2,164.1L87.1,164.5ZM87.3,163C87.3,163.1 87.2,163.1 87.2,163.1L86.5,163.1C86.4,163.1 86.4,163 86.4,163L86.4,162.6C86.4,162.5 86.5,162.5 86.5,162.5L87.2,162.5C87.3,162.5 87.3,162.6 87.3,162.6L87.3,163Z" style="fill:rgb(251,195,41);fill-rule:nonzero;"/>
        <path d="M110.9,172.9L107.8,163.3C103.6,167.6 97.3,167.2 95.4,167.2C89.7,167.2 87.3,167.2 87.3,167.2L90.4,176.7C90.4,176.7 92.9,176.7 98.6,176.7C100.5,176.8 106.3,176.6 110.9,172.9ZM106.3,174.9L105.9,175C105.8,175 105.7,175 105.7,174.9L105.5,174.3C105.5,174.2 105.5,174.1 105.6,174.1L106,174C106.1,174 106.2,174 106.2,174.1L106.4,174.7C106.4,174.8 106.3,174.9 106.3,174.9ZM107.6,174.3L107.2,174.5C107.1,174.5 107,174.5 107,174.4L106.8,173.8C106.8,173.7 106.8,173.6 106.9,173.6L107.3,173.4C107.4,173.4 107.4,173.4 107.5,173.5L107.7,174.1C107.7,174.2 107.7,174.3 107.6,174.3ZM108.9,173.7L108.5,173.9C108.4,173.9 108.3,173.9 108.3,173.8L108.1,173.2C108.1,173.1 108.1,173 108.2,173L108.6,172.8C108.7,172.8 108.7,172.8 108.8,172.9L109,173.5C109,173.5 109,173.6 108.9,173.7ZM110,172L110.2,172.6C110.2,172.7 110.2,172.8 110.1,172.8L109.7,173.1C109.6,173.1 109.6,173.1 109.5,173.1L109.3,172.5C109.3,172.4 109.3,172.3 109.4,172.3L109.8,172C109.9,171.9 110,171.9 110,172ZM105.3,167L104.9,167.2C104.8,167.2 104.8,167.2 104.7,167.1L104.5,166.5C104.5,166.4 104.5,166.3 104.6,166.3L105,166.1C105.1,166.1 105.1,166.1 105.2,166.2L105.4,166.8C105.4,166.9 105.4,167 105.3,167ZM106.6,166.3L106.2,166.6C106.1,166.6 106.1,166.6 106,166.6L105.8,166C105.8,165.9 105.8,165.8 105.9,165.8L106.3,165.5C106.4,165.5 106.4,165.5 106.5,165.5L106.7,166.1C106.7,166.1 106.6,166.2 106.6,166.3ZM107,165C107,164.9 107,164.8 107.1,164.8L107.5,164.5C107.6,164.4 107.6,164.5 107.7,164.5L107.9,165.1C107.9,165.2 107.9,165.3 107.8,165.3L107.4,165.6C107.3,165.7 107.3,165.6 107.2,165.6L107,165ZM88.6,168.8C88.5,168.8 88.4,168.7 88.4,168.7L88.2,168.1C88.2,168 88.2,168 88.3,168L88.8,168C88.9,168 89,168.1 89,168.1L89.2,168.7C89.2,168.8 89.2,168.8 89.1,168.8L88.6,168.8ZM90.1,168.8C90,168.8 89.9,168.7 89.9,168.7L89.7,168.1C89.7,168 89.7,168 89.8,168L90.3,168C90.4,168 90.5,168.1 90.5,168.1L90.7,168.7C90.7,168.8 90.7,168.8 90.6,168.8L90.1,168.8ZM91.7,168.8C91.6,168.8 91.5,168.7 91.5,168.7L91.3,168.1C91.3,168 91.3,168 91.4,168L91.9,168C92,168 92.1,168.1 92.1,168.1L92.3,168.7C92.3,168.8 92.3,168.8 92.2,168.8L91.7,168.8ZM93.2,168.8C93.1,168.8 93,168.7 93,168.7L92.8,168.1C92.8,168 92.8,168 92.9,168L93.4,168C93.5,168 93.6,168.1 93.6,168.1L93.8,168.7C93.8,168.8 93.8,168.8 93.7,168.8L93.2,168.8ZM94.7,168.8C94.6,168.8 94.5,168.7 94.5,168.7L94.3,168.1C94.3,168 94.3,168 94.4,168L94.9,168C95,168 95.1,168.1 95.1,168.1L95.3,168.7C95.3,168.8 95.3,168.8 95.2,168.8L94.7,168.8ZM96.2,168.8C96.1,168.8 96,168.7 96,168.7L95.8,168.1C95.8,168 95.8,168 95.9,168L96.4,168C96.5,168 96.6,168.1 96.6,168.1L96.8,168.7C96.8,168.8 96.8,168.8 96.7,168.8L96.2,168.8ZM97.7,168.8C97.6,168.8 97.5,168.7 97.5,168.7L97.3,168.1C97.3,168 97.3,168 97.4,168L97.9,168C98,168 98.1,168.1 98.1,168.1L98.3,168.7C98.3,168.8 98.3,168.8 98.2,168.8L97.7,168.8ZM99.2,168.7C99.1,168.7 99,168.7 99,168.6L98.8,168C98.8,167.9 98.8,167.9 98.9,167.9L99.3,167.9C99.4,167.9 99.5,167.9 99.5,168L99.7,168.6C99.7,168.7 99.7,168.7 99.6,168.7L99.2,168.7ZM100.7,168.5C100.6,168.5 100.5,168.5 100.5,168.4L100.3,167.8C100.3,167.7 100.3,167.7 100.4,167.6L100.8,167.5C100.9,167.5 101,167.5 101,167.6L101.2,168.2C101.2,168.3 101.2,168.3 101.1,168.4L100.7,168.5ZM102.1,168.2C102,168.2 101.9,168.2 101.9,168.1L101.7,167.5C101.7,167.4 101.7,167.3 101.8,167.3L102.2,167.2C102.3,167.2 102.4,167.2 102.4,167.3L102.6,167.9C102.6,168 102.6,168 102.5,168.1L102.1,168.2ZM103.4,167.7L103.2,167.1C103.2,167 103.2,167 103.3,166.9L103.7,166.7C103.8,166.7 103.9,166.7 103.9,166.8L104.1,167.4C104.1,167.5 104.1,167.6 104,167.6L103.6,167.8C103.5,167.8 103.4,167.8 103.4,167.7ZM90.9,176.2C90.8,176.2 90.7,176.1 90.7,176.1L90.5,175.5C90.5,175.4 90.5,175.4 90.6,175.4L91.1,175.4C91.2,175.4 91.3,175.5 91.3,175.5L91.5,176.1C91.5,176.2 91.5,176.2 91.4,176.2L90.9,176.2ZM92.4,176.2C92.3,176.2 92.2,176.1 92.2,176.1L92,175.5C92,175.4 92,175.4 92.1,175.4L92.6,175.4C92.7,175.4 92.8,175.5 92.8,175.5L93,176.1C93,176.2 93,176.2 92.9,176.2L92.4,176.2ZM94,176.2C93.9,176.2 93.8,176.1 93.8,176.1L93.6,175.5C93.6,175.4 93.6,175.4 93.7,175.4L94.2,175.4C94.3,175.4 94.4,175.5 94.4,175.5L94.6,176.1C94.6,176.2 94.6,176.2 94.5,176.2L94,176.2ZM95.5,176.2C95.4,176.2 95.3,176.1 95.3,176.1L95.1,175.5C95.1,175.4 95.1,175.4 95.2,175.4L95.7,175.4C95.8,175.4 95.9,175.5 95.9,175.5L96.1,176.1C96.1,176.2 96.1,176.2 96,176.2L95.5,176.2ZM97,176.2C96.9,176.2 96.8,176.1 96.8,176.1L96.6,175.5C96.6,175.4 96.6,175.4 96.7,175.4L97.2,175.4C97.3,175.4 97.4,175.5 97.4,175.5L97.6,176.1C97.6,176.2 97.6,176.2 97.5,176.2L97,176.2ZM98.6,176.2C98.5,176.2 98.4,176.1 98.4,176.1L98.2,175.5C98.2,175.4 98.2,175.4 98.3,175.4L98.8,175.4C98.9,175.4 99,175.5 99,175.5L99.2,176.1C99.2,176.2 99.2,176.2 99.1,176.2L98.6,176.2ZM100.1,176.1C100,176.1 99.9,176 99.9,176L99.7,175.4C99.7,175.3 99.7,175.3 99.8,175.3L100.3,175.3C100.4,175.3 100.5,175.4 100.5,175.4L100.7,176C100.7,176.1 100.7,176.1 100.6,176.1L100.1,176.1ZM101.6,176C101.5,176 101.4,176 101.4,175.9L101.2,175.3C101.2,175.2 101.2,175.2 101.3,175.2L101.7,175.1C101.8,175.1 101.9,175.1 101.9,175.2L102.1,175.8C102.1,175.9 102.1,175.9 102,175.9L101.6,176ZM103,175.8C102.9,175.8 102.8,175.8 102.8,175.7L102.6,175.1C102.6,175 102.6,175 102.7,174.9L103.1,174.8C103.2,174.8 103.3,174.8 103.3,174.9L103.5,175.5C103.5,175.6 103.5,175.6 103.4,175.7L103,175.8ZM104.4,175.5C104.3,175.5 104.2,175.5 104.2,175.4L104,174.8C104,174.7 104,174.7 104.1,174.6L104.5,174.5C104.6,174.5 104.7,174.5 104.7,174.6L104.9,175.2C104.9,175.3 104.9,175.3 104.8,175.4L104.4,175.5Z" style="fill:rgb(251,195,41);fill-rule:nonzero;"/>
        <path d="M102.3,201L110.4,195.1C105,192.5 103.4,186.3 102.8,184.5C101,179.1 100.3,176.8 100.3,176.8L92.3,182.7C92.3,182.7 93,185 94.8,190.5C95.5,192.3 97.4,197.8 102.3,201ZM99,197.2L98.7,196.8C98.7,196.7 98.7,196.6 98.7,196.6L99.2,196.2C99.3,196.2 99.4,196.2 99.4,196.2L99.7,196.6C99.7,196.7 99.7,196.8 99.7,196.8L99.1,197.2C99.2,197.3 99.1,197.3 99,197.2ZM100,198.3L99.7,198C99.6,197.9 99.6,197.9 99.7,197.8L100.2,197.4C100.3,197.4 100.4,197.4 100.4,197.4L100.7,197.7C100.8,197.8 100.7,197.8 100.7,197.9L100.2,198.3C100.1,198.4 100,198.4 100,198.3ZM101,199.3L100.7,199C100.6,198.9 100.6,198.9 100.7,198.8L101.2,198.4C101.3,198.4 101.4,198.4 101.4,198.4L101.7,198.7C101.8,198.8 101.8,198.8 101.7,198.9L101.2,199.3C101.2,199.4 101.1,199.4 101,199.3ZM103,199.9L102.5,200.3C102.4,200.3 102.3,200.3 102.3,200.3L101.9,200C101.8,199.9 101.8,199.9 101.9,199.8L102.4,199.4C102.5,199.4 102.6,199.4 102.6,199.4L103,199.7C103,199.8 103,199.9 103,199.9ZM106.2,193.8L105.9,193.5C105.8,193.4 105.8,193.4 105.9,193.3L106.4,192.9C106.5,192.9 106.6,192.9 106.6,192.9L106.9,193.2C107,193.3 107,193.3 106.9,193.4L106.4,193.8C106.3,193.9 106.2,193.9 106.2,193.8ZM107.3,194.8L106.9,194.5C106.8,194.4 106.8,194.4 106.9,194.3L107.4,193.9C107.5,193.9 107.6,193.9 107.6,193.9L108,194.2C108.1,194.2 108.1,194.3 108,194.4L107.5,194.8C107.5,194.9 107.4,194.9 107.3,194.8ZM108.7,194.9C108.8,194.9 108.9,194.9 108.9,194.9L109.3,195.1C109.4,195.1 109.4,195.2 109.3,195.3L108.8,195.7C108.7,195.7 108.6,195.7 108.6,195.7L108.2,195.5C108.1,195.5 108.1,195.4 108.2,195.3L108.7,194.9ZM99.3,178.5C99.3,178.4 99.3,178.3 99.4,178.3L100,177.9C100.1,177.9 100.1,177.9 100.2,178L100.3,178.4C100.3,178.5 100.3,178.6 100.2,178.6L99.7,179C99.6,179 99.6,179 99.5,178.9L99.3,178.5ZM99.8,180C99.8,179.9 99.8,179.8 99.9,179.8L100.4,179.4C100.5,179.4 100.5,179.4 100.6,179.5L100.7,179.9C100.7,180 100.7,180.1 100.6,180.1L100.1,180.5C100,180.5 100,180.5 99.9,180.4L99.8,180ZM100.3,181.4C100.3,181.3 100.3,181.2 100.4,181.2L100.9,180.8C101,180.8 101,180.8 101.1,180.9L101.2,181.3C101.2,181.4 101.2,181.5 101.1,181.5L100.6,181.9C100.5,181.9 100.5,181.9 100.4,181.8L100.3,181.4ZM100.8,182.9C100.8,182.8 100.8,182.7 100.9,182.7L101.4,182.3C101.5,182.3 101.5,182.3 101.6,182.4L101.7,182.8C101.7,182.9 101.7,183 101.6,183L101.1,183.4C101,183.4 101,183.4 100.9,183.3L100.8,182.9ZM101.3,184.3C101.3,184.2 101.3,184.1 101.4,184.1L102,183.7C102.1,183.7 102.1,183.7 102.2,183.8L102.3,184.2C102.3,184.3 102.3,184.4 102.2,184.4L101.7,184.8C101.6,184.8 101.6,184.8 101.5,184.7L101.3,184.3ZM101.7,185.8C101.7,185.7 101.7,185.6 101.8,185.6L102.3,185.2C102.4,185.2 102.4,185.2 102.5,185.3L102.6,185.7C102.6,185.8 102.6,185.9 102.5,185.9L102,186.3C101.9,186.3 101.9,186.3 101.8,186.2L101.7,185.8ZM102.2,187.2C102.2,187.1 102.2,187 102.3,187L102.8,186.6C102.9,186.6 102.9,186.6 103,186.7L103.1,187.1C103.1,187.2 103.1,187.3 103,187.3L102.5,187.7C102.4,187.7 102.4,187.7 102.3,187.6L102.2,187.2ZM102.7,188.6C102.7,188.5 102.7,188.4 102.8,188.4L103.3,188C103.4,188 103.4,188 103.5,188.1L103.7,188.5C103.7,188.6 103.7,188.7 103.7,188.7L103.1,189.1C103,189.1 103,189.1 102.9,189L102.7,188.6ZM103.4,190C103.4,189.9 103.4,189.8 103.4,189.8L103.9,189.4C104,189.4 104,189.4 104.1,189.5L104.3,189.9C104.3,190 104.3,190.1 104.3,190.1L103.8,190.5C103.7,190.5 103.7,190.5 103.6,190.4L103.4,190ZM104.1,191.2C104.1,191.1 104.1,191 104.1,191L104.6,190.6C104.7,190.6 104.8,190.6 104.8,190.6L105.1,191C105.1,191.1 105.1,191.2 105.1,191.2L104.6,191.6C104.5,191.6 104.4,191.6 104.4,191.6L104.1,191.2ZM104.9,192.2L105.4,191.8C105.5,191.8 105.6,191.8 105.6,191.8L105.9,192.1C106,192.2 105.9,192.3 105.9,192.3L105.3,192.7C105.2,192.7 105.2,192.7 105.1,192.7L104.8,192.4C104.9,192.4 104.9,192.3 104.9,192.2ZM93,183C93,182.9 93,182.8 93.1,182.8L93.6,182.4C93.7,182.4 93.7,182.4 93.8,182.5L93.9,182.9C93.9,183 93.9,183.1 93.8,183.1L93.3,183.5C93.2,183.5 93.2,183.5 93.1,183.4L93,183ZM93.5,184.5C93.5,184.4 93.5,184.3 93.6,184.3L94.1,183.9C94.2,183.9 94.2,183.9 94.3,184L94.4,184.4C94.4,184.5 94.4,184.6 94.3,184.6L93.8,185C93.7,185 93.7,185 93.6,184.9L93.5,184.5ZM94,185.9C94,185.8 94,185.7 94.1,185.7L94.6,185.3C94.7,185.3 94.7,185.3 94.8,185.4L94.9,185.8C94.9,185.9 94.9,186 94.8,186L94.3,186.4C94.2,186.4 94.2,186.4 94.1,186.3L94,185.9ZM94.4,187.4C94.4,187.3 94.4,187.2 94.5,187.2L95,186.8C95.1,186.8 95.1,186.8 95.2,186.9L95.3,187.3C95.3,187.4 95.3,187.5 95.2,187.5L94.7,187.9C94.6,187.9 94.6,187.9 94.5,187.8L94.4,187.4ZM94.9,188.8C94.9,188.7 94.9,188.6 95,188.6L95.5,188.2C95.6,188.2 95.6,188.2 95.7,188.3L95.8,188.7C95.8,188.8 95.8,188.9 95.7,188.9L95.2,189.3C95.1,189.3 95.1,189.3 95,189.2L94.9,188.8ZM95.4,190.3C95.4,190.2 95.4,190.1 95.5,190.1L96,189.7C96.1,189.7 96.1,189.7 96.2,189.8L96.3,190.2C96.3,190.3 96.3,190.4 96.2,190.4L95.7,190.8C95.6,190.8 95.6,190.8 95.5,190.7L95.4,190.3ZM95.9,191.7C95.9,191.6 95.9,191.5 96,191.5L96.5,191.1C96.6,191.1 96.6,191.1 96.7,191.2L96.9,191.6C96.9,191.7 96.9,191.8 96.8,191.8L96.3,192.2C96.2,192.2 96.2,192.2 96.1,192.1L95.9,191.7ZM96.5,193.1C96.5,193 96.5,192.9 96.5,192.9L97,192.5C97.1,192.5 97.1,192.5 97.2,192.6L97.4,193C97.4,193.1 97.4,193.2 97.4,193.2L96.9,193.6C96.8,193.6 96.8,193.6 96.7,193.5L96.5,193.1ZM97.2,194.4C97.2,194.3 97.2,194.2 97.2,194.2L97.7,193.8C97.8,193.8 97.8,193.8 97.9,193.9L98.1,194.3C98.1,194.4 98.1,194.5 98.1,194.5L97.6,194.9C97.5,194.9 97.5,194.9 97.4,194.8L97.2,194.4ZM97.9,195.7C97.9,195.6 97.9,195.5 97.9,195.5L98.4,195.1C98.5,195.1 98.5,195.1 98.6,195.1L98.8,195.5C98.8,195.6 98.8,195.7 98.8,195.7L98.3,196.1C98.2,196.1 98.2,196.1 98.1,196.1L97.9,195.7Z" style="fill:rgb(251,195,41);fill-rule:nonzero;"/>
        <path d="M72.9,201.5L81.1,207.4C81.9,201.4 87.3,198 88.8,196.9C93.4,193.5 95.3,192.1 95.3,192.1L87.2,186.3C87.2,186.3 85.2,187.7 80.6,191.1C79.1,192.3 74.4,195.8 72.9,201.5ZM75.5,197.2L75.8,196.8C75.8,196.7 75.9,196.7 76,196.8L76.5,197.2C76.6,197.2 76.6,197.3 76.5,197.4L76.2,197.8C76.2,197.9 76.1,197.9 76,197.8L75.5,197.4C75.5,197.3 75.5,197.2 75.5,197.2ZM74.8,198.4L75,198C75,197.9 75.1,197.9 75.2,198L75.7,198.4C75.8,198.4 75.8,198.5 75.7,198.6L75.5,199C75.5,199.1 75.4,199.1 75.3,199L74.8,198.6C74.7,198.6 74.7,198.5 74.8,198.4ZM74.1,199.8L74.3,199.4C74.3,199.3 74.4,199.3 74.5,199.4L75,199.8C75.1,199.8 75.1,199.9 75,200L74.8,200.4C74.8,200.5 74.7,200.5 74.6,200.5L74.1,200.1C74.1,199.9 74.1,199.8 74.1,199.8ZM74.2,201.8L73.7,201.4C73.6,201.4 73.6,201.3 73.6,201.2L73.8,200.8C73.8,200.7 73.9,200.7 74,200.7L74.5,201.1C74.6,201.1 74.6,201.2 74.6,201.3L74.4,201.7C74.3,201.8 74.2,201.8 74.2,201.8ZM80.9,203L81.1,202.6C81.1,202.5 81.2,202.5 81.3,202.6L81.8,203C81.9,203 81.9,203.1 81.8,203.2L81.6,203.6C81.6,203.7 81.5,203.7 81.4,203.7L80.9,203.3C80.9,203.1 80.9,203 80.9,203ZM80.3,204.3L80.4,203.9C80.4,203.8 80.5,203.8 80.6,203.8L81.1,204.2C81.2,204.2 81.2,204.3 81.2,204.4L81.1,204.8C81.1,204.9 81,204.9 80.9,204.9L80.4,204.5C80.3,204.5 80.3,204.4 80.3,204.3ZM80.7,205.7C80.8,205.7 80.8,205.9 80.8,205.9L80.7,206.4C80.7,206.5 80.6,206.5 80.6,206.5L80.1,206.1C80,206.1 80,205.9 80,205.9L80.1,205.4C80.1,205.3 80.2,205.3 80.2,205.3L80.7,205.7ZM93.4,191.7C93.5,191.7 93.6,191.6 93.6,191.7L94.1,192.1C94.2,192.1 94.2,192.2 94.1,192.3L93.7,192.6C93.6,192.6 93.5,192.6 93.5,192.6L93,192.2C92.9,192.2 92.9,192.1 93,192L93.4,191.7ZM92.1,192.6C92.2,192.6 92.3,192.6 92.3,192.6L92.8,193C92.9,193 92.9,193.1 92.8,193.2L92.4,193.5C92.3,193.6 92.2,193.6 92.2,193.5L91.7,193.1C91.6,193.1 91.6,193 91.7,192.9L92.1,192.6ZM90.9,193.5C91,193.5 91.1,193.4 91.1,193.5L91.6,193.9C91.7,193.9 91.7,194 91.6,194.1L91.2,194.4C91.1,194.4 91,194.5 91,194.4L90.5,194C90.4,194 90.4,193.9 90.5,193.8L90.9,193.5ZM89.7,194.4C89.8,194.3 89.9,194.3 89.9,194.4L90.4,194.8C90.5,194.8 90.5,194.9 90.4,195L90,195.3C89.9,195.3 89.8,195.4 89.8,195.3L89.3,194.9C89.2,194.9 89.2,194.8 89.3,194.7L89.7,194.4ZM88.5,195.3C88.6,195.3 88.7,195.2 88.7,195.3L89.2,195.7C89.3,195.7 89.3,195.8 89.2,195.9L88.8,196.2C88.7,196.3 88.6,196.3 88.6,196.2L88.1,195.8C88,195.8 88,195.7 88.1,195.6L88.5,195.3ZM87.2,196.2C87.3,196.2 87.4,196.1 87.4,196.2L87.9,196.6C88,196.6 88,196.7 87.9,196.8L87.5,197.1C87.4,197.1 87.3,197.2 87.3,197.1L86.8,196.7C86.7,196.7 86.7,196.6 86.8,196.5L87.2,196.2ZM86,197.1C86.1,197 86.2,197 86.2,197.1L86.7,197.5C86.8,197.5 86.8,197.6 86.7,197.7L86.3,198C86.2,198.1 86.1,198.1 86.1,198L85.6,197.6C85.5,197.6 85.5,197.5 85.6,197.4L86,197.1ZM84.8,198.1C84.9,198 85,198 85,198.1L85.5,198.5C85.6,198.5 85.6,198.6 85.5,198.7L85.2,199C85.1,199.1 85,199.1 85,199L84.5,198.6C84.4,198.6 84.4,198.5 84.5,198.4L84.8,198.1ZM83.8,199.1C83.9,199 84,199 84,199.1L84.5,199.5C84.6,199.5 84.6,199.6 84.5,199.7L84.2,200C84.1,200.1 84,200.1 84,200L83.5,199.6C83.4,199.6 83.4,199.5 83.5,199.4L83.8,199.1ZM82.8,200.2C82.9,200.1 82.9,200.1 83,200.2L83.5,200.6C83.6,200.6 83.6,200.7 83.5,200.8L83.2,201.2C83.2,201.3 83.1,201.3 83,201.2L82.5,200.8C82.4,200.8 82.4,200.7 82.5,200.6L82.8,200.2ZM82.1,201.3L82.6,201.7C82.7,201.7 82.7,201.8 82.6,201.9L82.4,202.3C82.4,202.4 82.3,202.4 82.2,202.3L81.7,201.9C81.6,201.9 81.6,201.8 81.7,201.7L81.9,201.3C81.9,201.3 82,201.2 82.1,201.3ZM87.2,187.1C87.3,187.1 87.4,187 87.4,187.1L87.9,187.5C88,187.5 88,187.6 87.9,187.7L87.5,188C87.4,188.1 87.3,188.1 87.3,188L86.8,187.6C86.7,187.6 86.7,187.5 86.8,187.4L87.2,187.1ZM85.9,188C86,187.9 86.1,187.9 86.1,188L86.6,188.4C86.7,188.4 86.7,188.5 86.6,188.6L86.2,188.9C86.1,188.9 86,189 86,188.9L85.5,188.5C85.4,188.5 85.4,188.4 85.5,188.3L85.9,188ZM84.7,188.9C84.8,188.9 84.9,188.8 84.9,188.9L85.4,189.3C85.5,189.3 85.5,189.4 85.4,189.5L85,189.8C84.9,189.8 84.8,189.9 84.8,189.8L84.3,189.4C84.2,189.4 84.2,189.3 84.3,189.2L84.7,188.9ZM83.5,189.8C83.6,189.7 83.7,189.7 83.7,189.8L84.2,190.2C84.3,190.2 84.3,190.3 84.2,190.4L83.8,190.7C83.7,190.7 83.6,190.8 83.6,190.7L83.1,190.3C83,190.3 83,190.2 83.1,190.1L83.5,189.8ZM82.2,190.7C82.3,190.6 82.4,190.6 82.4,190.7L82.9,191.1C83,191.1 83,191.2 82.9,191.3L82.5,191.6C82.4,191.7 82.3,191.7 82.3,191.6L81.8,191.2C81.7,191.2 81.7,191.1 81.8,191L82.2,190.7ZM81,191.6C81.1,191.6 81.2,191.5 81.2,191.6L81.7,192C81.8,192 81.8,192.1 81.7,192.2L81.3,192.5C81.2,192.6 81.1,192.6 81.1,192.5L80.6,192.1C80.5,192.1 80.5,192 80.6,191.9L81,191.6ZM79.8,192.5C79.9,192.4 80,192.4 80,192.5L80.5,192.9C80.6,192.9 80.6,193 80.5,193.1L80.1,193.4C80,193.5 79.9,193.5 79.9,193.4L79.4,193C79.3,193 79.3,192.9 79.4,192.8L79.8,192.5ZM78.7,193.5C78.8,193.4 78.9,193.4 78.9,193.5L79.4,193.9C79.5,193.9 79.5,194 79.4,194.1L79.1,194.4C79,194.5 78.9,194.5 78.9,194.4L78.4,194C78.3,194 78.3,193.9 78.4,193.8L78.7,193.5ZM77.6,194.6C77.7,194.5 77.7,194.5 77.8,194.6L78.3,195C78.4,195 78.4,195.1 78.3,195.2L78,195.5C77.9,195.6 77.9,195.6 77.8,195.5L77.3,195.1C77.2,195.1 77.2,195 77.3,194.9L77.6,194.6ZM76.7,195.7C76.8,195.6 76.8,195.6 76.9,195.7L77.4,196.1C77.5,196.1 77.5,196.2 77.4,196.3L77.1,196.6C77,196.7 77,196.7 76.9,196.6L76.4,196.2C76.3,196.2 76.3,196.1 76.4,196L76.7,195.7Z" style="fill:rgb(251,195,41);fill-rule:nonzero;"/>
        <path d="M63.4,173.7L60.3,183.3C66.2,182.3 71.1,186.3 72.7,187.4C77.3,190.7 79.2,192.1 79.2,192.1L82.3,182.6C82.3,182.6 80.3,181.1 75.7,177.8C74.1,176.7 69.3,173.4 63.4,173.7ZM68.3,174.9L68.7,175C68.8,175 68.8,175.1 68.8,175.2L68.6,175.8C68.6,175.9 68.5,175.9 68.4,175.9L68,175.8C67.9,175.8 67.9,175.7 67.9,175.6L68.1,175C68.2,174.9 68.2,174.8 68.3,174.9ZM66.9,174.5L67.3,174.6C67.4,174.6 67.4,174.7 67.4,174.8L67.2,175.4C67.2,175.5 67.1,175.5 67,175.5L66.6,175.4C66.5,175.4 66.5,175.3 66.5,175.2L66.7,174.6C66.7,174.6 66.8,174.5 66.9,174.5ZM65.4,174.3L65.8,174.4C65.9,174.4 65.9,174.5 65.9,174.5L65.7,175.1C65.7,175.2 65.6,175.2 65.5,175.2L65.1,175.1C65,175.1 65,175 65,174.9L65.2,174.3C65.3,174.3 65.3,174.3 65.4,174.3ZM63.5,175L63.7,174.4C63.7,174.3 63.8,174.3 63.9,174.3L64.4,174.3C64.5,174.3 64.5,174.4 64.5,174.4L64.3,175C64.3,175.1 64.2,175.1 64.1,175.1L63.6,175.1C63.5,175.1 63.5,175.1 63.5,175ZM64.5,181.8L64.9,181.9C65,181.9 65,182 65,182L64.8,182.6C64.8,182.7 64.7,182.7 64.6,182.7L64.2,182.6C64.1,182.6 64.1,182.5 64.1,182.4L64.3,181.8C64.3,181.8 64.4,181.8 64.5,181.8ZM63,181.6L63.5,181.6C63.6,181.6 63.6,181.7 63.6,181.7L63.4,182.3C63.4,182.4 63.3,182.4 63.2,182.4L62.7,182.4C62.6,182.4 62.6,182.3 62.6,182.3L62.8,181.7C62.8,181.7 62.9,181.6 63,181.6ZM61.8,182.4C61.8,182.5 61.7,182.5 61.6,182.5L61.1,182.5C61,182.5 61,182.5 61,182.4L61.2,181.8C61.2,181.7 61.3,181.7 61.4,181.6L61.9,181.6C62,181.6 62,181.6 62,181.7L61.8,182.4ZM79,190.2C79.1,190.2 79.1,190.3 79.1,190.4L78.9,191C78.9,191.1 78.8,191.1 78.7,191L78.3,190.7C78.2,190.6 78.2,190.5 78.2,190.5L78.4,189.9C78.4,189.8 78.5,189.8 78.6,189.9L79,190.2ZM77.7,189.3C77.8,189.4 77.8,189.5 77.8,189.5L77.6,190.1C77.6,190.2 77.5,190.2 77.4,190.1L77,189.8C76.9,189.7 76.9,189.6 76.9,189.6L77.1,189C77.1,188.9 77.2,188.9 77.3,189L77.7,189.3ZM76.5,188.4C76.6,188.5 76.6,188.5 76.6,188.6L76.4,189.2C76.4,189.3 76.3,189.3 76.2,189.2L75.8,188.9C75.7,188.9 75.7,188.8 75.7,188.7L75.9,188.1C75.9,188 76,188 76.1,188.1L76.5,188.4ZM75.3,187.5C75.4,187.5 75.4,187.7 75.4,187.7L75.2,188.3C75.2,188.4 75.1,188.4 75,188.3L74.6,188C74.5,188 74.5,187.9 74.5,187.8L74.7,187.2C74.7,187.1 74.8,187.1 74.9,187.2L75.3,187.5ZM74.1,186.6C74.2,186.7 74.2,186.7 74.2,186.8L74,187.4C74,187.5 73.9,187.5 73.8,187.4L73.4,187.1C73.3,187.1 73.3,187 73.3,186.9L73.5,186.3C73.5,186.2 73.6,186.2 73.7,186.3L74.1,186.6ZM72.8,185.7C72.9,185.7 72.9,185.9 72.9,185.9L72.7,186.5C72.7,186.6 72.6,186.6 72.5,186.5L72.1,186.2C72,186.1 72,186 72,186L72.2,185.4C72.2,185.3 72.3,185.3 72.4,185.4L72.8,185.7ZM71.6,184.8C71.7,184.8 71.7,184.9 71.7,185L71.5,185.6C71.5,185.7 71.4,185.7 71.3,185.6L70.9,185.3C70.8,185.3 70.8,185.2 70.8,185.1L71,184.5C71,184.4 71.1,184.4 71.2,184.5L71.6,184.8ZM70.3,184C70.4,184 70.4,184.1 70.4,184.2L70.2,184.8C70.2,184.9 70.1,184.9 70,184.9L69.6,184.7C69.5,184.7 69.5,184.6 69.5,184.5L69.7,183.9C69.7,183.8 69.8,183.8 69.9,183.8L70.3,184ZM69,183.3C69.1,183.3 69.1,183.4 69.1,183.5L68.9,184.1C68.9,184.2 68.8,184.2 68.7,184.2L68.3,184C68.2,184 68.2,183.9 68.2,183.8L68.4,183.2C68.4,183.1 68.5,183.1 68.6,183.1L69,183.3ZM67.7,182.7C67.8,182.7 67.8,182.8 67.8,182.9L67.6,183.5C67.6,183.6 67.5,183.6 67.4,183.6L67,183.5C66.9,183.5 66.9,183.4 66.9,183.3L67.1,182.7C67.1,182.6 67.2,182.6 67.3,182.6L67.7,182.7ZM66.4,182.4L66.2,183C66.2,183.1 66.1,183.1 66,183.1L65.6,183C65.5,183 65.5,182.9 65.5,182.8L65.7,182.2C65.7,182.1 65.8,182.1 65.9,182.1L66.3,182.2C66.4,182.2 66.5,182.3 66.4,182.4ZM81.5,182.8C81.6,182.8 81.6,182.9 81.6,183L81.4,183.6C81.4,183.7 81.3,183.7 81.2,183.6L80.8,183.3C80.7,183.3 80.7,183.2 80.7,183.1L80.9,182.5C80.9,182.4 81,182.4 81.1,182.5L81.5,182.8ZM80.3,181.9C80.4,182 80.4,182.1 80.4,182.1L80.2,182.7C80.2,182.8 80.1,182.8 80,182.7L79.6,182.4C79.5,182.4 79.5,182.3 79.5,182.2L79.7,181.6C79.7,181.5 79.8,181.5 79.9,181.6L80.3,181.9ZM79,181C79.1,181 79.1,181.1 79.1,181.2L78.9,181.8C78.9,181.9 78.8,181.9 78.7,181.8L78.3,181.5C78.2,181.5 78.2,181.4 78.2,181.3L78.4,180.7C78.4,180.6 78.5,180.6 78.6,180.7L79,181ZM77.8,180.1C77.9,180.1 77.9,180.2 77.9,180.3L77.7,180.9C77.7,181 77.6,181 77.5,180.9L77.1,180.6C77,180.6 77,180.5 77,180.4L77.2,179.8C77.2,179.7 77.3,179.7 77.4,179.8L77.8,180.1ZM76.5,179.2C76.6,179.3 76.6,179.3 76.6,179.4L76.4,180C76.4,180.1 76.3,180.1 76.2,180L75.8,179.7C75.7,179.7 75.7,179.6 75.7,179.5L76,179C76,178.9 76.1,178.9 76.2,179L76.5,179.2ZM75.3,178.3C75.4,178.3 75.4,178.5 75.4,178.5L75.2,179.1C75.2,179.2 75.1,179.2 75,179.1L74.6,178.8C74.5,178.8 74.5,178.7 74.5,178.6L74.7,178C74.7,177.9 74.8,177.9 74.9,178L75.3,178.3ZM74,177.5C74.1,177.5 74.1,177.6 74.1,177.7L73.9,178.3C73.9,178.4 73.8,178.4 73.7,178.3L73.3,178.1C73.2,178.1 73.2,178 73.2,177.9L73.4,177.3C73.4,177.2 73.5,177.2 73.6,177.3L74,177.5ZM72.8,176.7C72.9,176.7 72.9,176.8 72.9,176.9L72.7,177.5C72.7,177.6 72.6,177.6 72.5,177.6L72.1,177.4C72,177.4 72,177.3 72,177.2L72.2,176.6C72.2,176.5 72.3,176.5 72.4,176.5L72.8,176.7ZM71.4,176C71.5,176 71.5,176.1 71.5,176.2L71.3,176.8C71.3,176.9 71.2,176.9 71.1,176.9L70.7,176.7C70.6,176.7 70.6,176.6 70.6,176.5L70.8,175.9C70.8,175.8 70.9,175.8 71,175.8L71.4,176ZM70.1,175.5C70.2,175.5 70.2,175.6 70.2,175.7L70,176.3C70,176.4 69.9,176.4 69.8,176.4L69.4,176.2C69.3,176.2 69.3,176.1 69.3,176L69.5,175.4C69.5,175.3 69.6,175.3 69.7,175.3L70.1,175.5Z" style="fill:rgb(251,195,41);fill-rule:nonzero;"/>
    </g>
</svg>
