<?xml version="1.0" encoding="utf-8"?>
<!-- Generator: Adobe Illustrator 23.0.3, SVG Export Plug-In . SVG Version: 6.00 Build 0)  -->
<svg version="1.1" id="Capa_1" xmlns="http://www.w3.org/2000/svg" xmlns:xlink="http://www.w3.org/1999/xlink" x="0px" y="0px"
	 viewBox="0 0 350 133" style="enable-background:new 0 0 350 133;" xml:space="preserve">
<style type="text/css">
	.st0{fill-rule:evenodd;clip-rule:evenodd;fill:#FFFFFF;}
	.st1{fill:#FFFFFF;}
	.st2{clip-path:url(#SVGID_4_);fill:#FFFFFF;}
	.st3{clip-path:url(#SVGID_8_);fill:#FFFFFF;}
	.st4{clip-path:url(#SVGID_10_);fill:#FFFFFF;}
	.st5{clip-path:url(#SVGID_12_);fill:#FFFFFF;}
	.st6{clip-path:url(#SVGID_14_);fill:#FFFFFF;}
	.st7{clip-path:url(#SVGID_16_);fill:#FFFFFF;}
	.st8{clip-path:url(#SVGID_20_);fill:#FFFFFF;}
	.st9{clip-path:url(#SVGID_24_);fill:#FFFFFF;}
	.st10{clip-path:url(#SVGID_28_);fill:#FFFFFF;}
	.st11{clip-path:url(#SVGID_32_);fill:#FFFFFF;}
	.st12{clip-path:url(#SVGID_36_);fill:#FFFFFF;}
	.st13{clip-path:url(#SVGID_40_);fill:#FFFFFF;}
	.st14{clip-path:url(#SVGID_44_);fill:#FFFFFF;}
	.st15{clip-path:url(#SVGID_48_);fill:#FFFFFF;}
	.st16{clip-path:url(#SVGID_52_);fill:#FFFFFF;}
	.st17{clip-path:url(#SVGID_56_);fill:#FFFFFF;}
	.st18{clip-path:url(#SVGID_60_);fill:#FFFFFF;}
</style>
<g>
	<g>
		<g>
			<rect x="81.9" y="49.4" class="st0" width="1.3" height="4.2"/>
			<polygon class="st0" points="89.9,49.4 88.6,49.4 88.6,52.4 86.1,49.4 84.1,49.4 84.1,53.6 85.4,53.6 85.4,50.5 87.8,53.6 
				89.9,53.6 			"/>
			<g>
				<path class="st0" d="M92.1,51.1v-0.6h2.3c0.3,0,0.4,0.1,0.4,0.4c0,0.2-0.2,0.4-0.4,0.4L92.1,51.1L92.1,51.1z M92.1,51.9h2.3
					c0.3,0,0.5,0.1,0.5,0.4c0,0.2-0.2,0.3-0.5,0.3h-2.3V51.9z M95.4,51.5L95.4,51.5c0.2-0.1,0.4-0.2,0.5-0.3
					c0.2-0.1,0.2-0.4,0.2-0.7c0-0.4-0.2-0.6-0.4-0.8c-0.3-0.2-0.6-0.2-1.2-0.2h-3.8v4.2h4.1c0.5,0,0.7-0.1,0.9-0.2
					c0.2-0.2,0.4-0.5,0.4-0.9c0-0.4-0.1-0.6-0.2-0.7C95.8,51.6,95.6,51.5,95.4,51.5"/>
				<path class="st0" d="M102.3,49.4H101v2.4c0,0.3-0.1,0.5-0.2,0.6c-0.1,0.1-0.4,0.2-0.6,0.2H99c-0.3,0-0.5-0.1-0.6-0.2
					c-0.1-0.1-0.2-0.3-0.2-0.6v-2.4h-1.3v2.7c0,0.6,0.2,0.9,0.5,1.2c0.3,0.3,0.7,0.4,1.3,0.4h1.9c0.6,0,1-0.1,1.3-0.4
					s0.5-0.6,0.5-1.2L102.3,49.4L102.3,49.4z"/>
				<path class="st0" d="M104.4,51.4v-1h2c0.4,0,0.6,0.1,0.6,0.5v0.2c0,0.3-0.2,0.5-0.5,0.5L104.4,51.4L104.4,51.4z M104.4,52.5h2
					c0.2,0,0.4,0,0.5,0.1c0.1,0.1,0.1,0.3,0.1,0.5v0.5h1.3v-0.7c0-0.3-0.1-0.6-0.2-0.6s-0.3-0.2-0.5-0.3c0.3-0.1,0.5-0.2,0.6-0.4
					c0.1-0.2,0.1-0.4,0.1-0.6v-0.3c0-0.5-0.1-0.7-0.3-0.9c-0.2-0.3-0.6-0.4-1-0.4h-4v4.2h1.3L104.4,52.5L104.4,52.5z"/>
				<path class="st0" d="M112,51l-1.3-0.1c-0.1,0-0.2-0.1-0.2-0.1s-0.1-0.1-0.1-0.2c0-0.2,0.2-0.4,0.5-0.4h1.5c0.3,0,0.5,0,0.6,0.1
					c0.1,0.1,0.1,0.2,0.1,0.4h1.3v-0.1c0-0.5-0.1-0.7-0.3-0.9c-0.2-0.3-0.7-0.4-1.4-0.4h-1.8c-0.7,0-1.3,0.2-1.5,0.4
					c-0.2,0.2-0.3,0.6-0.3,1c0,0.3,0,0.5,0.1,0.6c0,0.2,0.2,0.3,0.3,0.4c0.3,0.2,0.8,0.3,1.8,0.3l1.6,0.1c0.1,0,0.2,0.1,0.2,0.1
					l0.1,0.2c0,0.1-0.1,0.3-0.2,0.3l-0.4,0.1H111l-0.5-0.1c-0.1-0.1-0.2-0.2-0.2-0.4h-1.3v0.3c0,0.5,0.2,0.7,0.4,0.9
					c0.2,0.2,0.6,0.2,1.3,0.2h1.6c0.8,0,1.5-0.1,1.7-0.3c0.2-0.1,0.3-0.2,0.4-0.4c0.1-0.2,0.1-0.5,0.1-0.7c0-0.4,0-0.6-0.1-0.7
					c-0.1-0.2-0.2-0.4-0.4-0.5C113.7,51.1,113,51,112,51"/>
				<polygon class="st0" points="118.8,49.4 117.2,49.4 114.8,53.6 116.3,53.6 116.6,52.9 117.2,52 118,50.4 118.8,52 117.2,52 
					116.6,52.9 119.4,52.9 119.7,53.6 121.2,53.6 				"/>
				<path class="st1" d="M87.9,34.9c-0.6,0.6-1.1,1.1-1.3,1.6c0.4,0.2,0.9,0.4,1.6,0.5c0.6,0.1,1.7,0,2.7-0.2
					c0.5-0.1,0.7-0.4,0.5-0.4C89.8,36.3,88.3,35.6,87.9,34.9"/>
				<path class="st1" d="M90.1,25.6c0-0.1,0.2-0.3,0.4-0.3c1.6,0,2.5,0.1,3.3,0.4c-1.2,1.1-0.9,2.6-0.8,2.4c0.6-0.9,1.2-1.4,1.7-1.6
					c-0.1,0-0.2,0-0.2,0c-0.5,0.1-0.9,0.4-1.4,0.8c-0.1-0.6,0.7-1.5,1.1-1.6c0.4,0.1,2.8,0.5,2.8,1.8c0.2-0.2,0.2-0.6,0.3-0.7
					c1.7,0.6,2.6,1.1,2.6,1.2c0.2,0.2-0.3,0.7-0.6,0.9c-0.4,0.1-1.2,0.4-1.7,0.6c-0.3,0.1,0.2,0.3,0.5,0.4c0.3,0,0.6,0,0.7-0.1
					c0.7-0.3,1.3-0.6,1.7-1c2.3-2.8,2.9-7.9,6-8.2c0.3,0,0.4-0.6,0.5-0.8c0.1-0.2,0-0.6-0.1-0.6c-1.7,0.6-3.4,2.4-4.4,4.1
					c-3.4-0.4-6.8-0.3-8.2-0.2c0.9-0.1,0.4-0.6,1.7-0.3c-1-0.6-1.2-2.3-2.9-1.7c0.6,0.4,1,1.9,0.6,2c-0.8,0.1-1.4,0.3-2.1,0.4
					c-1.2,0.2-0.9,0-1.4-0.7s-2.8-3.3-4.6-4.8c-0.2-0.1-1.7-1.4-1.8-1.4c-0.3,0-0.8-0.3,1.5,3.1c0.3,0.4,1.4,2.8,1.7,3.6
					c0.4,0.9,1.6,0.8,2.3,0.9c0.2,0,0.3,0,0.4,0s0.2,0.1,0.2,0.1c0-0.1,0-0.2,0-0.2s0,0,0-0.1l0,0l0,0c0,0-0.1,0-0.1-0.1
					c-0.4-0.4-0.8-0.6-1.3-1c-0.6-0.4-3.9-5.2-4-5.5c0-0.1-0.1-0.2-0.1-0.2c-0.2-0.3,3.5,3.3,3.8,3.5c0.7,0.7,1.8,2.3,2.3,3.4
					c2.8-0.3,7.2,0.6,9.7,1.2c1.5,0.4,1.1,0.8,1.1,0.8l-0.3,0.6c-0.2-0.3-0.6-0.4-0.8-0.6c-0.6-0.4-1.4-0.6-2-0.8
					c-1-0.4-2-0.6-3.1-0.8c-0.5-0.1-0.9-0.1-1.4-0.2c-0.5-0.1-0.7,0-1.3,0c-0.5,0-1-0.1-1.5,0c-0.2,0-0.4,0.2-0.5,0.3
					c-0.1,0.2-1,1.7-1.4,2.4c-0.6,1.1-1.2,1.9-1.6,2.6c0,0-0.1,0-0.1,0.1c0.6-1.3,1.2-3.6,1.2-4.4c0-0.6,1.9-0.6,1.6-1
					c-0.2,0.5-1.7-0.3-2,0.8c-0.7,3.9-1.4,4.7-1.1,5C86.7,30.8,89.1,28.7,90.1,25.6 M84.3,18c-0.1-0.1-0.1-0.2-0.2-0.4L84.3,18z
					 M92.4,23.9c3.8-0.3,7.2-0.1,9.4,0.4l-0.1,0.2c0,0-0.2,0.4-0.7,0.2C97.9,24,95,23.9,92.4,23.9"/>
				<path class="st1" d="M96.3,30.2L96.3,30.2c-0.1,0-0.1,0-0.2,0c-0.2,0-0.3,0-0.5,0.1c-1.7,0.4-4.2,2-5.4,2.8
					c-0.2,0.1-0.4,0.3-0.6,0.4c-0.1,0.1-0.2,0.1-0.2,0.1l0,0c-0.4,0.3-0.7,0.6-1,0.7c-0.1,0.1,0.1,0.6,0.3,0.7
					c0.9,0.6,2.6,1.1,4.2,0.8c4.9-1,7.6-2.1,8.5-2.7c0.3-0.2,0.8-0.7,0.5-1.1c-0.9-1-2.8-1.6-5.5-1.8C96.6,30.2,96.5,30.2,96.3,30.2
					"/>
				<path class="st1" d="M120.5,36.3c-4.1,0.3-7.1-0.9-7.6-1.5c-0.6,0.5-1.3,1-2.2,1.5c-0.6,0.3-1.3,0.5-1.1,0.4
					c3.3-2.1,4.2-4.3,4-5.9c-0.1-0.5-0.5-0.9-0.5-0.8c-0.2,1.3-0.9,3.6-5.5,5.5c-0.8,0.4-1.8,0.6-1.5,0.4c5.8-2.8,6.4-5.5,6.1-7.4
					c-0.1-0.6-0.6-1-1.1-1.4c-0.4-0.3-1-0.5-0.9-0.3c0.8,1.6,0.8,3.8-1.7,5.7c-0.6,0.5-1.6,0.7-1.2,0.5c3-2.6,2.6-5.8,1-7.4
					c-0.4-0.4-1-0.6-0.9-0.4c1,1.3-0.3,3.4-2.1,4.3c-0.2,0.1-0.6,0.4-0.4,0.6c0.6,0.6,0.8,1.3,0.8,2.1c-0.3-1-1-1.7-1.9-2.2
					c-0.3-0.1-0.5,0.3-0.4,0.4c0.8,0.9,1.5,2.1,1.4,3.5c-0.4-1.7-1.5-3.4-3.4-3.8c-0.1,0,0.3-0.1,0.6-0.1c6.6-0.9,5.3-5.4,4-5.1
					c0.9,0,0.9,1.9-0.1,2.8c-0.2,0.2-0.5,0.3-0.6-0.2c-0.5-3.5,0.8-5.3,0.6-5.3c-2,0.2-2.9,6.4-6,7.8c-0.3,0.2,0.1,0.3,0.3,0.4
					c2.3,0.6,3.8,2.5,3.6,5c-0.1-0.6-0.3-1.4-0.6-1.9c-0.1-0.2-0.4-0.5-0.6-0.3c-0.8,0.7-2.5,1.5-3.8,1.8c-0.2,0.1-0.4,0.2-0.6,0.5
					c-0.1,0.1-0.6,0.9-0.9,0.6c-0.3-0.2,0-0.5,0.4-0.7c-0.2,0.1-0.4,0.1-0.4,0.1c-1.4,0.4-3,0.7-4.8,1.3c-1.7,0.6-2.9,1-4.8,0.6
					c-0.6-0.1-0.9-0.3-1.3-0.5l0,0c-0.1,0.2,0.4,0.7,0.4,0.7c0.6,0.7,2.1,1.1,4.7,1.1c2.6,0,4.8-0.5,5.7-1.3
					c0.5-0.4-0.1,0.8-0.9,1.1c-1,0.4-3.4,0.9-4.9,0.8c-0.1,0-0.1,0.1,0,0.2c1.1,0.5,2.8,0.7,3.5,0.8c7.3,0.5,12.7-1.7,13.2-1.8
					c0.6-0.3,3.1-1.3,4.1-2.4c2.5,0.7,4.1,1.1,7,1c-1.7,1.2-10.1,1.2-10.1,1.3c2,0.2,7.6,0.8,11-1C121.2,36.8,121.8,36.2,120.5,36.3
					 M105.8,38.2c-4.5,2.1-10.2,1.7-11.6,1.3c-0.2,0-0.1-0.1,0-0.1c2.4-0.2,5.3-1.7,3.8-2.5c-0.2-0.1,0.1-0.5,0.6-0.4
					c0.8,0.2,1.2,1.6-0.6,2.5c-1,0.5,5.8-0.2,9.4-1.9C107.7,36.9,106.8,37.7,105.8,38.2"/>
			</g>
		</g>
		<g>
			<path class="st1" d="M87.7,48.1l-0.7-1.7h-3.5l-0.7,1.7h-0.5l2.8-6h0.5l2.8,6H87.7z M85.2,42.6L83.6,46h3.1L85.2,42.6z"/>
			<path class="st1" d="M91.4,48.2c-1.7,0-2.9-1.4-2.9-3l0,0c0-1.7,1.3-3,2.9-3c1,0,1.7,0.4,2.3,0.9l-0.3,0.3
				c-0.6-0.5-1.1-0.8-2-0.8c-1.4,0-2.5,1.2-2.5,2.7l0,0c0,1.5,1.1,2.7,2.5,2.7c0.8,0,1.5-0.4,2-0.9l0.3,0.3
				C93.2,47.8,92.4,48.2,91.4,48.2z"/>
			<path class="st1" d="M97.1,48.2c-1.4,0-2.4-0.9-2.4-2.6v-3.4h0.5v3.4c0,1.4,0.7,2.2,2,2.2c1.2,0,1.9-0.7,1.9-2.1v-3.5h0.5v3.4
				C99.5,47.3,98.5,48.2,97.1,48.2z"/>
			<path class="st1" d="M105.6,48.1l-0.7-1.7h-3.5l-0.7,1.7h-0.5l2.8-6h0.5l2.8,6H105.6z M103.1,42.6l-1.6,3.4h3.1L103.1,42.6z"/>
			<path class="st1" d="M111.3,48.1l-1.8-2.5h-1.9v2.5H107v-5.9h2.5c1.3,0,2.1,0.7,2.1,1.7l0,0c0,1-0.7,1.6-1.7,1.7l1.9,2.5
				L111.3,48.1L111.3,48.1z M111.2,43.9c0-0.8-0.6-1.3-1.7-1.3h-2v2.7h2C110.4,45.3,111.2,44.7,111.2,43.9L111.2,43.9z"/>
			<path class="st1" d="M113,48.1v-5.9h0.5v5.9H113z"/>
			<path class="st1" d="M117.7,48.2c-1.7,0-2.9-1.4-2.9-3l0,0c0-1.6,1.2-3,2.9-3c1.7,0,2.9,1.4,2.9,3l0,0
				C120.7,46.7,119.5,48.2,117.7,48.2z M120.3,45.2c0-1.5-1.1-2.7-2.5-2.7c-1.5,0-2.5,1.2-2.5,2.7l0,0c0,1.5,1.1,2.7,2.5,2.7
				C119.2,47.8,120.3,46.6,120.3,45.2L120.3,45.2z"/>
		</g>
	</g>
	<g>
		<g>
			<g>
				<path id="SVGID_1_" class="st1" d="M194.5,104.2C194.5,104.2,194.6,104.2,194.5,104.2c0.2,0,0.3,0,0.3,0.1s-0.1,0.1-0.2,0.1
					h-0.1L194.5,104.2L194.5,104.2z M194.4,104.1v0.6h0.2v-0.3h0.1c0.1,0,0.1,0,0.2,0.1c0,0.1,0,0.2,0.1,0.2h0.2c0,0,0-0.1-0.1-0.2
					c0-0.1-0.1-0.2-0.1-0.2l0,0c0.1,0,0.2-0.1,0.2-0.2c0-0.1,0-0.1-0.1-0.2c-0.1,0-0.1-0.1-0.3-0.1
					C194.5,104.1,194.5,104.1,194.4,104.1 M194.6,105c-0.3,0-0.6-0.3-0.6-0.6c0-0.3,0.3-0.6,0.6-0.6c0.3,0,0.6,0.3,0.6,0.6
					C195.2,104.7,195,105,194.6,105L194.6,105 M194,104.5c0,0.4,0.3,0.7,0.7,0.7c0.4,0,0.7-0.3,0.7-0.7c0-0.4-0.3-0.6-0.7-0.6
					C194.3,103.7,194,104.1,194,104.5"/>
			</g>
		</g>
		<g>
			<g>
				<path id="SVGID_3_" class="st1" d="M178.1,114v0.6h0.3c0.1,0,0.1,0,0.2,0c0.2,0,0.2-0.1,0.2-0.3c0-0.1,0-0.1,0-0.2
					c-0.1-0.1-0.2-0.1-0.3-0.1H178.1z"/>
			</g>
		</g>
		<g>
			<g>
				<polygon id="SVGID_5_" class="st1" points="165.9,114.8 166.3,114.8 166.1,114.1 				"/>
			</g>
			<g>
				<defs>
					<polygon id="SVGID_2_" points="165.9,114.8 166.3,114.8 166.1,114.1 					"/>
				</defs>
				<clipPath id="SVGID_4_">
					<use xlink:href="#SVGID_2_"  style="overflow:visible;"/>
				</clipPath>
				<rect x="165.9" y="114.1" class="st2" width="0.5" height="0.7"/>
			</g>
		</g>
		<path class="st1" d="M156.8,114.6c0-0.3,0.3-0.6,0.6-0.6c0.3,0,0.6,0.3,0.6,0.6c0,0.3-0.3,0.6-0.6,0.6
			C157,115,156.8,114.8,156.8,114.6 M186.4,114.6c0-0.3,0.3-0.6,0.6-0.6c0.3,0,0.6,0.3,0.6,0.6c0,0.3-0.3,0.6-0.6,0.6
			C186.5,115,186.4,114.8,186.4,114.6 M164.1,114.3v-0.6h0.5v1.7h-0.5v-0.7h-0.6v0.7H163v-1.7h0.5v0.6H164.1z M165.9,113.7h0.5
			l0.6,1.7h-0.5l-0.1-0.3h-0.6l-0.1,0.3h-0.5L165.9,113.7z M167.6,113.7h0.8c0.2,0,0.3,0,0.5,0.1c0,0,0.1,0,0.1,0.1
			c0,0.1,0.1,0.2,0.1,0.4c0,0.1,0,0.2-0.1,0.4c-0.2,0.2-0.4,0.3-0.6,0.3h-0.3v0.6h-0.5V113.7z M168.1,114v0.6h0.3c0.1,0,0.1,0,0.2,0
			c0.2,0,0.2-0.1,0.2-0.3c0-0.1,0-0.1,0-0.2c-0.1-0.1-0.2-0.1-0.3-0.1H168.1z M170.7,115c0.1-0.1,0.1-0.2,0.1-0.3v-1h0.5v0.9
			c0,0.1,0,0.3,0,0.4c-0.2,0.4-0.6,0.5-0.6,0.5s-0.4,0-0.6-0.2c-0.2-0.2-0.2-0.4-0.2-0.6v-0.9h0.5v1c0,0.2,0,0.2,0.1,0.3
			c0.1,0.1,0.2,0.1,0.2,0.1C170.6,115,170.6,115,170.7,115 M172.1,113.7h0.5v1.3h0.6v0.4h-1.1V113.7z M173.6,113.7h1.3v0.4h-0.5v1.4
			H174V114h-0.5L173.6,113.7L173.6,113.7z M175.6,113.7h1.2v0.4H176v0.3h0.7v0.3H176v0.4h0.9v0.4h-1.3V113.7z M177.7,113.7h0.8
			c0.2,0,0.3,0,0.5,0.1c0,0,0.1,0,0.1,0.1c0,0.1,0.1,0.2,0.1,0.4c0,0.1,0,0.2-0.1,0.4c-0.2,0.2-0.4,0.3-0.6,0.3h-0.4v0.6h-0.5
			L177.7,113.7L177.7,113.7z M179.8,113.7h1.2v0.4h-0.8v0.3h0.7v0.3h-0.7v0.4h0.9v0.4h-1.3V113.7z M161.3,115.3
			c-0.5-0.2-0.5-0.6-0.5-0.8c0-0.1,0-0.4,0.2-0.6c0.1-0.1,0.3-0.3,0.6-0.3c0.2,0,0.5,0.1,0.6,0.3c0.1,0.1,0.1,0.2,0.1,0.2l-0.4,0.2
			c0-0.1,0-0.1-0.1-0.1c0,0-0.1-0.2-0.3-0.2c-0.1,0-0.2,0-0.3,0.1c-0.1,0.1-0.2,0.2-0.2,0.5v0.1c0,0.3,0.1,0.4,0.2,0.4
			c0,0,0.1,0.1,0.2,0.1c0.3,0,0.4-0.2,0.4-0.3l0.4,0.2c-0.1,0.1-0.1,0.1-0.1,0.2c-0.1,0.1-0.3,0.3-0.6,0.3
			C161.6,115.4,161.5,115.4,161.3,115.3 M182.3,115.3c-0.5-0.2-0.5-0.6-0.5-0.8c0-0.1,0-0.4,0.2-0.6c0.1-0.1,0.3-0.3,0.6-0.3
			c0.2,0,0.5,0.1,0.6,0.3c0.1,0.1,0.1,0.2,0.1,0.2l-0.4,0.2c0-0.1,0-0.1-0.1-0.1c0,0-0.1-0.2-0.3-0.2c-0.1,0-0.2,0-0.3,0.1
			c-0.1,0.1-0.2,0.2-0.2,0.5v0.1c0,0.3,0.1,0.4,0.2,0.4c0,0,0.1,0.1,0.2,0.1c0.3,0,0.4-0.2,0.4-0.3l0.4,0.2
			c-0.1,0.1-0.1,0.1-0.1,0.2c-0.1,0.1-0.3,0.3-0.6,0.3C182.6,115.4,182.5,115.4,182.3,115.3 M157,112.7c-1,0-1.7,0.8-1.7,1.7
			c0,1,0.8,1.7,1.7,1.7h30.3c1,0,1.7-0.8,1.7-1.7c0-1-0.8-1.7-1.7-1.7H157z"/>
		<g>
			<g>
				<path id="SVGID_7_" class="st1" d="M170,94.7L170,94.7L170,94.7l0.7,0.7c-0.1,0-0.1,0-0.2,0C170.5,95.2,170.3,95,170,94.7
					 M172.9,95.7L172.9,95.7c-0.4-0.2-0.6-0.3-0.9-0.3l0.8-0.8l0.7,0.7c-0.1,0.1-0.2,0.1-0.2,0.2l0,0c-0.1,0.1-0.2,0.1-0.2,0.2
					C173,95.7,172.9,95.7,172.9,95.7C172.9,95.7,172.9,95.7,172.9,95.7 M173.3,94.2l0.4-0.4c0.2,0,0.3,0,0.5,0h0.1
					c0.2,0,0.4,0,0.6-0.1l0.5,0.5l-0.7,0.7c0,0,0,0-0.1,0c-0.1,0-0.2,0.1-0.3,0.2L173.3,94.2z M170.5,94.2l0.6-0.6l0.6,0.1
					c0.1,0,0.2,0,0.3,0l0.5,0.5l-0.9,0.9L170.5,94.2z M175.6,93.5L175.6,93.5c0.1,0,0.2,0,0.2,0H175.6L175.6,93.5z M188.3,94.5
					C188.3,94.5,188.2,94.5,188.3,94.5l-0.5-0.5l0.6-0.6v1.2C188.4,94.6,188.4,94.5,188.3,94.5 M168.2,93.6c-0.1,0-0.1,0-0.2,0
					l0.5-0.5l0.9,0.9l-0.1,0.1C169,94,168.6,93.8,168.2,93.6 M177.3,94.6L177.3,94.6l-0.3-0.1l0,0c-0.1,0-0.2,0-0.3-0.1l-0.5-0.5
					l0.9-0.9l0.9,0.9l-0.6,0.6l0,0L177.3,94.6C177.4,94.7,177.4,94.7,177.3,94.6L177.3,94.6C177.3,94.7,177.3,94.6,177.3,94.6
					 M169.5,93.2c0.1,0,0.2,0.1,0.3,0.1l0.3,0.1h0.1l-0.3,0.3L169.5,93.2z M179.1,94.1l0.9-0.9l0.4,0.4c-0.2,0-0.3,0.1-0.5,0.1
					C179.7,93.8,179.4,94,179.1,94.1L179.1,94.1z M182.6,93.5l0.4-0.4l0.3,0.3c-0.1,0.1-0.2,0.1-0.3,0.2
					C182.8,93.5,182.7,93.5,182.6,93.5 M177.8,92.8c0.2-0.1,0.4-0.2,0.6-0.3c0.2-0.1,0.5-0.3,0.6-0.4l0.5,0.5l-0.9,0.9L177.8,92.8z
					 M155.8,92.1l0.2,0.2c-0.1,0-0.1,0.1-0.2,0.1V92.1z M166.1,92.7l0.8-0.8c0.2,0.1,0.4,0.3,0.6,0.4c0.1,0.1,0.2,0.1,0.3,0.2
					l0.4,0.4l-0.8,0.8h-0.1c-0.1,0-0.1,0-0.1,0s0,0-0.1,0L166.1,92.7z M158.2,91.9L158.2,91.9h0.2C158.4,91.9,158.3,91.9,158.2,91.9
					 M161.3,91.8L161.3,91.8c0,0.1-0.1,0.1-0.2,0.1L161.3,91.8z M164.8,92.4c-0.2-0.1-0.4-0.2-0.6-0.3c-0.1,0-0.2-0.1-0.4-0.1
					l0.3-0.3l0.9,0.9l0,0C164.9,92.6,164.9,92.5,164.8,92.4 M180.6,92.7l0.9-0.9l0.9,0.9l-0.7,0.7c-0.1,0-0.2,0-0.3,0h-0.1h-0.1
					L180.6,92.7z M183.4,92.7l0.9-0.9l0.9,0.9L185,93l0,0c-0.1,0-0.2,0-0.4,0c-0.3,0-0.6,0.1-0.8,0.2L183.4,92.7z M186.4,92.7
					l0.9-0.9l0.9,0.9l-0.9,0.9L186.4,92.7z M179.7,91.8c0.3-0.2,0.6-0.5,0.9-0.7l0.1-0.1l0.3,0.3l-0.9,0.9L179.7,91.8z M187.8,91.2
					l0.6-0.6v1.3L187.8,91.2z M164.7,91.2l0.7-0.7c0.2,0.2,0.4,0.4,0.6,0.6c0.2,0.1,0.3,0.3,0.5,0.4l-0.7,0.7L164.7,91.2z
					 M155.9,91.2l0.9-0.9l0.9,0.9l-0.6,0.6c-0.1,0-0.1,0-0.2,0s-0.2,0-0.3,0.1l0,0L155.9,91.2z M159.8,92.1l-0.9-0.9l0.9-0.9
					l0.9,0.9L159.8,92.1L159.8,92.1 M163,91.9c-0.3,0-0.5-0.1-0.7-0.1l-0.6-0.6l0.9-0.9l0.9,0.9L163,91.9L163,91.9 M182,91.2
					l0.9-0.9l0.9,0.9l-0.9,0.9L182,91.2z M184.9,91.2l0.9-0.9l0.9,0.9l-0.9,0.9L184.9,91.2z M181.3,90.5c0.1-0.1,0.2-0.2,0.3-0.3
					c0.2-0.2,0.4-0.4,0.5-0.6l0.1-0.1c0,0,0-0.1,0.1-0.1l0.3,0.3l-0.9,0.9L181.3,90.5z M155.8,89.2l0.6,0.6l-0.6,0.6V89.2z
					 M163.2,89.8L164,89c0,0.1,0.1,0.1,0.1,0.2c0.2,0.4,0.5,0.6,0.7,0.9l0,0l-0.7,0.7L163.2,89.8z M157.4,89.8l0.9-0.9l0.9,0.9
					l-0.9,0.9L157.4,89.8z M160.3,89.8l0.9-0.9l0.9,0.9l-0.9,0.9L160.3,89.8z M183.4,89.8l0.9-0.9l0.9,0.9l-0.9,0.9L183.4,89.8z
					 M186.4,89.8l0.9-0.9l0.9,0.9l-0.9,0.9L186.4,89.8z M182.6,88.9C182.6,88.8,182.6,88.8,182.6,88.9c0.2-0.2,0.3-0.4,0.3-0.5
					l0.1-0.2c0.1-0.1,0.1-0.2,0.2-0.3l0.1-0.2l0,0l0.6,0.6l-0.9,0.9L182.6,88.9z M187.8,88.3l0.6-0.6v1.3L187.8,88.3z M155.9,88.4
					l0.9-0.9l0.9,0.9l-0.9,0.9L155.9,88.4z M158.9,88.4l0.9-0.9l0.9,0.9l-0.9,0.9L158.9,88.4z M161.7,88.4l0.9-0.9l0.9,0.9l-0.9,0.9
					L161.7,88.4z M184.9,88.3l0.9-0.9l0.9,0.9l-0.9,0.9L184.9,88.3z M183.8,87.2c0.1-0.1,0.4-0.5,1-0.9l0.6,0.6l-0.9,0.9L183.8,87.2
					z M155.8,86.3l0.6,0.6l-0.6,0.6V86.3z M157.4,86.9l0.9-0.9l0.9,0.9l-0.9,0.9L157.4,86.9z M160.4,86.9l0.9-0.9l0.9,0.9l-0.9,0.9
					L160.4,86.9z M186.4,86.9l0.9-0.9l0.9,0.9l-0.9,0.9L186.4,86.9z M185.4,85.9L185.4,85.9c0.1-0.1,0.2-0.1,0.3-0.1
					c0.2-0.1,0.3-0.1,0.5-0.2c0.2-0.1,0.4-0.1,0.6-0.2l-0.9,0.9L185.4,85.9z M187.8,85.4L187.8,85.4c0.3-0.1,0.5-0.1,0.6-0.1v0.7
					L187.8,85.4z M161.7,85.4l0.5-0.5v0.1c0.1,0.2,0.1,0.4,0.2,0.5c0.1,0.3,0.2,0.5,0.3,0.7v0.1l0,0L161.7,85.4z M155.9,85.5
					l0.9-0.9l0.9,0.9l-0.9,0.9L155.9,85.5z M158.9,85.4l0.9-0.9l0.9,0.9l-0.9,0.9L158.9,85.4z M155.8,83.4l0.6,0.6l-0.6,0.6V83.4z
					 M157.4,84.1l0.9-0.9l0.9,0.9l-0.9,0.9L157.4,84.1z M160.4,84.1l0.9-0.9l0.6,0.6v0.1c0,0.1,0.1,0.3,0.1,0.4l-0.7,0.7L160.4,84.1
					z M155.9,82.6l0.9-0.9l0.9,0.9l-0.9,0.9L155.9,82.6z M158.9,82.6l0.9-0.9l0.9,0.9l-0.9,0.9L158.9,82.6z M160.4,81.1l0.4-0.4
					c0,0,0,0.1,0.1,0.1l0.2,0.3c0.1,0.1,0.1,0.2,0.2,0.3c0.1,0.1,0.1,0.3,0.2,0.4v0.1c0,0.1,0.1,0.1,0.1,0.2l-0.1,0.1L160.4,81.1z
					 M155.8,80.5l0.6,0.6l-0.6,0.6V80.5z M157.4,81.1l0.9-0.9l0.9,0.9l-0.9,0.9L157.4,81.1z M158.9,79.7l0.5-0.5
					c0.6,0.5,0.8,0.8,0.8,0.8s0,0.1,0.1,0.1v0.1l-0.5,0.5L158.9,79.7z M155.9,79.7l0.9-0.9l0.9,0.9l-0.9,0.9L155.9,79.7z
					 M157.4,78.3L157.4,78.3C157.5,78.2,157.5,78.2,157.4,78.3h0.2c0.2,0.1,0.4,0.1,0.5,0.2c0.2,0.1,0.5,0.2,0.6,0.4l-0.4,0.4
					L157.4,78.3z M155.8,77.8c0.1,0,0.2,0,0.2,0.1l0.5,0.5l-0.6,0.6V77.8z M155.5,76.8c-0.1,0-0.1,0-0.2,0s-0.2,0-0.2,0.1l0,0v0.6
					v0.2v0.5v0.6v0.8v0.9v0.1v1.2v0.4V83v0.4v1.1v0.1v0.8v0.8v0.6v0.6v0.4v1.3v0.2v0.9v0.1v1.4l0,0V92v0.3v0.4v0.6v0.1
					c0,0,0,0,0.1,0c0.1-0.1,0.2-0.2,0.4-0.2l0,0c0,0,0,0,0.1,0s0.1-0.1,0.2-0.1c0.1-0.1,0.2-0.1,0.3-0.1l0,0c0.1,0,0.1-0.1,0.2-0.1
					h0.1c0.1,0,0.2-0.1,0.3-0.1c0.1,0,0.1,0,0.2-0.1l0,0c0.1,0,0.1,0,0.2,0s0.2,0,0.3-0.1c0.2,0,0.3,0,0.5,0c0.1,0,0.2,0,0.2,0
					c0.1,0,0.2,0,0.2,0c0.4,0,0.7,0.1,1.1,0.2c0.1,0,0.1,0,0.2,0.1c0.1,0,0.3,0.1,0.4,0.1s0.2,0.1,0.3,0.1c0,0,0.1,0,0.1-0.1
					c0.1,0,0.2-0.1,0.3-0.1c0.1,0,0.2-0.1,0.3-0.1c0.4-0.1,0.7-0.2,1.2-0.3h0.1h0.1c0.3,0,0.6,0,0.8,0.1c0.2,0,0.3,0.1,0.5,0.1
					c0.2,0.1,0.4,0.1,0.6,0.2c0.2,0.1,0.4,0.2,0.5,0.3c0.1,0,0.2,0.1,0.2,0.2c0.2,0.1,0.4,0.3,0.6,0.5c0.1,0.1,0.1,0.1,0.2,0.2
					c0.1,0.1,0.3,0.3,0.4,0.4c0.1,0.1,0.1,0.2,0.2,0.3c0.2-0.1,0.3-0.1,0.5-0.1c0,0,0,0,0.1,0c0.2,0,0.4-0.1,0.6-0.1c0,0,0,0,0.1,0
					s0.2,0,0.4,0c0.1,0,0.2,0,0.3,0c0.1,0,0.3,0,0.4,0.1c0.3,0.1,0.6,0.2,0.9,0.4c0.1,0.1,0.2,0.1,0.3,0.2c0.1,0.1,0.2,0.2,0.3,0.3
					l0,0l0.1,0.1c0.3,0.3,0.6,0.6,0.7,1l0,0l0,0c0.1,0,0.2-0.1,0.3-0.1c0.3-0.1,0.6-0.1,0.8-0.1l0,0c0.5,0,0.8,0.1,1.2,0.3
					c0,0,0,0,0.1,0c0,0,0,0,0.1,0s0.1,0.1,0.2,0.1s0.1,0.1,0.2,0.1l0.3-0.3l0,0c0.3-0.3,0.9-0.7,1.7-1c0.4-0.1,0.8-0.2,1.3-0.2
					c0,0,0,0,0.1,0h0.1c0.1,0,0.2,0,0.3,0c0.1,0,0.1,0,0.1,0s0,0,0.1,0h0.2h0.1h0.1c0.2,0,0.3,0.1,0.5,0.2c0.3,0.1,0.5,0.2,0.7,0.4
					c0.2-0.3,0.4-0.6,0.6-0.8c0.2-0.2,0.4-0.3,0.6-0.5c0.2-0.1,0.4-0.3,0.6-0.4c0.2-0.1,0.4-0.1,0.6-0.2c0.1,0,0.1,0,0.2,0
					c0.2,0,0.3-0.1,0.5-0.1l0,0l0,0c0.2,0,0.4,0,0.6,0.1c0,0,0,0,0.1,0c0.2,0,0.4,0.1,0.6,0.2c0.1,0,0.2,0.1,0.3,0.1
					c0.1-0.1,0.2-0.2,0.3-0.2c0.1-0.1,0.3-0.2,0.4-0.3l0,0c0.3-0.2,0.6-0.3,1-0.3c0.1,0,0.2,0,0.3,0c0.1,0,0.2,0,0.4,0.1
					c0.5,0.1,0.9,0.4,1.3,0.6c0.2,0.2,0.3,0.4,0.5,0.6l0.1,0.1c0,0,0,0,0.1,0c0.1,0,0.1,0,0.2,0l0,0c0.1,0,0.2,0,0.3,0
					c0.1,0,0.1,0,0.2,0l0,0c0.1,0,0.2,0,0.3,0.1c0.1,0,0.1,0,0.2,0.1l0,0l0,0c0.2,0.1,0.3,0.1,0.5,0.2l0,0l0,0
					c0.1,0.1,0.3,0.2,0.4,0.3v-0.6l0,0v-0.4v-0.4v-0.8v-0.8v-0.7v-0.1v-1.2v-0.4v-0.7v-0.6v-1.1v-0.1V87v-1v-0.6l0,0v-0.5l0,0v-0.1
					v-0.5l0,0h-0.5c-0.3,0-0.6,0-0.8,0c-0.1,0-0.1,0-0.2,0c-0.3,0-0.6,0.1-0.8,0.1l0,0c-0.1,0-0.3,0.1-0.4,0.1s-0.2,0.1-0.4,0.1
					c0,0,0,0-0.1,0c-0.2,0-0.4,0.1-0.5,0.2c-0.1,0-0.2,0.1-0.3,0.1c-0.1,0.1-0.3,0.1-0.4,0.2c-0.2,0.1-0.4,0.2-0.5,0.3
					c-0.2,0.2-0.5,0.3-0.6,0.5c-0.3,0.3-0.6,0.6-0.8,0.8c-0.2,0.2-0.4,0.5-0.6,0.7c-0.1,0.1-0.2,0.2-0.2,0.3
					c-0.1,0.2-0.3,0.4-0.4,0.6c-0.2,0.3-0.4,0.5-0.5,0.6c0,0.1-0.1,0.1-0.1,0.2c-0.1,0.2-0.2,0.3-0.4,0.5c-0.1,0.1-0.2,0.2-0.3,0.3
					c-0.2,0.2-0.4,0.4-0.5,0.5c0,0,0,0-0.1,0.1s-0.2,0.1-0.3,0.2c-0.3,0.2-0.6,0.5-0.8,0.6c-0.3,0.2-0.6,0.4-0.9,0.6
					c-0.2,0.1-0.4,0.2-0.6,0.3c-0.1,0.1-0.3,0.1-0.4,0.2c-0.1,0-0.1,0.1-0.2,0.1s-0.1,0-0.2,0.1c-0.1,0-0.3,0.1-0.4,0.1
					s-0.2,0.1-0.2,0.1c-0.1,0-0.2,0.1-0.4,0.1c-0.2,0-0.4,0.1-0.6,0.1s-0.4,0.1-0.5,0.1h-0.1c-0.2,0-0.4,0-0.6,0s-0.4,0-0.6,0
					c-0.6,0-1.2,0-1.7-0.1h-0.1c-0.3,0-0.6-0.1-0.8-0.1c-0.1,0-0.2,0-0.3,0h-0.1c-0.1,0-0.3-0.1-0.4-0.1c-0.2-0.1-0.5-0.1-0.6-0.2
					H170c-0.1-0.1-0.3-0.1-0.4-0.2c-0.1,0-0.2-0.1-0.3-0.2h-0.1c-0.1-0.1-0.2-0.1-0.4-0.2c-0.2-0.1-0.3-0.2-0.5-0.3
					c-0.1-0.1-0.2-0.2-0.4-0.3c-0.2-0.1-0.3-0.2-0.5-0.3c-0.1,0-0.1-0.1-0.1-0.1s0,0-0.1,0c-0.1-0.1-0.3-0.2-0.4-0.3
					c-0.4-0.4-0.6-0.6-1-1c-0.1-0.1-0.1-0.2-0.2-0.2c-0.2-0.2-0.3-0.4-0.5-0.6c-0.1-0.1-0.1-0.2-0.2-0.4c-0.1-0.2-0.3-0.4-0.4-0.6
					l0,0c-0.1-0.2-0.2-0.4-0.3-0.5c-0.1-0.2-0.2-0.4-0.3-0.6c0-0.1-0.1-0.1-0.1-0.2c-0.1-0.1-0.1-0.3-0.2-0.4c0-0.1-0.1-0.2-0.1-0.3
					c0-0.1-0.1-0.3-0.1-0.4c0-0.1,0-0.1-0.1-0.2c0-0.1-0.1-0.2-0.1-0.3s0-0.2-0.1-0.3c-0.1-0.2-0.1-0.4-0.2-0.6
					c0-0.2-0.1-0.4-0.1-0.6c0,0,0,0,0-0.1c0-0.1-0.1-0.3-0.1-0.4c0-0.1,0-0.2-0.1-0.3c-0.1-0.2-0.1-0.3-0.2-0.5
					c0-0.1-0.1-0.2-0.1-0.3v-0.1c-0.1-0.2-0.2-0.3-0.2-0.5c0,0,0-0.1-0.1-0.1c-0.1-0.1-0.1-0.2-0.2-0.4l0,0
					c-0.1-0.2-0.2-0.3-0.3-0.5c-0.1-0.2-0.2-0.4-0.4-0.6c-0.1-0.2-0.2-0.3-0.4-0.5c-0.1-0.2-0.3-0.3-0.4-0.5
					c-0.1-0.1-0.3-0.3-0.5-0.4c-0.3-0.3-0.6-0.5-0.9-0.6c-0.2-0.2-0.5-0.3-0.6-0.4c0,0,0,0-0.1,0c-0.1-0.1-0.3-0.1-0.4-0.2
					c-0.1,0-0.2-0.1-0.4-0.2c-0.1,0-0.2-0.1-0.4-0.1c0,0,0,0-0.1,0c-0.1,0-0.2-0.1-0.3-0.1c-0.2,0-0.4-0.1-0.5-0.1
					c-0.3,0-0.5-0.1-0.7-0.1l0,0l0,0c-0.1,0-0.3,0-0.4,0C155.6,76.8,155.6,76.8,155.5,76.8"/>
			</g>
		</g>
		<g>
			<g>
				<path id="SVGID_17_" class="st1" d="M189.6,109.5c-0.3-0.1-0.5-0.3-0.5-0.6c-0.1-0.4,0-0.7,0.4-0.9c0.3-0.1,0.6-0.3,0.8-0.3
					c0.5-0.1,0.9-0.1,1.4-0.1c0,0.6-0.1,1.3-0.7,1.7c-0.3,0.2-0.6,0.3-0.8,0.3C189.9,109.6,189.8,109.5,189.6,109.5 M189.4,103.6
					c-0.5,0.1-1,0.1-1.4,0.4c-0.2,0.1-0.3,0.2-0.3,0.4c0,0.6-0.1,1.1-0.1,1.7c0,0.2,0.1,0.3,0.3,0.3c0.3,0,0.6,0,0.9,0
					c0.1,0,0.2-0.1,0.3-0.2c0-0.3,0.1-0.5,0.1-0.7c0-0.2,0.1-0.3,0.3-0.3c0.4,0,0.8-0.1,1.2,0c0.5,0,0.7,0.3,0.8,0.6
					c0.1,0.3,0.1,0.6,0.1,0.9c-0.2,0-0.3,0-0.5,0c-0.7,0-1.4,0-2.1,0.2c-0.4,0.1-0.7,0.2-1.1,0.5c-0.6,0.4-0.7,0.9-0.7,1.5
					c0,0.8,0.2,1.5,0.9,1.8c0.3,0.2,0.6,0.3,1,0.3c0.9,0.1,1.8,0,2.6-0.7c0.3,0.4,0.4,0.6,0.6,0.6c0.6,0.2,1.2,0.2,1.7,0
					c0.2-0.1,0.3-0.2,0.3-0.4s0-0.5,0-0.6s0-0.2-0.2-0.2c-0.1,0-0.2,0-0.3,0c-0.3,0-0.5-0.1-0.5-0.4c0-0.1,0-0.3,0-0.4
					c0-1,0-1.9,0-2.9c0-0.4-0.1-0.7-0.3-1c-0.3-0.7-0.9-1-1.6-1.1c-0.5-0.1-0.8-0.1-1.3-0.1C190,103.6,189.8,103.6,189.4,103.6"/>
			</g>
		</g>
		<g>
			<g>
				<path id="SVGID_19_" class="st1" d="M159.5,109.5c-0.3-0.1-0.5-0.3-0.5-0.6c-0.1-0.4,0-0.7,0.4-0.9c0.3-0.1,0.6-0.3,0.7-0.3
					c0.5-0.1,0.9-0.1,1.5-0.1c0,0.6-0.1,1.3-0.7,1.7c-0.3,0.2-0.6,0.3-0.8,0.3C159.9,109.6,159.7,109.5,159.5,109.5 M159.3,103.6
					c-0.5,0.1-1,0.1-1.4,0.4c-0.2,0.1-0.3,0.2-0.3,0.4c0,0.6-0.1,1.1-0.1,1.7c0,0.2,0.1,0.3,0.3,0.3c0.2,0,0.4,0,0.6,0
					c0.1,0,0.2,0,0.3,0c0.2,0,0.3-0.1,0.3-0.2c0-0.2,0.1-0.5,0.1-0.6s0.1-0.3,0.3-0.3c0.5,0,0.8-0.1,1.3,0c0.6,0,0.8,0.3,0.9,0.8
					c0,0.2,0,0.5,0,0.7c-0.2,0-0.3,0-0.4,0c-0.7,0-1.4,0-2.1,0.2c-0.4,0.1-0.7,0.2-1.1,0.5c-0.6,0.4-0.7,0.9-0.7,1.6
					c0,0.9,0.4,1.7,1.4,2c0.7,0.2,1.4,0.2,2.1,0c0.4-0.1,0.7-0.4,1-0.6c0.1,0.3,0.3,0.6,0.6,0.6c0.6,0.3,1.2,0.2,1.8,0
					c0.2-0.1,0.3-0.2,0.3-0.4s0-0.5,0-0.6c0-0.3,0-0.3-0.3-0.2c-0.1,0-0.1,0-0.2,0c-0.3,0-0.5-0.1-0.5-0.4c0-0.1,0-0.3,0-0.4
					c0-1,0-1.9,0-2.9c0-0.4-0.1-0.7-0.2-1c-0.3-0.7-0.9-1-1.6-1.1c-0.5-0.1-0.8-0.1-1.3-0.1C160,103.6,159.6,103.6,159.3,103.6"/>
			</g>
		</g>
		<g>
			<g>
				<path id="SVGID_21_" class="st1" d="M182.4,103.6c-0.7,0.2-1.1,0.6-1.4,1.3c-0.1,0.1-0.1,0.3-0.2,0.4l0,0c0-0.5,0-0.8,0-1.3
					c0-0.2-0.1-0.3-0.3-0.3c-0.7,0-1.5,0.1-2.2,0.1c-0.2,0-0.3,0.1-0.3,0.3c0,0.2,0,0.4,0,0.6c0,0.6,0.1,0.5,0.5,0.5
					c0.5,0,0.6,0.1,0.6,0.6c0,1.2,0,2.5,0,3.7c0,0.3,0,0.6,0,0.9c0,0.3,0.1,0.4,0.4,0.4c0.4,0,0.6,0,1,0c0.3,0,0.4-0.1,0.4-0.4
					c0-0.7,0-1.5,0-2.2c0-0.6,0.1-1,0.3-1.5c0.4-0.9,1-1.7,2.3-1.4c0.1,0,0.2,0,0.2-0.2c0-0.4,0-0.7,0-1.1c0-0.2-0.1-0.3-0.3-0.4
					c-0.2-0.1-0.4-0.1-0.6-0.1C182.7,103.6,182.5,103.6,182.4,103.6"/>
			</g>
		</g>
		<g>
			<g>
				<path id="SVGID_23_" class="st1" d="M186.5,103.7c-0.7,0-1.5,0.1-2.2,0.1c-0.1,0-0.2,0.1-0.2,0.2c0,0.2,0,0.4,0,0.6
					c0,0.4,0,0.6,0.5,0.6c0.4,0,0.5,0.1,0.5,0.6c0,0.7,0,1.6,0,2.3s0,1.6,0,2.3c0,0.4,0.1,0.5,0.5,0.5c0.3,0,0.6,0,0.8,0
					c0.5,0,0.5,0,0.5-0.5c0-1,0-2,0-3s0-2.1,0-3.1C186.8,103.8,186.7,103.7,186.5,103.7L186.5,103.7"/>
			</g>
		</g>
		<g>
			<g>
				<path id="SVGID_25_" class="st1" d="M184.8,101.8c0,0.6,0.5,1,1,1.1c0.6,0,1.2-0.5,1.2-1.1s-0.5-1.1-1-1.1l0,0
					C185.3,100.6,184.8,101.1,184.8,101.8"/>
			</g>
		</g>
		<g>
			<g>
				<path id="SVGID_27_" class="st1" d="M151.2,101.9c-0.4,0-0.5,0.1-0.5,0.5c0,0.9,0,1.1,0,2v-0.1v6.2c0,0,0,0.4,0.3,0.4
					c1.7,0,3.4,0,5.1,0c0.6,0,0.6,0,0.6-0.6v-0.1l0,0c0-0.3,0-0.7,0.1-1c0-0.3,0-0.4-0.3-0.4s-0.5,0-0.7,0c-0.2,0-0.3,0.1-0.3,0.3
					c0,0.1,0,0.1,0,0.2c0,0.1-0.1,0.3-0.5,0.3H154l0,0c-0.1,0-0.3,0-0.4,0c-0.2,0-0.5,0-0.6,0l0,0c-0.2,0-0.3-0.2-0.3-0.3v-2.7v-1.3
					l0,0v-0.2c0-1.1,0-1.6,0-2.7c0-0.4-0.1-0.5-0.5-0.5c-0.2,0-0.4,0-0.6,0C151.5,101.9,151.3,101.9,151.2,101.9"/>
			</g>
		</g>
		<g>
			<g>
				<path id="SVGID_29_" class="st1" d="M174.4,105c0.6-0.2,1.2,0,1.5,0.7c0.1,0.2,0.2,0.4,0.3,0.6c-1,0.2-1.9,0.4-2.8,0.6
					C173.1,105.9,173.5,105.2,174.4,105 M173.3,103.9c-0.9,0.4-1.6,1-1.8,2c-0.2,0.6-0.2,1-0.1,1.6c0.1,0.6,0.3,1.3,0.6,1.8
					c0.7,1.2,1.8,1.5,3.2,1.4c0.6,0,1.2-0.2,1.7-0.4c0.4-0.1,0.7-0.3,1.1-0.6c0.2-0.2,0.3-0.5,0.3-0.5v-0.9c0-0.3-0.3-0.2-0.3-0.2
					s0,0-0.1,0c0,0-0.1,0-0.1,0.1c-0.8,0.5-1.7,0.7-2.6,0.8c-0.8,0.1-1.5-0.4-1.7-1.2c0.1,0,0.2,0,0.2,0c1.2-0.3,2.5-0.6,3.7-0.7
					c0.1,0,0.1,0,0.2,0c0.4-0.1,0.5-0.3,0.4-0.6c-0.1-0.5-0.3-0.9-0.5-1.4c-0.5-0.9-1.1-1.6-2.2-1.7c-0.2,0-0.3,0-0.5,0
					C174.4,103.5,173.9,103.7,173.3,103.9"/>
			</g>
		</g>
		<g>
			<g>
				<path id="SVGID_31_" class="st1" d="M165.1,101c-0.1,0-0.1,0-0.2,0c-0.2,0-0.2,0.1-0.2,0.2c0,0.3,0,0.6,0,0.8
					c0,0.1,0.1,0.2,0.2,0.2c0.2,0,0.3,0,0.5,0c0.3,0,0.5,0.1,0.5,0.5c0,0.1,0,0.3,0,0.4c0,1.7,0,4.3,0,7.3c0,0.4,0.1,0.5,0.5,0.5
					c0.4,0,0.8,0,1.2,0c0.4,0,0.5-0.1,0.5-0.5c0-1.1,0-2.8,0-3.9c0,0,0-0.2,0.3-0.2c0.2,0,0.4,0,0.6,0c0.6,0,1.2,0,1.7,0
					c0.3,0,0.4-0.1,0.4-0.4c0-0.2,0-0.5,0-0.6c0-0.3-0.1-0.4-0.3-0.4l0,0c0,0-2-0.1-2.3-0.2c-0.3,0-0.3-0.2-0.3-0.2c0-0.7,0-1.2,0-2
					c0-0.1,0.1-0.3,0.3-0.3l0,0c0.2,0,0.3,0,0.5,0c0.1,0,0.3,0,0.4,0l0,0h1.5c0.4,0,0.5,0.2,0.5,0.3s0,0.1,0,0.2
					c0,0.2,0.1,0.3,0.3,0.3c0.3,0,0.5,0,0.7,0s0.4,0,0.3-0.4c0-0.4,0-0.6-0.1-1l0,0v-0.1c0-0.6-0.1-0.6-0.6-0.6c-0.9,0-1.8,0-2.8,0
					C167.6,101,166.3,101,165.1,101"/>
			</g>
		</g>
		<g>
			<path class="st1" d="M184.1,83.2c-0.3-0.3-0.6-0.4-1-0.1c-0.2,0.1-0.3,0.2-0.5,0.3c-0.1,0-0.3,0.1-0.4,0c-0.4,0-0.7-0.2-1-0.5
				c-0.1-0.1-0.2-0.3-0.3-0.5c-0.1-0.4-0.6-0.6-0.9-0.5c-0.4,0.1-0.6,0.6-0.5,0.9c0.3,0.7,0.7,1.2,1.4,1.6c-0.8,3.4-4,6-7.6,6
				c-4.3,0-7.8-3.5-7.8-7.8c0-0.6,0.1-1.4,0.3-2c0,0,0,0,0.1,0l0,0c0.6,0,1.2-0.2,1.7-0.6c0.3-0.3,0.4-0.6,0.1-1
				c-0.3-0.3-0.6-0.4-1-0.1c-0.1,0.1-0.3,0.2-0.4,0.2c-0.2,0.1-0.3,0.1-0.5,0.1c-0.4,0-0.7-0.2-0.9-0.4c-0.2-0.2-0.3-0.4-0.4-0.6
				c-0.1-0.4-0.6-0.6-0.9-0.5c-0.4,0.1-0.6,0.6-0.5,0.9c0.2,0.6,0.6,1.1,1.2,1.5c-0.2,0.7-0.3,1.6-0.3,2.4c0,5.1,4.1,9.3,9.3,9.3
				c4.3,0,8-3,9-7.1c0.6,0,1.1-0.2,1.6-0.6C184.3,84,184.3,83.5,184.1,83.2"/>
		</g>
		<path class="st1" d="M162,93.2c-0.7,0-1.5,0.3-2,0.6c-0.6-0.4-1.4-0.6-2.2-0.6c-2.2,0.1-4,1.9-3.9,4.1c0,0.2,0,0.4,0.1,0.6
			c-0.9,0.4-1.6,1.2-1.6,2.3c0,0.3,0.1,0.6,0.2,0.9c5.1-1,12-1.7,19.7-1.7c7.4,0,14.2,0.6,19.2,1.6c-0.1-1.1-0.9-2-2-2.1
			c0.1-0.2,0.1-0.5,0.1-0.7c0-1.3-1.2-2.4-2.5-2.3c-0.2,0-0.4,0-0.6,0.1c-0.1-0.9-0.8-1.6-1.7-1.6c-0.7,0-1.3,0.5-1.6,1.1
			c-0.5-0.5-1.1-0.6-1.8-0.6c-1.5,0.1-2.6,1.3-2.6,2.7l0,0c-0.1-0.2-0.3-0.4-0.5-0.6c-0.2-0.2-0.4-0.4-0.6-0.5
			c-0.2-0.1-0.5-0.3-0.6-0.3c-0.1,0-0.3-0.1-0.4-0.1s-0.2-0.1-0.4-0.1c-0.5,0-0.9,0-1.4,0.2c-0.3,0.1-0.6,0.3-0.8,0.5
			c-0.2,0.1-0.3,0.3-0.4,0.4c-0.2,0.2-0.4,0.5-0.5,0.6c0,0.1-0.1,0.2-0.1,0.2c-0.1-0.1-0.2-0.3-0.3-0.4c-0.2-0.2-0.5-0.4-0.6-0.5
			c-0.3-0.2-0.6-0.2-0.9-0.2c-0.2,0-0.5,0.1-0.6,0.1c-0.3,0.1-0.5,0.2-0.6,0.3c-0.1,0.1-0.3,0.2-0.4,0.4c0-0.1,0-0.1,0-0.2
			c0-1.4-1.2-2.5-2.7-2.5c-0.6,0-1.1,0.2-1.5,0.6C165,94.3,163.7,93.3,162,93.2C162.1,93.2,162.1,93.2,162,93.2"/>
	</g>
	<g>
		<path class="st1" d="M233.7,109.2l0.3,0.8c0,0-0.1,0.1-0.2,0.1s-0.1,0.1-0.2,0.1c-0.3,0.2-0.5,0.2-0.7,0.1
			c-0.2-0.1-0.4-0.2-0.5-0.5c-0.1-0.2-0.2-0.4-0.2-0.5c0-0.2,0-0.3,0-0.5c0-0.2,0.1-0.3,0.2-0.4c0.1-0.1,0.2-0.2,0.4-0.3
			c0.1-0.1,0.3-0.1,0.5-0.2c0.2,0,0.3-0.1,0.5-0.1l-0.1-0.5c-0.2,0-0.4,0-0.6,0.1c-0.2,0.1-0.4,0.1-0.5,0.2
			c-0.3,0.1-0.5,0.3-0.6,0.5c-0.2,0.2-0.3,0.4-0.3,0.6c-0.1,0.2-0.1,0.5,0,0.6c0,0.2,0.1,0.5,0.3,0.6c0.1,0.2,0.2,0.3,0.4,0.5
			c0.1,0.1,0.3,0.2,0.5,0.3s0.4,0.1,0.6,0c0.2,0,0.4-0.1,0.6-0.2c0.2-0.1,0.3-0.2,0.5-0.3c0.1-0.1,0.3-0.2,0.4-0.3l-0.4-1.2
			L233.7,109.2z"/>
		<path class="st1" d="M235.4,107.4l0.4,1c0,0.1,0,0.2,0,0.3s0,0.2,0,0.3c0,0.1,0,0.2-0.1,0.2c0,0.1-0.1,0.1-0.1,0.1
			c-0.1,0-0.1,0-0.2,0s-0.1-0.1-0.2-0.2V109v-0.1l-0.4-1.2l-0.6,0.3l0.4,1.1c0,0.1,0,0.1,0.1,0.2c0,0.1,0,0.1,0.1,0.1
			c0,0.1,0.1,0.2,0.2,0.3c0.1,0.1,0.1,0.1,0.2,0.2c0.1,0,0.2,0.1,0.3,0.1c0.1,0,0.2,0,0.3-0.1c0.1,0,0.1-0.1,0.2-0.2
			c0.1-0.1,0.1-0.1,0.1-0.2c0-0.1,0.1-0.2,0.1-0.3s0-0.2,0-0.3l0.2,0.6l0.5-0.3l-0.6-2.1L235.4,107.4z"/>
		<path class="st1" d="M237.5,106.4c-0.2,0-0.3,0.1-0.5,0.2c-0.2,0.1-0.4,0.2-0.5,0.4c-0.1,0.1-0.2,0.3-0.2,0.5s0,0.4,0,0.6
			c0,0.2,0.1,0.4,0.2,0.6c0.1,0.1,0.1,0.2,0.2,0.3c0.1,0.1,0.1,0.2,0.2,0.2c0.1,0.1,0.2,0.1,0.3,0.1c0.1,0,0.2,0,0.3-0.1
			c0.1,0,0.1-0.1,0.2-0.2c0.1-0.1,0.1-0.2,0.1-0.2c0-0.1,0.1-0.2,0.1-0.3c0-0.1,0-0.2,0-0.3l0.2,0.6l0.6-0.3l-0.6-2
			C237.7,106.3,237.6,106.3,237.5,106.4z M237.6,108c0,0.1,0,0.2-0.1,0.3c0,0.1-0.1,0.1-0.1,0.2h-0.1c0,0-0.1,0-0.1-0.1l-0.1-0.1
			c0,0,0-0.1-0.1-0.1c-0.1-0.1-0.1-0.2-0.1-0.4c0-0.1,0-0.3,0-0.4c0-0.1,0-0.2,0.1-0.3c0.1-0.1,0.1-0.2,0.2-0.2s0.2-0.1,0.3-0.1
			l0.1,0.4c0,0.1,0,0.2,0,0.4C237.6,107.8,237.6,107.9,237.6,108z"/>
		<path class="st1" d="M239.1,104.6l0.3,1c-0.1,0-0.1,0-0.2,0s-0.2,0-0.2,0.1c-0.2,0.1-0.4,0.2-0.5,0.4c-0.1,0.1-0.2,0.3-0.2,0.5
			c0,0.2,0,0.4,0,0.6c0,0.2,0.1,0.4,0.2,0.6c0,0.1,0.1,0.2,0.2,0.3s0.1,0.2,0.2,0.2c0.1,0.1,0.2,0.1,0.3,0.1c0.1,0,0.2,0,0.3-0.1
			c0.1,0,0.1-0.1,0.2-0.1c0.1-0.1,0.1-0.1,0.1-0.2c0-0.1,0.1-0.2,0.1-0.2c0-0.1,0-0.2,0.1-0.2l0.1,0.5l0.6-0.3l-0.8-3.1L239.1,104.6
			z M239.7,106.9c0,0.1,0,0.2-0.1,0.3c0,0.1-0.1,0.1-0.1,0.2c0,0.1-0.1,0.1-0.1,0.1c-0.1,0-0.2,0-0.2,0c-0.1-0.1-0.1-0.1-0.2-0.3
			c-0.1-0.1-0.1-0.2-0.1-0.4c0-0.1,0-0.2,0-0.4c0-0.1,0.1-0.2,0.1-0.3c0.1-0.1,0.1-0.2,0.3-0.2c0.1,0,0.2-0.1,0.3-0.1l0.2,0.7
			C239.7,106.8,239.7,106.8,239.7,106.9z"/>
		<path class="st1" d="M241.6,104.6c-0.2,0-0.3,0.1-0.5,0.1c-0.2,0.1-0.4,0.2-0.5,0.3c-0.1,0.1-0.2,0.3-0.3,0.5c0,0.2-0.1,0.4,0,0.6
			c0,0.2,0.1,0.4,0.2,0.6c0,0.1,0.1,0.2,0.2,0.3s0.1,0.2,0.2,0.2c0.1,0.1,0.2,0.1,0.3,0.1c0.1,0,0.2,0,0.3,0c0.1,0,0.2-0.1,0.2-0.2
			c0.1-0.1,0.1-0.2,0.1-0.2c0-0.1,0.1-0.2,0.1-0.3c0-0.1,0-0.2,0-0.3l0.2,0.6l0.6-0.2l-0.5-2C241.9,104.6,241.7,104.6,241.6,104.6z
			 M241.6,106.1c0,0.1-0.1,0.2-0.1,0.3c0,0.1-0.1,0.1-0.2,0.2h-0.1c0,0-0.1,0-0.1-0.1l-0.1-0.1c0,0,0-0.1-0.1-0.1
			c-0.1-0.1-0.1-0.3-0.1-0.4c0-0.1,0-0.3,0-0.4c0-0.1,0.1-0.2,0.1-0.3c0.1-0.1,0.1-0.2,0.2-0.2s0.2-0.1,0.3-0.1l0.1,0.4
			c0,0.1,0,0.2,0,0.4C241.7,105.9,241.6,106,241.6,106.1z"/>
		<polygon class="st1" points="242.2,103.3 242.8,106.4 243.3,106.2 242.7,103.1 		"/>
		<path class="st1" d="M245,103.5c-0.2,0-0.3,0-0.5,0c-0.2,0-0.3,0.1-0.5,0.1c-0.2,0.1-0.4,0.2-0.5,0.3s-0.2,0.3-0.3,0.5
			c-0.1,0.2-0.1,0.4-0.1,0.6c0,0.2,0.1,0.4,0.1,0.6c0,0.1,0.1,0.2,0.1,0.3c0.1,0.1,0.1,0.2,0.2,0.2c0.1,0.1,0.2,0.1,0.3,0.1
			c0.1,0,0.2,0,0.3,0c0.1,0,0.2-0.1,0.2-0.1c0.1-0.1,0.1-0.1,0.2-0.2c0-0.1,0.1-0.2,0.1-0.3s0-0.2,0-0.3l0.1,0.6l0.6-0.2L245,103.5z
			 M244.5,104.6c0,0.1,0,0.2-0.1,0.4c0,0.1-0.1,0.2-0.1,0.3c0,0.1-0.1,0.1-0.2,0.2h-0.1c0,0-0.1,0-0.1-0.1c0,0,0-0.1-0.1-0.1
			c0,0,0-0.1-0.1-0.1c0-0.1-0.1-0.3-0.1-0.4c0-0.1,0-0.3,0-0.4c0-0.1,0.1-0.2,0.1-0.3c0.1-0.1,0.1-0.2,0.3-0.2c0.1,0,0.2-0.1,0.3,0
			l0.1,0.4C244.6,104.5,244.6,104.6,244.5,104.6z"/>
		<path class="st1" d="M245.5,102.7c0.1,0,0.2,0,0.3,0c0.1,0,0.1-0.1,0.2-0.1l0.1-0.1v-0.1c0-0.1,0-0.1,0-0.2c0-0.1-0.1-0.2-0.2-0.2
			s-0.2,0-0.3,0s-0.2,0.1-0.2,0.2c0,0.1,0,0.2,0,0.3C245.4,102.6,245.4,102.7,245.5,102.7z"/>
		<path class="st1" d="M246,102.9l-0.6,0.2l0.3,1.6c0,0.3,0,0.5,0,0.6c-0.1,0.2-0.2,0.5-0.4,0.6l0.4,0.3c0.1-0.2,0.3-0.3,0.4-0.5
			s0.2-0.3,0.2-0.5c0-0.2,0.1-0.3,0.1-0.5c0-0.2,0-0.4,0-0.5L246,102.9z"/>
		<path class="st1" d="M247.7,102.4c-0.2,0-0.3,0-0.5,0.1s-0.4,0.2-0.5,0.3c-0.1,0.1-0.2,0.3-0.3,0.5c-0.1,0.2-0.1,0.4-0.1,0.6
			c0,0.2,0,0.4,0.1,0.6c0,0.1,0.1,0.2,0.1,0.3c0.1,0.1,0.1,0.2,0.2,0.2c0.1,0.1,0.2,0.1,0.2,0.1c0.1,0,0.2,0,0.3,0
			c0.1,0,0.2-0.1,0.2-0.1c0.1-0.1,0.1-0.1,0.2-0.2c0-0.1,0.1-0.2,0.1-0.3s0-0.2,0.1-0.3l0.1,0.6l0.6-0.2l-0.3-2
			C248,102.3,247.9,102.3,247.7,102.4z M247.7,103.6c0,0.1,0,0.2-0.1,0.3c0,0.1-0.1,0.2-0.1,0.3s-0.1,0.1-0.2,0.1h-0.1
			c0,0-0.1,0-0.1-0.1c0,0,0-0.1-0.1-0.1c0,0,0-0.1-0.1-0.1c0-0.1-0.1-0.3-0.1-0.4c0-0.1,0-0.3,0-0.4c0-0.1,0.1-0.2,0.1-0.3
			c0.1-0.1,0.2-0.1,0.3-0.2c0.1,0,0.2,0,0.3,0l0.1,0.4C247.7,103.5,247.7,103.5,247.7,103.6z"/>
		<path class="st1" d="M249.6,101.8L249.6,101.8c-0.3,0-0.4,0.1-0.4,0.3c-0.1,0.1-0.1,0.3-0.1,0.5L249,102l-0.6,0.2l0.3,2.2l0.6-0.2
			l-0.1-1.2c0-0.2,0.1-0.3,0.2-0.4c0.1-0.1,0.2-0.2,0.4-0.2c0,0,0,0,0.1,0c0,0,0,0,0.1,0L249.6,101.8
			C249.7,101.8,249.7,101.8,249.6,101.8z"/>
		<path class="st1" d="M251.3,101.4c-0.2,0-0.3,0-0.5,0.1c-0.2,0.1-0.4,0.1-0.5,0.3c-0.1,0.1-0.3,0.3-0.3,0.4
			c-0.1,0.2-0.1,0.4-0.1,0.6c0,0.2,0,0.4,0.1,0.6c0,0.1,0.1,0.2,0.1,0.3s0.1,0.2,0.2,0.2c0.1,0.1,0.1,0.1,0.2,0.1s0.2,0,0.3,0
			c0.1,0,0.2-0.1,0.2-0.1c0.1-0.1,0.1-0.1,0.2-0.2c0-0.1,0.1-0.2,0.1-0.3c0-0.1,0.1-0.2,0.1-0.3l0.1,0.6l0.6-0.1l-0.2-2
			C251.5,101.4,251.3,101.4,251.3,101.4z M251.1,102.7c0,0.1-0.1,0.2-0.1,0.3s-0.1,0.2-0.1,0.3c-0.1,0.1-0.1,0.1-0.2,0.1h-0.1
			c0,0-0.1,0-0.1-0.1c0,0,0-0.1-0.1-0.1v-0.1c0-0.1,0-0.3-0.1-0.4c0-0.1,0-0.3,0.1-0.4c0-0.1,0.1-0.2,0.2-0.3
			c0.1-0.1,0.2-0.1,0.3-0.2c0.1,0,0.2,0,0.3,0v0.5C251.2,102.4,251.1,102.6,251.1,102.7z"/>
		<path class="st1" d="M227.4,98.2c0.1,0,0.1,0,0.2-0.1l0,0c2.5-5.4,9.3-10.1,17.9-11.7c5.9-1.1,11.5-0.5,15.9,1.3
			c0-0.2,0-0.4,0.1-0.5c0.1-0.4,0.2-0.7,0.4-1l0,0c0.1-0.1,0.2-0.3,0.3-0.5c-4.6-1.9-10.7-2.4-17-0.9
			C236,86.9,229.1,92.3,227.4,98.2L227.4,98.2C227.3,98.1,227.3,98.1,227.4,98.2C227.2,98.1,227.3,98.2,227.4,98.2z"/>
		<path class="st1" d="M253.6,96.7c0.2-0.2,0.3-0.4,0.5-0.6c0.2-0.2,0.3-0.5,0.5-0.7c0.1-0.2,0.3-0.5,0.4-0.7
			c0.2-0.5,0.3-0.9,0.5-1.4c-0.2,0-0.3-0.1-0.5,0c-0.2,0-0.5,0.2-0.6,0.4c-0.2,0.2-0.4,0.5-0.6,0.7c-0.2,0.3-0.3,0.6-0.4,0.9
			c-0.1,0.3-0.2,0.6-0.2,0.9c0,0.1,0,0.2,0,0.3s0,0.2,0,0.3c0,0.1,0,0.2,0.1,0.2h0.1h0.1C253.4,97,253.5,96.9,253.6,96.7z"/>
		<path class="st1" d="M259.7,93c-0.2,0-0.5,0.1-0.6,0.3s-0.4,0.4-0.6,0.6c-0.2,0.2-0.3,0.5-0.4,0.7s-0.2,0.6-0.2,0.7
			c0,0.2,0,0.5,0,0.6s0.1,0.2,0.2,0.2h0.1c0.2-0.1,0.5-0.2,0.6-0.5c0.3-0.3,0.6-0.6,0.7-1c0.2-0.6,0.4-1.1,0.6-1.6
			c-0.1,0-0.1,0-0.2,0C259.9,92.9,259.8,93,259.7,93z"/>
		<path class="st1" d="M228.8,102.3c-0.3,0.2-0.5,0.6-0.6,0.8c-0.3,0.5-0.5,1.6-0.5,1.6l0,0c0,0,0.4-0.3,0.6-0.4
			c0.2-0.2,0.3-0.3,0.5-0.6c0.1-0.2,0.3-0.4,0.4-0.6c0.1-0.2,0.1-0.4,0.2-0.6C229.2,102.3,229.1,102.1,228.8,102.3z"/>
		<path class="st1" d="M240.7,96.9c-0.3,0.1-0.5,0.3-0.6,0.6c-0.2,0.3-0.4,0.6-0.6,0.9c-0.2,0.4-0.3,0.7-0.4,1.1
			c-0.1,0.4-0.2,0.6-0.2,1c0,0.1,0,0.3,0,0.4c0,0.1,0,0.2,0,0.3s0.1,0.2,0.1,0.2s0,0,0.1,0h0.1c0.2-0.1,0.3-0.3,0.4-0.4
			c0.2-0.2,0.3-0.5,0.5-0.7c0.2-0.3,0.3-0.6,0.4-0.9c0.1-0.3,0.2-0.6,0.4-0.8c0.1-0.6,0.3-1.1,0.4-1.7
			C241.1,96.8,240.9,96.8,240.7,96.9z"/>
		<path class="st1" d="M254.2,100.9L254.2,100.9c-0.6,0.8,0.7,0.7,0.7,0.7c1.1-0.2,1.9-1.1,2.5-1.8
			C255.9,99.7,254.7,100.4,254.2,100.9z"/>
		<path class="st1" d="M272.2,91.8c-0.3-0.3-0.6-0.4-0.7-0.5h-0.1c-0.4-0.2-0.8-0.4-1.2-0.4c-0.3-0.1-0.6-0.1-0.7-0.1
			c-0.3,0-0.6,0.1-0.9,0.2c-0.1,0-0.3,0.1-0.4,0.2c-0.2-0.3-0.6-0.6-1.3-0.6h-0.1c-0.5,0-0.9,0.1-1.5,0.4c0.1-0.2,0.1-0.5,0-0.6
			c0.5-0.3,0.7-0.7,1-1.3c0.1-0.2,0.2-0.6,0.3-0.8l-0.4,0.1l0.1-0.1c0-0.1,0.1-0.1,0.1-0.2c0.1-0.2,0.1-0.4,0.1-0.6
			c0-0.2,0-0.4,0-0.5l0,0c-0.1-0.4-0.3-0.7-0.5-1c-0.3-0.3-0.6-0.5-0.9-0.6c-0.3-0.1-0.6-0.2-0.8-0.2c-0.1,0-0.2,0-0.3,0
			c-0.4,0.1-0.7,0.2-1,0.4c-0.3,0.2-0.5,0.5-0.6,0.8c-0.2,0.3-0.3,0.6-0.4,1c-0.2,0.6-0.1,1.3,0.2,1.8c0.1,0.3,0.3,0.5,0.6,0.6
			c-0.3,0.2-0.4,0.4-0.4,0.4l-0.2,0.6c-0.4-0.2-0.6-0.2-0.9-0.3h-0.1c-0.2,0-0.4-0.1-0.6-0.1c-0.2,0-0.4,0-0.6,0.1
			c-0.6,0.1-1.1,0.3-1.7,0.6c-0.1,0.1-0.3,0.2-0.4,0.3c-0.2-0.3-0.5-0.5-0.7-0.5c0.2-0.2,0.3-0.4,0.5-0.6c0.3-0.4,0.6-0.7,1.1-1.4
			c0.4-0.6,0.3-0.9,0.2-1.1c-0.1-0.2-0.4-0.6-0.9-0.6c-0.2,0-0.6,0-2.1,0.6l-0.3,0.1l-0.2,0.3c-0.3,0.6-0.6,1-0.9,1.6
			c-0.2,0.3-0.3,0.5-0.5,0.7l-0.6,0.9c0,0-0.1,0-0.1,0.1c-0.2,0.1-0.4,0.3-0.6,0.5c0.3-1.1,0.6-1.9,0.6-2.1v-0.1v-0.1
			c0.1-0.6,0.2-1.2-0.3-1.7c-0.4-0.5-0.8-0.6-1.2-0.6c-0.1,0-0.1,0-0.2,0c-0.6,0-1.1,0.4-1.7,1.1c-0.3,0.5-0.6,0.8-0.6,0.8l0,0
			l-1,2.3c-0.2-0.8-0.4-1.4-0.6-1.9c-0.4-0.6-0.9-0.9-1.3-0.9c-0.2,0-0.4-0.1-0.5-0.1c-0.3,0-0.6,0-0.8,0.1
			c-0.4,0.1-0.7,0.4-1.1,0.6c-0.4,0.3-0.6,0.6-0.8,0.8c-0.3,0.4-0.4,0.6-0.5,1c-0.1,0.6,0.2,1.1,0.7,1.3c-0.1,0.3-0.1,0.6-0.2,1.1
			c0,0.2-0.1,0.4-0.1,0.6c-0.3-0.3-0.6-0.4-1.2-0.4c-0.1,0-0.2,0-0.3,0c-0.5,0.1-0.9,0.2-1.4,0.4c-0.6,0.2-1,0.5-1.4,0.8
			c0.1-0.5,0.2-0.9,0.2-1.3c0.1-0.4,0-0.6-0.2-0.8s-0.5-0.3-0.6-0.3c-0.5,0-0.8,0.4-1.3,0.8c-0.2,0.2-0.5,0.5-0.6,0.6l-0.4,0.2
			l-0.1,0.5c-0.1,0.3-0.2,1-0.4,1.7v0.1l-1,0.5c-0.3,0.1-0.6,0.3-0.8,0.4c0.1-0.9,0.1-1.8,0.2-2.8v-0.1c0-0.3,0-0.6-0.3-0.8
			c-0.2-0.2-0.4-0.3-0.6-0.3c-0.6,0-1.1,0.6-2.4,2.8l-0.1,0.2v0.2c-0.1,1-0.1,1.9-0.2,2.8c-0.2-0.1-0.4-0.1-0.6-0.1l0,0
			c-0.4,0-0.6,0.1-1.1,0.3c-0.6,0.3-1.1,0.7-1.6,1.3c-0.5,0.6-0.8,1.2-1.1,1.9c-0.1,0.2-0.2,0.5-0.3,0.6c-0.4-0.5-0.8-0.7-1.5-0.8
			c0.3-0.2,0.5-0.4,0.7-0.6c0.3-0.3,0.5-0.7,0.6-1.2c0.2-0.5,0.3-1,0.3-1.7s0-1.2-0.2-1.7c-0.2-0.6-0.6-1-1-1.3
			c-0.3-0.2-0.6-0.2-0.9-0.2c-0.3,0-0.6,0-0.8,0.1c-0.6,0.2-1.1,0.6-1.8,1.1c-0.6,0.4-1,0.9-1.5,1.6c-0.5,0.6-0.8,1.3-1.2,2.1
			c-0.4,0.7-0.6,1.6-0.8,2.5c-0.2,0.6-0.3,1.3-0.3,1.9l0,0l0,0c0,1.3,0.2,2.9,1,3.9c0.1,0.1,0.1,0.1,0.2,0.2c-0.1,0-0.2,0.1-0.3,0.1
			c-0.4,0.2-0.6,0.6-0.8,1.1c-0.2,0.5-0.3,0.9-0.3,1.6c-0.1,0.6,0,1.2,0.1,1.8s0.4,1.2,0.7,1.6c0.4,0.4,0.9,0.6,1.4,0.7
			c0.1,0,0.2,0,0.2,0c0.5,0,0.8-0.1,1.3-0.3s0.9-0.6,1.4-0.9c0.5-0.4,0.9-0.8,1.3-1.4c0.1-0.2,0.3-0.4,0.4-0.6l0.7-1.3l0.1-0.3
			c0.2-0.4,0.4-0.7,0.5-1.1c0,0,0,0,0.1,0.1c0.2,0.3,0.5,0.5,0.7,0.6c0.2,0.1,0.4,0.1,0.6,0.1c0.2,0,0.3,0,0.4,0
			c0.8-0.2,1.7-0.8,2.6-1.8c0.1-0.1,0.2-0.2,0.2-0.3v0.5l1.5-1.3c0.5-0.4,0.9-0.8,1.5-1.3v0.2l1.3-0.7c0.6-0.3,1.1-0.6,1.7-0.9
			l0.3-0.2l0.1-0.3c0.2-0.4,0.3-0.8,0.5-1.2c0.2,0.4,0.5,0.6,0.8,0.7c0.1,0,0.3,0.1,0.4,0.1c0.3,0,0.6-0.1,0.8-0.3
			c0.2-0.1,0.5-0.3,0.6-0.5l0.8-0.5c0.6-0.3,1-0.6,1.6-0.7l0.4-0.2l0.1-0.4c0.2-0.9,0.4-1.7,0.6-2.7c0,0.6,0.1,1.1,0.1,1.5
			c0.1,0.4,0.2,0.9,0.6,1.2c0.3,0.2,0.6,0.3,0.7,0.3c0.1,0,0.3,0,0.4-0.1c0.2-0.1,0.6-0.3,0.7-0.7c0.1-0.2,0.1-0.4,0.2-0.6
			c0-0.2,0.1-0.5,0.1-0.7c0-0.1,0-0.3,0-0.4l0,0c0.1,0.2,0.4,0.8,1.1,0.8c0.6,0,1-0.5,1.2-0.8c0,0,0,0,0,0.1
			c0.1,0.4,0.2,0.6,0.3,0.9c0.2,0.3,0.4,0.6,0.6,0.6c0.2,0.1,0.4,0.1,0.6,0.1c0.1,0,0.1,0,0.2,0c0.3,0,0.6-0.1,0.9-0.6
			c0.1-0.2,0.2-0.5,0.3-0.7c0.1-0.2,0.1-0.4,0.1-0.6c0.1,0.1,0.2,0.1,0.3,0.1c0.2,0.1,0.5,0.2,0.6,0.2s0.4,0,0.6-0.1
			c0.3-0.1,0.5-0.2,0.6-0.3l0,0c-0.9,0.9-1,2.1-1,2.1l0,0c0,0.1,0,0.3,0,0.4c0,0.4,0.1,0.6,0.4,0.9c0.3,0.4,0.6,0.7,1.6,0.8h0.3h0.2
			c0.1,0,0.2,0,0.2,0l0,0l0,0c1.4-0.3,2.7-1,3.9-2.4c1.5,0.9,3.3,1.8,5.1,1.7c1.2,0,2.6-0.4,4.2-1.5c0.4-0.2,1.5-1,2-1.7
			c0.7-0.8,0.6-1.5,0.2-1.7c-0.6-0.5-1.5,0-1.7,0.2c-2,1.4-3.1,1.7-4.6,1.7c-1.1,0-1.7-0.4-2.2-0.7c-0.1,0-0.2-0.1-0.2-0.1
			c-0.4-0.2-0.7-0.5-1.1-0.6c0.1-0.2,0.1-0.3,0.2-0.4h0.1c0.5-0.1,1-0.2,1.5-0.2l0.6-0.1l0.2-0.5c0-0.1,0.1-0.2,0.1-0.3
			c0.2,0.2,0.4,0.4,0.6,0.5c0.3,0.2,0.6,0.2,1.1,0.2c0.1,0,0.1,0,0.2,0c0.4,0,0.6-0.1,1-0.2c0.3-0.1,0.6-0.2,0.7-0.3
			c0.2,0.1,0.5,0.1,0.6,0.2c0,0,0,0,0.1,0c0.2,0,0.5,0,0.6-0.1l0.6,0.1c0.5,0,0.9,0.1,1.5,0.1l0.6,0.1l0.2-0.6
			c0.4-0.9,0.6-1.7,0.8-2.4c0.2-0.5,0.3-0.9,0.5-1.4C272.7,92.7,272.6,92.1,272.2,91.8z M225.3,108c0,0.1,0,0.1,0,0.2l0,0
			c0,0.1,0,0.1,0,0.2c0,0,0,0,0,0.1l0,0c-0.3,1.2-0.8,2.6-1.7,3.9l0,0c-0.1,0.2-0.3,0.4-0.4,0.5c-0.4,0.5-0.7,0.9-1.2,1.3
			c-0.4,0.4-0.8,0.6-1.2,0.8c-0.4,0.2-0.7,0.3-1.1,0.2c-0.4,0-0.6-0.2-0.9-0.5c-0.3-0.3-0.5-0.6-0.6-1.2s-0.2-1.1-0.1-1.7
			c0-0.6,0.1-0.9,0.3-1.3c0.1-0.4,0.3-0.6,0.5-0.6c0.2-0.1,0.4,0,0.5,0.4c0.2,0.3,0.4,0.6,0.6,0.7c0.3,0.2,0.6,0.2,0.9,0.2
			c0.3,0,0.6-0.1,1-0.2c0.2-0.1,0.3-0.1,0.4-0.2l0,0c1-0.7,1.4-1.6,1.5-2.3c0-0.1,0-0.3,0.1-0.4c0-0.3,0-0.6,0-0.7s-0.1-0.3-0.2-0.3
			c-0.5-0.4-1.2,0.6-1.2,0.6c-3.8,3.1-4-1-4-2.5c0-0.6,0.1-1.2,0.3-1.8c0.2-0.8,0.5-1.6,0.8-2.3c0.4-0.7,0.7-1.4,1.1-1.9
			c0.5-0.6,0.8-1,1.3-1.4c0.6-0.5,1.1-0.8,1.6-0.9c0.2-0.1,0.4-0.1,0.6-0.1c0.2,0,0.4,0,0.6,0.1c0.3,0.2,0.5,0.5,0.6,0.8
			c0.1,0.4,0.2,0.8,0.2,1.4s-0.1,1-0.3,1.4c-0.2,0.4-0.4,0.7-0.6,1c-0.2,0.3-0.5,0.5-0.6,0.6c-0.2,0.1-0.5,0.1-0.6,0.1
			c-0.2-0.1-0.4-0.2-0.5-0.4c-0.1-0.2-0.1-0.5-0.1-0.8c0-0.4,0-0.6-0.1-0.6c-0.1-0.1-0.3-0.1-0.5,0c-0.1,0-0.2,0.1-0.3,0.2
			c-0.5,0.3-1.1,1-1.6,2.6c0,0-0.7,3,1.2,1.7c1.8-1.4,3.8-1.8,4,0.2C225.5,104.7,225.7,106.1,225.3,108z M219.9,109.6
			c0.1,0,0.1,0,0.2,0c0.8,0,1.7-0.5,2.8-1.4l0,0v0.1l0,0c-0.1,0.6-0.4,1.1-0.9,1.6l-0.3,0.2c-0.1,0.1-0.2,0.1-0.3,0.2
			c-0.2,0.1-0.5,0.2-0.6,0.2l0,0c-0.2,0-0.3,0-0.5-0.1c-0.1,0-0.2-0.1-0.3-0.3C220.1,109.8,220,109.7,219.9,109.6z M222.9,102.8
			c-0.7,0.3-1.4,0.6-1.9,1.1c0-0.3,0.1-0.6,0.1-0.7c0.2-0.8,0.5-1.3,0.7-1.7c0,0.2,0.1,0.4,0.2,0.6
			C222.3,102.5,222.7,102.7,222.9,102.8z M230.8,101.5c0,0.6-0.2,1.1-0.4,1.6c-0.2,0.5-0.5,1-0.7,1.4c-0.3,0.5-0.6,0.8-1,1.2
			c-0.4,0.4-1,0.6-1.1,0.8c0,0-0.1,0.5,0,0.8c0,0.1,0.1,0.2,0.1,0.3c0,0,0,0,0.1,0.1c0.3,0,1.3-0.3,2.6-2.7v2.1c0,0-1.6,2.6-3.1,2.8
			c0,0-0.2,0.1-0.5,0c-0.2,0-0.3-0.1-0.4-0.3c0,0,0-0.1-0.1-0.1c-0.2-0.4-0.4-0.9-0.3-1.9c0-0.8,0.2-1.7,0.4-2.5
			c0.2-0.7,0.4-1.5,0.7-2.2c0.3-0.6,0.6-1.2,1-1.7c0.4-0.5,0.8-0.8,1.3-1.1c0.2-0.1,0.5-0.2,0.6-0.2l0,0c0.2,0,0.4,0.1,0.5,0.2
			c0.1,0.1,0.2,0.3,0.3,0.5C230.7,101,230.8,101.2,230.8,101.5z M233.2,94.5c-0.2,3.7-0.4,7.3-0.6,11.3c-0.6,0.5-1.1,0.9-1.6,1.4
			c0.2-4.1,0.3-6.4,0.5-10.6c0.9-1.6,1.5-2.4,1.7-2.4C233.1,94.4,233.2,94.4,233.2,94.5z M235.5,104.5c-0.6,0.3-1.1,0.6-1.7,0.9
			c0-2.7,0-4.3-0.3-6.8c0.6-0.3,1-0.5,1.6-0.7c0.1,0.8,0,1.7,0.1,2.6c0,0.9,0,1.8,0,1.8s0.3-1,0.5-1.5s0.3-1,0.4-1.5
			c0.1-0.5,0.3-1,0.4-1.5c0.1-0.6,0.5-2.2,0.6-2.8c0.5-0.2,1.3-1.4,1.6-1.4c0.1,0,0.1,0.1,0.1,0.2c-0.3,1.7-1,4.6-1.5,6.2
			C236.6,101.5,236.1,103,235.5,104.5z M242.9,95.5c-0.4,2-0.8,4-1.3,6.2c-0.6,0.3-1,0.6-1.6,0.7c0.1-0.6,0.2-1.1,0.4-1.7
			c-0.1,0.3-0.3,0.6-0.4,0.8c-0.1,0.3-0.3,0.5-0.5,0.7c-0.2,0.2-0.3,0.5-0.5,0.6c-0.2,0.2-0.4,0.3-0.6,0.4c-0.2,0.1-0.5,0.2-0.6,0.1
			c-0.2-0.1-0.3-0.2-0.4-0.4s-0.2-0.5-0.2-0.7c0-0.3,0-0.6,0-1c0.1-0.6,0.2-1.3,0.4-2c0.2-0.6,0.5-1.2,0.7-1.8
			c0.3-0.6,0.6-1,1.1-1.5c0.5-0.5,0.9-0.7,1.4-0.9c0.4-0.2,0.7-0.3,1.1-0.3c0.1,0,0.1,0,0.2,0C242.6,94.9,243,95,242.9,95.5z
			 M262.7,87.8c0.1-0.3,0.2-0.6,0.3-0.8c0,0,0.3-0.5,0.5-0.6c0.2-0.1,0.4-0.2,0.6-0.3c0.1,0,0.1,0,0.2,0c0.2,0,0.4,0,0.6,0.1
			c0.3,0.1,0.5,0.2,0.6,0.4c0.2,0.2,0.3,0.4,0.3,0.6c0,0.1,0,0.2,0,0.3c0,0.1,0,0.2-0.1,0.3c0,0.1-0.1,0.2-0.2,0.2
			c-0.1,0.1-0.1,0.1-0.2,0.1s-0.2,0-0.3-0.1c-0.1-0.1-0.1-0.2,0-0.3v-0.1l0,0c0-0.1,0-0.1,0-0.2c-0.1-0.1-0.2-0.2-0.3-0.2
			c-0.2,0-0.3,0.1-0.4,0.2l0,0c-0.1,0.1-0.1,0.2-0.1,0.4c0,0.5,0.4,0.8,0.8,0.8c0.3,0,0.6-0.2,0.7-0.4c0,0.2-0.1,0.3-0.2,0.5
			c-0.2,0.5-0.5,0.7-0.8,0.9s-0.7,0.2-1.1,0s-0.6-0.4-0.8-0.7C262.6,88.7,262.5,88.3,262.7,87.8z M255.9,89c0.5-0.2,1.4-0.6,1.7-0.6
			c0.2,0,0.3,0.1,0.1,0.3c-0.8,1.1-1.2,1.5-1.8,2.3c-0.5,0.1-0.9,0.1-1.4,0.2C255,90.5,255.5,89.8,255.9,89z M250.5,98.6L250.5,98.6
			c0,0.1,0,0.3-0.1,0.4c-0.1,0.3-0.1,0.6-0.2,0.8c-0.1,0.2-0.1,0.4-0.2,0.6c-0.1,0.1-0.2,0.2-0.3,0.2c-0.1,0-0.2,0-0.3-0.1
			c-0.1,0-0.2-0.2-0.3-0.3c-0.1-0.2-0.2-0.4-0.2-0.6c-0.1-0.3-0.1-0.6-0.1-1.1s0-1,0.1-1.7s0.2-1.5,0.4-2.4
			c-0.2,0.4-0.9,2.3-1.5,3.6l-0.5,1.2c-0.2,0.4-0.8,1.1-0.9-1c0-2.2-0.8-3.3-0.8-3.3c-0.1,0.6-0.2,1.1-0.3,1.7
			c-0.1,0.5-0.1,0.8-0.2,1.3s-0.1,0.8-0.1,1.2c0,0.4-0.1,0.6-0.1,0.9c0,0.3-0.1,0.6-0.1,0.7c0,0.2-0.1,0.4-0.1,0.5
			c-0.1,0.1-0.1,0.2-0.2,0.2c-0.1,0-0.2,0-0.3-0.1c-0.1-0.1-0.2-0.3-0.3-0.6c-0.1-0.4-0.1-0.9-0.1-1.6c0-0.7,0.1-1.7,0.2-2.8
			c0.1-0.8,0.2-1.5,0.3-2.1c0.1-0.6,0.2-1.1,0.3-1.5c-0.2-0.3-0.4-0.4-0.6-0.5c-0.2-0.1-0.3-0.2-0.3-0.5c0-0.2,0.1-0.5,0.3-0.6
			c0.2-0.2,0.4-0.5,0.6-0.6c0.3-0.2,0.6-0.4,0.8-0.5c0.3-0.1,0.6-0.1,0.8-0.1c0.3,0.1,0.6,0.3,0.7,0.6c0.3,0.5,0.5,1.1,0.6,1.8
			c0.2,0.8,0.2,1.8,0.2,2.9l2.4-5.3c0,0,0.7-1.5,1.4-1.5c0,0,0,0,0.1,0c0.6,0.1,0.9,0.3,0.7,1.4C252.3,90.6,250.8,95.6,250.5,98.6z
			 M253,98.5c-0.2,0.1-0.4,0.2-0.6,0.3s-0.5,0.1-0.6,0c-0.2-0.1-0.3-0.2-0.4-0.4c-0.1-0.2-0.1-0.5-0.1-0.7c0-0.3,0-0.6,0.1-0.9
			c0.1-0.6,0.3-1.1,0.5-1.7c0.2-0.6,0.5-1.1,0.8-1.5c0.4-0.5,0.7-0.8,1.1-1.1c0.5-0.4,0.9-0.5,1.4-0.6c0.2,0,0.5-0.1,0.6-0.1
			c0.2,0,0.3,0,0.5,0c0.4,0,1.1,0.1,0.9,0.6c-0.5,1.7-1,3.4-1.7,5.3c-0.6,0.1-1,0.3-1.6,0.4c0.1-0.5,0.3-0.9,0.4-1.4
			c-0.1,0.2-0.3,0.5-0.4,0.6c-0.2,0.2-0.3,0.4-0.5,0.6C253.3,98.2,253.1,98.4,253,98.5z M261.3,100c1.2,0.7,3.5,2.4,8.8-1.6
			c-0.9,1.4-2.2,2.2-2.2,2.2c-4,2.6-6.3,1.4-8.8-0.1c-0.2-0.1-0.4-0.2-0.6-0.3c-0.9,1.2-2.2,2.3-3.8,2.6c0,0-0.2,0-0.5,0l0,0
			c-0.6-0.1-0.8-0.3-1-0.5c-0.1-0.2-0.2-0.3-0.2-0.6c0-0.1,0-0.2,0-0.3l0,0c0,0,0.2-2.1,2.7-2.7c0.8-0.2,1.6-0.2,2.3-0.1
			c0.1-0.3,0.2-0.4,0.2-0.4l0,0c0.5-1,0.7-1.8,0.8-2.1l0,0c-0.3,0.4-0.6,0.6-0.8,0.9c-0.3,0.3-0.6,0.5-0.9,0.5
			c-0.3,0.1-0.5,0.1-0.6,0s-0.3-0.2-0.4-0.4c-0.1-0.2-0.2-0.4-0.2-0.6c0-0.3,0-0.6,0-0.7c0.1-0.5,0.2-1,0.5-1.5
			c0.2-0.5,0.5-0.9,0.7-1.3c0.4-0.4,0.6-0.7,1-0.9c0.5-0.3,0.9-0.4,1.3-0.5c0.2,0,0.4-0.1,0.6-0.1s0.3,0,0.5,0c0.4,0.1,1.2,0,0.8,1
			c-0.4,1.2-0.6,1.9-0.9,3.1l0,0c-0.1,0.3-0.6,1.7-1.4,3.2C260.3,99.3,260.7,99.6,261.3,100z M262.2,97.1c-0.5,0.1-1,0.1-1.5,0.2
			c0.6-1.9,1.5-4.4,2.1-6.3c0.4-0.2,1.1-0.6,1.4-0.6c0.2,0,0.2,0.1,0.1,0.3C263.7,92.7,262.8,95.3,262.2,97.1z M265.8,96.8
			c-0.3,0.1-0.6,0.2-0.8,0.2s-0.6,0-0.8-0.2c-0.2-0.1-0.4-0.3-0.6-0.5c-0.1-0.2-0.2-0.5-0.2-0.7c0-0.3,0-0.6,0.1-0.9
			c0.1-0.5,0.3-0.9,0.5-1.3c0.2-0.4,0.5-0.7,0.7-1c0.3-0.4,0.6-0.6,1-0.7c0.4-0.2,0.8-0.3,1.2-0.4h0.1c0.9,0,0.7,0.6,0.7,0.6
			c-0.3,0.3-0.5,0.5-0.6,0.8c-0.1,0-0.3-0.1-0.4-0.1c-0.2,0-0.4,0-0.6,0.2c-0.2,0.1-0.4,0.3-0.5,0.5c-0.2,0.2-0.3,0.4-0.4,0.6
			c-0.1,0.2-0.2,0.5-0.2,0.7c-0.1,0.3-0.1,0.6,0,0.7s0.4,0.3,0.6,0.3s0.5-0.2,0.7-0.3c0,0.3,0,0.5,0.1,0.7l0.1,0.6
			C266.4,96.6,266.2,96.6,265.8,96.8z M271.8,93c-0.5,1.4-0.8,2.4-1.4,3.8c-0.5-0.1-1-0.1-1.5-0.1c0.1-0.4,0.3-0.7,0.4-1.2
			c-0.1,0.2-0.3,0.3-0.4,0.5c-0.2,0.2-0.3,0.3-0.5,0.4c-0.2,0.1-0.4,0.2-0.5,0.3c-0.2,0.1-0.4,0.1-0.5,0.1c-0.2,0-0.4-0.1-0.6-0.2
			c-0.1-0.1-0.3-0.3-0.3-0.5c-0.1-0.2-0.1-0.5-0.1-0.6c0-0.3,0-0.5,0.1-0.7c0.1-0.5,0.3-0.9,0.5-1.3s0.5-0.7,0.7-1
			c0.3-0.3,0.6-0.5,1-0.6c0.2-0.1,0.5-0.1,0.6-0.1s0.4,0,0.6,0.1c0.4,0.1,0.6,0.2,1,0.4C271.3,92.1,271.9,92.3,271.8,93z"/>
		<path class="st1" d="M269.2,92.8c-0.2,0.1-0.4,0.3-0.5,0.5c-0.2,0.2-0.3,0.4-0.4,0.6c-0.1,0.2-0.2,0.5-0.2,0.6c0,0.1,0,0.2,0,0.3
			c0,0.1,0,0.2,0,0.2c0,0.1,0,0.1,0.1,0.2c0,0.1,0.1,0.1,0.2,0.1l0,0c0.1,0,0.2-0.1,0.4-0.2c0.2-0.1,0.3-0.2,0.5-0.4
			c0.1-0.2,0.3-0.3,0.4-0.5c0.1-0.2,0.3-0.4,0.4-0.5c0.1-0.4,0.3-0.6,0.4-1c-0.2-0.1-0.3-0.2-0.5-0.2
			C269.5,92.7,269.4,92.7,269.2,92.8z"/>
	</g>
	<g>
		<g>
			<g>
				<path id="SVGID_33_" class="st1" d="M227.6,46.6h-2l-0.4-2.3h-2.4l-0.4,2.3h-1.8l2-12.5h2.8L227.6,46.6z M223.1,42.5h1.9
					l-0.9-6.3l0,0L223.1,42.5z"/>
			</g>
			<g>
				<defs>
					<path id="SVGID_6_" d="M227.6,46.6h-2l-0.4-2.3h-2.4l-0.4,2.3h-1.8l2-12.5h2.8L227.6,46.6z M223.1,42.5h1.9l-0.9-6.3l0,0
						L223.1,42.5z"/>
				</defs>
				<clipPath id="SVGID_8_">
					<use xlink:href="#SVGID_6_"  style="overflow:visible;"/>
				</clipPath>
				<rect x="220.7" y="34" class="st3" width="6.9" height="12.5"/>
			</g>
		</g>
		<g>
			<g>
				<path id="SVGID_35_" class="st1" d="M228.6,37.3v6c0,1.8,0.9,2.9,2.8,2.9c1.7,0,2.8-1.1,2.8-2.9v-1.6h-1.7v1.7
					c0,0.8-0.4,1.1-0.9,1.1c-0.6,0-0.9-0.3-0.9-1.1v-6.2c0-0.8,0.4-1.1,0.9-1.1c0.6,0,0.9,0.3,0.9,1.1v1.2h1.7v-1.1
					c0-1.8-0.9-2.9-2.8-2.9C229.5,34.3,228.6,35.4,228.6,37.3"/>
			</g>
			<g>
				<defs>
					<path id="SVGID_9_" d="M228.6,37.3v6c0,1.8,0.9,2.9,2.8,2.9c1.7,0,2.8-1.1,2.8-2.9v-1.6h-1.7v1.7c0,0.8-0.4,1.1-0.9,1.1
						c-0.6,0-0.9-0.3-0.9-1.1v-6.2c0-0.8,0.4-1.1,0.9-1.1c0.6,0,0.9,0.3,0.9,1.1v1.2h1.7v-1.1c0-1.8-0.9-2.9-2.8-2.9
						C229.5,34.3,228.6,35.4,228.6,37.3"/>
				</defs>
				<clipPath id="SVGID_10_">
					<use xlink:href="#SVGID_9_"  style="overflow:visible;"/>
				</clipPath>
				<rect x="228.6" y="34.3" class="st4" width="5.4" height="11.9"/>
			</g>
		</g>
		<g>
			<g>
				<path id="SVGID_37_" class="st1" d="M238.8,35.1v8.1c0,0.7-0.4,1-0.8,1c-0.6,0-0.8-0.3-0.8-1v-8.1h-1.7v8c0,1.7,0.8,2.7,2.5,2.7
					c1.7,0,2.5-0.9,2.5-2.7v-8H238.8z"/>
			</g>
			<g>
				<defs>
					<path id="SVGID_11_" d="M238.8,35.1v8.1c0,0.7-0.4,1-0.8,1c-0.6,0-0.8-0.3-0.8-1v-8.1h-1.7v8c0,1.7,0.8,2.7,2.5,2.7
						c1.7,0,2.5-0.9,2.5-2.7v-8H238.8z"/>
				</defs>
				<clipPath id="SVGID_12_">
					<use xlink:href="#SVGID_11_"  style="overflow:visible;"/>
				</clipPath>
				<rect x="235.5" y="35.1" class="st5" width="4.9" height="10.6"/>
			</g>
		</g>
		<g>
			<g>
				<path id="SVGID_39_" class="st1" d="M243.8,37.1L243.8,37.1l0.7,5h-1.5L243.8,37.1z M242.8,35.3l-1.6,9.8h1.4l0.3-1.7h1.9
					l0.3,1.7h1.6l-1.6-9.8H242.8z"/>
			</g>
			<g>
				<defs>
					<path id="SVGID_13_" d="M243.8,37.1L243.8,37.1l0.7,5h-1.5L243.8,37.1z M242.8,35.3l-1.6,9.8h1.4l0.3-1.7h1.9l0.3,1.7h1.6
						l-1.6-9.8H242.8z"/>
				</defs>
				<clipPath id="SVGID_14_">
					<use xlink:href="#SVGID_13_"  style="overflow:visible;"/>
				</clipPath>
				<rect x="241.2" y="35.3" class="st6" width="5.4" height="9.8"/>
			</g>
		</g>
		<g>
			<g>
				<path id="SVGID_41_" class="st1" d="M249.3,36.5h0.8c0.6,0,0.8,0.4,0.8,1.1v1c0,0.8-0.4,1.1-1,1.1h-0.6L249.3,36.5L249.3,36.5z
					 M247.7,35.1v10.5h1.7v-4.2h0.6c0.7,0,1.1,0.4,1.1,1.3v1.7c0,0.8,0.1,1,0.2,1.3h1.7c-0.2-0.4-0.2-0.7-0.2-1.3v-1.7
					c0-1.1-0.3-1.8-1.1-2.2l0,0c0.7-0.4,1.1-1,1.1-2.1v-0.8c0-1.7-0.7-2.4-2.5-2.4H247.7z"/>
			</g>
			<g>
				<defs>
					<path id="SVGID_15_" d="M249.3,36.5h0.8c0.6,0,0.8,0.4,0.8,1.1v1c0,0.8-0.4,1.1-1,1.1h-0.6L249.3,36.5L249.3,36.5z M247.7,35.1
						v10.5h1.7v-4.2h0.6c0.7,0,1.1,0.4,1.1,1.3v1.7c0,0.8,0.1,1,0.2,1.3h1.7c-0.2-0.4-0.2-0.7-0.2-1.3v-1.7c0-1.1-0.3-1.8-1.1-2.2
						l0,0c0.7-0.4,1.1-1,1.1-2.1v-0.8c0-1.7-0.7-2.4-2.5-2.4H247.7z"/>
				</defs>
				<clipPath id="SVGID_16_">
					<use xlink:href="#SVGID_15_"  style="overflow:visible;"/>
				</clipPath>
				<rect x="247.7" y="35.1" class="st7" width="5.1" height="10.5"/>
			</g>
		</g>
		<g>
			<g>
				<rect id="SVGID_43_" x="254.5" y="34.4" class="st1" width="1.8" height="11.6"/>
			</g>
			<g>
				<defs>
					<rect id="SVGID_18_" x="254.5" y="34.4" width="1.8" height="11.6"/>
				</defs>
				<clipPath id="SVGID_20_">
					<use xlink:href="#SVGID_18_"  style="overflow:visible;"/>
				</clipPath>
				<rect x="254.5" y="34.4" class="st8" width="1.8" height="11.6"/>
			</g>
		</g>
		<g>
			<g>
				<path id="SVGID_45_" class="st1" d="M260.3,43.6v-6.8c0-0.9,0.4-1.2,1-1.2c0.6,0,1,0.4,1,1.2v6.8c0,0.9-0.4,1.2-1,1.2
					C260.6,44.9,260.3,44.5,260.3,43.6 M258.3,37v6.5c0,2,1.1,3.1,3,3.1c1.9,0,3-1.1,3-3.1V37c0-2-1.1-3.1-3-3.1
					C259.3,33.9,258.3,35,258.3,37"/>
			</g>
			<g>
				<defs>
					<path id="SVGID_22_" d="M260.3,43.6v-6.8c0-0.9,0.4-1.2,1-1.2c0.6,0,1,0.4,1,1.2v6.8c0,0.9-0.4,1.2-1,1.2
						C260.6,44.9,260.3,44.5,260.3,43.6 M258.3,37v6.5c0,2,1.1,3.1,3,3.1c1.9,0,3-1.1,3-3.1V37c0-2-1.1-3.1-3-3.1
						C259.3,33.9,258.3,35,258.3,37"/>
				</defs>
				<clipPath id="SVGID_24_">
					<use xlink:href="#SVGID_22_"  style="overflow:visible;"/>
				</clipPath>
				<rect x="258.3" y="33.9" class="st9" width="6" height="12.9"/>
			</g>
		</g>
		<g>
			<g>
				<path id="SVGID_47_" class="st1" d="M229.3,48.6h0.6c0.3,0,0.5,0.2,0.5,0.6v3.2c0,0.5-0.2,0.6-0.5,0.6h-0.6V48.6z M228.4,47.7
					v6.2h1.6c0.9,0,1.5-0.6,1.5-1.5v-3.1c0-1-0.5-1.5-1.5-1.5L228.4,47.7L228.4,47.7z"/>
			</g>
			<g>
				<defs>
					<path id="SVGID_26_" d="M229.3,48.6h0.6c0.3,0,0.5,0.2,0.5,0.6v3.2c0,0.5-0.2,0.6-0.5,0.6h-0.6V48.6z M228.4,47.7v6.2h1.6
						c0.9,0,1.5-0.6,1.5-1.5v-3.1c0-1-0.5-1.5-1.5-1.5L228.4,47.7L228.4,47.7z"/>
				</defs>
				<clipPath id="SVGID_28_">
					<use xlink:href="#SVGID_26_"  style="overflow:visible;"/>
				</clipPath>
				<rect x="228.4" y="47.7" class="st10" width="2.9" height="6.2"/>
			</g>
		</g>
		<g>
			<g>
				<polygon id="SVGID_49_" class="st1" points="232.4,47.7 232.4,53.8 235,53.8 235,53 233.3,53 233.3,51.2 234.6,51.2 234.6,50.2 
					233.3,50.2 233.3,48.6 235,48.6 235,47.7 				"/>
			</g>
			<g>
				<defs>
					<polygon id="SVGID_30_" points="232.4,47.7 232.4,53.8 235,53.8 235,53 233.3,53 233.3,51.2 234.6,51.2 234.6,50.2 233.3,50.2 
						233.3,48.6 235,48.6 235,47.7 					"/>
				</defs>
				<clipPath id="SVGID_32_">
					<use xlink:href="#SVGID_30_"  style="overflow:visible;"/>
				</clipPath>
				<rect x="232.4" y="47.7" class="st11" width="2.7" height="6.2"/>
			</g>
		</g>
		<g>
			<g>
				<polygon id="SVGID_51_" class="st1" points="236,47.7 236,53.8 238.6,53.8 238.6,53 237,53 237,47.7 				"/>
			</g>
			<g>
				<defs>
					<polygon id="SVGID_34_" points="236,47.7 236,53.8 238.6,53.8 238.6,53 237,53 237,47.7 					"/>
				</defs>
				<clipPath id="SVGID_36_">
					<use xlink:href="#SVGID_34_"  style="overflow:visible;"/>
				</clipPath>
				<rect x="236" y="47.7" class="st12" width="2.6" height="6.2"/>
			</g>
		</g>
		<g>
			<g>
				<path id="SVGID_53_" class="st1" d="M242.2,51.1h0.5c0.5,0,0.6,0.2,0.6,0.7v0.6c0,0.5-0.2,0.6-0.5,0.6h-0.6L242.2,51.1
					L242.2,51.1z M242.2,48.6h0.5c0.4,0,0.5,0.2,0.5,0.6v0.4c0,0.5-0.2,0.6-0.6,0.6h-0.4V48.6z M241.2,47.7v6.2h1.5
					c0.9,0,1.5-0.6,1.5-1.5v-0.5c0-0.6-0.2-1.1-0.7-1.3l0,0c0.5-0.2,0.6-0.6,0.6-1.2v-0.2c0-0.9-0.5-1.4-1.5-1.4h-1.4V47.7z"/>
			</g>
			<g>
				<defs>
					<path id="SVGID_38_" d="M242.2,51.1h0.5c0.5,0,0.6,0.2,0.6,0.7v0.6c0,0.5-0.2,0.6-0.5,0.6h-0.6L242.2,51.1L242.2,51.1z
						 M242.2,48.6h0.5c0.4,0,0.5,0.2,0.5,0.6v0.4c0,0.5-0.2,0.6-0.6,0.6h-0.4V48.6z M241.2,47.7v6.2h1.5c0.9,0,1.5-0.6,1.5-1.5v-0.5
						c0-0.6-0.2-1.1-0.7-1.3l0,0c0.5-0.2,0.6-0.6,0.6-1.2v-0.2c0-0.9-0.5-1.4-1.5-1.4h-1.4V47.7z"/>
				</defs>
				<clipPath id="SVGID_40_">
					<use xlink:href="#SVGID_38_"  style="overflow:visible;"/>
				</clipPath>
				<rect x="241.2" y="47.7" class="st13" width="2.9" height="6.2"/>
			</g>
		</g>
		<g>
			<g>
				<path id="SVGID_55_" class="st1" d="M246.6,48.8L246.6,48.8l0.5,3.1h-0.9L246.6,48.8z M245.9,47.7l-1,6.2h0.9l0.2-1.1h1.2
					l0.2,1.1h1l-1-6.2H245.9z"/>
			</g>
			<g>
				<defs>
					<path id="SVGID_42_" d="M246.6,48.8L246.6,48.8l0.5,3.1h-0.9L246.6,48.8z M245.9,47.7l-1,6.2h0.9l0.2-1.1h1.2l0.2,1.1h1l-1-6.2
						H245.9z"/>
				</defs>
				<clipPath id="SVGID_44_">
					<use xlink:href="#SVGID_42_"  style="overflow:visible;"/>
				</clipPath>
				<rect x="245" y="47.7" class="st14" width="3.4" height="6.2"/>
			</g>
		</g>
		<g>
			<g>
				<path id="SVGID_57_" class="st1" d="M249.9,47.7v4.7c0,0.5-0.3,0.6-0.6,0.6c-0.1,0-0.2,0-0.4,0v0.9c0.2,0,0.3,0,0.5,0
					c0.7,0,1.4-0.3,1.4-1.6v-4.6H249.9z"/>
			</g>
			<g>
				<defs>
					<path id="SVGID_46_" d="M249.9,47.7v4.7c0,0.5-0.3,0.6-0.6,0.6c-0.1,0-0.2,0-0.4,0v0.9c0.2,0,0.3,0,0.5,0
						c0.7,0,1.4-0.3,1.4-1.6v-4.6H249.9z"/>
				</defs>
				<clipPath id="SVGID_48_">
					<use xlink:href="#SVGID_46_"  style="overflow:visible;"/>
				</clipPath>
				<rect x="249" y="47.7" class="st15" width="1.8" height="6.2"/>
			</g>
		</g>
		<g>
			<g>
				<path id="SVGID_59_" class="st1" d="M251.9,53.8h0.9v-6.2h-0.9V53.8z M252.4,46.4l-0.6,1h0.6l0.9-1H252.4z"/>
			</g>
			<g>
				<defs>
					<path id="SVGID_50_" d="M251.9,53.8h0.9v-6.2h-0.9V53.8z M252.4,46.4l-0.6,1h0.6l0.9-1H252.4z"/>
				</defs>
				<clipPath id="SVGID_52_">
					<use xlink:href="#SVGID_50_"  style="overflow:visible;"/>
				</clipPath>
				<rect x="251.9" y="46.4" class="st16" width="1.6" height="7.4"/>
			</g>
		</g>
		<g>
			<g>
				<path id="SVGID_61_" class="st1" d="M254.9,52.4v-3.3c0-0.5,0.2-0.6,0.5-0.6c0.3,0,0.5,0.2,0.5,0.6v3.3c0,0.5-0.2,0.6-0.5,0.6
					C255.1,53,254.9,52.8,254.9,52.4 M253.9,49.1v3.2c0,1,0.6,1.6,1.5,1.6s1.5-0.6,1.5-1.6v-3.2c0-1-0.6-1.6-1.5-1.6
					C254.5,47.7,253.9,48.2,253.9,49.1"/>
			</g>
			<g>
				<defs>
					<path id="SVGID_54_" d="M254.9,52.4v-3.3c0-0.5,0.2-0.6,0.5-0.6c0.3,0,0.5,0.2,0.5,0.6v3.3c0,0.5-0.2,0.6-0.5,0.6
						C255.1,53,254.9,52.8,254.9,52.4 M253.9,49.1v3.2c0,1,0.6,1.6,1.5,1.6s1.5-0.6,1.5-1.6v-3.2c0-1-0.6-1.6-1.5-1.6
						C254.5,47.7,253.9,48.2,253.9,49.1"/>
				</defs>
				<clipPath id="SVGID_56_">
					<use xlink:href="#SVGID_54_"  style="overflow:visible;"/>
				</clipPath>
				<rect x="253.9" y="47.7" class="st17" width="2.9" height="6.2"/>
			</g>
		</g>
		<g>
			<path class="st1" d="M259.6,50.1c0.1-0.1,0-0.4,0-0.5c0-0.2,0-0.4,0-0.6c0-0.2,0-0.4,0.1-0.6c0.1-0.3,0.2,0.3,0.3,0.4
				c0.1,0.2,0.1,0.5,0.1,0.6c0,0.1,0.1,0.4,0.2,0.5c0.2,0,0.5-0.2,0.6-0.3c0.2-0.2,0.4-0.3,0.6-0.5c0,0,0.2-0.1,0.3-0.1
				c0.1,0,0.1,0.2,0,0.3c-0.2,0.4-0.6,0.6-0.8,0.8c-0.4,0.3,0.1,0.6,0.3,0.8c0.2,0.2,0.4,0.3,0.5,0.5c0.1,0.1,0.1,0.2,0,0.2
				c-0.1,0.1-0.3,0-0.4,0c-0.2-0.1-0.5-0.2-0.6-0.4c-0.1-0.1-0.3-0.2-0.4-0.3c-0.3-0.2-0.4-0.1-0.6,0.2c-0.2,0.2-0.3,0.4-0.4,0.6
				c-0.1,0.1-0.4,0.5-0.5,0.3c0-0.1,0.1-0.3,0.1-0.4c0.1-0.1,0.1-0.2,0.2-0.3c0.1-0.1,0.2-0.3,0.3-0.4c0.1-0.1,0.1-0.2,0-0.3
				c-0.1-0.1-0.2-0.2-0.3-0.2c-0.2-0.1-0.5-0.2-0.6-0.3c-0.1,0-0.5-0.2-0.4-0.3c0.1-0.2,0.8,0.1,0.9,0.1s0.2,0.1,0.4,0.1
				C259.4,50.1,259.5,50.1,259.6,50.1C259.6,50.1,259.6,50.1,259.6,50.1"/>
			<path class="st1" d="M224.3,50.1c0.1-0.1,0-0.4,0-0.5c0-0.2,0-0.4,0-0.6c0-0.2,0-0.4,0.1-0.6c0.1-0.3,0.2,0.3,0.3,0.4
				c0.1,0.2,0.1,0.5,0.1,0.6c0,0.1,0.1,0.4,0.2,0.5c0.2,0,0.5-0.2,0.6-0.3c0.2-0.2,0.4-0.3,0.6-0.5c0,0,0.2-0.1,0.3-0.1
				c0.1,0,0.1,0.2,0,0.3c-0.2,0.4-0.6,0.6-0.8,0.8c-0.4,0.3,0.1,0.6,0.3,0.8c0.2,0.2,0.4,0.3,0.5,0.5c0.1,0.1,0.1,0.2,0,0.2
				c-0.1,0.1-0.3,0-0.4,0c-0.2-0.1-0.5-0.2-0.6-0.4c-0.1-0.1-0.3-0.2-0.4-0.3c-0.3-0.2-0.4-0.1-0.6,0.2c-0.2,0.2-0.3,0.4-0.4,0.6
				c-0.1,0.1-0.4,0.5-0.5,0.3c0-0.1,0.1-0.3,0.1-0.4c0.1-0.1,0.1-0.2,0.2-0.3c0.1-0.1,0.2-0.3,0.3-0.4c0.1-0.1,0.1-0.2,0-0.3
				c-0.1-0.1-0.2-0.2-0.3-0.2c-0.2-0.1-0.5-0.2-0.6-0.3c-0.1,0-0.5-0.2-0.4-0.3c0.1-0.2,0.8,0.1,0.9,0.1s0.2,0.1,0.4,0.1
				C224.2,50.1,224.2,50.1,224.3,50.1C224.3,50.1,224.3,50.1,224.3,50.1"/>
		</g>
		<g>
			<g>
				<path id="SVGID_63_" class="st1" d="M241,30.5c-0.3-0.1-0.5-0.5-0.4-0.5c0.1,0,0.2,0,0.2,0c0.3,0,0.5,0.1,0.6,0.2v0.1
					C241.2,30.4,241.1,30.5,241,30.5L241,30.5 M237.1,30.7c0,0-0.7-0.8-0.3-1.8C236.8,28.8,236.8,29.7,237.1,30.7
					C237.1,30.7,237.1,30.7,237.1,30.7C237.1,30.7,237.1,30.7,237.1,30.7 M236.6,30.3c0,0-0.7-0.8-0.3-1.8c0,0,0,0.9,0.3,1.7
					C236.6,30.3,236.6,30.3,236.6,30.3L236.6,30.3 M236.2,29.7c0,0-0.6-0.7-0.1-1.6C236.1,28.2,236,28.9,236.2,29.7
					C236.2,29.7,236.2,29.7,236.2,29.7L236.2,29.7 M237.1,25.5c-4.1,3.5,0.4,6.1,0.4,6.1c-0.4-0.2-1.5-0.6-1.5-0.6
					c-1.9,1.1-2.6,2.7-2.6,2.7c1.7-0.9,5.1-1.7,5.1-1.7c2.8,1,4.8,0.1,4.8,0.1c4.1,0.6,5.3,2.1,5.3,2.1c-0.6-1.8-2.8-3.2-2.8-3.2
					c2.4-1.5,0.8-2.2,0.1-2.7c-0.7-0.6-4.2-1.7-4.2-1.7c4,0.8,5.9,2.4,5.9,2.4c0.4-0.5,0.9-0.9,0.9-0.9c1.1,2,2.5,1.8,2.5,1.8
					c-0.9-0.5-1.4-2.5-1.4-2.5s0.4-1.8,0.4-2.7c0-0.8,0.5-2.5,0.5-2.5c-1.7,1-2.3,4.4-2.3,4.4c-2,1.1-7.3-0.6-7.3-0.6
					c-0.3-3.3,2-5,2-5c-0.1,0-0.3,0-0.4,0C238.8,20.7,237.1,25.5,237.1,25.5"/>
			</g>
			<g>
				<defs>
					<path id="SVGID_58_" d="M241,30.5c-0.3-0.1-0.5-0.5-0.4-0.5c0.1,0,0.2,0,0.2,0c0.3,0,0.5,0.1,0.6,0.2v0.1
						C241.2,30.4,241.1,30.5,241,30.5L241,30.5 M237.1,30.7c0,0-0.7-0.8-0.3-1.8C236.8,28.8,236.8,29.7,237.1,30.7
						C237.1,30.7,237.1,30.7,237.1,30.7C237.1,30.7,237.1,30.7,237.1,30.7 M236.6,30.3c0,0-0.7-0.8-0.3-1.8c0,0,0,0.9,0.3,1.7
						C236.6,30.3,236.6,30.3,236.6,30.3L236.6,30.3 M236.2,29.7c0,0-0.6-0.7-0.1-1.6C236.1,28.2,236,28.9,236.2,29.7
						C236.2,29.7,236.2,29.7,236.2,29.7L236.2,29.7 M237.1,25.5c-4.1,3.5,0.4,6.1,0.4,6.1c-0.4-0.2-1.5-0.6-1.5-0.6
						c-1.9,1.1-2.6,2.7-2.6,2.7c1.7-0.9,5.1-1.7,5.1-1.7c2.8,1,4.8,0.1,4.8,0.1c4.1,0.6,5.3,2.1,5.3,2.1c-0.6-1.8-2.8-3.2-2.8-3.2
						c2.4-1.5,0.8-2.2,0.1-2.7c-0.7-0.6-4.2-1.7-4.2-1.7c4,0.8,5.9,2.4,5.9,2.4c0.4-0.5,0.9-0.9,0.9-0.9c1.1,2,2.5,1.8,2.5,1.8
						c-0.9-0.5-1.4-2.5-1.4-2.5s0.4-1.8,0.4-2.7c0-0.8,0.5-2.5,0.5-2.5c-1.7,1-2.3,4.4-2.3,4.4c-2,1.1-7.3-0.6-7.3-0.6
						c-0.3-3.3,2-5,2-5c-0.1,0-0.3,0-0.4,0C238.8,20.7,237.1,25.5,237.1,25.5"/>
				</defs>
				<clipPath id="SVGID_60_">
					<use xlink:href="#SVGID_58_"  style="overflow:visible;"/>
				</clipPath>
				<rect x="233" y="20.7" class="st18" width="18" height="13.4"/>
			</g>
		</g>
	</g>
	<g>
		<path class="st1" d="M106.2,100.5c-0.4-0.3-0.7-0.5-1.2-0.6c-0.5-0.1-0.9-0.2-1.3-0.1c-0.6,0-0.9,0.2-1.2,0.4
			c-0.3,0.3-0.4,0.5-0.4,0.7c0,0.2,0.1,0.3,0.3,0.4c0.2,0.1,0.3,0.1,0.3,0.1c0.1,0,0.3,0,0.4-0.1s0.3-0.1,0.4-0.2
			c0.4-0.1,0.6,0,0.9,0.1c0.3,0.1,0.6,0.4,0.8,0.6c0.3,0.3,0.5,0.6,0.6,0.8c0.2,0.3,0.2,0.6,0.2,0.8c0,0.2,0,0.4,0,0.6
			c0,0.2-0.1,0.4-0.2,0.6c-0.1,0.2-0.2,0.3-0.4,0.5c-0.1,0.1-0.3,0.2-0.5,0.2c-0.2,0-0.3,0-0.5-0.1c-0.2-0.1-0.3-0.2-0.4-0.4
			c-0.1-0.1-0.2-0.3-0.3-0.4c-0.1-0.2-0.1-0.3-0.2-0.4c0-0.2,0-0.4,0-0.5c0-0.1,0-0.3,0-0.4c0-0.1,0-0.2,0-0.4
			c0-0.4-0.1-0.6-0.3-0.8c-0.2-0.2-0.4-0.3-0.6-0.3c-0.3,0-0.5-0.1-0.7,0c-0.2,0-0.4,0-0.5,0c0.1,0.1,0.2,0.3,0.3,0.6
			c0,0.3,0.1,0.5,0.1,0.6c0,0.6,0,1.1,0,1.7c0,0.6,0,1.2,0,1.7c0,0.6,0,1.3,0,2c0,0.2,0,0.4,0.2,0.6c0.1,0.2,0.3,0.3,0.5,0.4
			c0.2,0.1,0.4,0.2,0.6,0.2c0.2,0,0.4,0,0.6-0.1c-0.1-0.1-0.2-0.2-0.2-0.4c0-0.1-0.1-0.3-0.1-0.4c0-0.1,0-0.2,0-0.5
			c0-0.2,0-0.5,0-0.8c0-0.3,0-0.6,0.1-1c0-0.4,0.1-0.7,0.1-1.2c0.3,0.3,0.6,0.6,0.8,0.7c0.3,0.2,0.6,0.3,1,0.3
			c0.4,0,0.6-0.1,0.9-0.3c0.3-0.2,0.5-0.5,0.6-0.7c0.2-0.3,0.3-0.6,0.4-0.9c0.1-0.4,0.1-0.6,0.1-1c0-0.6-0.2-1.3-0.4-1.7
			C106.9,101.2,106.5,100.8,106.2,100.5"/>
		<path class="st1" d="M120,106.3c-0.1-0.2-0.1-0.2-0.2-0.2l0,0c-0.4,0.4-0.7,0.6-1.1,0.6c-0.4,0-0.7-0.2-1.1-0.4
			c-0.4-0.3-0.7-0.6-1.1-0.9c-0.4-0.4-0.7-0.7-1.1-1.1c0.5-0.2,0.9-0.5,1.2-0.6c0.3-0.2,0.6-0.5,0.7-0.6c0.2-0.3,0.3-0.5,0.3-0.7
			c0.1-0.3,0.1-0.5,0.1-0.7c0-0.5-0.1-0.8-0.4-1c-0.3-0.2-0.6-0.3-1-0.3c-0.3,0-0.6,0-0.8,0.1c-0.3,0.1-0.6,0.2-0.8,0.4v-0.1v-0.1
			c0,0,0,0,0-0.1c0-0.3-0.1-0.5-0.2-0.6c-0.1-0.2-0.2-0.3-0.4-0.4c-0.2-0.1-0.3-0.1-0.5-0.2c-0.2,0-0.4,0-0.5,0c-0.1,0-0.3,0-0.4,0
			s-0.2,0-0.3,0c0.2,0.2,0.3,0.6,0.3,1.2s0,1.1,0,1.7s-0.1,1.2-0.1,1.7c0,0.6-0.1,1-0.1,1.2c0,0.1,0,0.1,0,0.2h-0.1
			c-0.2,0-0.3-0.2-0.4-0.6c0-0.4-0.1-0.8-0.1-1.4c0-0.3,0-0.6,0-0.8c0-0.3,0-0.4,0-0.5c0-0.5-0.1-0.8-0.4-1.1
			c-0.2-0.3-0.5-0.5-0.7-0.6c-0.3-0.2-0.6-0.2-0.9-0.3c-0.3,0-0.6-0.1-0.7,0c-0.3,0-0.6,0.1-0.7,0.1c-0.2,0.1-0.3,0.2-0.4,0.4
			c-0.1,0.1-0.2,0.3-0.2,0.5c0,0.2,0,0.3,0,0.5c0,0.1,0,0.2,0.1,0.2c0.1,0,0.1,0.1,0.2,0.1c0.3,0,0.6,0,0.7-0.1
			c0.2-0.1,0.4-0.1,0.5-0.1c0.3,0,0.6,0.1,0.7,0.3c0.2,0.2,0.3,0.4,0.3,0.5c0,0.2-0.1,0.2-0.2,0.3c-0.1,0-0.2,0-0.2,0
			c-0.1,0-0.1,0-0.2,0c-0.4,0-0.6,0.1-1,0.2c-0.3,0.1-0.6,0.3-0.8,0.5c-0.2,0.2-0.4,0.5-0.6,0.7c-0.1,0.3-0.2,0.6-0.2,0.8
			c0,0.5,0.2,0.7,0.5,1c0.3,0.3,0.6,0.4,1,0.4c0.4,0,0.7-0.1,1.1-0.4c0.4-0.3,0.6-0.6,0.8-0.8c0.1,0.6,0.3,0.8,0.6,1
			c0.2,0.2,0.4,0.2,0.6,0.2c0.2,0,0.4,0,0.6-0.1c0.1,0,0.1-0.1,0.2-0.1c0,0.1,0.1,0.1,0.1,0.2c0.2,0.2,0.5,0.3,0.6,0.3
			c0.2,0,0.4,0,0.5,0s0.1,0,0.2-0.1c-0.1-0.1-0.2-0.2-0.2-0.3c0-0.2-0.1-0.4-0.1-0.6c0-0.2,0-0.4,0.1-0.5c0-0.1,0.1-0.2,0.2-0.3
			c0.2,0.3,0.5,0.6,0.6,0.8c0.2,0.4,0.5,0.7,0.6,1c0.3,0.4,0.5,0.6,0.7,1c0.3,0.3,0.6,0.6,0.9,0.7c0.4,0.2,0.7,0.3,1.1,0.3
			c0.4,0,0.9-0.2,1.4-0.5c0.2-0.2,0.3-0.4,0.4-0.6c0.1-0.2,0.1-0.5,0.1-0.6C120.1,106.7,120,106.5,120,106.3 M110.4,104.7
			c-0.2,0.1-0.4,0.2-0.6,0.2c-0.2,0-0.3,0-0.4-0.1c-0.1-0.1-0.2-0.2-0.2-0.4c0-0.1,0-0.3,0.1-0.4c0.1-0.2,0.2-0.3,0.3-0.5
			c0.1-0.1,0.3-0.3,0.4-0.3c0.2-0.1,0.3-0.1,0.5-0.1c0.1,0,0.2,0,0.2,0.1c0,0.5,0,0.8,0.1,1.1C110.7,104.6,110.5,104.6,110.4,104.7
			 M114.8,103.7c-0.2,0.1-0.4,0.2-0.5,0.2c-0.1,0-0.2-0.1-0.2-0.2c0.1-0.7,0.3-1.3,0.5-1.6c0.2-0.4,0.5-0.6,0.8-0.6
			c0.2,0,0.4,0,0.5,0.1c0.1,0.1,0.2,0.2,0.2,0.5c0,0.2-0.1,0.4-0.2,0.6c-0.2,0.2-0.3,0.4-0.5,0.6
			C115.1,103.5,114.9,103.6,114.8,103.7"/>
		<path class="st1" d="M128.6,105.9c-0.2-0.2-0.5-0.3-0.7-0.3s-0.6,0.1-0.7,0.3c-0.2,0.2-0.3,0.5-0.3,0.7c0,0.3,0.1,0.5,0.3,0.6
			c0.2,0.2,0.5,0.3,0.7,0.3s0.6-0.1,0.7-0.3c0.2-0.2,0.3-0.4,0.3-0.6C128.8,106.3,128.7,106.1,128.6,105.9"/>
		<path class="st1" d="M119.7,103.9L119.7,103.9c0,0-0.6-0.6,0.3-1.9c0.8-1.5,2.7-4,5-4.8c0,0-1.7-2.6-2.8-1.1
			c-1,1.3-2.2,3.1-2.6,4.9c0-0.2,0-0.5,0.1-0.6c0.1-1.4,0.8-5.3-2.1-5.2c0,0,0.7,3.8,0.5,6.2c-0.3,2.5-0.3,4.8,0.3,5.1
			c0,0,0.6,0.5,0.7-0.5c0.3-0.9,0.2-1,0.5-0.8c0.3,0.2,1.5,1,1.8,1.4c0.4,0.4,4,3.2,4.9,0.2C126.3,106.7,122.1,106.6,119.7,103.9"/>
		<path class="st1" d="M128.4,96.7c0,0.6-0.5,1.1-1,1.1s-1.1-0.5-1.1-1.1s0.5-1.1,1.1-1.1C127.9,95.6,128.4,96.1,128.4,96.7
			 M126.5,96.7c0,0.5,0.4,0.8,0.8,0.8c0.5,0,0.8-0.4,0.8-0.8c0-0.5-0.4-0.8-0.8-0.8C126.9,95.8,126.5,96.3,126.5,96.7 M127.2,97.3
			h-0.3v-1.1c0.1,0,0.2,0,0.4,0c0.2,0,0.3,0,0.4,0.1c0.1,0.1,0.1,0.1,0.1,0.3c0,0.1-0.1,0.2-0.2,0.3l0,0c0.1,0,0.2,0.1,0.2,0.3
			c0,0.2,0.1,0.3,0.1,0.3h-0.3c0,0-0.1-0.2-0.1-0.3s-0.1-0.2-0.2-0.2h-0.1L127.2,97.3L127.2,97.3z M127.2,96.6L127.2,96.6
			c0.2,0,0.4-0.1,0.4-0.2c0-0.1-0.1-0.2-0.2-0.2c-0.1,0-0.1,0-0.1,0L127.2,96.6L127.2,96.6z"/>
		<path class="st1" d="M92.2,107.9c-0.1-0.2-0.2-0.3-0.3-0.4c-0.1-0.1-0.3-0.2-0.4-0.3c-0.1-0.1-0.2,0-0.3,0.1
			c-0.5,0.8-1,1.4-1.7,1.7c-0.7,0.3-1.6,0.5-2.6,0.5c-0.8,0-1.5-0.1-1.9-0.4c-0.5-0.3-0.9-0.6-1.2-1c-0.3-0.5-0.5-0.9-0.6-1.4
			c-0.1-0.6-0.2-1-0.2-1.6c0-0.6,0-1,0.1-1.6c0.1-0.5,0.1-0.9,0.1-1.2c0-0.3,0-0.6,0-0.7c-0.1-0.2-0.1-0.4-0.2-0.5s-0.2-0.2-0.3-0.2
			c-0.1,0-0.2-0.1-0.3-0.1c-0.4,0-0.7,0.1-1.1,0.4c-0.4,0.3-0.6,0.6-1,0.8c0-0.3-0.1-0.5-0.2-0.6c-0.1-0.2-0.2-0.3-0.4-0.3
			c-0.2-0.1-0.3-0.1-0.5-0.1c-0.2,0-0.4,0-0.6,0h-0.5c0.2,0.2,0.3,0.5,0.3,0.9s0,0.9,0,1.4c0,0.4,0,0.7-0.1,1c0,0.1-0.1,0.2-0.1,0.4
			c-0.1,0.2-0.2,0.4-0.4,0.6c-0.2,0.2-0.4,0.4-0.6,0.5c-0.3,0.1-0.6,0.2-0.8,0.2c0,0-0.1,0-0.2,0c-0.1,0-0.2,0-0.3-0.1
			c-0.1,0-0.2-0.1-0.3-0.2c-0.1-0.1-0.2-0.2-0.2-0.4c0.6,0,1-0.1,1.4-0.3c0.4-0.2,0.6-0.4,0.8-0.6c0.2-0.3,0.4-0.6,0.5-0.8
			c0.1-0.3,0.1-0.5,0.1-0.6c0-0.7-0.2-1.3-0.6-1.6c-0.4-0.3-0.9-0.5-1.6-0.5c-0.4,0-0.7,0.1-1.1,0.3c-0.4,0.2-0.6,0.4-0.8,0.7
			c-0.3,0.3-0.5,0.6-0.6,1.1c-0.1,0.4-0.2,0.8-0.2,1.4c0,0.8,0.2,1.4,0.6,1.8c0.4,0.5,1,0.6,1.7,0.6c0.4,0,0.7,0,1.1-0.1
			c0.4-0.1,0.6-0.2,0.9-0.4c0.3-0.2,0.5-0.4,0.6-0.6c0,0.1,0,0.2,0,0.3c0,0.4,0.1,0.6,0.4,0.8c0.2,0.2,0.5,0.3,0.6,0.3
			c0.3,0,0.4,0,0.5,0c0.1,0,0.1,0,0.2-0.1c-0.1-0.1-0.2-0.4-0.2-0.6c0-0.3,0-0.6,0-0.9c0-0.3,0.1-0.6,0.1-0.9
			c0.1-0.3,0.1-0.5,0.1-0.6c0.1-0.3,0.2-0.5,0.3-0.6c0.1-0.2,0.3-0.4,0.5-0.5c0.2-0.1,0.3-0.2,0.5-0.3c0.2-0.1,0.2-0.1,0.3-0.1
			c0.1,0,0.1,0.1,0.1,0.1c0,0.1,0,0.2,0,0.4c0,0.2,0,0.5-0.1,0.8c0,0.4,0,0.9,0,1.6c0.1,1.3,0.3,2.3,0.7,3c0.4,0.7,0.9,1.4,1.5,1.7
			c0.6,0.5,1.1,0.6,1.7,0.8c0.6,0.1,1.1,0.2,1.6,0.2c1,0,1.8-0.1,2.5-0.3c0.7-0.2,1.3-0.5,1.7-0.7c0.5-0.3,0.7-0.6,0.9-1
			c0.2-0.4,0.2-0.7,0.2-1.1C92.3,108.1,92.2,108,92.2,107.9 M75.2,104.4c0-0.1,0-0.1,0-0.2c0-0.7,0.1-1.2,0.3-1.5
			c0.2-0.3,0.4-0.5,0.6-0.5c0.2,0,0.4,0.1,0.5,0.3s0.2,0.4,0.2,0.6c0,0.3,0,0.5-0.1,0.6c-0.1,0.2-0.2,0.3-0.4,0.4
			c-0.2,0.1-0.3,0.2-0.5,0.3c-0.2,0.1-0.4,0.1-0.5,0.2C75.2,104.5,75.2,104.4,75.2,104.4"/>
		<path class="st1" d="M81.3,100.1c0.2-0.2,0.3-0.4,0.5-0.5c0.2-0.1,0.4-0.2,0.6-0.2c0.2,0,0.5-0.1,0.6,0c0.2,0,0.4,0,0.6,0
			c0.1,1.2,0.2,2.3,0.2,3.3c0,0.9,0,1.7,0,2.4s0.1,1.1,0.2,1.5c0.1,0.3,0.3,0.5,0.6,0.4c0.4,0,0.7-0.1,1.1-0.4
			c0.3-0.2,0.5-0.4,0.6-0.6c0.1,0.4,0.3,0.6,0.5,0.8c0.2,0.3,0.6,0.4,1,0.4c0.3,0,0.6-0.1,0.8-0.2c0.3-0.2,0.6-0.4,0.8-0.6
			c0,0.3,0.1,0.5,0.1,0.6c0.1,0.2,0.4,0.3,0.7,0.3c0.3,0,0.4,0,0.5,0s0.1,0,0.2-0.1c-0.1-0.1-0.2-0.3-0.2-0.5c0-0.3,0-0.6,0-0.9
			c0-0.4,0.1-0.7,0.1-1.1c0-0.4,0.1-0.7,0.2-1.1c0.1-0.4,0.1-0.6,0.1-0.8c0-0.3,0-0.4,0-0.5c0-0.3-0.1-0.6-0.2-0.7
			c-0.2-0.2-0.3-0.3-0.6-0.3c-0.2-0.1-0.4-0.1-0.6-0.1c-0.2,0-0.4,0-0.6,0c0.1,0.4,0.2,0.7,0.2,1.3c0,0.6,0,1.1-0.1,1.6
			c-0.1,0.6-0.2,1-0.5,1.4c-0.2,0.4-0.6,0.6-1,0.6c-0.1,0-0.2,0-0.3-0.1c-0.1-0.1-0.1-0.3-0.1-0.6c0-0.3,0-0.6,0.1-1.1
			c0-0.5,0.1-0.8,0.2-1.3c0.1-0.5,0.2-1,0.3-1.5c0-0.3-0.1-0.6-0.2-0.6c-0.2-0.2-0.4-0.3-0.6-0.3c-0.2-0.1-0.4-0.1-0.6-0.1
			c-0.2,0-0.4,0-0.6,0c0.1,0.3,0.2,0.6,0.1,1.1c0,0.5,0,0.9,0,1.4c0,0.5,0,0.9,0,1.5c0,0.3,0,0.6,0.1,0.8c-0.1,0.1-0.3,0.2-0.4,0.3
			c-0.1,0.1-0.3,0.1-0.4,0.2c-0.1,0-0.1,0-0.1-0.1s0-0.1,0-0.1c0-0.3,0-0.6,0.1-1.1c0-0.6,0.1-1.1,0.1-1.7c0.1-0.6,0.1-1.2,0.2-1.8
			s0.1-1.2,0.2-1.7c0.8,0,1.5-0.1,2-0.1c0.5,0,0.8-0.1,1.1-0.1c0.3,0,0.4-0.1,0.5-0.1s0.1-0.1,0.2-0.1c0.4-0.1,0.6-0.3,0.8-0.6
			c0.3-0.3,0.4-0.6,0.4-0.9c0-0.2,0-0.4-0.1-0.6c0-0.2-0.1-0.4-0.1-0.5c-0.1-0.2-0.1-0.4-0.2-0.6c-0.2,0.4-0.5,0.6-0.8,0.8
			c-0.4,0.3-0.8,0.5-1.3,0.6c-0.5,0.2-0.9,0.3-1.4,0.4c-0.5,0.1-0.8,0.2-1.1,0.2c-0.1-0.5-0.2-0.7-0.5-1c-0.3-0.2-0.6-0.4-0.8-0.5
			s-0.6-0.1-0.9-0.1c-0.3,0-0.6,0-0.6,0c0.3,0.2,0.5,0.5,0.5,0.8c0.1,0.4,0.1,0.6,0.1,0.9c-0.4,0-0.6,0-1,0.1
			c-0.3,0.1-0.6,0.2-0.8,0.3c-0.3,0.1-0.5,0.3-0.6,0.4C81,98.9,81,99,81,99.2c0,0.3,0.1,0.4,0.2,0.6C81.3,100,81.4,100.1,81.3,100.1
			"/>
		<path class="st1" d="M98.4,107.1c-0.1-0.2-0.1-0.2-0.2-0.2l0,0c-0.4,0.4-0.7,0.6-1.1,0.5c-0.4,0-0.7-0.1-1.1-0.4
			c-0.4-0.2-0.7-0.6-1.1-0.9c-0.4-0.4-0.7-0.7-1-1.1c0.5-0.2,0.9-0.4,1.2-0.6c0.3-0.2,0.6-0.5,0.6-0.6c0.2-0.2,0.3-0.5,0.3-0.7
			c0.1-0.3,0.1-0.5,0.1-0.7c0-0.5-0.1-0.8-0.4-1c-0.3-0.2-0.6-0.3-1-0.3c-0.3,0-0.6,0-0.8,0.1c-0.3,0.1-0.6,0.2-0.8,0.3v-0.1
			c0,0,0,0,0-0.1c0,0,0,0,0-0.1c0-0.3-0.1-0.5-0.1-0.6c-0.1-0.2-0.2-0.3-0.4-0.4c-0.2-0.1-0.3-0.1-0.5-0.2c-0.2,0-0.4,0-0.5,0
			s-0.3,0-0.4,0c-0.1,0-0.2,0-0.3,0c0.2,0.2,0.2,0.6,0.3,1.1c0,0.6,0,1.1,0,1.7s-0.1,1.2-0.1,1.7c0,0.6-0.1,0.9-0.1,1.2
			c0,0.4,0.1,0.6,0.4,0.8c0.2,0.2,0.5,0.3,0.6,0.3c0.2,0,0.4,0,0.5,0c0.1,0,0.1,0,0.2-0.1c-0.1-0.1-0.1-0.2-0.2-0.3
			c0-0.2-0.1-0.3-0.1-0.5c0-0.2,0-0.4,0.1-0.5c0-0.1,0.1-0.2,0.2-0.2c0.2,0.2,0.4,0.6,0.6,0.8c0.2,0.4,0.5,0.6,0.6,1
			c0.3,0.4,0.5,0.6,0.7,1c0.3,0.3,0.6,0.6,0.9,0.7c0.4,0.2,0.7,0.3,1.1,0.2c0.4,0,0.8-0.2,1.4-0.5c0.2-0.2,0.3-0.4,0.4-0.6
			c0.1-0.2,0.1-0.5,0.1-0.6C98.5,107.5,98.5,107.3,98.4,107.1 M93.3,104.6c-0.2,0.1-0.4,0.2-0.5,0.2c-0.1,0-0.2-0.1-0.2-0.2
			c0.1-0.7,0.3-1.2,0.5-1.6c0.2-0.4,0.5-0.5,0.8-0.5c0.2,0,0.3,0,0.5,0.1c0.1,0.1,0.2,0.2,0.2,0.5c0,0.2-0.1,0.4-0.2,0.6
			c-0.2,0.2-0.3,0.4-0.5,0.6C93.8,104.4,93.6,104.6,93.3,104.6"/>
		<path class="st1" d="M101.4,105.7C101.4,105.7,101.3,105.7,101.4,105.7c-0.3,0.3-0.4,0.4-0.5,0.4s-0.2,0.1-0.2,0.1
			c-0.2,0-0.3-0.2-0.4-0.6c0-0.4-0.1-0.8-0.1-1.3c0-0.3,0-0.6,0-0.7c0-0.3,0-0.4,0-0.5c0-0.5-0.1-0.8-0.3-1
			c-0.2-0.3-0.5-0.5-0.7-0.6c-0.3-0.1-0.6-0.2-0.9-0.3c-0.3,0-0.6,0-0.7,0c-0.3,0-0.6,0-0.6,0.1c-0.2,0.1-0.3,0.2-0.4,0.4
			c-0.1,0.1-0.2,0.3-0.2,0.5c0,0.2,0,0.3,0,0.5c0,0.1,0,0.2,0.1,0.2c0.1,0,0.1,0.1,0.2,0.1c0.3,0,0.6,0,0.7-0.1
			c0.2-0.1,0.4-0.1,0.5-0.1c0.3,0,0.6,0.1,0.6,0.2c0.2,0.2,0.3,0.3,0.3,0.5c0,0.2,0,0.2-0.2,0.2c-0.1,0-0.2,0-0.2,0
			c-0.1,0-0.1,0-0.2,0c-0.4,0-0.6,0.1-0.9,0.2c-0.3,0.1-0.6,0.3-0.7,0.5c-0.2,0.2-0.4,0.5-0.5,0.6c-0.1,0.3-0.2,0.5-0.2,0.7
			c0,0.5,0.2,0.7,0.5,1c0.3,0.2,0.6,0.4,1,0.4c0.4,0,0.7-0.1,1.1-0.4c0.4-0.2,0.6-0.5,0.8-0.8c0.1,0.5,0.3,0.8,0.5,0.9
			c0.2,0.2,0.4,0.2,0.6,0.2c0.2,0,0.4,0,0.5-0.1c0.1-0.1,0.3-0.2,0.4-0.3c0.1-0.1,0.2-0.2,0.3-0.3c0.1-0.1,0.1-0.2,0.2-0.2V106
			C101.6,105.7,101.5,105.7,101.4,105.7 M98.7,105.6c-0.2,0.1-0.4,0.2-0.5,0.2c-0.2,0-0.3,0-0.4-0.1c-0.1-0.1-0.2-0.2-0.2-0.4
			c0-0.1,0-0.3,0.1-0.4c0.1-0.2,0.2-0.3,0.3-0.4c0.1-0.1,0.3-0.2,0.4-0.3c0.2-0.1,0.3-0.1,0.5-0.1c0.1,0,0.2,0,0.2,0.1
			c0,0.5,0,0.8,0.1,1.1C99,105.3,98.9,105.5,98.7,105.6"/>
		<path class="st1" d="M77.9,94.8c0,0,0.2,0.1,0.3-0.5c0.1-0.6-0.7-3-3.7-1.8c-3,1.2-2.8,7.9-2.8,8.2c0,0.3-0.1,3.1-0.4,4
			c-0.4,0.8-0.9,1.8-1.4,0.6s-1.3-7-1.5-8.1c-0.2-1.1-0.4-1.7-1.5-2c0,0-0.4-0.2-0.3,0.6s0.9,7.7,1.8,9.7c0.9,1.9,3.7,3.3,4.5-1.5
			C73.9,99.2,73.7,92.1,77.9,94.8"/>
		<path class="st1" d="M117.2,113.4c0,0.3-0.3,0.6-0.6,0.6c-0.3,0-0.6-0.3-0.6-0.6c0-0.3,0.3-0.6,0.6-0.6
			C116.9,112.8,117.2,113.1,117.2,113.4"/>
		<path class="st1" d="M78.5,113.4c0,0.3-0.3,0.6-0.6,0.6c-0.3,0-0.6-0.3-0.6-0.6c0-0.3,0.3-0.6,0.6-0.6
			C78.2,112.8,78.5,113.1,78.5,113.4"/>
		<path class="st1" d="M79.8,112.5C79.8,112.4,79.8,112.4,79.8,112.5l0.2-0.1c0,0,0.1,0,0.1,0.1l0.6,1.9c0,0.1,0,0.1-0.1,0.1h-0.1
			c0,0-0.1,0-0.1-0.1l-0.2-0.6h-0.8l-0.2,0.6c0,0,0,0.1-0.1,0.1h-0.1c-0.1,0-0.1,0-0.1-0.1L79.8,112.5z M80.3,113.7l-0.3-0.7
			c0-0.1-0.1-0.3-0.1-0.3l0,0c0,0,0,0.2-0.1,0.3l-0.3,0.7H80.3z"/>
		<path class="st1" d="M81.1,112.5C81.1,112.4,81.2,112.4,81.1,112.5l0.2-0.1c0,0,0.1,0,0.1,0.1l0.5,1.2c0,0.1,0.1,0.3,0.1,0.3l0,0
			c0,0,0.1-0.2,0.1-0.3l0.5-1.2c0,0,0-0.1,0.1-0.1h0.1c0,0,0.1,0,0.1,0.1l0.2,1.9c0,0.1,0,0.1-0.1,0.1h-0.1c0,0-0.1,0-0.1-0.1
			l-0.1-1.4c0-0.1,0-0.3,0-0.3l0,0c0,0-0.1,0.2-0.1,0.3l-0.5,1c0,0,0,0.1-0.1,0.1h-0.1c0,0-0.1,0-0.1-0.1l-0.5-1
			c0-0.1-0.1-0.3-0.1-0.3l0,0c0,0,0,0.2,0,0.3l-0.1,1.4c0,0,0,0.1-0.1,0.1h-0.1c-0.1,0-0.1,0-0.1-0.1L81.1,112.5z"/>
		<path class="st1" d="M83.4,112.5C83.4,112.4,83.4,112.4,83.4,112.5L83.4,112.5c0.1-0.1,0.2-0.1,0.2,0v1.3c0,0.4,0.2,0.6,0.6,0.6
			c0.4,0,0.6-0.2,0.6-0.6v-1.3c0-0.1,0-0.1,0.1-0.1h0.1c0,0,0.1,0,0.1,0.1v1.3c0,0.5-0.3,0.7-0.7,0.7s-0.7-0.3-0.7-0.7L83.4,112.5
			L83.4,112.5z"/>
		<path class="st1" d="M85.4,114.2L85.4,114.2C85.4,114.1,85.4,114.1,85.4,114.2c0.2,0,0.4,0.1,0.6,0.1c0.3,0,0.4-0.2,0.4-0.4
			c0-0.6-1-0.4-1-1c0-0.4,0.3-0.6,0.6-0.6c0.3,0,0.4,0.1,0.5,0.2v0.1v0.1h-0.1c-0.1-0.1-0.2-0.1-0.4-0.1c-0.2,0-0.5,0.1-0.5,0.4
			c0,0.5,1,0.4,1,1c0,0.3-0.2,0.6-0.6,0.6c-0.3,0-0.5-0.2-0.6-0.2C85.4,114.3,85.4,114.2,85.4,114.2"/>
		<path class="st1" d="M86.9,112.5C86.9,112.4,87,112.4,86.9,112.5l1-0.1c0,0,0.1,0,0.1,0.1l0,0c0,0.1,0,0.1-0.1,0.1h-0.8v0.7h0.6
			c0,0,0.1,0,0.1,0.1l0,0c0,0.1,0,0.1-0.1,0.1h-0.6v0.7H88c0,0,0.1,0,0.1,0.1l0,0c0,0.1,0,0.1-0.1,0.1h-1c0,0-0.1,0-0.1-0.1V112.5z"
			/>
		<path class="st1" d="M88.6,112.5C88.6,112.4,88.7,112.4,88.6,112.5l0.2-0.1c0,0,0.1,0,0.1,0.1l0.5,1.2c0,0.1,0.1,0.3,0.1,0.3l0,0
			c0,0,0.1-0.2,0.1-0.3l0.5-1.2c0,0,0-0.1,0.1-0.1h0.1c0,0,0.1,0,0.1,0.1l0.2,1.9c0,0.1,0,0.1-0.1,0.1h-0.1c0,0-0.1,0-0.1-0.1
			L90,113c0-0.1,0-0.3,0-0.3l0,0c0,0-0.1,0.2-0.1,0.3l-0.5,1c0,0,0,0.1-0.1,0.1h-0.1c0,0-0.1,0-0.1-0.1l-0.5-1
			c0-0.1-0.1-0.3-0.1-0.3l0,0c0,0,0,0.2,0,0.3l-0.1,1.4c0,0,0,0.1-0.1,0.1h-0.1c-0.1,0-0.1,0-0.1-0.1L88.6,112.5z"/>
		<path class="st1" d="M90.9,112.5C90.9,112.4,90.9,112.4,90.9,112.5l1-0.1c0,0,0.1,0,0.1,0.1l0,0c0,0.1,0,0.1-0.1,0.1h-0.8v0.7h0.6
			c0,0,0.1,0,0.1,0.1l0,0c0,0.1,0,0.1-0.1,0.1h-0.6v0.7H92c0,0,0.1,0,0.1,0.1l0,0c0,0.1,0,0.1-0.1,0.1h-1c0,0-0.1,0-0.1-0.1V112.5z"
			/>
		<path class="st1" d="M92.4,112.5C92.4,112.4,92.4,112.4,92.4,112.5L92.4,112.5c0.1-0.1,0.2-0.1,0.2,0l1,1.5
			c0.1,0.1,0.2,0.3,0.2,0.3l0,0c0,0,0-0.2,0-0.3v-1.5c0-0.1,0-0.1,0.1-0.1H94c0,0,0.1,0,0.1,0.1v1.9c0,0.1,0,0.1-0.1,0.1h-0.1
			c0,0-0.1,0-0.1-0.1l-1-1.5c-0.1-0.1-0.2-0.3-0.2-0.3l0,0c0,0,0,0.2,0,0.3v1.5c0,0.1,0,0.1-0.1,0.1h-0.1c0,0-0.1,0-0.1-0.1
			L92.4,112.5L92.4,112.5z"/>
		<path class="st1" d="M95,112.6h-0.6c0,0-0.1,0-0.1-0.1l0,0c0-0.1,0-0.1,0.1-0.1h1.5c0,0,0.1,0,0.1,0.1l0,0c0,0.1,0,0.1-0.1,0.1
			h-0.6v1.8c0,0.1,0,0.1-0.1,0.1H95c0,0-0.1,0-0.1-0.1L95,112.6L95,112.6z"/>
		<path class="st1" d="M97.1,113.4L97.1,113.4c0,0-0.3-0.1-0.3-0.5c0-0.3,0.3-0.6,0.6-0.6h0.2c0,0,0.1,0,0.1,0.1l0,0
			c0,0.1,0,0.1-0.1,0.1h-0.2c-0.2,0-0.4,0.2-0.4,0.4s0.1,0.4,0.5,0.4h0.5V113c0-0.1,0-0.1,0.1-0.1h0.1c0,0,0.1,0,0.1,0.1v0.2h0.2
			c0,0,0.1,0,0.1,0.1l0,0c0,0.1,0,0.1-0.1,0.1h-0.3v0.3c0,0.5-0.3,0.7-0.6,0.7c-0.4,0-0.6-0.3-0.6-0.6
			C96.8,113.7,96.9,113.4,97.1,113.4 M97.5,114.3c0.3,0,0.5-0.2,0.5-0.6v-0.3h-0.5c-0.4,0-0.6,0.2-0.6,0.5
			C97,114.1,97.2,114.3,97.5,114.3"/>
		<path class="st1" d="M99.3,112.5C99.2,112.4,99.3,112.4,99.3,112.5L99.3,112.5c0.1-0.1,0.2-0.1,0.2,0l0.4,1.6
			c0,0.1,0.1,0.2,0.1,0.2l0,0c0,0,0-0.1,0.1-0.2l0.4-1.6c0,0,0-0.1,0.1-0.1h0.1c0,0,0.1,0,0.1,0.1l0.4,1.6c0,0.1,0.1,0.2,0.1,0.2
			l0,0c0,0,0-0.1,0-0.2l0.4-1.6c0,0,0-0.1,0.1-0.1h0.1c0.1,0,0.1,0,0.1,0.1l-0.5,1.9c0,0,0,0.1-0.1,0.1h-0.1c0,0-0.1,0-0.1-0.1
			l-0.4-1.4c0-0.1-0.1-0.3-0.1-0.3l0,0c0,0,0,0.2-0.1,0.3l-0.4,1.4c0,0,0,0.1-0.1,0.1H100c0,0-0.1,0-0.1-0.1L99.3,112.5z"/>
		<path class="st1" d="M102.4,112.5C102.4,112.4,102.4,112.4,102.4,112.5l0.2-0.1c0,0,0.1,0,0.1,0.1l0.6,1.9c0,0.1,0,0.1-0.1,0.1
			h-0.1c0,0-0.1,0-0.1-0.1l-0.2-0.6h-0.8l-0.2,0.6c0,0,0,0.1-0.1,0.1l0,0c-0.1,0-0.1,0-0.1-0.1L102.4,112.5z M102.9,113.7l-0.3-0.7
			c0-0.1-0.1-0.3-0.1-0.3l0,0c0,0,0,0.2-0.1,0.3l-0.3,0.7H102.9z"/>
		<path class="st1" d="M104,112.6h-0.6c0,0-0.1,0-0.1-0.1l0,0c0-0.1,0-0.1,0.1-0.1h1.5c0,0,0.1,0,0.1,0.1l0,0c0,0.1,0,0.1-0.1,0.1
			h-0.6v1.8c0,0.1,0,0.1-0.1,0.1H104c0,0-0.1,0-0.1-0.1L104,112.6L104,112.6z"/>
		<path class="st1" d="M105.2,112.5C105.2,112.4,105.2,112.4,105.2,112.5l1-0.1c0,0,0.1,0,0.1,0.1l0,0c0,0.1,0,0.1-0.1,0.1h-0.8v0.7
			h0.6c0,0,0.1,0,0.1,0.1l0,0c0,0.1,0,0.1-0.1,0.1h-0.6v0.7h0.9c0,0,0.1,0,0.1,0.1l0,0c0,0.1,0,0.1-0.1,0.1h-1c0,0-0.1,0-0.1-0.1
			V112.5z"/>
		<path class="st1" d="M106.8,112.5C106.8,112.4,106.8,112.4,106.8,112.5l0.6-0.1c0.2,0,0.3,0,0.4,0.1c0.2,0.1,0.3,0.3,0.3,0.6
			c0,0.3-0.2,0.6-0.4,0.6l0,0c0,0,0,0,0.1,0.1l0.4,0.7c0,0.1,0,0.1-0.1,0.1H108c0,0-0.1,0-0.1-0.1l-0.5-0.8H107v0.8
			c0,0.1,0,0.1-0.1,0.1h-0.1c0,0-0.1,0-0.1-0.1L106.8,112.5L106.8,112.5z M107.4,113.4c0.3,0,0.4-0.2,0.4-0.5c0-0.2-0.1-0.3-0.2-0.4
			c-0.1,0-0.1,0-0.3,0H107v0.8H107.4z"/>
		<path class="st1" d="M109.2,112.5C109.2,112.4,109.3,112.4,109.2,112.5l0.6-0.1c0.4,0,0.6,0.3,0.6,0.6c0,0.4-0.3,0.6-0.6,0.6h-0.5
			v0.7c0,0.1,0,0.1-0.1,0.1h-0.1c0,0-0.1,0-0.1-0.1L109.2,112.5L109.2,112.5z M109.9,113.5c0.3,0,0.5-0.2,0.5-0.5
			c0-0.3-0.2-0.5-0.5-0.5h-0.5v0.9H109.9z"/>
		<path class="st1" d="M111.2,112.5C111.3,112.4,111.3,112.4,111.2,112.5l0.2-0.1c0,0,0.1,0,0.1,0.1l0.6,1.9c0,0.1,0,0.1-0.1,0.1
			h-0.1c0,0-0.1,0-0.1-0.1l-0.2-0.6h-0.8l-0.2,0.6c0,0,0,0.1-0.1,0.1h-0.1c-0.1,0-0.1,0-0.1-0.1L111.2,112.5z M111.6,113.7l-0.3-0.7
			c0-0.1-0.1-0.3-0.1-0.3l0,0c0,0,0,0.2-0.1,0.3l-0.3,0.7H111.6z"/>
		<path class="st1" d="M112.5,112.5C112.5,112.4,112.5,112.4,112.5,112.5l0.6-0.1c0.2,0,0.3,0,0.4,0.1c0.2,0.1,0.3,0.3,0.3,0.6
			c0,0.3-0.2,0.6-0.4,0.6l0,0c0,0,0,0,0.1,0.1l0.4,0.7c0,0.1,0,0.1-0.1,0.1h-0.1c0,0-0.1,0-0.1-0.1l-0.5-0.8h-0.5v0.8
			c0,0.1,0,0.1-0.1,0.1h-0.1c0,0-0.1,0-0.1-0.1L112.5,112.5L112.5,112.5z M113.1,113.4c0.3,0,0.4-0.2,0.4-0.5c0-0.2-0.1-0.3-0.2-0.4
			c-0.1,0-0.1,0-0.3,0h-0.4v0.8H113.1z"/>
		<path class="st1" d="M114.2,112.5C114.2,112.4,114.2,112.4,114.2,112.5L114.2,112.5c0.1-0.1,0.2-0.1,0.2,0v0.8h0.4l0.6-0.8
			c0,0,0-0.1,0.1-0.1h0.1c0.1,0,0.1,0,0.1,0.1l-0.6,0.9l0,0l0.6,1c0,0.1,0,0.1,0,0.1h-0.1c0,0-0.1,0-0.1-0.1l-0.6-0.9h-0.4v0.9
			c0,0.1,0,0.1-0.1,0.1h-0.1c0,0-0.1,0-0.1-0.1V112.5z"/>
	</g>
	<g>
		<path class="st1" d="M158,46l-2.2,7.4l1.5,0.4l0.3-1.5h2l0.4,1.2l1.4-0.3l-2.4-7.1L158,46z M157.9,50.9l0.6-2.1l0.7,2.2
			L157.9,50.9z"/>
		<path class="st1" d="M165.4,52.3l-0.9-1.1c-0.5,0.6-0.8,0.8-1.1,0.8c-0.4,0.1-0.6,0-0.7-0.5c-0.2-1.3-0.3-2.4-0.2-3.2
			c0.1-0.4,0.2-0.6,0.4-0.6c0.2-0.1,0.4-0.1,0.6-0.1c0.3,0,0.4,0.2,0.5,0.5c0,0.2,0,0.4,0.1,0.5l1.3-0.2c0-0.4,0-0.7,0-1.1
			c0-0.7-0.4-1.1-1.1-1.3c-0.6-0.1-1.1,0-1.7,0.2c-0.6,0.3-1,0.7-1.2,1.4c-0.2,1.1-0.1,2.6,0.2,4.4c0.2,0.8,0.6,1.3,1.3,1.4
			c0.3,0.1,0.6,0.1,1,0.1C164.3,53.5,164.9,53.1,165.4,52.3z"/>
		<path class="st1" d="M168.3,46.6c0.3,2.3,0.4,4,0.2,4.9c-0.1,0.4-0.2,0.6-0.5,0.6c-0.2,0.1-0.4,0-0.6,0c-0.2-0.1-0.3-0.3-0.4-0.6
			c-0.1-0.8,0-2.6,0.2-5.1l-1.5-0.1c-0.3,2.9-0.3,5-0.1,6.2c0.1,0.6,0.4,1,0.8,1.1c0.9,0.2,1.6,0.3,2.1,0.2c0.8-0.2,1.3-0.6,1.3-1.4
			c0.1-1.7,0-3.6-0.2-5.7L168.3,46.6z"/>
		<path class="st1" d="M172.7,46l-2.2,7.4l1.5,0.4l0.3-1.5h2l0.4,1.2l1.4-0.3l-2.4-7.1L172.7,46z M172.6,50.9l0.6-2.1l0.7,2.2
			L172.6,50.9z"/>
		<path class="st1" d="M179.4,50.5c0.4-0.1,0.6-0.4,0.7-0.7c0.2-0.6,0.3-1.5,0.3-2.8c0-0.9-1.4-1.2-4.1-1l0.3,7.5l1.4,0.1V51
			l1.8,2.8l0.8-0.8L179.4,50.5L179.4,50.5z M177.9,49.5v-2c0.5,0,0.8,0.1,1,0.2c0.2,0.1,0.3,0.4,0.2,0.7
			C179.1,49,178.7,49.4,177.9,49.5z"/>
		<polygon class="st1" points="182.5,47.9 181,48.1 181.2,53.7 182.5,53.4 		"/>
		<polygon class="st1" points="182.3,47.6 182.4,45.6 180.9,45.5 181.1,47.5 		"/>
		<path class="st1" d="M186.7,53c0.6-1.2,0.8-2.7,0.8-4.4c0-0.7-0.1-1.3-0.2-1.7c-0.2-0.6-0.7-1-1.7-1c-1.1,0.1-1.9,0.3-2.4,0.6
			c-0.3,0.2-0.5,0.7-0.4,1.6c0,0.8,0.1,1.9,0.4,3.3c0.2,1.1,0.4,1.7,0.6,1.9c0.2,0.3,0.6,0.4,1.2,0.4c0.6,0,0.9-0.1,1.1-0.2
			C186.4,53.5,186.6,53.3,186.7,53z M185.6,52c-0.1,0-0.2,0.1-0.5,0.1s-0.4-0.1-0.5-0.2c-0.1-0.1-0.2-0.6-0.3-1.4
			c-0.2-1.7-0.3-2.5-0.1-2.7c0.3-0.3,0.6-0.4,1.1-0.3c0.4,0.1,0.6,0.3,0.6,0.6c0,0.3,0.1,0.6,0.1,1c0,1-0.1,1.9-0.4,2.6
			C185.8,51.9,185.8,52,185.6,52z"/>
		<path class="st1" d="M156.4,56.2v3.5c0.5,0,0.5,0,0.5-0.1V56C156.4,55.9,156.4,55.9,156.4,56.2z"/>
		<path class="st1" d="M159.8,56v1.2c0,0.3,0,1.3,0.1,1.6l0,0c-0.1-0.4-0.4-1.2-0.5-1.5l-0.6-1.4h-0.3c-0.1,0-0.1,0-0.1,0.1v3.6
			c0.5,0,0.5,0,0.5-0.1v-1.3c0-0.2,0-1.2-0.1-1.6c0.1,0.4,0.4,1.3,0.5,1.5l0.6,1.5h0.3c0.1,0,0.1,0,0.1-0.1v-3.6
			C159.9,55.9,159.8,55.9,159.8,56z"/>
		<path class="st1" d="M161.6,56v0.3h0.7v3.3c0.5,0,0.5,0,0.5-0.1v-3.2h0.6c0.1,0,0.1,0,0.1-0.1v-0.3L161.6,56
			C161.6,55.9,161.6,56,161.6,56z"/>
		<path class="st1" d="M166.1,56.4c0.1,0,0.1,0,0.1-0.4h-1.3c-0.1,0-0.1,0.1-0.1,0.1v3.6h1.2c0.1,0,0.1,0,0.1-0.4h-0.9v-1.5h0.7
			c0.1,0,0.1-0.1,0.1-0.4h-0.8v-1.1H166.1z"/>
		<path class="st1" d="M169.2,57c0-0.7-0.3-1-1-1h-0.6c-0.1,0-0.1,0.1-0.1,0.1v3.6c0.5,0,0.5,0,0.5-0.1v-1.4h0.2h0.1
			c0.1,0.2,0.4,0.6,0.5,1.5c0.1,0,0.2,0,0.3,0c0.2,0,0.2,0,0.2-0.1c-0.1-0.8-0.4-1.3-0.5-1.6C169,57.9,169.2,57.6,169.2,57z
			 M168.3,57.8H168v-1.4h0.3c0.3,0,0.5,0.3,0.5,0.6C168.7,57.6,168.5,57.8,168.3,57.8z"/>
		<path class="st1" d="M171.5,55.9c-0.1,0-0.2,0-0.2,0.1l-0.9,3.6c0.1,0,0.2,0,0.3,0c0.2,0,0.2,0,0.2-0.1l0.2-0.8h0.9l0.2,0.9
			c0.1,0,0.2,0,0.3,0c0.2,0,0.2,0,0.2-0.1l-0.9-3.6C171.7,55.9,171.6,55.9,171.5,55.9z M171.9,58.3h-0.7l0.2-0.7
			c0.1-0.4,0.2-0.7,0.2-1c0,0.3,0.1,0.6,0.2,1L171.9,58.3z"/>
		<path class="st1" d="M175.1,56.3c0.2,0,0.3,0.1,0.4,0.1c0-0.1,0.1-0.2,0.1-0.3c0-0.1-0.1-0.3-0.5-0.3c-0.5,0-1,0.3-1,2
			c0,1.6,0.4,1.7,0.8,1.7c0.4,0,0.6-0.2,0.6-0.4c0-0.1,0-0.2-0.1-0.3c-0.1,0.1-0.3,0.2-0.5,0.2c-0.3,0-0.6-0.2-0.6-1.3
			C174.3,56.6,174.7,56.3,175.1,56.3z"/>
		<path class="st1" d="M176.6,56v0.3h0.7v3.3c0.5,0,0.5,0,0.5-0.1v-3.2h0.6c0.1,0,0.1,0,0.1-0.1v-0.3L176.6,56
			C176.7,55.9,176.6,56,176.6,56z"/>
		<path class="st1" d="M179.8,56.2v3.5c0.5,0,0.5,0,0.5-0.1V56C179.8,55.9,179.8,55.9,179.8,56.2z"/>
		<path class="st1" d="M183.3,56.1L183,58c-0.1,0.5-0.2,0.9-0.2,1.3c0-0.1,0-0.1,0-0.2c-0.1-0.3-0.1-0.7-0.2-1.1l-0.5-2h-0.4
			c-0.1,0-0.1,0-0.1,0.1c0,0,0,0,0,0.1c0,0,0.6,2.4,0.7,3.3c0.1,0.2,0.1,0.3,0.3,0.3c0.2,0,0.3,0,0.4,0l0.8-3.7h-0.4
			C183.3,55.9,183.3,56,183.3,56.1z"/>
		<path class="st1" d="M186.1,55.9c-0.6,0-1,0.5-1,1.8c0,1.5,0.3,1.9,0.9,1.9c0.6,0,1-0.5,1-1.9C187,56.4,186.7,55.9,186.1,55.9z
			 M186,59.2c-0.4,0-0.5-0.4-0.5-1.4c0-1.1,0.2-1.6,0.6-1.6s0.5,0.4,0.5,1.5C186.5,58.9,186.4,59.2,186,59.2z"/>
		<path class="st1" d="M170.3,30.5c-0.1-0.2-0.3-0.3-0.6-0.4l0,0l0,0c-0.1,0-0.3,0-0.5,0.1c-0.2,0.1-0.4,0.3-0.5,0.6c0,0,0,0,0,0.1
			c0,0.1,0,0.2,0,0.3c0.1,0.4,0.3,0.6,0.6,0.7c0.1,0,0.1,0,0.2,0c0.2,0,0.4-0.1,0.5-0.2c0.2-0.1,0.3-0.3,0.4-0.6c0-0.1,0-0.3,0-0.4
			C170.4,30.7,170.4,30.6,170.3,30.5z"/>
		<path class="st1" d="M158.8,32L158.8,32c0.1,0.6,0.2,0.9,0.4,1.4v0.1v0.1c0.2,0.5,0.5,0.9,0.6,1.4l0,0c0.2,0.3,0.4,0.6,0.6,0.7
			l0.1,0.1c0.2,0.2,0.4,0.5,0.6,0.6l0.1,0.2c0.2,0.2,0.4,0.4,0.6,0.6l0.1,0.1c0.5,0.4,0.9,0.7,1.5,1.1l0.1,0.1
			c0.5,0.3,1,0.6,1.6,0.7h0.1c0.6,0.2,1.2,0.4,1.7,0.5c0.4,0.1,0.7,0.1,1.2,0.1h0.1c0.2,0,0.4,0,0.6,0c1.7,0,3.4-0.5,4.9-1.3
			l0.1-0.1c0.3-0.2,0.6-0.4,0.9-0.6l0,0c0,0,0,0,0.1,0c0.4-0.3,0.6-0.5,0.8-0.6l6.6,6.2c0.3,0.3,0.6,0.4,0.9,0.4h0.1
			c0.4,0,0.6-0.2,0.9-0.5l1.1-1.3c0.3-0.3,0.4-0.6,0.3-1c0-0.4-0.3-0.6-0.6-0.9l-7.4-5.2c0.4-0.6,0.6-1.3,0.9-2
			c0.9-0.2,1.5-0.4,1.7-0.6c0.1-0.1,0.1-0.2,0.1-0.4c-0.1-0.4-0.8-0.7-1.4-1l0,0l0,0c0.1-0.8,0.1-1.6,0-2.4l0,0l0,0
			c0.1,0,0.2,0,0.3,0c0.6,0,1.1-0.1,1.4-0.3v-0.1c-0.1-0.5-0.2-1.1-0.4-1.7c-0.1-0.4-0.1-0.7-0.2-1c0.1-0.3,0.3-0.6,1.3-0.4
			c0.5,0.1,1.2,0.1,2.2,0c0.2,0,0.4-0.2,0.5-0.4l0,0c0-0.2-0.1-0.5-0.3-0.6c-0.6-0.3-1.9-1.1-2.4-1.6c-0.3-0.4-0.6-1.2-0.8-2.6
			c0-0.2-0.2-0.4-0.5-0.5c-0.2,0-0.5,0.1-0.6,0.3c-0.3,0.7-0.6,1.7-0.6,2.3c0,0.3,0,0.5-0.8,0.5h-0.1l0,0c-0.4-0.5-0.6-0.6-1-0.8
			c0,0,0,0-0.1,0c-0.3,0.2-0.6,0.7-0.7,1.1l0,0l0,0c-0.2-0.2-0.4-0.5-0.6-0.6c-4.1-3.8-10.5-3.5-14.2,0.6c-1.8,2-2.8,4.6-2.6,7.4
			C158.6,31,158.7,31.6,158.8,32z M179.7,22.1c0.2,0.6,0.4,0.9,0.6,1.3l0,0c0.3,0.4,0.8,0.7,1.3,1c-0.2,0-0.3,0-0.5,0
			c-1.3-0.2-2,0.1-2.3,1.1v0.1c-0.2,0.6-0.4,1-0.6,1.5c-0.4-1.1-0.8-2.1-1.6-3c0.6-0.2,1-0.3,1.3-0.3c1.1,0,1.6-0.5,1.7-1.3
			C179.7,22.4,179.7,22.2,179.7,22.1z M160.9,29.8c0-0.2,0-0.3,0-0.5c0.1,0,0.2,0,0.3,0.1c0.1,0.1,0.3,0.2,0.4,0.3
			c0.2,0.1,0.3,0.3,0.5,0.4c0.2,0.1,0.3,0.2,0.5,0.2c0.2,0,0.4-0.1,0.5-0.2c0.2-0.1,0.3-0.2,0.5-0.4c0.2-0.1,0.3-0.3,0.5-0.3
			c0.1-0.1,0.3-0.1,0.4-0.1s0.3,0.1,0.4,0.1c0.1,0.1,0.3,0.2,0.5,0.3c0.2,0.1,0.3,0.3,0.5,0.4c0.2,0.1,0.3,0.2,0.5,0.2l0,0
			c-0.1,0.2-0.2,0.5-0.3,0.6h-0.1c-0.1-0.1-0.3-0.2-0.4-0.3c-0.2-0.1-0.3-0.3-0.5-0.4c-0.2-0.1-0.4-0.2-0.5-0.2
			c-0.2,0-0.4,0.1-0.5,0.2c-0.2,0.1-0.3,0.2-0.5,0.4c-0.2,0.1-0.3,0.3-0.5,0.3c-0.1,0.1-0.3,0.1-0.4,0.1c-0.1,0-0.3,0-0.4-0.1
			c-0.1-0.1-0.3-0.2-0.4-0.3c-0.2-0.1-0.3-0.3-0.5-0.4c-0.2-0.1-0.3-0.2-0.5-0.2V30C160.9,29.9,160.9,29.9,160.9,29.8z M161.1,28.5
			c0.1,0,0.1,0,0.2,0.1s0.3,0.2,0.4,0.3c0.2,0.1,0.3,0.3,0.5,0.4c0.2,0.1,0.3,0.2,0.5,0.2s0.4-0.1,0.5-0.2c0.2-0.1,0.3-0.2,0.5-0.4
			c0.2-0.1,0.3-0.3,0.5-0.3c0.1-0.1,0.3-0.1,0.4-0.1s0.3,0.1,0.4,0.1c0.1,0.1,0.3,0.2,0.5,0.3c0.2,0.1,0.3,0.3,0.5,0.4
			c0.2,0.1,0.3,0.2,0.5,0.2c0.2,0,0.4-0.1,0.5-0.2c-0.1,0.3-0.2,0.6-0.3,0.7V30c-0.1,0-0.1,0.1-0.1,0.1c-0.1,0-0.2,0-0.4-0.1
			c-0.1-0.1-0.3-0.2-0.5-0.3c-0.2-0.1-0.3-0.3-0.5-0.4c-0.2-0.1-0.4-0.2-0.5-0.2c-0.2,0-0.4,0.1-0.5,0.2c-0.2,0.1-0.3,0.2-0.5,0.4
			c-0.2,0.1-0.3,0.3-0.5,0.3c-0.1,0.1-0.3,0.1-0.4,0.1s-0.3,0-0.4-0.1c-0.1-0.1-0.3-0.2-0.4-0.3c-0.2-0.1-0.3-0.3-0.5-0.4
			c-0.1-0.1-0.3-0.1-0.5-0.2C161,28.9,161,28.6,161.1,28.5z M161.2,28c0-0.2,0.1-0.3,0.1-0.5c0.1,0.1,0.3,0.2,0.4,0.3
			c0.2,0.1,0.3,0.3,0.5,0.4c0.2,0.1,0.3,0.2,0.5,0.2s0.4-0.1,0.5-0.2c0.2-0.1,0.3-0.2,0.5-0.4c0.2-0.1,0.3-0.3,0.5-0.3
			c0.1-0.1,0.3-0.1,0.4-0.1s0.3,0.1,0.4,0.1c0.1,0.1,0.3,0.2,0.5,0.3c0.2,0.1,0.3,0.3,0.5,0.4c0.2,0.1,0.3,0.2,0.5,0.2
			c0.2,0,0.4-0.1,0.5-0.2c0.2-0.1,0.3-0.2,0.5-0.4c0.1-0.1,0.2-0.1,0.3-0.2c-0.1,0.3-0.3,0.5-0.4,0.6v0.1v0.1c0,0.1-0.1,0.1-0.1,0.2
			c-0.1,0.1-0.2,0.2-0.3,0.3c-0.1,0.1-0.3,0.1-0.4,0.1s-0.2,0-0.4-0.1c-0.1-0.1-0.3-0.2-0.5-0.3c-0.2-0.1-0.3-0.3-0.5-0.4
			c-0.2-0.1-0.4-0.2-0.5-0.2c-0.2,0-0.4,0.1-0.5,0.2c-0.2,0.1-0.3,0.2-0.5,0.4c-0.2,0.1-0.3,0.3-0.5,0.3c-0.1,0.1-0.3,0.1-0.4,0.1
			s-0.3,0-0.4-0.1c-0.1-0.1-0.3-0.2-0.4-0.3c-0.2-0.1-0.3-0.3-0.5-0.4c-0.1-0.1-0.2-0.1-0.3-0.1C161.2,28.1,161.2,28.1,161.2,28z
			 M161.6,26.8L161.6,26.8c0.2,0.2,0.4,0.3,0.5,0.4c0.2,0.1,0.3,0.2,0.5,0.2s0.4-0.1,0.5-0.2c0.2-0.1,0.3-0.2,0.5-0.4
			c0.2-0.1,0.3-0.3,0.5-0.3c0.1-0.1,0.3-0.1,0.4-0.1s0.3,0,0.4,0.1c0.1,0.1,0.3,0.2,0.5,0.3c0.2,0.1,0.3,0.3,0.5,0.4
			s0.3,0.2,0.5,0.2c0.2,0,0.4-0.1,0.5-0.2c0.2-0.1,0.3-0.2,0.5-0.4c0.2-0.1,0.3-0.3,0.5-0.3c0.1-0.1,0.3-0.1,0.4-0.1s0.2,0,0.3,0.1
			l0,0c-0.2,0.2-0.4,0.5-0.5,0.6v0.1l0,0c-0.1,0-0.2,0.1-0.3,0.1c-0.2,0.1-0.3,0.2-0.5,0.4c-0.2,0.1-0.3,0.3-0.5,0.3
			c-0.1,0.1-0.3,0.1-0.4,0.1c-0.1,0-0.2,0-0.4-0.1c-0.1-0.1-0.3-0.2-0.5-0.3c-0.2-0.1-0.3-0.3-0.5-0.4c-0.2-0.1-0.4-0.2-0.5-0.2
			c-0.2,0-0.4,0.1-0.5,0.2c-0.2,0.1-0.3,0.2-0.5,0.4c-0.2,0.1-0.3,0.3-0.5,0.3c-0.1,0.1-0.3,0.1-0.4,0.1s-0.3,0-0.4-0.1
			c-0.1-0.1-0.3-0.2-0.4-0.3c-0.2-0.1-0.3-0.3-0.5-0.4C161.5,27.2,161.5,27,161.6,26.8z M161.9,26.2c0.1,0.1,0.1,0.1,0.2,0.2
			c0.2,0.1,0.3,0.2,0.5,0.2s0.4-0.1,0.5-0.2c0.2-0.1,0.3-0.2,0.5-0.4c0.2-0.1,0.3-0.3,0.5-0.3c0.1-0.1,0.3-0.1,0.4-0.1
			s0.3,0.1,0.4,0.1c0.1,0.1,0.3,0.2,0.5,0.3c0.2,0.1,0.3,0.3,0.5,0.4c0.2,0.1,0.3,0.2,0.5,0.2c0.2,0,0.4-0.1,0.5-0.2
			c0.2-0.1,0.3-0.2,0.5-0.4c0.2-0.1,0.3-0.3,0.5-0.3c0.1-0.1,0.3-0.1,0.4-0.1s0.2,0,0.4,0.1c0.1,0.1,0.3,0.2,0.4,0.3l0,0
			c-0.1,0.1-0.2,0.2-0.3,0.3c-0.2-0.1-0.3-0.2-0.5-0.2s-0.4,0.1-0.5,0.2c-0.2,0.1-0.3,0.2-0.5,0.4c-0.2,0.1-0.3,0.3-0.5,0.3
			c-0.1,0.1-0.3,0.1-0.4,0.1c-0.1,0-0.2,0-0.4-0.1c-0.1-0.1-0.3-0.2-0.5-0.3c-0.2-0.1-0.3-0.3-0.5-0.4c-0.2-0.1-0.4-0.2-0.5-0.2
			c-0.2,0-0.4,0.1-0.5,0.2c-0.2,0.1-0.3,0.2-0.5,0.4c-0.2,0.1-0.3,0.3-0.5,0.3c-0.1,0.1-0.3,0.1-0.4,0.1s-0.3-0.1-0.4-0.1
			c-0.1-0.1-0.3-0.2-0.4-0.3l-0.1-0.1C161.8,26.4,161.8,26.3,161.9,26.2z M165.1,23.1L165.1,23.1c0.2,0.1,0.3,0.3,0.5,0.4
			s0.3,0.2,0.5,0.2c0.2,0,0.4-0.1,0.5-0.2c0.2-0.1,0.3-0.2,0.5-0.4c0.2-0.1,0.3-0.3,0.5-0.3c0.1-0.1,0.3-0.1,0.4-0.1s0.2,0,0.4,0.1
			c0.1,0.1,0.3,0.2,0.5,0.3c0.2,0.1,0.3,0.3,0.5,0.4s0.4,0.2,0.5,0.2l0,0c-0.1,0.2-0.1,0.5-0.2,0.6c-0.1,0-0.1,0-0.2-0.1
			c-0.1-0.1-0.3-0.2-0.5-0.3c-0.2-0.1-0.3-0.3-0.5-0.4c-0.2-0.1-0.3-0.2-0.5-0.2s-0.4,0.1-0.5,0.2c-0.2,0.1-0.3,0.2-0.5,0.4
			c-0.2,0.1-0.3,0.3-0.5,0.3c-0.1,0.1-0.3,0.1-0.4,0.1s-0.2,0-0.4-0.1c-0.1-0.1-0.3-0.2-0.5-0.3c-0.2-0.1-0.3-0.3-0.5-0.4
			c-0.1-0.1-0.2-0.1-0.3-0.1C164.8,23.3,164.9,23.2,165.1,23.1z M169.7,22.4c-0.1,0-0.2,0.1-0.3,0.1c-0.1,0-0.3,0-0.4-0.1l0,0
			C169.4,22.3,169.5,22.3,169.7,22.4z M176.3,29.9c0,0.4,0,0.6-0.1,1c-0.1,0.1-0.1,0.1-0.2,0.2c-0.2,0.1-0.3,0.3-0.5,0.4l-0.1,0.1
			l-0.1,0.1c-0.1,0.1-0.2,0.2-0.4,0.2c-0.1,0.1-0.2,0.1-0.3,0.2c-0.2,0.1-0.4,0.3-0.6,0.4c-0.3,0.2-0.6,0.3-1,0.4H173l0,0
			c-0.3,0.1-0.6,0.2-0.8,0.3c-0.1,0-0.2,0-0.2,0h-0.1c-0.6,0.1-1.1,0.2-1.7,0.2c-0.1,0-0.2,0-0.3,0c-0.4,0-0.6,0-1,0
			c-0.2,0-0.4,0-0.5,0c-0.4-0.1-0.7-0.1-1-0.2c0,0-0.1,0-0.1-0.1c0,0-0.1,0-0.1-0.1c-0.1,0-0.2-0.1-0.2-0.1
			c-0.1-0.1-0.2-0.2-0.3-0.3c0-0.1,0-0.1-0.1-0.2v-0.1c0-0.1-0.1-0.3,0-0.5v-0.1v-0.1c0-0.1,0-0.1,0.1-0.2c0.1-0.2,0.2-0.5,0.4-0.9
			l0.1-0.2c0-0.1,0.1-0.2,0.1-0.3c0.1-0.3,0.2-0.6,0.4-0.8l0.3-0.6c0-0.1,0.1-0.1,0.1-0.2l0.1-0.1l0.1-0.1c0,0,0-0.1,0.1-0.1
			c0.1-0.2,0.2-0.3,0.3-0.5c0,0,0-0.1,0.1-0.1c0,0,0-0.1,0.1-0.1c0.1-0.2,0.2-0.3,0.4-0.5l0.1-0.1l0.1-0.1c0.1-0.2,0.3-0.3,0.4-0.5
			c0.3-0.3,0.6-0.6,0.9-0.8c0.5-0.4,0.8-0.6,1.2-0.9l0.1-0.1c0.1,0,0.1-0.1,0.2-0.1c0,0,0.1-0.1,0.2-0.1l0.1-0.1l0.4-0.3l0,0l0,0
			c0.2-0.1,0.5-0.3,0.7-0.5C175.2,25.2,176.3,27.4,176.3,29.9z M175.2,33.9L175.2,33.9c-0.3-0.2-0.4-0.3-0.6-0.3c-0.1,0-0.2,0-0.3,0
			c0.3-0.1,0.6-0.3,0.8-0.5c0.1,0,0.1,0.1,0.2,0.1c0,0,0,0,0.1,0.1C175.4,33.5,175.3,33.7,175.2,33.9z M169.5,34.5L169.5,34.5
			L169.5,34.5L169.5,34.5z M174.4,33.7c-0.1,0-0.1,0.1-0.2,0.1c-0.2,0.1-0.3,0.2-0.5,0.4c-0.2,0.1-0.3,0.3-0.5,0.3
			c-0.1,0.1-0.3,0.1-0.4,0.1s-0.2,0-0.4-0.1c-0.1,0-0.1-0.1-0.2-0.1C173,34.1,173.8,34,174.4,33.7z M161,30.3c0.1,0,0.2,0,0.3,0.1
			c0.1,0.1,0.3,0.2,0.4,0.3c0.2,0.1,0.3,0.3,0.5,0.4c0.2,0.1,0.3,0.2,0.5,0.2c0.2,0,0.4-0.1,0.5-0.2c0.2-0.1,0.3-0.2,0.5-0.4
			c0.2-0.1,0.3-0.3,0.5-0.3c0.1-0.1,0.3-0.1,0.4-0.1s0.3,0.1,0.4,0.1c0.1,0.1,0.3,0.2,0.5,0.3c0.2,0.1,0.3,0.3,0.5,0.4
			c0.1,0,0.1,0.1,0.2,0.1l0,0c0,0.1-0.1,0.2-0.1,0.3c0,0.1,0,0.2,0,0.2l0,0c-0.1-0.1-0.2-0.2-0.4-0.3c-0.2-0.1-0.3-0.3-0.5-0.4
			c-0.2-0.1-0.4-0.2-0.5-0.2c-0.2,0-0.4,0.1-0.5,0.2c-0.2,0.1-0.3,0.2-0.5,0.4c-0.2,0.1-0.3,0.3-0.5,0.3c-0.1,0.1-0.3,0.1-0.4,0.1
			s-0.3,0-0.4-0.1c-0.1-0.1-0.3-0.2-0.4-0.3c-0.2-0.1-0.3-0.3-0.5-0.4c-0.1-0.1-0.3-0.1-0.4-0.2C161,30.7,161,30.6,161,30.3z
			 M161.1,31.3c0.1,0,0.1,0,0.2,0.1c0.1,0.1,0.3,0.2,0.4,0.3c0.2,0.1,0.3,0.3,0.5,0.4c0.2,0.1,0.3,0.2,0.5,0.2s0.4-0.1,0.5-0.2
			c0.2-0.1,0.3-0.2,0.5-0.4c0.2-0.1,0.3-0.3,0.5-0.3c0.1-0.1,0.3-0.1,0.4-0.1s0.3,0.1,0.4,0.1c0.1,0.1,0.3,0.2,0.5,0.3
			c0.2,0.1,0.3,0.3,0.5,0.4l0,0v0.1c0,0.2,0,0.3,0.1,0.5l0,0c-0.1-0.1-0.3-0.2-0.4-0.3c-0.2-0.1-0.3-0.3-0.5-0.4
			c-0.2-0.1-0.4-0.2-0.5-0.2c-0.2,0-0.4,0.1-0.5,0.2c-0.2,0.1-0.3,0.2-0.5,0.4c-0.2,0.1-0.3,0.3-0.5,0.3c-0.1,0.1-0.3,0.1-0.4,0.1
			s-0.3-0.1-0.4-0.1c-0.1-0.1-0.3-0.2-0.4-0.3c-0.2-0.1-0.3-0.3-0.5-0.4c-0.1,0-0.2-0.1-0.2-0.1C161.2,31.7,161.1,31.5,161.1,31.3z
			 M161.3,32.2L161.3,32.2c0.1,0.1,0.3,0.2,0.5,0.3c0.2,0.1,0.3,0.3,0.5,0.4c0.2,0.1,0.3,0.2,0.5,0.2s0.4-0.1,0.5-0.2
			c0.2-0.1,0.3-0.2,0.5-0.4c0.2-0.1,0.3-0.3,0.5-0.3c0.1-0.1,0.3-0.1,0.4-0.1s0.3,0,0.4,0.1c0.1,0.1,0.3,0.2,0.5,0.3
			c0.2,0.1,0.3,0.3,0.5,0.4c0.1,0.1,0.2,0.1,0.3,0.1V33l0,0v0.1c0.1,0.1,0.2,0.3,0.3,0.4h-0.1c-0.1,0-0.2,0-0.4-0.1
			c-0.1-0.1-0.3-0.2-0.5-0.3c-0.2-0.1-0.3-0.3-0.5-0.4c-0.2-0.1-0.4-0.2-0.5-0.2c-0.2,0-0.4,0.1-0.5,0.2c-0.2,0.1-0.3,0.2-0.5,0.4
			c-0.2,0.1-0.3,0.3-0.5,0.3c-0.1,0.1-0.3,0.1-0.4,0.1s-0.3,0-0.4-0.1c-0.1-0.1-0.3-0.2-0.4-0.3c-0.1-0.1-0.2-0.2-0.4-0.3
			C161.5,32.7,161.4,32.4,161.3,32.2z M161.7,33.4c0.1,0.1,0.3,0.2,0.4,0.3c0.2,0.1,0.3,0.2,0.5,0.2s0.4-0.1,0.5-0.2
			c0.2-0.1,0.3-0.2,0.5-0.4c0.2-0.1,0.3-0.3,0.5-0.3c0.1-0.1,0.3-0.1,0.4-0.1s0.3,0.1,0.4,0.1c0.1,0.1,0.3,0.2,0.5,0.3
			c0.2,0.1,0.3,0.3,0.5,0.4s0.3,0.2,0.5,0.2c0.1,0,0.3,0,0.4-0.1c0.1,0.1,0.2,0.1,0.3,0.2c0.1,0.1,0.2,0.1,0.2,0.2l0,0
			c-0.2,0.1-0.3,0.3-0.5,0.3c-0.1,0.1-0.3,0.1-0.4,0.1c-0.1,0-0.2,0-0.4-0.1c-0.1-0.1-0.3-0.2-0.5-0.3c-0.2-0.1-0.3-0.3-0.5-0.4
			c-0.2-0.1-0.4-0.2-0.5-0.2c-0.2,0-0.4,0.1-0.5,0.2c-0.2,0.1-0.3,0.2-0.5,0.4c-0.2,0.1-0.3,0.3-0.5,0.3c-0.1,0.1-0.3,0.1-0.4,0.1
			s-0.1,0-0.2-0.1C162.2,34.1,161.9,33.8,161.7,33.4z M172.9,36.4c-0.1,0-0.1,0-0.2-0.1c-0.1-0.1-0.3-0.2-0.5-0.3
			c-0.2-0.1-0.3-0.3-0.5-0.4c-0.2-0.1-0.4-0.2-0.5-0.2c-0.2,0-0.4,0.1-0.5,0.2c-0.2,0.1-0.3,0.2-0.5,0.4c-0.2,0.1-0.3,0.3-0.4,0.3
			c-0.1,0.1-0.3,0.1-0.4,0.1c-0.1,0-0.3,0-0.4-0.1c-0.1-0.1-0.3-0.2-0.5-0.3c-0.2-0.1-0.3-0.3-0.5-0.4c-0.2-0.1-0.3-0.2-0.5-0.2
			s-0.4,0.1-0.5,0.2c-0.2,0.1-0.3,0.2-0.5,0.4c-0.2,0.1-0.3,0.3-0.5,0.3c-0.1,0.1-0.3,0.1-0.4,0.1s-0.2,0-0.4-0.1
			c-0.1-0.1-0.3-0.2-0.4-0.3c-0.2-0.1-0.3-0.3-0.5-0.4c-0.2-0.1-0.4-0.2-0.5-0.2c-0.2,0-0.4,0.1-0.5,0.2c-0.1,0-0.1,0.1-0.2,0.2
			c-0.1-0.1-0.3-0.2-0.4-0.4c0.1-0.1,0.2-0.2,0.3-0.2c0.2-0.1,0.3-0.3,0.5-0.3c0.1-0.1,0.3-0.1,0.4-0.1s0.3,0.1,0.4,0.1
			c0.1,0.1,0.3,0.2,0.5,0.3c0.2,0.1,0.3,0.3,0.5,0.4c0.2,0.1,0.3,0.2,0.5,0.2c0.2,0,0.4-0.1,0.5-0.2c0.2-0.1,0.3-0.2,0.5-0.4
			c0.2-0.1,0.3-0.3,0.5-0.3c0.1-0.1,0.3-0.1,0.4-0.1s0.2,0,0.4,0.1c0.1,0.1,0.3,0.2,0.5,0.3c0.2,0.1,0.3,0.3,0.5,0.4
			c0.2,0.1,0.4,0.2,0.5,0.2c0.2,0,0.4-0.1,0.5-0.2c0.2-0.1,0.3-0.2,0.5-0.4c0.2-0.1,0.3-0.3,0.4-0.3c0.1-0.1,0.3-0.1,0.4-0.1
			s0.3,0.1,0.4,0.1c0.1,0.1,0.3,0.2,0.5,0.3c0.2,0.1,0.3,0.3,0.5,0.4c0.2,0.1,0.3,0.2,0.5,0.2s0.4-0.1,0.5-0.2
			c0.2-0.1,0.3-0.2,0.5-0.4c0.2-0.1,0.3-0.3,0.5-0.3c0.1-0.1,0.2-0.1,0.3-0.1C174.1,35.4,173.5,36,172.9,36.4z M172,36.9
			c-0.1-0.1-0.2-0.2-0.3-0.2c-0.2-0.1-0.4-0.2-0.5-0.2c-0.2,0-0.4,0.1-0.5,0.2c-0.2,0.1-0.3,0.2-0.5,0.4c-0.2,0.1-0.3,0.3-0.4,0.3
			c-0.1,0.1-0.3,0.1-0.4,0.1c-0.1,0-0.3,0-0.4-0.1s-0.3-0.2-0.5-0.3c-0.2-0.1-0.3-0.3-0.5-0.4c-0.2-0.1-0.3-0.2-0.5-0.2
			s-0.4,0.1-0.5,0.2c-0.2,0.1-0.3,0.2-0.5,0.4c-0.2,0.1-0.3,0.3-0.5,0.3c0,0,0,0-0.1,0c-0.6-0.2-1-0.4-1.5-0.6c0,0,0,0-0.1,0l0,0
			c-0.4-0.2-0.6-0.4-0.9-0.6L164,36c0.1-0.1,0.3-0.1,0.4-0.1s0.3,0.1,0.4,0.1c0.1,0.1,0.3,0.2,0.5,0.3c0.2,0.1,0.3,0.3,0.5,0.4
			s0.3,0.2,0.5,0.2c0.2,0,0.4-0.1,0.5-0.2c0.2-0.1,0.3-0.2,0.5-0.4c0.2-0.1,0.3-0.3,0.5-0.3c0.1-0.1,0.3-0.1,0.4-0.1s0.2,0,0.4,0.1
			c0.1,0.1,0.3,0.2,0.5,0.3c0.2,0.1,0.3,0.3,0.5,0.4s0.4,0.2,0.5,0.2c0.2,0,0.4-0.1,0.5-0.2c0.2-0.1,0.3-0.2,0.5-0.4
			c0.2-0.1,0.3-0.3,0.4-0.3c0.1-0.1,0.3-0.1,0.4-0.1s0.3,0.1,0.4,0.1c0.1,0.1,0.3,0.2,0.5,0.3c0.2,0.1,0.3,0.3,0.5,0.4h0.1
			C172.4,36.7,172.2,36.8,172,36.9z M170,37.6L170,37.6c0.2-0.1,0.4-0.3,0.5-0.4c0.2-0.1,0.3-0.3,0.4-0.3c0.1-0.1,0.3-0.1,0.4-0.1
			s0.3,0.1,0.4,0.1s0.1,0.1,0.2,0.1C171.2,37.3,170.6,37.5,170,37.6z M167.6,37.6c0.1,0,0.2-0.1,0.2-0.1c0.1,0,0.2,0.1,0.3,0.1
			C167.9,37.6,167.8,37.6,167.6,37.6z M168.3,37.5c-0.2-0.1-0.3-0.2-0.5-0.2s-0.4,0.1-0.5,0.2l-0.1,0.1c-0.2,0-0.4-0.1-0.5-0.1
			c0.1-0.1,0.2-0.2,0.3-0.2c0.2-0.1,0.3-0.3,0.5-0.3c0.1-0.1,0.3-0.1,0.4-0.1s0.2,0,0.4,0.1c0.1,0.1,0.3,0.2,0.5,0.3
			c0.2,0.1,0.3,0.3,0.5,0.4c0.1,0,0.2,0.1,0.2,0.1c-0.2,0-0.4,0-0.6,0h-0.1C168.4,37.6,168.3,37.6,168.3,37.5z M174.7,34.5
			c-0.2,0-0.4,0.1-0.5,0.2c-0.2,0.1-0.3,0.2-0.5,0.4c-0.2,0.1-0.3,0.3-0.5,0.3c-0.1,0.1-0.3,0.1-0.4,0.1s-0.2,0-0.4-0.1
			c-0.1-0.1-0.3-0.2-0.5-0.3c-0.2-0.1-0.3-0.3-0.5-0.4s-0.4-0.2-0.5-0.2c-0.2,0-0.4,0.1-0.5,0.2c-0.2,0.1-0.3,0.2-0.5,0.4
			c-0.2,0.1-0.3,0.3-0.4,0.3c-0.1,0.1-0.3,0.1-0.4,0.1c-0.1,0-0.3,0-0.4-0.1c-0.1-0.1-0.3-0.2-0.5-0.3c-0.2-0.1-0.3-0.3-0.5-0.4
			c-0.2-0.1-0.3-0.2-0.5-0.2s-0.4,0.1-0.5,0.2c-0.2,0.1-0.3,0.2-0.5,0.4c-0.2,0.1-0.3,0.3-0.5,0.3c-0.1,0.1-0.3,0.1-0.4,0.1
			s-0.2,0-0.4-0.1c-0.1-0.1-0.3-0.2-0.5-0.3c-0.2-0.1-0.3-0.3-0.5-0.4c-0.2-0.1-0.4-0.2-0.5-0.2c-0.2,0-0.4,0.1-0.5,0.2
			c-0.2,0.1-0.3,0.2-0.5,0.4c-0.1,0.1-0.2,0.2-0.3,0.3c-0.2-0.2-0.3-0.4-0.5-0.5c0.2,0,0.4-0.1,0.5-0.2c0.2-0.1,0.3-0.2,0.5-0.4
			c0.2-0.1,0.3-0.3,0.5-0.3c0.1-0.1,0.3-0.1,0.4-0.1s0.3,0.1,0.4,0.1c0.1,0.1,0.3,0.2,0.5,0.3c0.2,0.1,0.3,0.3,0.5,0.4
			c0.2,0.1,0.3,0.2,0.5,0.2s0.4-0.1,0.5-0.2c0.2-0.1,0.3-0.2,0.5-0.4c0.1,0,0.1-0.1,0.2-0.1s0.1,0.1,0.2,0.1
			c0.4,0.1,0.9,0.2,1.6,0.3c0.1,0,0.1,0.1,0.2,0.1c0.2,0.1,0.4,0.2,0.5,0.2c0.2,0,0.4-0.1,0.5-0.2l0.1-0.1c0.6,0,1.3-0.1,1.9-0.2
			c0.1,0.1,0.3,0.2,0.4,0.3c0.2,0.1,0.3,0.2,0.5,0.2c0.2,0,0.4-0.1,0.5-0.2c0.2-0.1,0.3-0.2,0.5-0.4c0.2-0.1,0.3-0.3,0.5-0.3
			c0.1-0.1,0.3-0.1,0.4-0.1s0.2,0,0.4,0.1l0.1,0.1c-0.1,0.2-0.3,0.4-0.4,0.6C174.8,34.6,174.7,34.5,174.7,34.5z M169,22.5
			c0.2,0.1,0.4,0.2,0.5,0.2s0.2,0,0.4-0.1c-0.1,0.2-0.2,0.5-0.2,0.6v0.1h-0.1c-0.1,0-0.3,0-0.4-0.1s-0.3-0.2-0.5-0.3
			c-0.2-0.1-0.3-0.3-0.5-0.4c-0.2-0.1-0.3-0.2-0.5-0.2s-0.4,0.1-0.5,0.2c-0.2,0.1-0.3,0.2-0.5,0.4c-0.2,0.1-0.3,0.3-0.5,0.3
			c-0.1,0.1-0.3,0.1-0.4,0.1c-0.1,0-0.2,0-0.4-0.1c-0.1-0.1-0.2-0.2-0.4-0.3c0.3-0.1,0.6-0.3,0.9-0.4h0.1c0.7-0.2,1.5-0.4,2.3-0.4
			l0,0C168.8,22.4,168.9,22.5,169,22.5z M164.2,23.7L164.2,23.7c0.2,0,0.4,0.1,0.5,0.1c0.1,0.1,0.3,0.2,0.5,0.3
			c0.2,0.1,0.3,0.3,0.5,0.4c0.2,0.1,0.3,0.2,0.5,0.2c0.2,0,0.4-0.1,0.5-0.2c0.2-0.1,0.3-0.2,0.5-0.4c0.2-0.1,0.3-0.3,0.5-0.3
			c0.1-0.1,0.3-0.1,0.4-0.1s0.2,0,0.4,0.1c0.1,0.1,0.3,0.2,0.5,0.3c0.2,0.1,0.3,0.3,0.5,0.4c0.1,0.1,0.2,0.1,0.3,0.1l-0.1,0.2
			c0,0.2-0.1,0.3-0.1,0.5c-0.1-0.1-0.3-0.2-0.4-0.3c-0.2-0.1-0.3-0.3-0.5-0.4c-0.2-0.1-0.3-0.2-0.5-0.2s-0.4,0.1-0.5,0.2
			c-0.2,0.1-0.3,0.2-0.5,0.4c-0.2,0.1-0.3,0.3-0.5,0.3c-0.1,0.1-0.3,0.1-0.4,0.1c-0.1,0-0.2,0-0.4-0.1c-0.1-0.1-0.3-0.2-0.4-0.3
			c-0.2-0.1-0.3-0.3-0.5-0.4c-0.2-0.1-0.4-0.2-0.5-0.2c-0.2,0-0.4,0.1-0.5,0.2c-0.2,0.1-0.3,0.2-0.5,0.4c-0.2,0.1-0.3,0.3-0.5,0.3
			c-0.1,0.1-0.3,0.1-0.4,0.1h-0.1C163,24.7,163.6,24.1,164.2,23.7z M162.7,25.5c0.2,0,0.4-0.1,0.5-0.2c0.2-0.1,0.3-0.2,0.5-0.4
			c0.2-0.1,0.3-0.3,0.5-0.3c0.1-0.1,0.3-0.1,0.4-0.1s0.3,0.1,0.4,0.1c0.1,0.1,0.3,0.2,0.5,0.3c0.2,0.1,0.3,0.3,0.5,0.4
			c0.2,0.1,0.3,0.2,0.5,0.2c0.2,0,0.4-0.1,0.5-0.2c0.2-0.1,0.3-0.2,0.5-0.4c0.2-0.1,0.3-0.3,0.5-0.3c0.1-0.1,0.3-0.1,0.4-0.1
			s0.2,0,0.4,0.1c0.1,0.1,0.3,0.2,0.5,0.3c0.2,0.1,0.3,0.3,0.5,0.4l0,0l0,0c-0.1,0.1-0.2,0.2-0.3,0.3l-0.1,0.1
			c-0.1-0.1-0.3-0.2-0.4-0.3c-0.2-0.1-0.3-0.2-0.5-0.2s-0.4,0.1-0.5,0.2c-0.2,0.1-0.3,0.2-0.5,0.4c-0.2,0.1-0.3,0.3-0.5,0.3
			c-0.1,0.1-0.3,0.1-0.4,0.1s-0.2,0-0.4-0.1c-0.1-0.1-0.3-0.2-0.4-0.3c-0.2-0.1-0.3-0.3-0.5-0.4c-0.2-0.1-0.4-0.2-0.5-0.2
			c-0.2,0-0.4,0.1-0.5,0.2c-0.2,0.1-0.3,0.2-0.5,0.4c-0.2,0.1-0.3,0.3-0.5,0.3c-0.1,0.1-0.3,0.1-0.4,0.1s-0.3,0-0.4-0.1
			c-0.1,0-0.1-0.1-0.2-0.2C162.4,25.7,162.5,25.6,162.7,25.5C162.5,25.5,162.6,25.5,162.7,25.5z"/>
	</g>
</g>
</svg>
