<?xml version="1.0" encoding="utf-8"?>
<!-- Generator: Adobe Illustrator 22.1.0, SVG Export Plug-In . SVG Version: 6.00 Build 0)  -->
<svg version="1.1" id="Icons" xmlns="http://www.w3.org/2000/svg" xmlns:xlink="http://www.w3.org/1999/xlink" x="0px" y="0px"
	 viewBox="0 0 3000 3000" style="enable-background:new 0 0 3000 3000;" xml:space="preserve">
<style type="text/css">
	.st0{fill:#FFFFFF;}
</style>
<path class="st0" d="M2620.8,783.7c3.1-17.7,4.7-35.6,4.7-53.5c0-170.6-138.8-309.4-309.4-309.4c-70.1,0-135.8,22.6-190.4,65.5
	c-46.6-26.8-99.6-40.9-153.8-40.9c-22.9,0-45.8,2.5-68,7.5c-55.4-93.9-156.9-152-266.4-152c-73.8,0-145.2,26.4-201.1,74.3
	c-47.4,40.7-82.1,96-98,156.1c-73.1,28.9-133.5,85.8-167.1,157.2c-19.1-3.7-38.7-5.5-58.4-5.5c-170.6,0-309.4,138.8-309.4,309.4
	c0,156.1,115.4,286.9,269.3,306.8c34.3,197,69.1,401.4,102.7,599.2l6.4,37.5c36.1,212.2,73.4,431.6,110.1,641.8
	c3.9,22.6,23.5,39,46.4,39l609.4,0l219.3,0c22.9,0,42.4-16.4,46.4-39c37.8-216.7,75.8-440.4,112.6-656.7
	c34.9-205.1,70.9-417.1,106.6-621.9c154-19.9,269.3-150.7,269.3-306.8C2701.9,914.9,2673.1,840.9,2620.8,783.7z M2337.4,1297
	c-34.5,198.1-69.3,403.2-103.1,601.7l-1.1,6.7h0c-37.8,222.1-71.8,422.1-105.8,617.3h-124.2l212.9-1275.9
	C2252.3,1272,2293.8,1289.2,2337.4,1297z M2200.6,1116.6L2200.6,1116.6L2200.6,1116.6L2200.6,1116.6z M2213.6,1115.1
	c-2.8-2.2-5.7-4.1-8.4-5.4c-0.4-0.2-0.8-0.4-1.5-0.7c-1.1-0.5-2.1-0.9-3.5-1.4l-1.6-0.5c-1-0.3-1.9-0.6-3.3-0.9l-5.4-1
	c-0.5-0.1-1.1-0.1-1.4-0.1c-1.1-0.1-2.1-0.2-3.1-0.2c-0.3,0-0.5,0-1,0c-0.2,0-0.5,0-0.9,0c-1.6,0-3.3,0.1-4.9,0.3l-0.7,0.1
	c-1.8,0.3-3.7,0.6-5.5,1.1l-1.2,0.4c-1.5,0.4-3,0.9-4.3,1.5l-1.5,0.5c-1,0.5-2.1,1-3.1,1.5l-1.3,0l-1.6,1.6
	c-96.9,56.6-234.6,89.1-378.1,89.1c-163.8,0-318.9-42.3-414.7-113.1c-10.7-7.9-24.3-10.9-37.3-8.3c-13,2.6-24.4,10.7-31.2,22.2
	c-38.6,65.4-109.7,106-185.4,106c-118.7,0-215.2-96.6-215.2-215.2c0-118.7,96.6-215.2,215.2-215.2c24.4,0,48.5,4.1,71.6,12.2
	c12.1,4.3,25.6,3.4,37.1-2.5c11.5-5.9,20.1-16.3,23.7-28.6c20.5-69.8,76.7-125.6,146.6-145.8c17.3-5,30.4-19.8,33.4-37.6
	c17.2-104.2,106.5-179.8,212.3-179.8c87.1,0,165.1,51.9,198.7,132.3c9.8,23.5,36.2,34.9,60,25.9c24.3-9.1,49.8-13.8,75.8-13.8
	c47.3,0,92.1,15,129.6,43.4c18.7,14.2,45.3,12.3,61.8-4.4c40.8-41.1,95-63.7,152.8-63.7c118.7,0,215.2,96.5,215.2,215.2
	c0,19-2.5,37.9-7.4,56.2c-4.6,17.1,0.7,35.1,13.7,47c44.6,40.7,70.2,98.7,70.2,159.1c0,118.7-96.5,215.2-215.2,215.2
	c-67.5,0-129.8-30.8-170.8-84.4c-0.3-0.4-0.6-0.8-0.8-0.9c-0.7-0.9-1.4-1.7-2.5-2.9l-1-1c-0.9-0.9-1.8-1.7-2.6-2.3
	C2214.3,1115.7,2213.8,1115.2,2213.6,1115.1z M1289,1246.5l213,1276.3h-124.2c-35-201.1-70.4-409.7-104.8-611.5l-1.2-6.8
	c-33.9-199.6-69-406-104.1-607.5C1211.2,1288.9,1252.7,1271.6,1289,1246.5z M1705.5,1292.3v1230.4h-108l-219.8-1317.4
	C1468.6,1253.5,1581.3,1283.5,1705.5,1292.3z M2122.7,1234l-215.1,1288.7h-108V1294.9C1917.1,1292.9,2028.2,1271.9,2122.7,1234z"/>
</svg>
