<?xml version="1.0" encoding="utf-8"?>
<!-- Generator: Adobe Illustrator 22.1.0, SVG Export Plug-In . SVG Version: 6.00 Build 0)  -->
<svg version="1.1" id="Capa_1" xmlns="http://www.w3.org/2000/svg" xmlns:xlink="http://www.w3.org/1999/xlink" x="0px" y="0px"
	 viewBox="0 0 496 496" style="enable-background:new 0 0 496 496;" xml:space="preserve">
<style type="text/css">
	.st0{fill:#FFFFFF;}
</style>
<path class="st0" d="M472,272c13.2,0,24-10.8,24-24v-48c0-13.2-10.8-24-24-24h-38.2c-1.4-5.6-3.1-11.1-5.1-16.5
	c11-2.2,19.3-11.9,19.3-23.5V88c0-13.2-10.8-24-24-24h-64c-1.7,0-3.4,0.2-5,0.5C339.2,54,322.1,46,304,40.4V24c0-13.2-10.8-24-24-24
	h-64c-13.2,0-24,10.8-24,24v16.5C174,46,156.8,54,141.1,64.6c-1.6-0.4-3.3-0.6-5.1-0.6H72c-13.2,0-24,10.8-24,24v48
	c0,11.6,8.3,21.3,19.3,23.5c-1.9,5.4-3.6,10.9-5.1,16.5H24c-13.2,0-24,10.8-24,24v48c0,13.2,10.8,24,24,24h38.1
	c1.4,5.6,3.1,11.1,5.1,16.5C56.2,290.7,48,300.4,48,312v48c0,13.2,10.8,24,24,24h64c1.8,0,3.4-0.2,5.1-0.6
	c14.3,9.6,29.6,17.1,45.8,22.5L162.2,480H104v-24c0-4.4-3.6-8-8-8H32c-4.4,0-8,3.6-8,8v24H0v16h496v-16h-24v-24c0-4.4-3.6-8-8-8h-64
	c-4.4,0-8,3.6-8,8v24h-58.2l-24.7-74.1c16.2-5.4,31.6-12.9,45.9-22.5c1.6,0.4,3.3,0.6,5.1,0.6h64c13.2,0,24-10.8,24-24v-48
	c0-11.6-8.3-21.3-19.3-23.5c1.9-5.4,3.6-10.9,5.1-16.5H472z M472,256h-64c-4.4,0-8-3.6-8-8v-8h80v8C480,252.4,476.4,256,472,256z
	 M480,200v24h-80v-24c0-4.4,3.6-8,8-8h64C476.4,192,480,195.6,480,200z M424,144h-64c-4.4,0-8-3.6-8-8v-8h80v8
	C432,140.4,428.4,144,424,144z M424,80c4.4,0,8,3.6,8,8v24h-80V88c0-4.4,3.6-8,8-8H424z M208,64h80v8c0,4.4-3.6,8-8,8h-64
	c-4.4,0-8-3.6-8-8V64z M216,16h64c4.4,0,8,3.6,8,8v24h-80V24C208,19.6,211.6,16,216,16z M72,80h64c4.4,0,8,3.6,8,8v24H64V88
	C64,83.6,67.6,80,72,80z M64,136v-8h80v8c0,4.4-3.6,8-8,8H72C67.6,144,64,140.4,64,136z M24,192h64c4.4,0,8,3.6,8,8v24H16v-24
	C16,195.6,19.6,192,24,192z M16,248v-8h80v8c0,4.4-3.6,8-8,8H24C19.6,256,16,252.4,16,248z M72,304h64c4.4,0,8,3.6,8,8v24H64v-24
	C64,307.6,67.6,304,72,304z M72,368c-4.4,0-8-3.6-8-8v-8h80v8c0,4.4-3.6,8-8,8H72z M248,240c-8.8,0-16-7.2-16-16s7.2-16,16-16
	s16,7.2,16,16S256.8,240,248,240z M258.5,254.1C271,249.7,280,238,280,224c0-17.6-14.4-32-32-32s-32,14.4-32,32
	c0,14,9,25.7,21.5,30.1l-5.1,15.2c-19.1-6.5-32.5-24.6-32.5-45.3c0-26.5,21.5-48,48-48s48,21.5,48,48c0,20.8-13.3,38.8-32.5,45.3
	L258.5,254.1z M248,273.3l26.2,78.7h-52.5L248,273.3z M288,400h-80v-24c0-4.4,3.6-8,8-8h64c4.4,0,8,3.6,8,8V400z M208,416h80v8
	c0,4.4-3.6,8-8,8h-64c-4.4,0-8-3.6-8-8V416z M40,464h48v16H40V464z M408,464h48v16h-48V464z M179.1,480l15.3-45.8
	c3.8,8.1,12.1,13.8,21.6,13.8h64c9.6,0,17.8-5.7,21.6-13.8l15.3,45.8H179.1z M424,368h-64c-4.4,0-8-3.6-8-8v-8h80v8
	C432,364.4,428.4,368,424,368z M432,312v24h-80v-24c0-4.4,3.6-8,8-8h64C428.4,304,432,307.6,432,312z M411.9,288H360
	c-13.2,0-24,10.8-24,24v48c0,5.1,1.6,9.8,4.3,13.7c-11.5,7.1-23.6,12.8-36.3,17.1l0-0.1V376c0-8.7-4.7-16.3-11.7-20.5l-23.6-70.9
	c25.6-8.7,43.4-32.8,43.4-60.6c0-35.3-28.7-64-64-64s-64,28.7-64,64c0,27.7,17.8,51.9,43.4,60.6l-23.6,70.9
	c-7,4.2-11.7,11.8-11.7,20.5v14.7l0,0.1c-12.7-4.3-24.9-10-36.3-17.1c2.7-3.9,4.3-8.6,4.3-13.7v-48c0-13.2-10.8-24-24-24H84.2
	c-2.1-5.2-3.9-10.6-5.4-16H88c13.2,0,24-10.8,24-24v-48c0-13.2-10.8-24-24-24h-9.2c1.5-5.4,3.3-10.8,5.4-16H136
	c13.2,0,24-10.8,24-24V88c0-5.1-1.6-9.8-4.3-13.7c11.5-7.1,23.6-12.9,36.3-17.1V72c0,13.2,10.8,24,24,24h64c13.2,0,24-10.8,24-24
	V57.2c12.7,4.3,24.9,10,36.3,17.1c-2.7,3.9-4.3,8.6-4.3,13.7v48c0,13.2,10.8,24,24,24h51.8c2,5.2,3.8,10.6,5.4,16H408
	c-13.2,0-24,10.8-24,24v48c0,13.2,10.8,24,24,24h9.2C415.7,277.4,413.9,282.8,411.9,288z"/>
</svg>
