<?xml version="1.0" encoding="utf-8"?>
<!-- Generator: Adobe Illustrator 23.0.3, SVG Export Plug-In . SVG Version: 6.00 Build 0)  -->
<svg version="1.1" id="Capa_1" xmlns="http://www.w3.org/2000/svg" xmlns:xlink="http://www.w3.org/1999/xlink" x="0px" y="0px"
	 viewBox="0 0 198.4 198.4" style="enable-background:new 0 0 198.4 198.4;" xml:space="preserve">
<style type="text/css">
	.st0{display:none;}
	.st1{display:inline;fill:#8EB427;}
	.st2{opacity:0.38;}
	.st3{opacity:0.14;}
	.st4{fill:url(#SVGID_1_);}
	.st5{fill:url(#SVGID_2_);}
	.st6{fill:url(#SVGID_3_);}
	.st7{fill:url(#SVGID_4_);}
	.st8{fill:url(#SVGID_5_);}
	.st9{fill:url(#SVGID_6_);}
	.st10{fill:url(#SVGID_7_);}
	.st11{fill:url(#SVGID_8_);}
	.st12{fill:#FFFFFF;}
</style>
<g id="Layer_2" class="st0">
	<path class="st1" d="M526.6,232.2v-463C351.4-290.8,163.5-85.9-32-85.9c-196.1,0-384.4-11.3-560,49v269.1H526.6z"/>
</g>
<g>
	<g>
		<g class="st2">
			<g>
				<g>
					<path d="M175.4,102.8c0,1.3-1,2.2-2.3,2.2c-1.3,0-2.3-1-2.3-2.2c0-1.2,1-2.2,2.3-2.2C174.3,100.6,175.4,101.5,175.4,102.8z
						 M171.3,102.8c0,1,0.7,1.8,1.8,1.8c0.9,0,1.7-0.8,1.7-1.8c0-1-0.7-1.8-1.8-1.8C172.1,101,171.3,101.8,171.3,102.8z
						 M172.7,103.9h-0.5v-2.2c0.2,0,0.5-0.1,0.9-0.1c0.4,0,0.6,0.1,0.7,0.2c0.1,0.1,0.2,0.3,0.2,0.5c0,0.3-0.2,0.5-0.5,0.5l0,0
						c0.2,0.1,0.3,0.3,0.4,0.5c0.1,0.3,0.1,0.5,0.1,0.5h-0.5c-0.1-0.1-0.1-0.3-0.2-0.5c-0.1-0.2-0.2-0.3-0.5-0.3h-0.3v0.9H172.7z
						 M172.7,102.7h0.3c0.3,0,0.5-0.1,0.5-0.3c0-0.2-0.1-0.3-0.5-0.3c-0.1,0-0.2,0-0.3,0L172.7,102.7L172.7,102.7z"/>
				</g>
				<path d="M77.5,116.3c-0.1,0.7-0.3,1.3-0.4,2c-0.4,2-0.8,4.1-1.3,6.1c-0.1,0.5-0.5,0.7-1.1,0.7c-1.6,0-3.3,0-4.9,0
					c-0.7,0-0.9-0.2-0.9-0.8c0.2-0.9,0.4-2,0.6-2.9c0.5-2.4,1-4.7,1.5-7.1c0.5-2.4,1-4.7,1.5-7.1c0.4-1.9,0.8-3.8,1.2-5.7
					c0.3-1.2,0.7-1.5,2.2-1.8c3.1-0.3,6.2-0.5,9.3-0.4c2.2,0.1,4.3,0.4,6.2,1.3c2.2,1.1,3.2,2.8,3.4,4.8c0.1,1.8-0.1,3.6-0.9,5.3
					c-1.1,2.2-3.2,3.6-5.9,4.4c-1.7,0.5-3.4,0.7-5.1,0.8C81.1,116.3,79.3,116.3,77.5,116.3z M78.6,111.4c0.2,0,0.3,0.1,0.5,0.1
					c1.2,0,2.4,0.1,3.6,0c0.5,0,1.1-0.1,1.7-0.2c1.4-0.3,2.6-0.9,3.2-2c0.5-0.9,0.5-1.8,0.4-2.8c-0.1-0.9-0.7-1.5-1.8-1.8
					c-0.3-0.1-0.6-0.1-0.9-0.2c-1.6-0.3-3.2-0.1-4.9,0c-0.3,0-0.3,0.1-0.3,0.3c-0.3,1.5-0.7,3.2-1,4.7
					C78.9,110.1,78.7,110.8,78.6,111.4z"/>
				<path d="M143.3,99.8L143.3,99.8c-3.2-0.3-8.2-0.3-8.2-0.3v0.1c-0.5,0-1.1,0-1.6,0.1c-1.8,0.1-3.4,0.3-5.1,0.9
					c-4.2,1.5-5.5,4.5-5.1,7.5c0.3,1.9,1.5,3.2,3.3,4.3c0.9,0.5,1.8,0.9,2.6,1.5c1.2,0.7,2.5,1.3,3.6,2.1c2,1.3,1.2,3.7-0.6,4.2
					c-0.7,0.2-1.5,0.3-2.4,0.3l-7.1-0.5l0,0c-1.1-0.1-1.4,0.3-1.5,0.5v0.1c-0.1,0.1-0.1,0.2-0.1,0.3c-0.2,1-0.4,2-0.6,3
					c0,0.1,0,0.2,0,0.3v0.1l0,0c0,0-0.1,0.8,0.7,0.9l0,0c2,0.3,6.7,1,11.6,0.1c0.8-0.1,1.5-0.3,2.4-0.5c2.8-0.9,4.9-2.5,5.9-5
					c0.5-1.3,0.7-2.6,0.4-4c-0.3-1.5-1.4-2.6-2.8-3.5c-1.4-0.9-2.9-1.7-4.4-2.5c-1.1-0.6-2.1-1.2-3.2-1.8c-1.3-0.7-0.8-2.8,0.7-3.2
					c0.5-0.1,0.9-0.2,1.4-0.2c1,0,2.1,0.1,3.1,0.1c2,0.1,4.2,0.2,5.9,0.3c0.2,0,1.1-0.1,1.3-0.9c0.1-0.5,0.2-0.9,0.3-1.3l0.5-2
					C144.6,99.9,143.3,99.8,143.3,99.8z"/>
				<path d="M167.3,99.8L167.3,99.8c-3.2-0.3-8.2-0.3-8.2-0.3v0.1c-0.5,0-1.1,0-1.6,0.1c-1.8,0.1-3.4,0.3-5.1,0.9
					c-4.2,1.5-5.5,4.5-5.1,7.5c0.3,1.9,1.5,3.2,3.3,4.3c0.9,0.5,1.8,0.9,2.6,1.5c1.2,0.7,2.5,1.3,3.6,2.1c2,1.3,1.2,3.7-0.6,4.2
					c-0.7,0.2-1.5,0.3-2.4,0.3l-7.1-0.5l0,0c-1.1-0.1-1.4,0.3-1.5,0.5v0.1c-0.1,0.1-0.1,0.2-0.1,0.3c-0.2,1-0.4,2-0.6,3
					c0,0.1,0,0.2,0,0.3v0.1l0,0c0,0-0.1,0.8,0.7,0.9l0,0c2,0.3,6.7,1,11.6,0.1c0.8-0.1,1.5-0.3,2.4-0.5c2.8-0.9,4.9-2.5,5.9-5
					c0.5-1.3,0.7-2.6,0.4-4c-0.3-1.5-1.4-2.6-2.8-3.5c-1.4-0.9-2.9-1.7-4.4-2.5c-1.1-0.6-2.1-1.2-3.2-1.8c-1.3-0.7-0.8-2.8,0.7-3.2
					c0.5-0.1,0.9-0.2,1.4-0.2c1,0,2.1,0.1,3.1,0.1c2,0.1,4.2,0.2,5.9,0.3c0.2,0,1.1-0.1,1.3-0.9c0.1-0.5,0.2-0.9,0.3-1.3l0.5-2
					C168.6,99.9,167.3,99.8,167.3,99.8z"/>
				<path d="M116.5,118.6c-0.2-2.7-0.4-5.4-0.6-8.1c-0.2-2.5-0.4-5.1-0.6-7.5c-0.1-1.8-1.4-3-3.5-3.3c-1.3-0.3-2.8-0.2-4.1-0.1
					c-1.1,0.1-2.2,0.4-3.2,0.9c-1.3,0.7-2.2,1.8-2.8,3c-2.4,4.9-4.9,9.8-7.3,14.6c-1,2.1-2.1,4.2-3.1,6.3c-0.3,0.6-0.1,0.9,0.7,0.9
					c1.8,0,3.5,0,5.2,0c0.9,0,1.1-0.1,1.4-0.8c0.7-1.5,1.5-3.1,2.2-4.6l2.6-5.5l0,0c0.1-0.1,0.1-0.3,0.1-0.3
					c0.5-1.1,1.1-2.4,1.7-3.5l0.1-0.1l0,0c0.8-1.8,1.7-3.5,2.5-5.3c0.1-0.1,0.1-0.3,0.3-0.5c0.1-0.1,0.4-0.2,0.6-0.2
					c0.1,0,0.3,0.3,0.3,0.4c0.1,2.6,0.3,5.3,0.4,7.8c0,0.5,0,1.1,0,1.7c-1.1,0-2.4,0-3.6,0l-1.8,4.7c1.8,0,3.5,0,5.3,0
					c0.1,0,0.3,0,0.4,0c0,0.1,0,0.1,0,0.1c0.1,1.8,0.2,3.6,0.3,5.3c0,0.5,0.3,0.7,0.9,0.7c1.8,0,3.5,0,5.3,0c0.7,0,1-0.3,1-0.9
					C116.9,122.5,116.7,120.5,116.5,118.6z"/>
			</g>
			<g>
				<path d="M61.5,115.4L23.7,87.8c0,0,12.5,17,19.6,22.2s12.9,7.8,12.9,7.8L61.5,115.4z"/>
				<path d="M61.5,115.4c0,0-6.7,11-9.9,15c-0.1,0.1-0.2,0.1-0.3,0c-5.2-5.7-18.9-28.1-18.9-28.1s0-0.1,0.2,0
					C34,103.9,42.5,112.6,61.5,115.4z"/>
				<path d="M88.2,68.7c-3.6,4.2-21.3,24.5-37.8,24.5c-14,0-25.2-4.9-26.6-5.5c-0.1-0.1-0.1,0.1-0.1,0.1
					c15,20.6,39.8,18.2,39.8,18.2l25.3-37.3C88.8,68.7,88.7,68.2,88.2,68.7z"/>
				<g class="st3">
					<path d="M52.3,113.4c-12.6-3.7-18.5-9.8-19.7-11.1c-0.1-0.1-0.2,0-0.2,0S44,121.4,50,128.7C52,124.1,52.3,118.8,52.3,113.4z"/>
					<path d="M50.4,93.3c-14,0-25.2-4.9-26.6-5.5c-0.1-0.1-0.1,0.1-0.1,0.1c8.4,11.6,19.9,15.9,28.4,17.5c0-4.4,0.3-8.7,1.8-12.3
						C52.8,93.2,51.6,93.3,50.4,93.3z"/>
				</g>
			</g>
		</g>
		<g>
			<g>
				<g>
					
						<linearGradient id="SVGID_1_" gradientUnits="userSpaceOnUse" x1="156.713" y1="90.5655" x2="212.5701" y2="-30.6699" gradientTransform="matrix(1 0 0 -1 0 158.7746)">
						<stop  offset="0.1672" style="stop-color:#FFFFFF"/>
						<stop  offset="0.3949" style="stop-color:#D2D2D2"/>
						<stop  offset="0.5369" style="stop-color:#FFFFFF"/>
					</linearGradient>
					<path class="st4" d="M174.7,102.3c0,1.3-1,2.2-2.3,2.2c-1.3,0-2.3-1-2.3-2.2s1-2.2,2.3-2.2C173.7,100,174.7,101,174.7,102.3z
						 M170.6,102.3c0,1,0.7,1.8,1.8,1.8c0.9,0,1.7-0.8,1.7-1.8c0-1-0.7-1.8-1.8-1.8C171.4,100.5,170.6,101.3,170.6,102.3z
						 M172.1,103.4h-0.5v-2.2c0.2,0,0.5-0.1,0.9-0.1s0.6,0.1,0.7,0.2c0.1,0.1,0.2,0.3,0.2,0.5c0,0.3-0.2,0.5-0.5,0.5l0,0
						c0.2,0.1,0.3,0.3,0.4,0.5c0.1,0.3,0.1,0.5,0.1,0.5h-0.5c-0.1-0.1-0.1-0.3-0.2-0.5c-0.1-0.2-0.2-0.3-0.5-0.3h-0.3v0.9H172.1z
						 M172.1,102.2h0.3c0.3,0,0.5-0.1,0.5-0.3c0-0.2-0.1-0.3-0.5-0.3c-0.1,0-0.2,0-0.3,0L172.1,102.2L172.1,102.2z"/>
				</g>
				
					<linearGradient id="SVGID_2_" gradientUnits="userSpaceOnUse" x1="76.9238" y1="53.804" x2="132.7809" y2="-67.4314" gradientTransform="matrix(1 0 0 -1 0 158.7746)">
					<stop  offset="0.1672" style="stop-color:#FFFFFF"/>
					<stop  offset="0.3949" style="stop-color:#D2D2D2"/>
					<stop  offset="0.5369" style="stop-color:#FFFFFF"/>
				</linearGradient>
				<path class="st5" d="M76.8,115.7c-0.1,0.7-0.3,1.3-0.4,2c-0.4,2-0.8,4.1-1.3,6.1c-0.1,0.5-0.5,0.7-1.1,0.7c-1.6,0-3.3,0-4.9,0
					c-0.7,0-0.9-0.2-0.9-0.8c0.2-0.9,0.4-2,0.6-2.9c0.5-2.4,1-4.7,1.5-7.1c0.5-2.4,1-4.7,1.5-7.1c0.4-1.9,0.8-3.8,1.2-5.7
					c0.3-1.2,0.7-1.5,2.2-1.8c3.1-0.3,6.2-0.5,9.3-0.4c2.2,0.1,4.3,0.4,6.2,1.3c2.2,1.1,3.2,2.8,3.4,4.8c0.1,1.8-0.1,3.6-0.9,5.3
					c-1.1,2.2-3.2,3.6-5.9,4.4c-1.7,0.5-3.4,0.7-5.1,0.8C80.5,115.8,78.7,115.7,76.8,115.7z M77.9,110.9c0.2,0,0.3,0.1,0.5,0.1
					c1.2,0,2.4,0.1,3.6,0c0.5,0,1.1-0.1,1.7-0.2c1.4-0.3,2.6-0.9,3.2-2c0.5-0.9,0.5-1.8,0.4-2.8c-0.1-0.9-0.7-1.5-1.8-1.8
					c-0.3-0.1-0.6-0.1-0.9-0.2c-1.6-0.3-3.2-0.1-4.9,0c-0.3,0-0.3,0.1-0.3,0.3c-0.3,1.5-0.7,3.2-1,4.7
					C78.2,109.6,78.1,110.2,77.9,110.9z"/>
				
					<linearGradient id="SVGID_3_" gradientUnits="userSpaceOnUse" x1="119.5171" y1="73.4282" x2="175.3743" y2="-47.8073" gradientTransform="matrix(1 0 0 -1 0 158.7746)">
					<stop  offset="0.1672" style="stop-color:#FFFFFF"/>
					<stop  offset="0.3949" style="stop-color:#D2D2D2"/>
					<stop  offset="0.5369" style="stop-color:#FFFFFF"/>
				</linearGradient>
				<path class="st6" d="M142.6,99.2L142.6,99.2c-3.2-0.3-8.2-0.3-8.2-0.3V99c-0.5,0-1.1,0-1.6,0.1c-1.8,0.1-3.4,0.3-5.1,0.9
					c-4.2,1.5-5.5,4.5-5.1,7.5c0.3,1.9,1.5,3.2,3.3,4.3c0.9,0.5,1.8,0.9,2.6,1.5c1.2,0.7,2.5,1.3,3.6,2.1c2,1.3,1.2,3.7-0.6,4.2
					c-0.7,0.2-1.5,0.3-2.4,0.3l-7.1-0.5l0,0c-1.1-0.1-1.4,0.3-1.5,0.5v0.1c-0.1,0.1-0.1,0.2-0.1,0.3c-0.2,1-0.4,2-0.6,3
					c0,0.1,0,0.2,0,0.3v0.1l0,0c0,0-0.1,0.8,0.7,0.9l0,0c2,0.3,6.7,1,11.6,0.1c0.8-0.1,1.5-0.3,2.4-0.5c2.8-0.9,4.9-2.5,5.9-5
					c0.5-1.3,0.7-2.6,0.4-4c-0.3-1.5-1.4-2.6-2.8-3.5c-1.4-0.9-2.9-1.7-4.4-2.5c-1.1-0.6-2.1-1.2-3.2-1.8c-1.3-0.7-0.8-2.8,0.7-3.2
					c0.5-0.1,0.9-0.2,1.4-0.2c1,0,2.1,0.1,3.1,0.1c2,0.1,4.2,0.2,5.9,0.3c0.2,0,1.1-0.1,1.3-0.9c0.1-0.5,0.2-0.9,0.3-1.3l0.5-2
					C143.9,99.4,142.6,99.2,142.6,99.2z"/>
				
					<linearGradient id="SVGID_4_" gradientUnits="userSpaceOnUse" x1="139.3512" y1="82.5664" x2="195.2083" y2="-38.6691" gradientTransform="matrix(1 0 0 -1 0 158.7746)">
					<stop  offset="0.1672" style="stop-color:#FFFFFF"/>
					<stop  offset="0.3949" style="stop-color:#D2D2D2"/>
					<stop  offset="0.5369" style="stop-color:#FFFFFF"/>
				</linearGradient>
				<path class="st7" d="M166.7,99.2L166.7,99.2c-3.2-0.3-8.2-0.3-8.2-0.3V99c-0.5,0-1.1,0-1.6,0.1c-1.8,0.1-3.4,0.3-5.1,0.9
					c-4.2,1.5-5.5,4.5-5.1,7.5c0.3,1.9,1.5,3.2,3.3,4.3c0.9,0.5,1.8,0.9,2.6,1.5c1.2,0.7,2.5,1.3,3.6,2.1c2,1.3,1.2,3.7-0.6,4.2
					c-0.7,0.2-1.5,0.3-2.4,0.3l-7.1-0.5l0,0c-1.1-0.1-1.4,0.3-1.5,0.5v0.1c-0.1,0.1-0.1,0.2-0.1,0.3c-0.2,1-0.4,2-0.6,3
					c0,0.1,0,0.2,0,0.3v0.1l0,0c0,0-0.1,0.8,0.7,0.9l0,0c2,0.3,6.7,1,11.6,0.1c0.8-0.1,1.5-0.3,2.4-0.5c2.8-0.9,4.9-2.5,5.9-5
					c0.5-1.3,0.7-2.6,0.4-4c-0.3-1.5-1.4-2.6-2.8-3.5c-1.4-0.9-2.9-1.7-4.4-2.5c-1.1-0.6-2.1-1.2-3.2-1.8c-1.3-0.7-0.8-2.8,0.7-3.2
					c0.5-0.1,0.9-0.2,1.4-0.2c1,0,2.1,0.1,3.1,0.1c2,0.1,4.2,0.2,5.9,0.3c0.2,0,1.1-0.1,1.3-0.9c0.1-0.5,0.2-0.9,0.3-1.3l0.5-2
					C167.9,99.4,166.7,99.2,166.7,99.2z"/>
				
					<linearGradient id="SVGID_5_" gradientUnits="userSpaceOnUse" x1="94.9595" y1="62.1136" x2="150.8166" y2="-59.1218" gradientTransform="matrix(1 0 0 -1 0 158.7746)">
					<stop  offset="0.1672" style="stop-color:#FFFFFF"/>
					<stop  offset="0.3949" style="stop-color:#D2D2D2"/>
					<stop  offset="0.5369" style="stop-color:#FFFFFF"/>
				</linearGradient>
				<path class="st8" d="M115.9,118.1c-0.2-2.7-0.4-5.4-0.6-8.1c-0.2-2.5-0.4-5.1-0.6-7.5c-0.1-1.8-1.4-3-3.5-3.3
					c-1.3-0.3-2.8-0.2-4.1-0.1c-1.1,0.1-2.2,0.4-3.2,0.9c-1.3,0.7-2.2,1.8-2.8,3c-2.4,4.9-4.9,9.8-7.3,14.6c-1,2.1-2.1,4.2-3.1,6.3
					c-0.3,0.6-0.1,0.9,0.7,0.9c1.8,0,3.5,0,5.2,0c0.9,0,1.1-0.1,1.4-0.8c0.7-1.5,1.5-3.1,2.2-4.6l2.6-5.5l0,0
					c0.1-0.1,0.1-0.3,0.1-0.3c0.5-1.1,1.1-2.4,1.7-3.5l0.1-0.1l0,0c0.8-1.8,1.7-3.5,2.5-5.3c0.1-0.1,0.1-0.3,0.3-0.5
					c0.1-0.1,0.4-0.2,0.6-0.2c0.1,0,0.3,0.3,0.3,0.4c0.1,2.6,0.3,5.3,0.4,7.8c0,0.5,0,1.1,0,1.7c-1.1,0-2.4,0-3.6,0l-1.8,4.7
					c1.8,0,3.5,0,5.3,0c0.1,0,0.3,0,0.4,0c0,0.1,0,0.1,0,0.1c0.1,1.8,0.2,3.6,0.3,5.3c0,0.5,0.3,0.7,0.9,0.7c1.8,0,3.5,0,5.3,0
					c0.7,0,1-0.3,1-0.9C116.2,121.9,116.1,120,115.9,118.1z"/>
			</g>
			<g>
				
					<linearGradient id="SVGID_6_" gradientUnits="userSpaceOnUse" x1="43.7742" y1="44.2199" x2="42.2121" y2="55.6575" gradientTransform="matrix(1 0 0 -1 0 158.7746)">
					<stop  offset="0" style="stop-color:#00374D"/>
					<stop  offset="1" style="stop-color:#00618A"/>
				</linearGradient>
				<path class="st9" d="M60.8,114.9L23.1,87.3c0,0,12.5,17,19.6,22.2s12.9,7.8,12.9,7.8L60.8,114.9z"/>
				
					<linearGradient id="SVGID_7_" gradientUnits="userSpaceOnUse" x1="46.3982" y1="35.2709" x2="46.3264" y2="42.4781" gradientTransform="matrix(1 0 0 -1 0 158.7746)">
					<stop  offset="0" style="stop-color:#4D8920"/>
					<stop  offset="1" style="stop-color:#98BF13"/>
				</linearGradient>
				<path class="st10" d="M60.8,114.9c0,0-6.7,11-9.9,15c-0.1,0.1-0.2,0.1-0.3,0c-5.2-5.7-18.9-28.1-18.9-28.1s0-0.1,0.2,0
					C33.3,103.3,41.8,112,60.8,114.9z"/>
				
					<linearGradient id="SVGID_8_" gradientUnits="userSpaceOnUse" x1="38.4791" y1="59.9941" x2="89.9203" y2="87.6932" gradientTransform="matrix(1 0 0 -1 0 158.7746)">
					<stop  offset="0" style="stop-color:#00547E"/>
					<stop  offset="4.901399e-02" style="stop-color:#005782"/>
					<stop  offset="0.1109" style="stop-color:#00608D"/>
					<stop  offset="0.1798" style="stop-color:#0071A0"/>
					<stop  offset="0.2533" style="stop-color:#008ABE"/>
					<stop  offset="0.256" style="stop-color:#008BBF"/>
					<stop  offset="0.2579" style="stop-color:#008BBF"/>
					<stop  offset="0.3825" style="stop-color:#00A0D4"/>
					<stop  offset="0.5233" style="stop-color:#2BB0E1"/>
					<stop  offset="0.6938" style="stop-color:#3AB8E8"/>
					<stop  offset="0.974" style="stop-color:#3DB9E9"/>
				</linearGradient>
				<path class="st11" d="M87.6,68.2c-3.6,4.2-21.3,24.5-37.8,24.5c-14,0-25.2-4.9-26.6-5.5c-0.1-0.1-0.1,0.1-0.1,0.1
					c15,20.6,39.8,18.2,39.8,18.2l25.3-37.3C88.1,68.2,88,67.7,87.6,68.2z"/>
				<g class="st3">
					<path class="st12" d="M51.6,112.8c-12.6-3.7-18.5-9.8-19.7-11.1c-0.1-0.1-0.2,0-0.2,0s11.7,19.1,17.6,26.5
						C51.4,123.6,51.6,118.2,51.6,112.8z"/>
					<path class="st12" d="M49.8,92.8c-14,0-25.2-4.9-26.6-5.5c-0.1-0.1-0.1,0.1-0.1,0.1c8.4,11.6,19.9,15.9,28.4,17.5
						c0-4.4,0.3-8.7,1.8-12.3C52.1,92.6,51,92.8,49.8,92.8z"/>
				</g>
			</g>
		</g>
	</g>
</g>
</svg>
