<?xml version="1.0" encoding="utf-8"?>
<!-- Generator: Adobe Illustrator 22.1.0, SVG Export Plug-In . SVG Version: 6.00 Build 0)  -->
<svg version="1.1" id="Capa_1" xmlns="http://www.w3.org/2000/svg" xmlns:xlink="http://www.w3.org/1999/xlink" x="0px" y="0px"
	 viewBox="0 0 340.2 340.2" style="enable-background:new 0 0 340.2 340.2;" xml:space="preserve">
<style type="text/css">
	.st0{fill:#FFFFFF;}
</style>
<g>
	<path class="st0" d="M66.1,174.7c0.3,4.1,4.4,6.1,9,6.1c3.4,0,6.1-0.4,8.8-1.4l1.3,6.7c-3.3,1.4-7.2,2-11.5,2
		c-10.8,0-17-6.3-17-16.2c0-8.1,5-17,16.1-17c10.3,0,14.2,8,14.2,15.9c0,1.7-0.2,3.2-0.3,3.9H66.1z M77.8,167.9c0-2.4-1-6.5-5.6-6.5
		c-4.2,0-5.9,3.9-6.1,6.5H77.8z M89.6,178.9c1.8,1.1,5.6,2.3,8.5,2.3c3,0,4.2-1,4.2-2.6c0-1.7-1-2.5-4.6-3.7
		c-6.6-2.2-9.2-5.8-9.1-9.6c0-6,5.1-10.5,13-10.5c3.7,0,7,0.9,8.9,1.9l-1.7,6.8c-1.4-0.8-4.2-1.8-6.9-1.8c-2.4,0-3.8,1-3.8,2.5
		c0,1.6,1.2,2.3,5.1,3.7c6.1,2.1,8.5,5.2,8.6,9.8c0,6-4.6,10.3-13.8,10.3c-4.2,0-7.9-1-10.3-2.3L89.6,178.9z M139.2,186.6
		c-1.8,0.8-5.1,1.5-8.9,1.5c-10.3,0-16.9-6.3-16.9-16.3c0-9.3,6.4-16.9,18.3-16.9c2.6,0,5.5,0.4,7.6,1.2l-1.6,7.4
		c-1.2-0.5-2.9-1-5.5-1c-5.2,0-8.6,3.7-8.5,8.9c0,5.8,3.9,8.9,8.7,8.9c2.3,0,4.2-0.4,5.7-1L139.2,186.6z M169.3,179.8
		c0,3,0.1,5.9,0.5,7.7h-8.9l-0.6-3.2h-0.2c-2.1,2.5-5.3,3.9-9.1,3.9c-6.5,0-10.3-4.7-10.3-9.8c0-8.3,7.4-12.2,18.7-12.2v-0.4
		c0-1.8-0.9-4.2-5.8-4.2c-3.3,0-6.7,1.1-8.8,2.4l-1.8-6.4c2.2-1.2,6.6-2.9,12.4-2.9c10.6,0,14,6.3,14,13.8V179.8z M159.7,172.4
		c-5.2,0-9.2,1.2-9.2,5c0,2.5,1.7,3.8,3.9,3.8c2.4,0,4.5-1.6,5.2-3.6c0.1-0.5,0.2-1.1,0.2-1.7V172.4z M172.6,166.3
		c0-4.2-0.1-7.7-0.3-10.7h8.6l0.5,4.4h0.1c2.3-3.3,6-5.1,10.6-5.1c7,0,13.2,6.1,13.2,16.2c0,11.6-7.4,17.1-14.5,17.1
		c-3.8,0-6.8-1.6-8.3-3.6h-0.1v15.8h-9.9V166.3z M182.5,173.8c0,0.8,0.1,1.4,0.2,2.1c0.7,2.7,2.9,4.7,5.8,4.7c4.3,0,6.8-3.6,6.8-9
		c0-5.1-2.3-8.9-6.7-8.9c-2.8,0-5.3,2.1-5.9,5c-0.1,0.5-0.2,1.2-0.2,1.8V173.8z M217.3,174.7c0.3,4.1,4.4,6.1,9,6.1
		c3.4,0,6.1-0.4,8.8-1.4l1.3,6.7c-3.3,1.4-7.2,2-11.5,2c-10.8,0-17-6.3-17-16.2c0-8.1,5-17,16.1-17c10.3,0,14.2,8,14.2,15.9
		c0,1.7-0.2,3.2-0.3,3.9H217.3z M228.9,167.9c0-2.4-1-6.5-5.6-6.5c-4.2,0-5.9,3.9-6.1,6.5H228.9z"/>
	<g>
		<path class="st0" d="M62.4,138.3c0-1.7-0.1-3.1-0.1-4.4h2.6l0.1,2.7h0.1c0.9-1.5,2.4-3,5.2-3c2.2,0,3.9,1.3,4.6,3.3h0.1
			c0.5-0.9,1.2-1.6,1.9-2.1c1-0.7,2-1.1,3.6-1.1c2.2,0,5.4,1.4,5.4,7.1v9.6h-2.9V141c0-3.2-1.2-5-3.5-5c-1.7,0-3,1.2-3.5,2.7
			c-0.1,0.4-0.2,0.9-0.2,1.5v10.1h-2.9v-9.8c0-2.6-1.1-4.4-3.4-4.4c-1.8,0-3.2,1.5-3.7,3c-0.2,0.4-0.2,0.9-0.2,1.4v9.8h-2.9V138.3z"
			/>
		<path class="st0" d="M93.8,129.4c0,1-0.7,1.8-1.9,1.8c-1.1,0-1.8-0.8-1.8-1.8c0-1,0.7-1.9,1.9-1.9C93,127.5,93.8,128.3,93.8,129.4
			z M90.5,150.2v-16.3h3v16.3H90.5z"/>
	</g>
	<g>
		<path class="st0" d="M240.4,184.7c0-1.2,0.8-2.1,2-2.1c1.2,0,2,0.9,2,2.1c0,1.2-0.8,2.1-2.1,2.1
			C241.2,186.8,240.4,185.9,240.4,184.7z"/>
		<path class="st0" d="M248.1,174.5c0-1.7-0.1-3.1-0.1-4.4h2.6l0.1,2.7h0.1c0.9-1.5,2.4-3,5.2-3c2.2,0,3.9,1.3,4.6,3.3h0.1
			c0.5-0.9,1.2-1.6,1.8-2.1c1-0.7,2-1.1,3.6-1.1c2.2,0,5.4,1.4,5.4,7.1v9.6h-2.9v-9.2c0-3.2-1.2-5-3.5-5c-1.7,0-3,1.2-3.5,2.7
			c-0.1,0.4-0.2,0.9-0.2,1.5v10.1h-2.9v-9.8c0-2.6-1.1-4.4-3.4-4.4c-1.8,0-3.2,1.5-3.7,3c-0.2,0.4-0.2,0.9-0.2,1.5v9.8h-2.9V174.5z"
			/>
		<path class="st0" d="M277.5,170.1l2.3,3.5c0.6,0.9,1.1,1.7,1.7,2.6h0.1c0.5-0.9,1.1-1.8,1.6-2.7l2.3-3.5h3.2l-5.5,7.9l5.7,8.4
			h-3.3l-2.4-3.7c-0.6-0.9-1.2-1.9-1.8-2.8h-0.1c-0.5,1-1.1,1.9-1.7,2.8l-2.4,3.7H274l5.8-8.3l-5.5-8H277.5z"/>
	</g>
</g>
<g>
	<path class="st0" d="M244.4,155.4c2.3,0,4.2,1.9,4.2,4.2c0,2.4-1.9,4.3-4.2,4.3c-2.3,0-4.2-1.9-4.2-4.3
		C240.2,157.2,242.1,155.4,244.4,155.4L244.4,155.4z M244.4,156c-1.9,0-3.4,1.6-3.4,3.6c0,2,1.5,3.6,3.4,3.6c1.9,0,3.4-1.6,3.4-3.6
		C247.8,157.6,246.3,156,244.4,156L244.4,156z M243.6,162.1h-0.8v-4.8c0.4-0.1,0.8-0.1,1.3-0.1c0.7,0,1.2,0.2,1.5,0.4
		c0.3,0.2,0.4,0.5,0.4,1c0,0.6-0.4,1-0.9,1.2v0c0.4,0.1,0.7,0.5,0.8,1.1c0.1,0.7,0.2,1,0.3,1.2h-0.8c-0.1-0.2-0.2-0.6-0.3-1.2
		c-0.1-0.6-0.4-0.8-1-0.8h-0.5V162.1z M243.6,159.5h0.5c0.6,0,1.2-0.2,1.2-0.8c0-0.4-0.3-0.8-1.2-0.8c-0.2,0-0.4,0-0.5,0V159.5z"/>
</g>
<g>
	<path class="st0" d="M76.2,216.2l-4.3-13.5h3.4l1.7,5.7c0.5,1.6,0.9,3.1,1.2,4.8h0.1c0.3-1.6,0.8-3.2,1.2-4.8l1.7-5.8h3.3
		l-4.6,13.5H76.2z"/>
	<path class="st0" d="M88.9,203.8c0,0.8-0.6,1.5-1.7,1.5c-1,0-1.6-0.7-1.6-1.5c0-0.9,0.6-1.5,1.6-1.5
		C88.2,202.2,88.9,202.9,88.9,203.8z M85.7,216.2v-9.8h3.1v9.8H85.7z"/>
	<path class="st0" d="M96.9,216.2l-0.2-1h-0.1c-0.6,0.8-1.6,1.2-2.8,1.2c-2,0-3.2-1.4-3.2-3c0-2.5,2.3-3.8,5.8-3.7v-0.1
		c0-0.5-0.3-1.3-1.8-1.3c-1,0-2.1,0.3-2.7,0.7l-0.6-2c0.7-0.4,2-0.9,3.8-0.9c3.3,0,4.3,1.9,4.3,4.2v3.4c0,0.9,0,1.8,0.1,2.4H96.9z
		 M96.5,211.6c-1.6,0-2.9,0.4-2.9,1.5c0,0.8,0.5,1.1,1.2,1.1c0.8,0,1.4-0.5,1.6-1.1c0-0.2,0.1-0.3,0.1-0.5V211.6z"/>
	<path class="st0" d="M99.9,218c0.8-0.1,1.4-0.3,1.8-0.6c0.4-0.5,0.6-1.2,0.6-3.2v-7.8h3.1v8.5c0,2.1-0.5,3.4-1.4,4.3
		c-0.9,0.8-2.3,1.2-3.8,1.2L99.9,218z M105.5,203.8c0,0.8-0.6,1.5-1.6,1.5c-1,0-1.6-0.7-1.6-1.5c0-0.9,0.6-1.5,1.6-1.5
		C104.9,202.2,105.5,202.9,105.5,203.8z"/>
	<path class="st0" d="M113.4,216.2l-0.2-1h-0.1c-0.6,0.8-1.6,1.2-2.8,1.2c-2,0-3.2-1.4-3.2-3c0-2.5,2.3-3.8,5.8-3.7v-0.1
		c0-0.5-0.3-1.3-1.8-1.3c-1,0-2.1,0.3-2.7,0.7l-0.6-2c0.7-0.4,2-0.9,3.8-0.9c3.3,0,4.3,1.9,4.3,4.2v3.4c0,0.9,0,1.8,0.1,2.4H113.4z
		 M113.1,211.6c-1.6,0-2.9,0.4-2.9,1.5c0,0.8,0.5,1.1,1.2,1.1c0.8,0,1.4-0.5,1.6-1.1c0-0.2,0.1-0.3,0.1-0.5V211.6z"/>
	<path class="st0" d="M124.9,206.5l1.5,4.8c0.2,0.6,0.4,1.3,0.5,1.8h0.1c0.1-0.5,0.3-1.2,0.4-1.8l1.2-4.8h3.3l-2.3,6.4
		c-1.4,3.9-2.4,5.4-3.5,6.4c-1.1,0.9-2.2,1.2-3,1.3l-0.6-2.6c0.4-0.1,0.9-0.2,1.3-0.5c0.5-0.2,1-0.7,1.3-1.2
		c0.1-0.1,0.2-0.3,0.2-0.4c0-0.1,0-0.3-0.1-0.5l-3.6-8.9H124.9z"/>
	<path class="st0" d="M146.8,202.1v11.3c0,1.1,0,2.3,0.1,2.9h-2.7l-0.1-1.4h0c-0.6,1.1-1.8,1.6-3.1,1.6c-2.3,0-4.2-2-4.2-5
		c0-3.3,2.1-5.2,4.4-5.2c1.2,0,2.2,0.4,2.6,1.1h0v-5.3H146.8z M143.7,210.6c0-0.2,0-0.4,0-0.5c-0.2-0.8-0.8-1.5-1.8-1.5
		c-1.4,0-2.1,1.2-2.1,2.8c0,1.7,0.8,2.7,2.1,2.7c0.9,0,1.6-0.6,1.8-1.5c0.1-0.2,0.1-0.4,0.1-0.7V210.6z"/>
	<path class="st0" d="M151.6,212.3c0.1,1.3,1.3,1.9,2.8,1.9c1,0,1.9-0.1,2.7-0.4l0.4,2.1c-1,0.4-2.2,0.6-3.6,0.6
		c-3.3,0-5.3-1.9-5.3-5c0-2.5,1.6-5.2,5-5.2c3.2,0,4.4,2.5,4.4,4.9c0,0.5-0.1,1-0.1,1.2H151.6z M155.2,210.2c0-0.7-0.3-2-1.7-2
		c-1.3,0-1.8,1.2-1.9,2H155.2z"/>
	<path class="st0" d="M159.9,213.6c0.6,0.3,1.7,0.7,2.6,0.7c0.9,0,1.3-0.3,1.3-0.8c0-0.5-0.3-0.7-1.5-1.1c-2-0.7-2.8-1.8-2.8-2.9
		c0-1.8,1.6-3.2,4-3.2c1.1,0,2.2,0.3,2.8,0.6l-0.5,2.1c-0.4-0.2-1.3-0.6-2.1-0.6c-0.7,0-1.2,0.3-1.2,0.8c0,0.5,0.4,0.7,1.6,1.1
		c1.9,0.6,2.7,1.6,2.7,3c0,1.8-1.5,3.2-4.3,3.2c-1.3,0-2.4-0.3-3.2-0.7L159.9,213.6z"/>
	<path class="st0" d="M176.1,216c-0.5,0.2-1.6,0.4-2.7,0.4c-3.2,0-5.2-1.9-5.2-5c0-2.9,2-5.2,5.6-5.2c0.8,0,1.7,0.1,2.3,0.4
		l-0.5,2.3c-0.4-0.2-0.9-0.3-1.7-0.3c-1.6,0-2.7,1.1-2.6,2.7c0,1.8,1.2,2.7,2.7,2.7c0.7,0,1.3-0.1,1.8-0.3L176.1,216z"/>
	<path class="st0" d="M187.1,213.1c0,1.3,0,2.3,0.1,3.1h-2.7l-0.1-1.4h-0.1c-0.4,0.6-1.3,1.6-3.1,1.6c-2,0-3.5-1.2-3.5-4.2v-5.7h3.1
		v5.3c0,1.4,0.5,2.3,1.5,2.3c0.8,0,1.3-0.6,1.5-1.1c0.1-0.2,0.1-0.4,0.1-0.7v-5.8h3.1V213.1z"/>
	<path class="st0" d="M189.5,216.2c0-0.6,0.1-1.8,0.1-2.9v-11.3h3.1v5.6h0c0.6-0.8,1.6-1.4,3-1.4c2.4,0,4.1,1.9,4.1,4.9
		c0,3.5-2.3,5.3-4.5,5.3c-1.1,0-2.3-0.4-3-1.6h0l-0.1,1.4H189.5z M192.6,212.1c0,0.2,0,0.4,0.1,0.5c0.2,0.8,0.9,1.4,1.8,1.4
		c1.3,0,2.1-1,2.1-2.8c0-1.5-0.7-2.7-2.1-2.7c-0.8,0-1.6,0.6-1.8,1.5c0,0.2-0.1,0.4-0.1,0.6V212.1z"/>
	<path class="st0" d="M201.7,209.7c0-1.4,0-2.4-0.1-3.2h2.6l0.1,1.8h0.1c0.5-1.4,1.7-2,2.7-2c0.3,0,0.4,0,0.6,0v2.9
		c-0.2,0-0.5-0.1-0.8-0.1c-1.1,0-1.9,0.6-2.1,1.5c0,0.2-0.1,0.4-0.1,0.7v5h-3.1V209.7z"/>
	<path class="st0" d="M211.7,212.3c0.1,1.3,1.3,1.9,2.8,1.9c1,0,1.9-0.1,2.7-0.4l0.4,2.1c-1,0.4-2.2,0.6-3.6,0.6
		c-3.3,0-5.3-1.9-5.3-5c0-2.5,1.5-5.2,5-5.2c3.2,0,4.4,2.5,4.4,4.9c0,0.5-0.1,1-0.1,1.2H211.7z M215.3,210.2c0-0.7-0.3-2-1.7-2
		c-1.3,0-1.8,1.2-1.9,2H215.3z"/>
</g>
<g>
	<path class="st0" d="M236.7,210.3c-0.1-1.9-0.2-4.1-0.2-5.8h-0.1c-0.5,1.6-1,3.2-1.7,5.1l-2.4,6.5H231l-2.2-6.4
		c-0.6-1.9-1.2-3.6-1.6-5.2h0c0,1.7-0.1,3.9-0.3,5.9l-0.4,5.8H225l0.9-13.4h2.2l2.3,6.5c0.6,1.7,1,3.1,1.4,4.5h0.1
		c0.3-1.3,0.8-2.8,1.4-4.5l2.4-6.5h2.2l0.8,13.4h-1.7L236.7,210.3z"/>
	<path class="st0" d="M242.4,211.7c0,2.4,1.6,3.3,3.3,3.3c1.3,0,2-0.2,2.7-0.5l0.3,1.2c-0.6,0.3-1.7,0.6-3.2,0.6c-3,0-4.8-2-4.8-4.9
		c0-2.9,1.7-5.2,4.5-5.2c3.2,0,4,2.8,4,4.5c0,0.4,0,0.6-0.1,0.8H242.4z M247.5,210.5c0-1.1-0.5-2.8-2.4-2.8c-1.8,0-2.6,1.6-2.7,2.8
		H247.5z M247.9,202.4l-2.4,2.8h-1.3l1.8-2.8H247.9z"/>
	<path class="st0" d="M252.2,206.6l1.4,2.1c0.4,0.5,0.7,1,1,1.6h0.1c0.3-0.6,0.6-1.1,1-1.6l1.4-2h1.9l-3.3,4.6l3.4,5h-2l-1.4-2.2
		c-0.4-0.5-0.7-1.1-1-1.7h0c-0.3,0.6-0.7,1.1-1,1.7l-1.4,2.2h-1.9l3.4-4.9l-3.3-4.7H252.2z"/>
	<path class="st0" d="M262.6,203.9c0,0.6-0.4,1.1-1.1,1.1c-0.6,0-1.1-0.5-1.1-1.1c0-0.6,0.5-1.1,1.1-1.1
		C262.2,202.8,262.6,203.3,262.6,203.9z M260.7,216.2v-9.6h1.8v9.6H260.7z"/>
	<path class="st0" d="M272.3,215.8c-0.5,0.2-1.5,0.6-2.8,0.6c-2.9,0-4.8-2-4.8-4.9c0-3,2-5.1,5.2-5.1c1,0,2,0.3,2.4,0.5l-0.4,1.3
		c-0.4-0.2-1.1-0.5-2-0.5c-2.2,0-3.4,1.6-3.4,3.6c0,2.2,1.4,3.6,3.4,3.6c1,0,1.7-0.3,2.2-0.5L272.3,215.8z"/>
	<path class="st0" d="M283.1,211.3c0,3.6-2.5,5.1-4.8,5.1c-2.6,0-4.6-1.9-4.6-4.9c0-3.2,2.1-5.1,4.8-5.1
		C281.2,206.4,283.1,208.4,283.1,211.3z M275.4,211.4c0,2.1,1.2,3.7,2.9,3.7c1.7,0,2.9-1.6,2.9-3.7c0-1.6-0.8-3.7-2.9-3.7
		C276.3,207.7,275.4,209.6,275.4,211.4z"/>
</g>
</svg>
