<?xml version="1.0" encoding="utf-8"?>
<!-- Generator: Adobe Illustrator 22.1.0, SVG Export Plug-In . SVG Version: 6.00 Build 0)  -->
<svg version="1.1" xmlns="http://www.w3.org/2000/svg" xmlns:xlink="http://www.w3.org/1999/xlink" x="0px" y="0px"
	 viewBox="0 0 792 612" style="enable-background:new 0 0 792 612;" xml:space="preserve">
<style type="text/css">
	.st0{fill:#FFFFFF;}
	.st1{fill-rule:evenodd;clip-rule:evenodd;}
	.st2{fill-rule:evenodd;clip-rule:evenodd;fill:#125789;}
	.st3{fill-rule:evenodd;clip-rule:evenodd;fill:#EF453B;}
	.st4{fill-rule:evenodd;clip-rule:evenodd;fill:#8BC863;}
	.st5{fill-rule:evenodd;clip-rule:evenodd;fill:#F9A94B;}
	.st6{fill-rule:evenodd;clip-rule:evenodd;fill:#FDD845;}
	.st7{fill-rule:evenodd;clip-rule:evenodd;fill:#35C1EB;}
	.st8{fill-rule:evenodd;clip-rule:evenodd;fill:#A676B3;}
	.st9{fill-rule:evenodd;clip-rule:evenodd;fill:#EF97C1;}
</style>
<g id="Layer_1">
	<path class="st0" d="M696.6,284.6c-5,1.1-9.6,2-14.1,3.2c-6.2,1.6-12.3,2.4-18.7,1.4c-8.2-1.4-16.5-1.8-24.7-0.2
		c-9.1,1.8-17.2,5.2-23.6,12.1c-5.3,5.7-8,12.6-8.8,20.2c-0.9,9.1,1.5,17.1,8.6,23.3c2.3,2,5,3.6,7.7,5.5c-0.8,2.2-1.6,4.7-2.5,7.2
		c4.9-0.9,9.7-1.9,14.5-2.6c5.4-0.8,10.7-0.9,16,0.8c5.4,1.7,8.1,5.2,8.2,11c0.1,5.2-1.6,9.4-7.1,11.7c-4.8,2.1-9.9,1.9-14.9,1.1
		c-7.3-1.2-14.2-3.7-20.2-8.4c-5.4,5-10.7,10-16,14.9c0.2,0.3,0.2,0.4,0.3,0.4c1.1,0.9,2.3,1.9,3.5,2.8c8.2,6.2,17.3,10.3,27.6,11.3
		c5.9,0.6,11.8,0.4,17.7-0.4c8-1.1,15.8-3.2,22.4-8.2c7.6-5.6,12.1-13.1,12.7-22.5c0.5-7.6-2.7-13.9-8.3-19
		c-1.7-1.6-3.7-2.9-5.6-4.4c0.7-0.4,1.4-0.7,2-1.1c3.9-2.1,7.1-4.9,9.4-8.7c4.2-7.1,4.4-14.6,2.4-22.3c-0.7-2.6-1.8-5.2-2.7-7.9
		c1.1-0.1,2.2-0.3,3.3-0.2c3.6,0.4,4.8-1.5,5.7-4.7C692.8,295.5,694.8,290.3,696.6,284.6z M451.7,373c0.9-13,1.9-25.9,2.8-39
		c9.6,0,18.9,0,28.3,0c0.4-7.6,0.7-15,1.1-22.7c-9.4,0-18.5,0-27.8,0c0.6-7.7,1.2-15.1,1.8-22.7c13,0,25.9,0,38.9,0
		c-1.9-8.3-3.8-16.4-5.6-24.4c-20.1,0-40,0-60,0c-2.6,36.3-5.2,72.5-7.8,108.9C432.9,373,442.3,373,451.7,373z M578.5,324.3
		c-0.4-0.1-0.6-0.1-0.7-0.1c-0.4-0.2-0.8-0.4-1.2-0.6c-9-4.8-18.5-6.1-28.3-3.6c-9.6,2.5-16.8,8-20.2,17.7
		c-1.7,4.7-1.7,9.6-1.3,14.5c0.8,9.5,5.6,16.2,14.7,19.6c5.9,2.2,12,2.3,18.1,1.9c6.4-0.4,11.6-3,15.8-7.6c0.3-0.3,0.6-0.6,1.1-1
		c-0.3,2.8-0.6,5.3-0.9,7.9c7.8,0,15.4,0,23.1,0c0.1-0.5,0.2-0.9,0.2-1.4c0.5-7.6,1.1-15.3,1.6-22.9c0.5-7.6,1.2-15.3,1.6-22.9
		c0.3-6,0.4-12,0.1-18c-0.3-5.2-2.7-9.7-7.2-12.8c-7.9-5.5-17-7.3-26.4-7.3c-7.5,0-14.7,1.6-21.9,3.6c-1.2,0.3-1.8,0.9-2,2.1
		c-1,4.4-2,8.8-3,13.2c-0.5,2.2-1,4.5-1.5,6.7c4.1-1.3,7.9-2.7,11.8-3.8c6.9-1.9,13.8-2.1,20.8,0.1c3,1,4.9,3,5.3,6
		C578.3,318.5,578.3,321.3,578.5,324.3z M211.9,350.3c0.3,0.4,0.4,0.7,0.5,0.9c4,7.2,8,14.3,12,21.6c0.6,1.1,1.3,1.5,2.5,1.4
		c8.9-0.1,17.7,0,26.6,0c0.5,0,1-0.1,1.7-0.1c-9.1-14.6-18.1-28.9-27.2-43.3c10.5-12.5,21-25,31.7-37.7c-9.9,0-19.2,0-28.6,0
		c-0.6,0-1.3,0.5-1.7,1.1c-3,3.9-5.9,7.9-8.9,11.9c-1.7,2.3-3.4,4.5-5.2,6.9c-3.5-6.3-6.9-12.3-10.3-18.5c-0.6-1-1.2-1.4-2.4-1.4
		c-8.8,0.1-17.5,0-26.3,0c-0.5,0-1,0-1.7,0.1c8.2,12.7,16.3,25.1,24.4,37.6c-12.2,14.4-24.3,28.8-36.7,43.5c1,0,1.5,0,2.1,0
		c9.1,0,18.2,0,27.3,0c1.4,0,2.2-0.4,3.1-1.5C200.4,365.2,206.1,357.9,211.9,350.3z M687.1,362.9c0.5,0.4,0.8,0.7,1.1,1
		c16.3,11.4,33.5,13.6,51.7,5.3c6.3-2.9,11.5-7.2,14.4-13.9c2-4.7,1.9-9.5,1.2-14.4c-0.9-6.6-3.9-11.9-10-15.2
		c-4.8-2.6-10.1-3.9-15.4-5.1c-2.8-0.6-5.7-1-8.5-1.8c-1.7-0.4-3.1-1.6-3.4-3.5c-0.7-4.2,1.6-7.2,6-7.4c5.4-0.2,10.3,1.7,15.1,4.1
		c1.1,0.6,1.8,0.6,2.8-0.3c3.4-3.1,6.9-6.1,10.3-9.2c1.3-1.2,2.6-2.3,3.9-3.6c-0.3-0.3-0.5-0.5-0.7-0.7c-10.9-8-23-11.9-36.6-10.1
		c-7.1,0.9-13.3,3.9-18.1,9.5c-4.3,5-6.7,10.8-7.1,17.3c-0.5,8.1,2.2,14.9,9.1,19.7c5.6,4,12.2,5,18.7,6.2c2.7,0.5,5.3,1.1,7.9,1.9
		c1.7,0.6,2.7,2.1,2.4,4c-0.4,3-1.8,5.6-4.9,6.3c-2.4,0.5-5.1,0.8-7.5,0.5c-6.6-0.9-12.6-3.5-18.1-7.5
		C696.8,351.8,692,357.3,687.1,362.9z M529.5,259.6c-8.8,0.8-17.5,1.5-26.1,2.3c-2.8,37.2-5.6,74.1-8.4,111.3c8.6,0,16.9,0,25.2-0.1
		c0.4,0,1.1-0.8,1.1-1.2c0.5-6.6,1-13.1,1.5-19.7c0.5-7,1-13.9,1.5-20.9c0.6-8.6,1.3-17.2,1.9-25.8c0.5-6.9,1-13.8,1.5-20.7
		C528.2,276.4,528.8,268.1,529.5,259.6z M140.8,293.1c-1.8,27-3.7,54-5.5,81c8.6,0,17.1,0,25.6,0c1.8-27.1,3.7-54,5.5-81
		C157.7,293.1,149.3,293.1,140.8,293.1z M521.1,461.5c2.5-0.3,4.8-0.6,7-0.8c1.2-0.1,1.5-0.4,1.3-1.6c-0.5-3.9-1-7.9-1.5-11.8
		c-1.1-8.4-2.2-16.8-3.3-25.3c-0.3-2.2-0.6-4.5-1-7.2c-5.6,10.1-11,19.8-16.6,29.8c-4.5-10.2-8.8-19.9-13.2-29.9
		c-3.8,15.4-7.5,30.5-11.3,45.7c2.6,0.3,5,0.7,7.4,0.8c0.4,0,1.2-0.6,1.3-1.1c1.1-4.6,2.1-9.3,3.1-13.9c0.5-2.3,1.1-4.5,1.6-6.8
		c0.1,0,0.2,0,0.4,0c3.2,7.2,6.4,14.4,9.8,21.9c4.2-7.5,8.3-14.7,12.3-21.9c0.1,0,0.3,0,0.4,0.1
		C519.5,446.8,520.3,454.1,521.1,461.5z M672.7,461.5c11.7-0.1,19.3-4.6,23.7-13.7c4.1-8.4,4-17-1.9-24.6c-5.1-6.6-12.2-9-20.5-8.1
		c-13,1.5-23.2,13.3-21.5,27.5C653.9,454.5,663.7,461.9,672.7,461.5z M560.1,458.7c2.7,0.9,5.3,1.8,7.9,2.6c0.4,0.1,1.1-0.4,1.4-0.8
		c1.9-2.7,3.8-5.5,5.7-8.3c1.6-2.3,3.1-4.5,4.8-7c0.5,0.8,0.8,1.4,1.2,2c2.6,4.4,5.2,8.8,7.8,13.1c0.3,0.5,1.2,1,1.7,0.8
		c2.5-0.9,4.9-2,7.4-3c-0.3-0.5-0.5-0.8-0.7-1.1c-3.8-6-7.6-12-11.5-17.9c-0.6-0.9-0.6-1.6,0.1-2.5c3.4-4.7,6.8-9.5,10.2-14.3
		c1.1-1.5,2.1-3,3.2-4.6c-2.7-1-5.2-2-7.7-2.9c-3.6,5.4-7.1,10.7-10.8,16.3c-3.2-5.6-6.1-11-9.1-16.3c-2.7,1.2-5.3,2.3-7.9,3.4
		c3.8,6.2,7.4,12.4,11.1,18.5c0.6,0.9,0.6,1.6-0.1,2.4c-1.6,2.1-3.1,4.2-4.7,6.3C566.8,449.8,563.5,454.2,560.1,458.7z M535.8,416.2
		c-0.9,14.9-1.7,29.5-2.6,44.2c0.5,0.1,0.7,0.2,1,0.2c7.6,0,15.1,0,22.7,0c0.4,0,1-0.2,1.1-0.5c1.1-2.5,2.1-5,3.2-7.7
		c-5.9,0-11.5,0-17.2,0c-0.9,0-1.7,0.1-1.6-1.3c0.3-3.3,0.5-6.6,0.7-10.1c4.4,0,8.6,0,13.1,0c0.2-2.7,0.3-5.3,0.5-8.1
		c-4.4,0-8.7,0-13.2,0c0.1-2.6,0.3-5.1,0.3-7.5c0-1.3,0.4-1.8,1.8-1.7c4.4,0.1,8.9,0,13.3,0c0.6,0,1.2,0,2,0c-0.4-2.1-0.9-4-1-5.9
		c-0.1-1.5-0.8-1.7-2.1-1.7c-6.8,0-13.5,0-20.3,0C537,416.1,536.5,416.1,535.8,416.2z M648.1,450.1c-0.7,0.5-1.1,0.8-1.5,1
		c-6.9,4.5-15.1,2.9-19-3.7c-2.8-4.6-2.8-9.6-1-14.6c3.3-8.7,12-12.4,20.1-8.7c0.8,0.4,1.5,0.8,2.5,1.4c-0.2-2.8-0.5-5.4-0.6-7.9
		c-0.1-1.2-0.7-1.6-1.7-1.9c-6-1.6-11.7-1-17.1,1.9c-14.4,7.6-17.3,26.6-7.6,37.1c6.2,6.7,15.2,8.2,23.1,5.4
		c0.6-0.2,1.3-0.9,1.4-1.4C647.3,456,647.6,453.2,648.1,450.1z M140.8,288.6c13.4-4.1,26.5-8.1,39.6-12.2c0-0.1,0-0.2,0-0.4
		c-12.4-4-24.7-8-37.3-12C142.3,272.3,141.6,280.3,140.8,288.6z M603.6,415.9c-0.9,15.1-1.7,30-2.6,44.8c2.5,0,4.6,0,6.8,0
		c1.4,0,2-0.6,2.1-2c0.3-6.2,0.7-12.5,1.1-18.7c0.3-5,0.6-10,0.9-14.9c0.2-3.2,0.3-6.3,0.5-9.7C609.4,415.6,606.6,415.8,603.6,415.9
		z M762,276.2c-5.4,0-9.7,4.3-9.8,9.7c0,5.5,4.2,9.9,9.7,9.9c5.5,0,9.8-4.3,9.8-9.9C771.7,280.5,767.4,276.2,762,276.2z"/>
	<path class="st1" d="M45.9,362.2c4.2-4.6,8.4-9.3,12.5-13.9c1.9-2.1,3.8-4.2,5.7-6.5c3.3,3.1,7.1,5.4,11.3,6.9
		c5.9,2.1,11.8,3,17.7,0.4c2.3-1,4.4-2.6,6.2-4.3c2.6-2.5,2.4-5.6,0-8.3c-2.4-2.6-5.5-4.2-8.8-5.4c-4.9-1.8-10-3.4-14.9-5.1
		c-7.5-2.7-14.1-6.7-18.8-13.4c-6.4-9.1-6.6-19.9-0.4-29.7c7.4-11.9,18.4-18.4,32.1-20.4c15.2-2.2,29,1.2,41.6,10
		c0.8,0.6,1.6,1.3,2.5,2c-5.6,6.3-11.1,12.5-16.7,18.8c-4.9-3.8-10.4-6-16.3-7.1c-3.7-0.7-7.4-0.8-11,0.8c-4.3,1.8-6.7,6.5-4.8,10
		c0.9,1.6,2.4,3.1,3.9,4.1c4.2,2.8,9,3.9,13.8,5.1c5.5,1.4,10.9,3.1,15.8,6c7.6,4.4,11.9,11,13.1,19.6c1.4,10-1,19.2-7.1,27.2
		c-4.4,5.9-10.7,9.3-17.3,12.3c-6.2,2.8-12.7,3.6-19.4,3.9c-14.5,0.7-27.5-3.7-39.3-11.8c-0.5-0.3-0.9-0.6-1.4-0.9
		C45.9,362.5,45.9,362.3,45.9,362.2z"/>
	<path class="st1" d="M696.6,284.6c-1.8,5.6-3.8,10.9-5.2,16.2c-0.8,3.2-2.1,5.1-5.7,4.7c-1.1-0.1-2.1,0.1-3.3,0.2
		c0.9,2.7,2,5.2,2.7,7.9c2,7.7,1.8,15.3-2.4,22.3c-2.3,3.8-5.5,6.6-9.4,8.7c-0.6,0.3-1.3,0.7-2,1.1c1.9,1.5,3.9,2.8,5.6,4.4
		c5.6,5.1,8.8,11.4,8.3,19c-0.6,9.4-5.2,16.9-12.7,22.5c-6.7,4.9-14.4,7-22.4,8.2c-5.9,0.8-11.7,1-17.7,0.4
		c-10.4-1-19.4-5.1-27.6-11.3c-1.2-0.9-2.3-1.8-3.5-2.8c-0.1-0.1-0.1-0.2-0.3-0.4c5.3-5,10.7-9.9,16-14.9c6,4.6,12.9,7.1,20.2,8.4
		c5,0.8,10.1,1,14.9-1.1c5.4-2.3,7.2-6.5,7.1-11.7c-0.1-5.7-2.9-9.2-8.2-11c-5.3-1.7-10.6-1.6-16-0.8c-4.8,0.7-9.6,1.7-14.5,2.6
		c0.8-2.4,1.7-4.9,2.5-7.2c-2.7-1.9-5.4-3.4-7.7-5.5c-7-6.2-9.5-14.2-8.6-23.3c0.8-7.6,3.5-14.5,8.8-20.2
		c6.4-6.9,14.6-10.4,23.6-12.1c8.3-1.6,16.5-1.1,24.7,0.2c6.3,1,12.5,0.2,18.7-1.4C687,286.6,691.6,285.7,696.6,284.6z M662.2,321.6
		c-0.1-3.7-1.7-7.3-4.3-9.5c-6.8-5.7-17.6-4.7-23.3,2.1c-5,6-4.9,14.4,0.4,19.6c3.5,3.4,7.8,4.4,12.7,3.9
		C656.2,336.7,662.3,330,662.2,321.6z"/>
	<path class="st1" d="M451.7,373c-9.4,0-18.8,0-28.4,0c2.6-36.3,5.2-72.5,7.8-108.9c20,0,39.9,0,60,0c1.8,8,3.7,16.1,5.6,24.4
		c-13,0-25.9,0-38.9,0c-0.6,7.6-1.2,15.1-1.8,22.7c9.3,0,18.4,0,27.8,0c-0.4,7.7-0.7,15.1-1.1,22.7c-9.4,0-18.7,0-28.3,0
		C453.6,347.1,452.6,360,451.7,373z"/>
	<path class="st1" d="M578.5,324.3c-0.2-3-0.2-5.8-0.5-8.6c-0.4-3.1-2.3-5-5.3-6c-6.9-2.2-13.9-2-20.8-0.1
		c-3.9,1.1-7.8,2.4-11.8,3.8c0.5-2.2,1-4.5,1.5-6.7c1-4.4,2.1-8.8,3-13.2c0.3-1.2,0.8-1.8,2-2.1c7.2-2,14.4-3.6,21.9-3.6
		c9.5,0,18.5,1.8,26.4,7.3c4.4,3.1,6.9,7.5,7.2,12.8c0.4,6,0.2,12-0.1,18c-0.3,7.7-1,15.3-1.6,22.9c-0.5,7.6-1.1,15.3-1.6,22.9
		c0,0.4-0.1,0.9-0.2,1.4c-7.7,0-15.4,0-23.1,0c0.3-2.6,0.6-5.2,0.9-7.9c-0.5,0.4-0.8,0.7-1.1,1c-4.2,4.7-9.4,7.3-15.8,7.6
		c-6.2,0.4-12.3,0.3-18.1-1.9c-9-3.4-13.9-10.1-14.7-19.6c-0.4-4.8-0.4-9.7,1.3-14.5c3.5-9.7,10.6-15.2,20.2-17.7
		c9.8-2.5,19.3-1.2,28.3,3.6c0.4,0.2,0.8,0.4,1.2,0.6C577.9,324.2,578,324.2,578.5,324.3z M562.5,355.3c4-0.2,7.1-0.5,9.8-2.4
		c5.6-4,5.8-12.6,0.3-16.2c-5.3-3.4-10.8-3.5-16.3-0.5c-4,2.2-5.5,6.1-5.1,10.5c0.3,4.2,2.9,6.7,6.7,7.9
		C559.6,355.1,561.4,355.2,562.5,355.3z"/>
	<path class="st1" d="M211.9,350.3c-5.8,7.6-11.5,15-17.1,22.4c-0.8,1.1-1.7,1.5-3.1,1.5c-9.1-0.1-18.2,0-27.3,0c-0.5,0-1.1,0-2.1,0
		c12.4-14.7,24.5-29,36.7-43.5c-8.1-12.5-16.2-25-24.4-37.6c0.7,0,1.2-0.1,1.7-0.1c8.8,0,17.5,0,26.3,0c1.2,0,1.8,0.4,2.4,1.4
		c3.4,6.1,6.8,12.2,10.3,18.5c1.8-2.4,3.5-4.6,5.2-6.9c3-4,5.9-7.9,8.9-11.9c0.4-0.5,1.1-1.1,1.7-1.1c9.4-0.1,18.7,0,28.6,0
		c-10.7,12.8-21.2,25.2-31.7,37.7c9,14.4,18,28.8,27.2,43.3c-0.7,0-1.2,0.1-1.7,0.1c-8.9,0-17.7,0-26.6,0c-1.2,0-1.9-0.3-2.5-1.4
		c-3.9-7.2-8-14.4-12-21.6C212.3,350.9,212.1,350.7,211.9,350.3z"/>
	<path class="st1" d="M687.1,362.9c4.9-5.7,9.6-11.1,14.4-16.6c5.5,4,11.5,6.6,18.1,7.5c2.5,0.3,5.1,0.1,7.5-0.5
		c3.1-0.7,4.5-3.2,4.9-6.3c0.3-1.9-0.7-3.5-2.4-4c-2.6-0.8-5.2-1.4-7.9-1.9c-6.5-1.3-13.1-2.3-18.7-6.2c-6.9-4.8-9.6-11.6-9.1-19.7
		c0.4-6.5,2.8-12.3,7.1-17.3c4.8-5.6,11-8.6,18.1-9.5c13.6-1.8,25.7,2.2,36.6,10.1c0.2,0.2,0.4,0.4,0.7,0.7
		c-1.3,1.2-2.6,2.4-3.9,3.6c-3.4,3.1-6.9,6-10.3,9.2c-1,0.9-1.7,0.9-2.8,0.3c-4.7-2.4-9.6-4.3-15.1-4.1c-4.4,0.1-6.7,3.2-6,7.4
		c0.3,1.9,1.7,3,3.4,3.5c2.8,0.7,5.6,1.2,8.5,1.8c5.3,1.2,10.6,2.5,15.4,5.1c6,3.3,9.1,8.5,10,15.2c0.7,4.9,0.8,9.7-1.2,14.4
		c-2.8,6.6-8,11-14.4,13.9c-18.2,8.4-35.5,6.1-51.7-5.3C687.9,363.6,687.6,363.3,687.1,362.9z"/>
	<path class="st1" d="M529.5,259.6c-0.6,8.6-1.3,16.8-1.9,25.1c-0.5,6.9-1,13.8-1.5,20.7c-0.6,8.6-1.3,17.2-1.9,25.8
		c-0.5,7-1,13.9-1.5,20.9c-0.5,6.6-0.9,13.1-1.5,19.7c0,0.5-0.7,1.2-1.1,1.2c-8.3,0.1-16.6,0.1-25.2,0.1
		c2.8-37.1,5.6-74.1,8.4-111.3C512,261.1,520.6,260.3,529.5,259.6z"/>
	<path class="st1" d="M140.8,293.1c8.5,0,16.9,0,25.6,0c-1.8,27-3.7,53.9-5.5,81c-8.5,0-17,0-25.6,0
		C137.1,347.1,139,320.1,140.8,293.1z"/>
	<path class="st2" d="M521.1,461.5c-0.8-7.5-1.6-14.7-2.3-21.9c-0.1,0-0.3,0-0.4-0.1c-4,7.2-8.1,14.4-12.3,21.9
		c-3.3-7.5-6.5-14.7-9.8-21.9c-0.1,0-0.2,0-0.4,0c-0.5,2.3-1.1,4.5-1.6,6.8c-1,4.6-2,9.3-3.1,13.9c-0.1,0.5-0.9,1.1-1.3,1.1
		c-2.4-0.2-4.8-0.5-7.4-0.8c3.8-15.2,7.5-30.3,11.3-45.7c4.4,10,8.7,19.8,13.2,29.9c5.6-10,10.9-19.7,16.6-29.8
		c0.4,2.7,0.7,4.9,1,7.2c1.1,8.4,2.2,16.8,3.3,25.3c0.5,3.9,1,7.9,1.5,11.8c0.2,1.1-0.2,1.5-1.3,1.6
		C525.9,460.9,523.7,461.2,521.1,461.5z"/>
	<path class="st2" d="M672.7,461.5c-9,0.4-18.8-7-20.2-18.9c-1.7-14.1,8.5-26,21.5-27.5c8.3-1,15.4,1.4,20.5,8.1
		c5.8,7.6,5.9,16.2,1.9,24.6C692,456.9,684.4,461.4,672.7,461.5z M674.8,453.7c0,0.2,0.1,0.3,0.1,0.5c2.2-0.7,4.6-1.1,6.7-2.1
		c5.4-2.5,9.4-9.6,8.3-17.4c-1.5-10.4-11.9-15-20.8-10c-4.7,2.7-7.2,7.1-7.9,12.4C660,446.3,666.6,454.2,674.8,453.7z"/>
	<path class="st2" d="M560.1,458.7c3.4-4.6,6.7-9,10-13.4c1.6-2.1,3.1-4.2,4.7-6.3c0.7-0.9,0.6-1.5,0.1-2.4
		c-3.7-6.1-7.4-12.2-11.1-18.5c2.6-1.1,5.2-2.2,7.9-3.4c3,5.4,6,10.7,9.1,16.3c3.7-5.6,7.2-10.9,10.8-16.3c2.5,1,5,1.9,7.7,2.9
		c-1.1,1.6-2.1,3.1-3.2,4.6c-3.4,4.8-6.7,9.5-10.2,14.3c-0.7,0.9-0.7,1.6-0.1,2.5c3.9,5.9,7.7,11.9,11.5,17.9
		c0.2,0.3,0.4,0.7,0.7,1.1c-2.5,1-4.9,2.1-7.4,3c-0.4,0.1-1.4-0.4-1.7-0.8c-2.7-4.3-5.2-8.8-7.8-13.1c-0.3-0.6-0.7-1.1-1.2-2
		c-1.7,2.5-3.2,4.8-4.8,7c-1.9,2.8-3.8,5.5-5.7,8.3c-0.3,0.4-1.1,0.9-1.4,0.8C565.4,460.6,562.8,459.7,560.1,458.7z"/>
	<path class="st2" d="M535.8,416.2c0.7,0,1.2-0.1,1.8-0.1c6.8,0,13.5,0,20.3,0c1.3,0,2,0.2,2.1,1.7c0.1,1.9,0.6,3.8,1,5.9
		c-0.8,0-1.4,0-2,0c-4.4,0-8.9,0.1-13.3,0c-1.4,0-1.8,0.5-1.8,1.7c0,2.4-0.2,4.8-0.3,7.5c4.5,0,8.8,0,13.2,0
		c-0.2,2.8-0.3,5.4-0.5,8.1c-4.4,0-8.7,0-13.1,0c-0.2,3.5-0.4,6.8-0.7,10.1c-0.1,1.4,0.7,1.3,1.6,1.3c5.6,0,11.2,0,17.2,0
		c-1.1,2.7-2.1,5.2-3.2,7.7c-0.1,0.3-0.7,0.5-1.1,0.5c-7.6,0-15.1,0-22.7,0c-0.2,0-0.4-0.1-1-0.2C534.1,445.7,534.9,431,535.8,416.2
		z"/>
	<path class="st2" d="M648.1,450.1c-0.5,3.1-0.9,5.9-1.4,8.6c-0.1,0.6-0.8,1.2-1.4,1.4c-7.9,2.8-16.8,1.3-23.1-5.4
		c-9.7-10.4-6.8-29.5,7.6-37.1c5.5-2.9,11.2-3.5,17.1-1.9c1,0.3,1.7,0.7,1.7,1.9c0.1,2.5,0.4,5.1,0.6,7.9c-1-0.5-1.8-1-2.5-1.4
		c-8.2-3.8-16.9-0.1-20.1,8.7c-1.9,5-1.8,9.9,1,14.6c4,6.6,12.1,8.2,19,3.7C647,450.9,647.4,450.6,648.1,450.1z"/>
	<path class="st1" d="M140.8,288.6c0.8-8.3,1.5-16.3,2.2-24.5c12.5,4,24.9,8,37.3,12c0,0.1,0,0.2,0,0.4
		C167.3,280.4,154.2,284.5,140.8,288.6z"/>
	<path class="st2" d="M603.6,415.9c3-0.2,5.8-0.3,8.8-0.5c-0.2,3.4-0.3,6.5-0.5,9.7c-0.3,5-0.6,10-0.9,14.9
		c-0.4,6.2-0.7,12.5-1.1,18.7c-0.1,1.4-0.6,2-2.1,2c-2.1-0.1-4.3,0-6.8,0C601.9,446,602.8,431,603.6,415.9z"/>
	<path class="st1" d="M762,276.2c-5.4,0-9.7,4.3-9.8,9.7c0,5.5,4.2,9.9,9.7,9.9c5.5,0,9.8-4.3,9.8-9.9
		C771.7,280.5,767.4,276.2,762,276.2z M761.9,294.1c-4.6,0-8.1-3.6-8.1-8.3c0-4.5,3.6-8.1,8.1-8.1c4.5,0,8.1,3.6,8.1,8.1
		C770.1,290.5,766.5,294.1,761.9,294.1z"/>
	<g>
		<path d="M757.9,280.4c0.8-0.1,2.1-0.2,3.5-0.2c1.7,0,2.8,0.2,3.7,0.9c0.7,0.5,1.1,1.3,1.1,2.3c0,1.3-1,2.3-1.8,2.6v0
			c0.7,0.3,1.1,1,1.4,1.9c0.3,1.1,0.7,2.7,0.9,3.1h-3c-0.2-0.3-0.4-1.2-0.8-2.5c-0.3-1.3-0.7-1.6-1.6-1.6h-0.5v4.1h-2.9V280.4z
			 M760.8,284.9h0.8c1.1,0,1.7-0.5,1.7-1.3c0-0.8-0.5-1.3-1.5-1.3c-0.5,0-0.8,0-1,0.1V284.9z"/>
	</g>
</g>
<g id="Layer_2">
	<polygon class="st3" points="279.3,354.1 288.4,431.4 409.9,382.3 	"/>
	<polygon class="st3" points="293.8,337.5 370.1,331.9 409.3,118.1 275,105.4 	"/>
	<polygon class="st4" points="308.6,384.7 313.5,382.4 273.1,152.9 318.8,142 257.4,123.4 	"/>
	<polygon class="st5" points="304.3,267.1 255.4,247.7 293.4,390.1 297.9,388.5 270.7,277.3 	"/>
	<polygon class="st6" points="339.7,376.9 345.3,379.7 335.1,112.3 386.5,101.4 322,82.7 	"/>
	<polygon class="st7" points="323.6,378.8 329,376.9 310.6,205.4 352.8,194.6 297.6,175.2 	"/>
	<polygon class="st8" points="356.6,383 361.7,384.2 368.2,175.2 413.6,164.5 359.2,145.6 	"/>
	<polygon class="st9" points="372.1,388.1 377,390.3 392.1,236.2 432.4,225.4 385.1,205.2 	"/>
</g>
</svg>
