<?xml version="1.0" encoding="utf-8"?>
<!-- Generator: Adobe Illustrator 22.1.0, SVG Export Plug-In . SVG Version: 6.00 Build 0)  -->
<svg version="1.1" id="Capa_1" xmlns="http://www.w3.org/2000/svg" xmlns:xlink="http://www.w3.org/1999/xlink" x="0px" y="0px"
	 viewBox="0 0 340.2 340.2" style="enable-background:new 0 0 340.2 340.2;" xml:space="preserve">
<style type="text/css">
	.st0{fill:#EA0029;}
	.st1{fill:#FFFFFF;}
	.st2{fill:#FFDA00;}
	.st3{fill:#574545;}
</style>
<g>
	<g>
		<path class="st0" d="M265.6,117.2c9.8,37-24.8,78.4-77.5,92.4c-52.6,14-103.3-4.7-113.1-41.7c-9.9-37,24.8-78.4,77.5-92.4
			C205.1,61.5,255.8,80.2,265.6,117.2"/>
		<g>
			<polygon class="st1" points="126.9,144.5 135.1,126.9 148.8,126.9 130.8,161.3 123,161.3 105,126.9 118.7,126.9 			"/>
			<path class="st1" d="M157.7,129c-2.3,0-4.4-0.8-6.1-2.2v34.4h12.2v-34.4C162.2,128.2,160,129,157.7,129"/>
			<path class="st2" d="M165.7,117.1c0,4.4-3.6,8-8,8c-4.4,0-8-3.6-8-8c0-4.4,3.6-8,8-8C162.1,109.1,165.7,112.7,165.7,117.1"/>
			<path class="st1" d="M227.7,139.4c-1.7-0.3-5.5-0.7-5.5-3c0-1.7,2.4-2.4,3.8-2.4c2.1,0,4.7,0.7,6.6,1.7l4.1-7.8
				c-3.6-1.6-7.5-2.2-11.3-2.2c-7.5,0-15.2,3.8-15.2,12.2c0,6.2,3.8,8.1,7.7,9.1c3.8,1,7.7,1.1,7.7,3.8c0,1.9-2.3,2.6-3.8,2.6
				c-3.5,0-8-2.3-10.5-4.1c-0.7,3.2-2.1,6.3-4,8.8c4.4,2.8,9.5,4.2,14.3,4.2c8,0,16.3-3.8,16.3-12.8
				C237.7,143.2,233.4,140.5,227.7,139.4"/>
			<path class="st1" d="M190.5,125.7c-4,0-8.2,1.6-10.4,5h-0.1v-3.9h-12.2v51.6h12.2V158c2.6,3,6.7,4.4,10.7,4.4
				c10.2,0,17.2-8.3,17.2-18.3C207.9,134.3,200.8,125.7,190.5,125.7 M187.6,152.4c-4.4,0-8-3.6-8-8c0-4.4,3.6-8,8-8c4.4,0,8,3.6,8,8
				C195.5,148.8,191.9,152.4,187.6,152.4"/>
		</g>
		<path class="st0" d="M262.9,80.7c0,3-1.5,5.7-5.4,5.7c-3.9,0-5.5-2.7-5.5-5.7c0-3,1.6-5.6,5.5-5.6C261.4,75,262.9,77.7,262.9,80.7
			 M261.9,80.7c0-2.5-1.2-4.7-4.4-4.7c-3.3,0-4.4,2.2-4.4,4.7c0,2.6,1.2,4.7,4.4,4.7C260.7,85.4,261.9,83.3,261.9,80.7 M255.2,77.7
			c0-0.2,0.1-0.3,0.3-0.3h2.3c1.7,0,2.7,0.8,2.7,2.1c0,1.2-0.7,1.8-1.6,1.9l1.6,2c0.1,0.1,0,0.3-0.2,0.3h-0.9c-0.1,0-0.2,0-0.3-0.2
			l-1.5-2h-1.1v1.9c0,0.2-0.1,0.2-0.2,0.2h-0.7c-0.2,0-0.3-0.1-0.3-0.2V77.7z M257.5,80.7c1.3,0,1.8-0.3,1.8-1.1
			c0-0.8-0.5-1.1-1.7-1.1h-1.2v2.2H257.5z"/>
	</g>
	<g>
		<g>
			<g>
				<g>
					<g>
						<path class="st3" d="M294,269.3H46.2c-3.3,0-6-2.5-6-5.5v-22.3c0-3,2.7-5.5,6-5.5H294c3.3,0,6,2.5,6,5.5v22.3
							C300,266.8,297.3,269.3,294,269.3 M46.2,236.6c-2.9,0-5.3,2.2-5.3,4.8v22.3c0,2.7,2.4,4.8,5.3,4.8H294c2.9,0,5.3-2.2,5.3-4.8
							v-22.3c0-2.7-2.4-4.8-5.3-4.8H46.2z"/>
					</g>
				</g>
				<g>
					<path class="st3" d="M65.7,261c0,0.3-0.2,0.5-0.5,0.5h-1.5c-0.3,0-0.5-0.1-0.6-0.4L53.3,246v15c0,0.3-0.1,0.5-0.4,0.5h-1.4
						c-0.3,0-0.5-0.1-0.5-0.5v-18.6c0-0.3,0.1-0.4,0.5-0.4H53c0.3,0,0.5,0.1,0.7,0.3l9.7,15.2v-15.1c0-0.3,0.1-0.4,0.4-0.4h1.4
						c0.3,0,0.5,0.1,0.5,0.4V261z"/>
					<path class="st3" d="M69.3,254.3c0-4.9,2.6-7.5,6.8-7.5c4.1,0,6.8,2.6,6.8,7.5c0,4.9-2.7,7.5-6.8,7.5
						C72,261.8,69.3,259.1,69.3,254.3z M80.6,254.3c0-3.7-1.7-5.5-4.5-5.5c-2.8,0-4.5,1.8-4.5,5.5s1.7,5.5,4.5,5.5
						C78.9,259.8,80.6,258,80.6,254.3z"/>
					<path class="st3" d="M90.2,261.8c-1.7,0-3.4-0.3-4.6-0.8c-0.2-0.1-0.4-0.2-0.3-0.4l0.4-1.2c0.1-0.2,0.2-0.4,0.5-0.2
						c1.1,0.4,2.4,0.7,3.9,0.7c2.3,0,3.4-0.5,3.4-2.1c0-1.5-1.4-2.1-3.6-2.9c-2.2-0.8-4.4-1.4-4.4-4.3c0-2.4,1.6-3.8,5-3.8
						c1.8,0,3.3,0.3,4.4,0.8c0.2,0.1,0.4,0.2,0.3,0.4l-0.4,1.1c-0.1,0.2-0.2,0.4-0.5,0.2c-1-0.4-2.1-0.7-3.5-0.7
						c-2.2,0-3.1,0.5-3.1,1.9c0,1.5,1.4,2,3.6,2.7c2.5,0.9,4.5,2,4.5,4.4C95.6,260.6,93.5,261.8,90.2,261.8z"/>
					<path class="st3" d="M110.8,261.5c-0.3,0-0.4-0.1-0.5-0.4l-4.8-13.5c-0.1-0.3,0-0.5,0.3-0.5h1.4c0.3,0,0.4,0.2,0.5,0.4l2.6,7.2
						l1.4,4.4h0.1l1.4-4.4l2.5-7.2c0.1-0.2,0.2-0.4,0.5-0.4h1.5c0.3,0,0.4,0.2,0.3,0.5l-4.8,13.5c-0.1,0.2-0.2,0.4-0.5,0.4H110.8z"
						/>
					<path class="st3" d="M130.6,259c0.3-0.2,0.5,0,0.6,0.2l0.4,1c0.1,0.2-0.1,0.4-0.3,0.5c-1.1,0.6-2.7,1-4.4,1
						c-4.5,0-7.3-2.9-7.3-7.5c0-4.9,2.6-7.6,6.6-7.6c4.1,0,6.3,2.8,6.3,6.7v1.4c0,0.3-0.1,0.4-0.5,0.4h-10.2
						c0.2,2.7,2.2,4.6,5.2,4.6C128.6,259.9,129.5,259.6,130.6,259z M121.8,253.4h8.5v-0.1c0-2.7-1.3-4.6-4.1-4.6
						C123.5,248.7,121.9,250.2,121.8,253.4z"/>
					<path class="st3" d="M147.3,261c0,0.3-0.1,0.4-0.4,0.4h-1.3c-0.3,0-0.4-0.1-0.4-0.4v-8.9c0-2.1-0.8-3.3-3.1-3.3
						c-2.5,0-4,1.6-4,3.9v8.2c0,0.3-0.1,0.4-0.4,0.4h-1.3c-0.3,0-0.4-0.1-0.4-0.4v-13.5c0-0.3,0.1-0.4,0.4-0.4h1.3
						c0.3,0,0.4,0.1,0.4,0.4v1.8c0.4-1.1,1.8-2.6,4.5-2.6c2.4,0,3.7,1,4.3,2.7c0.7-1.5,2.1-2.7,5-2.7c3.2,0,4.7,2.1,4.7,5.1v9.2
						c0,0.3-0.1,0.4-0.4,0.4h-1.3c-0.3,0-0.4-0.1-0.4-0.4v-8.9c0-2.1-0.8-3.3-3.1-3.3c-2.4,0-4,1.6-4,3.7V261z"/>
					<path class="st3" d="M159.8,254.3c0-4.9,2.6-7.5,6.8-7.5c4.1,0,6.8,2.6,6.8,7.5c0,4.9-2.7,7.5-6.8,7.5
						C162.4,261.8,159.8,259.1,159.8,254.3z M171.1,254.3c0-3.7-1.7-5.5-4.5-5.5c-2.8,0-4.5,1.8-4.5,5.5s1.7,5.5,4.5,5.5
						C169.4,259.8,171.1,258,171.1,254.3z"/>
					<path class="st3" d="M180.6,261.8c-1.7,0-3.4-0.3-4.6-0.8c-0.2-0.1-0.4-0.2-0.3-0.4l0.4-1.2c0.1-0.2,0.2-0.4,0.5-0.2
						c1.1,0.4,2.4,0.7,3.9,0.7c2.3,0,3.4-0.5,3.4-2.1c0-1.5-1.4-2.1-3.6-2.9c-2.2-0.8-4.4-1.4-4.4-4.3c0-2.4,1.6-3.8,5-3.8
						c1.8,0,3.3,0.3,4.4,0.8c0.2,0.1,0.4,0.2,0.3,0.4l-0.4,1.1c-0.1,0.2-0.2,0.4-0.5,0.2c-1-0.4-2.1-0.7-3.5-0.7
						c-2.2,0-3.1,0.5-3.1,1.9c0,1.5,1.4,2,3.6,2.7c2.5,0.9,4.5,2,4.5,4.4C186,260.6,184,261.8,180.6,261.8z"/>
					<path class="st3" d="M207.6,259c0.3-0.2,0.5,0,0.6,0.2l0.4,1c0.1,0.2-0.1,0.4-0.3,0.5c-1.1,0.6-2.7,1-4.4,1
						c-4.5,0-7.3-2.9-7.3-7.5c0-4.9,2.6-7.6,6.6-7.6c4.1,0,6.3,2.8,6.3,6.7v1.4c0,0.3-0.1,0.4-0.5,0.4h-10.2
						c0.2,2.7,2.2,4.6,5.2,4.6C205.6,259.9,206.5,259.6,207.6,259z M198.8,253.4h8.5v-0.1c0-2.7-1.3-4.6-4.1-4.6
						C200.5,248.7,198.9,250.2,198.8,253.4z"/>
					<path class="st3" d="M225,261c0,0.3-0.1,0.4-0.4,0.4h-1.3c-0.3,0-0.4-0.1-0.4-0.4v-8.7c0-2.2-1-3.4-3.5-3.4
						c-2.6,0-4.3,1.6-4.3,4.1v8.1c0,0.3-0.1,0.4-0.4,0.4h-1.3c-0.3,0-0.4-0.1-0.4-0.4v-13.5c0-0.3,0.1-0.4,0.4-0.4h1.3
						c0.3,0,0.4,0.1,0.4,0.4l0,1.8c0.6-1.2,1.9-2.6,4.9-2.6c3.4,0,5.1,2.1,5.1,5.2V261z"/>
					<path class="st3" d="M242.5,261.5c-0.5,0-0.7-0.2-0.9-0.7l-6.1-18.1c-0.2-0.5,0.1-0.8,0.5-0.8h2.7c0.5,0,0.7,0.2,0.8,0.6
						l3.3,10.4l1.2,4.6h0.1l1.2-4.6l3.3-10.4c0.1-0.4,0.3-0.6,0.8-0.6h2.7c0.4,0,0.7,0.3,0.5,0.8l-6.1,18.1
						c-0.2,0.5-0.4,0.7-0.9,0.7H242.5z"/>
					<path class="st3" d="M258.7,244.6c0,0.4-0.2,0.6-0.6,0.6h-2.5c-0.4,0-0.6-0.2-0.6-0.6v-1.9c0-0.4,0.2-0.6,0.6-0.6h2.5
						c0.4,0,0.6,0.2,0.6,0.6V244.6z M258.7,260.8c0,0.4-0.2,0.6-0.6,0.6h-2.4c-0.4,0-0.6-0.2-0.6-0.6v-13.4c0-0.4,0.2-0.6,0.6-0.6
						h2.4c0.4,0,0.6,0.2,0.6,0.6V260.8z"/>
					<path class="st3" d="M265.8,248.9c0.8-1.5,2.8-2.4,4.7-2.4c3.8,0,6.1,2.5,6.1,7.6c0,5.1-2.3,7.6-6.1,7.6
						c-1.9,0-3.8-0.7-4.6-2.3v4.4c0,0.4-0.2,0.6-0.6,0.6h-2.4c-0.4,0-0.7-0.2-0.7-0.6v-16.4c0-0.4,0.2-0.6,0.7-0.6h2.1
						c0.4,0,0.6,0.2,0.7,0.6L265.8,248.9z M269.5,258.8c2.3,0,3.5-1.3,3.5-4.7c0-3.4-1.2-4.7-3.5-4.7c-2.3,0-3.6,1.5-3.6,4.7
						C265.9,257.4,267.2,258.8,269.5,258.8z"/>
					<path class="st3" d="M283.8,261.8c-1.9,0-3.6-0.3-4.8-0.8c-0.4-0.1-0.5-0.4-0.4-0.7l0.4-1.4c0.1-0.4,0.3-0.6,0.8-0.4
						c0.9,0.3,2.1,0.6,3.4,0.6c1.9,0,2.9-0.4,2.9-1.6c0-1.1-1.1-1.6-2.9-2.2c-2.2-0.7-4.5-1.4-4.5-4.6c0-2.7,2-4.1,5.5-4.1
						c1.8,0,3.4,0.3,4.5,0.8c0.4,0.2,0.5,0.4,0.4,0.7l-0.4,1.4c-0.1,0.4-0.3,0.6-0.8,0.4c-0.9-0.3-1.9-0.6-3.1-0.6
						c-1.7,0-2.5,0.4-2.5,1.4c0,1.1,1.2,1.6,3,2.2c2.5,0.9,4.5,1.9,4.5,4.6C289.7,260.8,287.1,261.8,283.8,261.8z"/>
				</g>
			</g>
		</g>
	</g>
	<g>
		<g>
			<path class="st3" d="M293.3,243.8c0,0.9-0.5,1.8-1.7,1.8c-1.2,0-1.7-0.9-1.7-1.8c0-0.9,0.5-1.8,1.7-1.8
				C292.9,242,293.3,242.8,293.3,243.8z M293,243.8c0-0.8-0.4-1.5-1.4-1.5c-1,0-1.4,0.7-1.4,1.5c0,0.8,0.4,1.5,1.4,1.5
				C292.7,245.3,293,244.6,293,243.8z M290.9,242.8C290.9,242.8,290.9,242.7,290.9,242.8l0.8-0.1c0.5,0,0.9,0.2,0.9,0.7
				c0,0.4-0.2,0.6-0.5,0.6l0.5,0.6c0,0,0,0.1-0.1,0.1h-0.3c0,0-0.1,0-0.1-0.1l-0.5-0.6h-0.4v0.6c0,0.1,0,0.1-0.1,0.1H291
				c-0.1,0-0.1,0-0.1-0.1V242.8z M291.6,243.8c0.4,0,0.6-0.1,0.6-0.3c0-0.2-0.2-0.3-0.5-0.3h-0.4v0.7H291.6z"/>
		</g>
	</g>
</g>
</svg>
